%TF.GenerationSoftware,KiCad,Pcbnew,(6.0.0)*%
%TF.CreationDate,2022-01-14T09:56:19+02:00*%
%TF.ProjectId,uSDX_BPF,75534458-5f42-4504-962e-6b696361645f,rev?*%
%TF.SameCoordinates,Original*%
%TF.FileFunction,Copper,L2,Bot*%
%TF.FilePolarity,Positive*%
%FSLAX46Y46*%
G04 Gerber Fmt 4.6, Leading zero omitted, Abs format (unit mm)*
G04 Created by KiCad (PCBNEW (6.0.0)) date 2022-01-14 09:56:19*
%MOMM*%
%LPD*%
G01*
G04 APERTURE LIST*
%TA.AperFunction,ComponentPad*%
%ADD10C,1.600000*%
%TD*%
%TA.AperFunction,ComponentPad*%
%ADD11C,2.000000*%
%TD*%
%TA.AperFunction,ViaPad*%
%ADD12C,0.800000*%
%TD*%
%TA.AperFunction,Conductor*%
%ADD13C,1.000000*%
%TD*%
G04 APERTURE END LIST*
D10*
%TO.P,C6,2*%
%TO.N,GND*%
X93940000Y-45466000D03*
%TO.P,C6,1*%
%TO.N,Net-(C5-Pad1)*%
X91440000Y-45466000D03*
%TD*%
%TO.P,C5,2*%
%TO.N,Net-(C4-Pad1)*%
X85130000Y-45466000D03*
%TO.P,C5,1*%
%TO.N,Net-(C5-Pad1)*%
X87630000Y-45466000D03*
%TD*%
%TO.P,C4,2*%
%TO.N,GND*%
X81240000Y-45466000D03*
%TO.P,C4,1*%
%TO.N,Net-(C4-Pad1)*%
X78740000Y-45466000D03*
%TD*%
%TO.P,C3,2*%
%TO.N,GND*%
X74890000Y-45466000D03*
%TO.P,C3,1*%
%TO.N,Net-(C3-Pad1)*%
X72390000Y-45466000D03*
%TD*%
%TO.P,C2,2*%
%TO.N,GND*%
X68540000Y-45466000D03*
%TO.P,C2,1*%
%TO.N,Net-(C2-Pad1)*%
X66040000Y-45466000D03*
%TD*%
%TO.P,C1,2*%
%TO.N,GND*%
X62190000Y-45466000D03*
%TO.P,C1,1*%
%TO.N,Net-(C1-Pad1)*%
X59690000Y-45466000D03*
%TD*%
D11*
%TO.P,L4,2*%
%TO.N,Net-(L4-Pad2)*%
X92710000Y-38862000D03*
%TO.P,L4,1*%
%TO.N,Net-(C5-Pad1)*%
X87630000Y-38862000D03*
%TD*%
%TO.P,L3,2*%
%TO.N,Net-(C4-Pad1)*%
X83820000Y-38862000D03*
%TO.P,L3,1*%
%TO.N,Net-(C3-Pad1)*%
X78740000Y-38862000D03*
%TD*%
%TO.P,L2,2*%
%TO.N,Net-(C3-Pad1)*%
X74930000Y-38862000D03*
%TO.P,L2,1*%
%TO.N,Net-(C2-Pad1)*%
X69850000Y-38862000D03*
%TD*%
%TO.P,L1,2*%
%TO.N,Net-(C2-Pad1)*%
X66040000Y-38862000D03*
%TO.P,L1,1*%
%TO.N,Net-(C1-Pad1)*%
X60960000Y-38862000D03*
%TD*%
%TO.P,GND,1*%
%TO.N,GND*%
X55880000Y-36322000D03*
%TD*%
%TO.P, ,1*%
%TO.N,GND*%
X55880000Y-38862000D03*
%TD*%
%TO.P,ANT2,1*%
%TO.N,Net-(C1-Pad1)*%
X55880000Y-41402000D03*
%TD*%
%TO.P,ANT1,1*%
%TO.N,Net-(C1-Pad1)*%
X55880000Y-43942000D03*
%TD*%
%TO.P,+12V,1*%
%TO.N,Net-(L4-Pad2)*%
X97790000Y-36322000D03*
%TD*%
%TO.P,TX,1*%
%TO.N,Net-(C5-Pad1)*%
X97790000Y-38862000D03*
%TD*%
%TO.P,RX,1*%
%TO.N,Net-(C4-Pad1)*%
X97790000Y-41402000D03*
%TD*%
%TO.P,GND,1*%
%TO.N,GND*%
X97790000Y-43942000D03*
%TD*%
D12*
%TO.N,GND*%
X57912000Y-34798000D03*
X66548000Y-35052000D03*
X63500000Y-35052000D03*
X59944000Y-42672000D03*
X63500000Y-38862000D03*
X63500000Y-43180000D03*
X71120000Y-40386000D03*
X72390000Y-37846000D03*
X70612000Y-34544000D03*
X74422000Y-34544000D03*
X68072000Y-37084000D03*
X70358000Y-42672000D03*
X68072000Y-43180000D03*
X74168000Y-42672000D03*
X76708000Y-37084000D03*
X76962000Y-40640000D03*
X76708000Y-43434000D03*
X82296000Y-36830000D03*
X79756000Y-35814000D03*
X79756000Y-40640000D03*
X84582000Y-35052000D03*
X88138000Y-35052000D03*
X86360000Y-40894000D03*
X86360000Y-43180000D03*
X85852000Y-38100000D03*
X57912000Y-39878000D03*
X90678000Y-35560000D03*
X91694000Y-37084000D03*
X89154000Y-41402000D03*
X90170000Y-42672000D03*
X94488000Y-42672000D03*
X96012000Y-42672000D03*
X96012000Y-45212000D03*
X95758000Y-37846000D03*
X94488000Y-39116000D03*
X93472000Y-35052000D03*
X83566000Y-41910000D03*
X82296000Y-43180000D03*
%TD*%
D13*
%TO.N,Net-(C1-Pad1)*%
X55880000Y-41402000D02*
X55880000Y-43942000D01*
X58166000Y-43942000D02*
X59690000Y-45466000D01*
X55880000Y-43942000D02*
X58166000Y-43942000D01*
X58420000Y-41402000D02*
X60960000Y-38862000D01*
X55880000Y-41402000D02*
X58420000Y-41402000D01*
%TO.N,Net-(C2-Pad1)*%
X66040000Y-38862000D02*
X69850000Y-38862000D01*
X66040000Y-38862000D02*
X66040000Y-45466000D01*
%TO.N,Net-(C3-Pad1)*%
X72390000Y-41402000D02*
X74930000Y-38862000D01*
X72390000Y-45466000D02*
X72390000Y-41402000D01*
X74930000Y-38862000D02*
X78740000Y-38862000D01*
%TO.N,Net-(C4-Pad1)*%
X78740000Y-43942000D02*
X83820000Y-38862000D01*
X78740000Y-45466000D02*
X78740000Y-43942000D01*
X85130000Y-40172000D02*
X83820000Y-38862000D01*
X85130000Y-45466000D02*
X85130000Y-40172000D01*
%TO.N,Net-(C5-Pad1)*%
X87630000Y-38862000D02*
X87630000Y-45466000D01*
X91440000Y-45466000D02*
X91440000Y-43942000D01*
X91440000Y-43942000D02*
X96520000Y-38862000D01*
X96520000Y-38862000D02*
X97790000Y-38862000D01*
X87630000Y-45466000D02*
X91440000Y-45466000D01*
%TO.N,Net-(L4-Pad2)*%
X92710000Y-38862000D02*
X95250000Y-36322000D01*
X95250000Y-36322000D02*
X97790000Y-36322000D01*
%TD*%
%TA.AperFunction,Conductor*%
%TO.N,GND*%
G36*
X98538486Y-33171670D02*
G01*
X98545767Y-33173621D01*
X98545768Y-33173621D01*
X98552000Y-33175291D01*
X98558232Y-33173621D01*
X98564683Y-33173621D01*
X98564683Y-33173686D01*
X98574902Y-33173015D01*
X98638264Y-33181357D01*
X98650617Y-33184668D01*
X98725042Y-33215495D01*
X98736114Y-33221887D01*
X98800029Y-33270931D01*
X98809069Y-33279971D01*
X98858113Y-33343886D01*
X98864506Y-33354960D01*
X98895332Y-33429382D01*
X98898643Y-33441737D01*
X98906985Y-33505097D01*
X98906314Y-33515317D01*
X98906379Y-33515317D01*
X98906379Y-33521768D01*
X98904709Y-33528000D01*
X98906379Y-33534232D01*
X98906379Y-33534233D01*
X98908330Y-33541514D01*
X98910000Y-33554196D01*
X98910000Y-35668868D01*
X98895648Y-35703516D01*
X98861000Y-35717868D01*
X98826352Y-35703516D01*
X98819223Y-35694474D01*
X98818972Y-35694064D01*
X98817980Y-35692053D01*
X98765211Y-35621387D01*
X98687315Y-35517072D01*
X98687314Y-35517071D01*
X98685967Y-35515267D01*
X98523949Y-35365499D01*
X98337350Y-35247764D01*
X98256389Y-35215464D01*
X98134505Y-35166837D01*
X98134501Y-35166836D01*
X98132421Y-35166006D01*
X98130220Y-35165568D01*
X98130216Y-35165567D01*
X97988988Y-35137475D01*
X97916024Y-35122962D01*
X97810920Y-35121586D01*
X97697654Y-35120103D01*
X97697649Y-35120103D01*
X97695406Y-35120074D01*
X97693189Y-35120455D01*
X97693188Y-35120455D01*
X97626857Y-35131853D01*
X97477957Y-35157438D01*
X97475853Y-35158214D01*
X97475850Y-35158215D01*
X97273065Y-35233026D01*
X97273062Y-35233027D01*
X97270957Y-35233804D01*
X97269029Y-35234951D01*
X97269027Y-35234952D01*
X97083272Y-35345465D01*
X97081341Y-35346614D01*
X97079653Y-35348094D01*
X97079652Y-35348095D01*
X97058067Y-35367025D01*
X96915457Y-35492090D01*
X96828152Y-35602837D01*
X96795431Y-35621160D01*
X96789672Y-35621500D01*
X95276025Y-35621500D01*
X95272692Y-35621387D01*
X95225927Y-35618199D01*
X95213070Y-35617322D01*
X95153994Y-35627633D01*
X95148900Y-35628522D01*
X95146365Y-35628897D01*
X95081680Y-35636724D01*
X95078915Y-35637769D01*
X95078914Y-35637769D01*
X95068653Y-35641646D01*
X95059760Y-35644079D01*
X95056246Y-35644692D01*
X95046046Y-35646473D01*
X94986385Y-35672662D01*
X94984055Y-35673614D01*
X94943153Y-35689069D01*
X94925842Y-35695610D01*
X94925841Y-35695611D01*
X94923077Y-35696655D01*
X94920640Y-35698330D01*
X94920636Y-35698332D01*
X94911603Y-35704540D01*
X94903545Y-35709025D01*
X94893507Y-35713432D01*
X94893504Y-35713434D01*
X94890797Y-35714622D01*
X94886567Y-35717868D01*
X94839116Y-35754278D01*
X94837041Y-35755786D01*
X94798362Y-35782370D01*
X94783349Y-35792688D01*
X94781384Y-35794893D01*
X94781381Y-35794896D01*
X94740929Y-35840299D01*
X94738992Y-35842351D01*
X92923237Y-37658106D01*
X92888589Y-37672458D01*
X92879035Y-37671517D01*
X92836024Y-37662962D01*
X92734677Y-37661635D01*
X92617654Y-37660103D01*
X92617649Y-37660103D01*
X92615406Y-37660074D01*
X92613189Y-37660455D01*
X92613188Y-37660455D01*
X92548811Y-37671517D01*
X92397957Y-37697438D01*
X92395853Y-37698214D01*
X92395850Y-37698215D01*
X92193065Y-37773026D01*
X92193062Y-37773027D01*
X92190957Y-37773804D01*
X92189029Y-37774951D01*
X92189027Y-37774952D01*
X92003272Y-37885465D01*
X92001341Y-37886614D01*
X91999653Y-37888094D01*
X91999652Y-37888095D01*
X91978067Y-37907025D01*
X91835457Y-38032090D01*
X91834073Y-38033846D01*
X91834069Y-38033850D01*
X91727729Y-38168743D01*
X91698863Y-38205360D01*
X91697817Y-38207348D01*
X91614486Y-38365734D01*
X91596131Y-38400620D01*
X91530703Y-38611333D01*
X91530439Y-38613565D01*
X91530438Y-38613569D01*
X91521630Y-38687987D01*
X91504770Y-38830440D01*
X91519200Y-39050604D01*
X91519753Y-39052783D01*
X91519754Y-39052787D01*
X91543320Y-39145577D01*
X91573511Y-39264452D01*
X91574447Y-39266482D01*
X91574449Y-39266488D01*
X91664940Y-39462776D01*
X91665883Y-39464821D01*
X91793222Y-39645002D01*
X91811616Y-39662921D01*
X91949660Y-39797399D01*
X91949663Y-39797402D01*
X91951264Y-39798961D01*
X91953126Y-39800205D01*
X91953127Y-39800206D01*
X92126399Y-39915982D01*
X92134717Y-39921540D01*
X92337436Y-40008635D01*
X92366697Y-40015256D01*
X92550442Y-40056834D01*
X92550448Y-40056835D01*
X92552632Y-40057329D01*
X92645492Y-40060977D01*
X92770851Y-40065903D01*
X92770854Y-40065903D01*
X92773098Y-40065991D01*
X92775317Y-40065669D01*
X92775322Y-40065669D01*
X92904310Y-40046966D01*
X92991452Y-40034331D01*
X92993574Y-40033611D01*
X92993577Y-40033610D01*
X93135781Y-39985338D01*
X93200379Y-39963410D01*
X93222473Y-39951037D01*
X93390922Y-39856701D01*
X93390924Y-39856700D01*
X93392884Y-39855602D01*
X93402215Y-39847842D01*
X93560795Y-39715951D01*
X93562518Y-39714518D01*
X93607042Y-39660984D01*
X93702166Y-39546611D01*
X93702168Y-39546609D01*
X93703602Y-39544884D01*
X93745650Y-39469803D01*
X93810314Y-39354336D01*
X93811410Y-39352379D01*
X93882331Y-39143452D01*
X93913991Y-38925098D01*
X93915643Y-38862000D01*
X93899654Y-38687987D01*
X93910775Y-38652171D01*
X93913800Y-38648856D01*
X95525804Y-37036852D01*
X95560452Y-37022500D01*
X96789543Y-37022500D01*
X96824191Y-37036852D01*
X96829558Y-37043220D01*
X96871921Y-37103163D01*
X96871929Y-37103172D01*
X96873222Y-37105002D01*
X96874826Y-37106565D01*
X96874829Y-37106568D01*
X97029660Y-37257399D01*
X97029663Y-37257402D01*
X97031264Y-37258961D01*
X97033126Y-37260205D01*
X97033127Y-37260206D01*
X97206399Y-37375982D01*
X97214717Y-37381540D01*
X97417436Y-37468635D01*
X97446697Y-37475256D01*
X97630442Y-37516834D01*
X97630448Y-37516835D01*
X97632632Y-37517329D01*
X97725492Y-37520977D01*
X97850851Y-37525903D01*
X97850854Y-37525903D01*
X97853098Y-37525991D01*
X97855317Y-37525669D01*
X97855322Y-37525669D01*
X97962275Y-37510161D01*
X98071452Y-37494331D01*
X98073574Y-37493611D01*
X98073577Y-37493610D01*
X98215781Y-37445338D01*
X98280379Y-37423410D01*
X98302473Y-37411037D01*
X98470922Y-37316701D01*
X98470924Y-37316700D01*
X98472884Y-37315602D01*
X98497604Y-37295043D01*
X98640795Y-37175951D01*
X98642518Y-37174518D01*
X98751718Y-37043220D01*
X98782166Y-37006611D01*
X98782168Y-37006609D01*
X98783602Y-37004884D01*
X98818248Y-36943019D01*
X98847699Y-36919801D01*
X98884942Y-36924209D01*
X98908160Y-36953660D01*
X98910000Y-36966961D01*
X98910000Y-38208868D01*
X98895648Y-38243516D01*
X98861000Y-38257868D01*
X98826352Y-38243516D01*
X98819223Y-38234474D01*
X98818972Y-38234064D01*
X98817980Y-38232053D01*
X98765211Y-38161387D01*
X98687315Y-38057072D01*
X98687314Y-38057071D01*
X98685967Y-38055267D01*
X98523949Y-37905499D01*
X98337350Y-37787764D01*
X98256389Y-37755464D01*
X98134505Y-37706837D01*
X98134501Y-37706836D01*
X98132421Y-37706006D01*
X98130220Y-37705568D01*
X98130216Y-37705567D01*
X97984718Y-37676626D01*
X97916024Y-37662962D01*
X97810920Y-37661586D01*
X97697654Y-37660103D01*
X97697649Y-37660103D01*
X97695406Y-37660074D01*
X97693189Y-37660455D01*
X97693188Y-37660455D01*
X97628811Y-37671517D01*
X97477957Y-37697438D01*
X97475853Y-37698214D01*
X97475850Y-37698215D01*
X97273065Y-37773026D01*
X97273062Y-37773027D01*
X97270957Y-37773804D01*
X97269029Y-37774951D01*
X97269027Y-37774952D01*
X97083272Y-37885465D01*
X97081341Y-37886614D01*
X97079653Y-37888094D01*
X97079652Y-37888095D01*
X97058067Y-37907025D01*
X96915457Y-38032090D01*
X96828152Y-38142837D01*
X96795431Y-38161160D01*
X96789672Y-38161500D01*
X96546029Y-38161500D01*
X96542696Y-38161387D01*
X96539367Y-38161160D01*
X96483070Y-38157322D01*
X96423994Y-38167633D01*
X96418900Y-38168522D01*
X96416365Y-38168897D01*
X96351680Y-38176724D01*
X96348915Y-38177769D01*
X96348914Y-38177769D01*
X96338653Y-38181646D01*
X96329760Y-38184079D01*
X96318955Y-38185965D01*
X96318953Y-38185966D01*
X96316046Y-38186473D01*
X96313345Y-38187659D01*
X96313344Y-38187659D01*
X96256394Y-38212658D01*
X96254021Y-38213626D01*
X96193077Y-38236655D01*
X96190647Y-38238325D01*
X96190645Y-38238326D01*
X96181602Y-38244541D01*
X96173548Y-38249024D01*
X96160798Y-38254621D01*
X96153048Y-38260568D01*
X96109119Y-38294276D01*
X96107044Y-38295784D01*
X96053349Y-38332688D01*
X96051384Y-38334893D01*
X96051381Y-38334896D01*
X96010921Y-38380308D01*
X96008984Y-38382360D01*
X90963071Y-43428272D01*
X90960634Y-43430549D01*
X90917829Y-43467890D01*
X90915604Y-43469831D01*
X90878134Y-43523145D01*
X90876635Y-43525164D01*
X90836416Y-43576457D01*
X90830687Y-43589147D01*
X90826118Y-43597156D01*
X90819811Y-43606130D01*
X90819809Y-43606135D01*
X90818113Y-43608547D01*
X90817042Y-43611295D01*
X90794447Y-43669245D01*
X90793453Y-43671609D01*
X90767859Y-43728295D01*
X90766645Y-43730984D01*
X90764338Y-43743432D01*
X90764108Y-43744671D01*
X90761583Y-43753536D01*
X90756524Y-43766513D01*
X90756138Y-43769445D01*
X90748019Y-43831118D01*
X90747617Y-43833653D01*
X90735748Y-43897692D01*
X90735918Y-43900640D01*
X90739419Y-43961364D01*
X90739500Y-43964184D01*
X90739500Y-44716500D01*
X90725148Y-44751148D01*
X90690500Y-44765500D01*
X88379500Y-44765500D01*
X88344852Y-44751148D01*
X88330500Y-44716500D01*
X88330500Y-39863930D01*
X88344852Y-39829282D01*
X88348167Y-39826257D01*
X88349019Y-39825549D01*
X88482518Y-39714518D01*
X88527042Y-39660984D01*
X88622166Y-39546611D01*
X88622168Y-39546609D01*
X88623602Y-39544884D01*
X88665650Y-39469803D01*
X88730314Y-39354336D01*
X88731410Y-39352379D01*
X88802331Y-39143452D01*
X88833991Y-38925098D01*
X88835643Y-38862000D01*
X88832538Y-38828208D01*
X88815660Y-38644526D01*
X88815659Y-38644521D01*
X88815454Y-38642289D01*
X88774168Y-38495897D01*
X88756177Y-38432105D01*
X88756176Y-38432102D01*
X88755565Y-38429936D01*
X88731612Y-38381363D01*
X88672042Y-38260568D01*
X88657980Y-38232053D01*
X88525967Y-38055267D01*
X88363949Y-37905499D01*
X88177350Y-37787764D01*
X88096389Y-37755464D01*
X87974505Y-37706837D01*
X87974501Y-37706836D01*
X87972421Y-37706006D01*
X87970220Y-37705568D01*
X87970216Y-37705567D01*
X87824718Y-37676626D01*
X87756024Y-37662962D01*
X87650920Y-37661586D01*
X87537654Y-37660103D01*
X87537649Y-37660103D01*
X87535406Y-37660074D01*
X87533189Y-37660455D01*
X87533188Y-37660455D01*
X87468811Y-37671517D01*
X87317957Y-37697438D01*
X87315853Y-37698214D01*
X87315850Y-37698215D01*
X87113065Y-37773026D01*
X87113062Y-37773027D01*
X87110957Y-37773804D01*
X87109029Y-37774951D01*
X87109027Y-37774952D01*
X86923272Y-37885465D01*
X86921341Y-37886614D01*
X86919653Y-37888094D01*
X86919652Y-37888095D01*
X86898067Y-37907025D01*
X86755457Y-38032090D01*
X86754073Y-38033846D01*
X86754069Y-38033850D01*
X86647729Y-38168743D01*
X86618863Y-38205360D01*
X86617817Y-38207348D01*
X86534486Y-38365734D01*
X86516131Y-38400620D01*
X86450703Y-38611333D01*
X86450439Y-38613565D01*
X86450438Y-38613569D01*
X86441630Y-38687987D01*
X86424770Y-38830440D01*
X86439200Y-39050604D01*
X86439753Y-39052783D01*
X86439754Y-39052787D01*
X86463320Y-39145577D01*
X86493511Y-39264452D01*
X86494447Y-39266482D01*
X86494449Y-39266488D01*
X86584940Y-39462776D01*
X86585883Y-39464821D01*
X86713222Y-39645002D01*
X86731616Y-39662921D01*
X86869660Y-39797399D01*
X86869663Y-39797402D01*
X86871264Y-39798961D01*
X86873126Y-39800205D01*
X86873127Y-39800206D01*
X86907723Y-39823322D01*
X86928558Y-39854504D01*
X86929500Y-39864064D01*
X86929500Y-44726421D01*
X86918036Y-44757917D01*
X86802020Y-44896180D01*
X86802017Y-44896184D01*
X86800480Y-44898016D01*
X86779817Y-44935602D01*
X86708494Y-45065338D01*
X86705956Y-45069954D01*
X86646628Y-45256978D01*
X86624757Y-45451963D01*
X86624957Y-45454345D01*
X86624957Y-45454349D01*
X86632966Y-45549723D01*
X86641175Y-45647483D01*
X86641835Y-45649784D01*
X86690513Y-45819542D01*
X86695258Y-45836091D01*
X86696352Y-45838220D01*
X86696353Y-45838222D01*
X86743628Y-45930208D01*
X86784944Y-46010601D01*
X86906818Y-46164369D01*
X86908644Y-46165923D01*
X86908645Y-46165924D01*
X87049790Y-46286047D01*
X87056238Y-46291535D01*
X87227513Y-46387257D01*
X87259305Y-46397587D01*
X87411836Y-46447148D01*
X87411840Y-46447149D01*
X87414118Y-46447889D01*
X87608946Y-46471121D01*
X87804576Y-46456068D01*
X87993556Y-46403303D01*
X87995685Y-46402228D01*
X87995689Y-46402226D01*
X88119692Y-46339587D01*
X88168689Y-46314837D01*
X88323303Y-46194040D01*
X88324871Y-46192224D01*
X88324872Y-46192223D01*
X88332416Y-46183483D01*
X88369509Y-46166500D01*
X90701294Y-46166500D01*
X90733052Y-46178185D01*
X90753416Y-46195516D01*
X90859790Y-46286047D01*
X90866238Y-46291535D01*
X91037513Y-46387257D01*
X91069305Y-46397587D01*
X91221836Y-46447148D01*
X91221840Y-46447149D01*
X91224118Y-46447889D01*
X91418946Y-46471121D01*
X91614576Y-46456068D01*
X91803556Y-46403303D01*
X91805685Y-46402228D01*
X91805689Y-46402226D01*
X91929692Y-46339587D01*
X91978689Y-46314837D01*
X92006716Y-46292940D01*
X93476308Y-46292940D01*
X93477524Y-46295876D01*
X93555735Y-46339587D01*
X93560106Y-46341497D01*
X93732732Y-46397587D01*
X93737399Y-46398612D01*
X93917629Y-46420104D01*
X93922393Y-46420204D01*
X94103379Y-46406278D01*
X94108069Y-46405451D01*
X94282903Y-46356637D01*
X94287339Y-46354917D01*
X94399801Y-46298107D01*
X94404667Y-46292450D01*
X94404458Y-46289668D01*
X93946893Y-45832103D01*
X93940000Y-45829248D01*
X93933107Y-45832103D01*
X93479163Y-46286047D01*
X93476308Y-46292940D01*
X92006716Y-46292940D01*
X92133303Y-46194040D01*
X92134871Y-46192224D01*
X92259938Y-46047332D01*
X92259942Y-46047327D01*
X92261509Y-46045511D01*
X92358425Y-45874909D01*
X92366048Y-45851995D01*
X92419602Y-45691004D01*
X92420358Y-45688732D01*
X92444949Y-45494071D01*
X92445341Y-45466000D01*
X92444268Y-45455057D01*
X92985696Y-45455057D01*
X93000886Y-45635936D01*
X93001746Y-45640624D01*
X93051778Y-45815110D01*
X93053533Y-45819542D01*
X93108048Y-45925616D01*
X93113739Y-45930442D01*
X93116582Y-45930208D01*
X93573897Y-45472893D01*
X93576752Y-45466000D01*
X94303248Y-45466000D01*
X94306103Y-45472893D01*
X94760040Y-45926830D01*
X94766933Y-45929685D01*
X94769932Y-45928443D01*
X94810883Y-45856356D01*
X94812825Y-45851995D01*
X94870119Y-45679762D01*
X94871175Y-45675116D01*
X94894054Y-45494008D01*
X94894244Y-45491284D01*
X94894578Y-45467371D01*
X94894463Y-45464636D01*
X94876650Y-45282965D01*
X94875726Y-45278296D01*
X94823261Y-45104524D01*
X94821442Y-45100112D01*
X94771746Y-45006646D01*
X94765990Y-45001901D01*
X94763024Y-45002186D01*
X94306103Y-45459107D01*
X94303248Y-45466000D01*
X93576752Y-45466000D01*
X93573897Y-45459107D01*
X93119911Y-45005121D01*
X93113018Y-45002266D01*
X93110144Y-45003456D01*
X93063748Y-45087848D01*
X93061872Y-45092226D01*
X93006987Y-45265247D01*
X93005997Y-45269902D01*
X92985763Y-45450296D01*
X92985696Y-45455057D01*
X92444268Y-45455057D01*
X92426194Y-45270728D01*
X92388534Y-45145991D01*
X92370178Y-45085191D01*
X92370176Y-45085186D01*
X92369484Y-45082894D01*
X92277370Y-44909653D01*
X92252339Y-44878961D01*
X92154878Y-44759462D01*
X92153361Y-44757602D01*
X92153858Y-44757197D01*
X92140500Y-44724787D01*
X92140500Y-44639892D01*
X93475747Y-44639892D01*
X93476007Y-44642797D01*
X93933107Y-45099897D01*
X93940000Y-45102752D01*
X93946893Y-45099897D01*
X94131747Y-44915043D01*
X97180205Y-44915043D01*
X97181750Y-44918773D01*
X97237047Y-44955721D01*
X97240981Y-44957857D01*
X97431042Y-45039513D01*
X97435300Y-45040897D01*
X97637062Y-45086551D01*
X97641497Y-45087134D01*
X97848197Y-45095256D01*
X97852668Y-45095022D01*
X98057388Y-45065338D01*
X98061737Y-45064295D01*
X98257632Y-44997797D01*
X98261708Y-44995982D01*
X98396192Y-44920669D01*
X98400810Y-44914810D01*
X98400436Y-44911646D01*
X97796893Y-44308103D01*
X97790000Y-44305248D01*
X97783107Y-44308103D01*
X97183060Y-44908150D01*
X97180205Y-44915043D01*
X94131747Y-44915043D01*
X94400956Y-44645834D01*
X94403811Y-44638941D01*
X94402646Y-44636128D01*
X94312027Y-44587131D01*
X94307636Y-44585285D01*
X94134232Y-44531607D01*
X94129571Y-44530650D01*
X93949047Y-44511676D01*
X93944274Y-44511643D01*
X93763516Y-44528094D01*
X93758824Y-44528990D01*
X93584705Y-44580235D01*
X93580277Y-44582024D01*
X93480532Y-44634170D01*
X93475747Y-44639892D01*
X92140500Y-44639892D01*
X92140500Y-44252452D01*
X92154852Y-44217804D01*
X92458646Y-43914010D01*
X96635616Y-43914010D01*
X96649145Y-44120423D01*
X96649847Y-44124853D01*
X96700766Y-44325350D01*
X96702256Y-44329559D01*
X96788861Y-44517418D01*
X96791105Y-44521303D01*
X96810482Y-44548721D01*
X96816792Y-44552703D01*
X96821051Y-44551739D01*
X97423897Y-43948893D01*
X97426752Y-43942000D01*
X97423897Y-43935107D01*
X96821524Y-43332734D01*
X96814631Y-43329879D01*
X96811915Y-43331004D01*
X96724036Y-43498035D01*
X96722320Y-43502177D01*
X96660978Y-43699729D01*
X96660046Y-43704113D01*
X96635733Y-43909536D01*
X96635616Y-43914010D01*
X92458646Y-43914010D01*
X93402702Y-42969954D01*
X97180084Y-42969954D01*
X97180579Y-42973369D01*
X97783107Y-43575897D01*
X97790000Y-43578752D01*
X97796893Y-43575897D01*
X98396651Y-42976139D01*
X98399506Y-42969246D01*
X98398078Y-42965797D01*
X98316227Y-42914153D01*
X98312237Y-42912120D01*
X98120101Y-42835464D01*
X98115813Y-42834195D01*
X97912929Y-42793839D01*
X97908478Y-42793371D01*
X97701633Y-42790662D01*
X97697167Y-42791014D01*
X97493296Y-42826046D01*
X97488976Y-42827203D01*
X97294899Y-42898802D01*
X97290861Y-42900728D01*
X97184547Y-42963978D01*
X97180084Y-42969954D01*
X93402702Y-42969954D01*
X96771835Y-39600822D01*
X96806483Y-39586470D01*
X96841131Y-39600822D01*
X96846498Y-39607190D01*
X96871921Y-39643163D01*
X96871929Y-39643172D01*
X96873222Y-39645002D01*
X96874826Y-39646565D01*
X96874829Y-39646568D01*
X97029660Y-39797399D01*
X97029663Y-39797402D01*
X97031264Y-39798961D01*
X97033126Y-39800205D01*
X97033127Y-39800206D01*
X97206399Y-39915982D01*
X97214717Y-39921540D01*
X97417436Y-40008635D01*
X97446697Y-40015256D01*
X97630442Y-40056834D01*
X97630448Y-40056835D01*
X97632632Y-40057329D01*
X97725492Y-40060977D01*
X97850851Y-40065903D01*
X97850854Y-40065903D01*
X97853098Y-40065991D01*
X97855317Y-40065669D01*
X97855322Y-40065669D01*
X97984310Y-40046966D01*
X98071452Y-40034331D01*
X98073574Y-40033611D01*
X98073577Y-40033610D01*
X98215781Y-39985338D01*
X98280379Y-39963410D01*
X98302473Y-39951037D01*
X98470922Y-39856701D01*
X98470924Y-39856700D01*
X98472884Y-39855602D01*
X98482215Y-39847842D01*
X98640795Y-39715951D01*
X98642518Y-39714518D01*
X98687042Y-39660984D01*
X98782166Y-39546611D01*
X98782168Y-39546609D01*
X98783602Y-39544884D01*
X98818248Y-39483019D01*
X98847699Y-39459801D01*
X98884942Y-39464209D01*
X98908160Y-39493660D01*
X98910000Y-39506961D01*
X98910000Y-40748868D01*
X98895648Y-40783516D01*
X98861000Y-40797868D01*
X98826352Y-40783516D01*
X98819223Y-40774474D01*
X98818972Y-40774064D01*
X98817980Y-40772053D01*
X98815278Y-40768434D01*
X98687315Y-40597072D01*
X98687314Y-40597071D01*
X98685967Y-40595267D01*
X98523949Y-40445499D01*
X98337350Y-40327764D01*
X98300409Y-40313026D01*
X98134505Y-40246837D01*
X98134501Y-40246836D01*
X98132421Y-40246006D01*
X98130220Y-40245568D01*
X98130216Y-40245567D01*
X97988988Y-40217475D01*
X97916024Y-40202962D01*
X97810920Y-40201586D01*
X97697654Y-40200103D01*
X97697649Y-40200103D01*
X97695406Y-40200074D01*
X97693189Y-40200455D01*
X97693188Y-40200455D01*
X97626857Y-40211853D01*
X97477957Y-40237438D01*
X97475853Y-40238214D01*
X97475850Y-40238215D01*
X97273065Y-40313026D01*
X97273062Y-40313027D01*
X97270957Y-40313804D01*
X97269029Y-40314951D01*
X97269027Y-40314952D01*
X97247492Y-40327764D01*
X97081341Y-40426614D01*
X97079653Y-40428094D01*
X97079652Y-40428095D01*
X97017669Y-40482453D01*
X96915457Y-40572090D01*
X96914072Y-40573847D01*
X96914069Y-40573850D01*
X96828955Y-40681818D01*
X96778863Y-40745360D01*
X96676131Y-40940620D01*
X96610703Y-41151333D01*
X96610439Y-41153565D01*
X96610438Y-41153569D01*
X96602131Y-41223758D01*
X96584770Y-41370440D01*
X96599200Y-41590604D01*
X96653511Y-41804452D01*
X96654447Y-41806482D01*
X96654449Y-41806488D01*
X96744897Y-42002682D01*
X96745883Y-42004821D01*
X96873222Y-42185002D01*
X96874834Y-42186572D01*
X97029660Y-42337399D01*
X97029663Y-42337402D01*
X97031264Y-42338961D01*
X97033126Y-42340205D01*
X97033127Y-42340206D01*
X97117678Y-42396701D01*
X97214717Y-42461540D01*
X97417436Y-42548635D01*
X97481299Y-42563086D01*
X97630442Y-42596834D01*
X97630448Y-42596835D01*
X97632632Y-42597329D01*
X97725492Y-42600977D01*
X97850851Y-42605903D01*
X97850854Y-42605903D01*
X97853098Y-42605991D01*
X97855317Y-42605669D01*
X97855322Y-42605669D01*
X97962275Y-42590161D01*
X98071452Y-42574331D01*
X98073574Y-42573611D01*
X98073577Y-42573610D01*
X98181785Y-42536878D01*
X98280379Y-42503410D01*
X98302473Y-42491037D01*
X98470922Y-42396701D01*
X98470924Y-42396700D01*
X98472884Y-42395602D01*
X98508168Y-42366257D01*
X98640795Y-42255951D01*
X98642518Y-42254518D01*
X98649054Y-42246659D01*
X98782166Y-42086611D01*
X98782168Y-42086609D01*
X98783602Y-42084884D01*
X98786382Y-42079921D01*
X98818248Y-42023019D01*
X98847699Y-41999801D01*
X98884942Y-42004209D01*
X98908160Y-42033660D01*
X98910000Y-42046961D01*
X98910000Y-43402689D01*
X98895648Y-43437337D01*
X98861000Y-43451689D01*
X98826352Y-43437337D01*
X98817053Y-43424361D01*
X98775731Y-43340568D01*
X98773390Y-43336749D01*
X98771130Y-43333722D01*
X98764718Y-43329907D01*
X98760140Y-43331070D01*
X98156103Y-43935107D01*
X98153248Y-43942000D01*
X98156103Y-43948893D01*
X98757013Y-44549803D01*
X98763906Y-44552658D01*
X98766850Y-44551439D01*
X98818248Y-44459660D01*
X98847699Y-44436442D01*
X98884942Y-44440850D01*
X98908160Y-44470301D01*
X98910000Y-44483602D01*
X98910000Y-46471385D01*
X98909575Y-46471385D01*
X98909812Y-46471991D01*
X98908546Y-46476070D01*
X98909970Y-46482360D01*
X98909815Y-46486317D01*
X98910000Y-46487968D01*
X98910000Y-46495664D01*
X98909354Y-46503593D01*
X98899296Y-46564930D01*
X98895895Y-46576500D01*
X98862562Y-46653344D01*
X98856437Y-46663735D01*
X98805342Y-46730110D01*
X98796869Y-46738685D01*
X98731101Y-46790574D01*
X98720792Y-46796817D01*
X98644348Y-46831065D01*
X98632822Y-46834602D01*
X98616272Y-46837519D01*
X98567151Y-46846175D01*
X98556008Y-46845973D01*
X98550384Y-46846261D01*
X98544076Y-46844911D01*
X98535693Y-46847623D01*
X98520617Y-46850000D01*
X55145410Y-46850000D01*
X55133016Y-46848407D01*
X55123294Y-46845865D01*
X55123293Y-46845865D01*
X55117055Y-46844234D01*
X55110837Y-46845941D01*
X55104384Y-46845980D01*
X55104383Y-46845874D01*
X55094192Y-46846591D01*
X55045041Y-46840296D01*
X55029880Y-46838355D01*
X55017284Y-46834993D01*
X54942179Y-46803742D01*
X54930919Y-46797178D01*
X54897463Y-46771146D01*
X54866720Y-46747225D01*
X54857586Y-46737920D01*
X54808837Y-46672807D01*
X54802480Y-46661421D01*
X54772629Y-46585750D01*
X54769502Y-46573093D01*
X54768611Y-46564930D01*
X54762462Y-46508645D01*
X54763368Y-46498469D01*
X54763262Y-46498466D01*
X54763421Y-46492016D01*
X54765244Y-46485827D01*
X54761372Y-46469808D01*
X54760000Y-46458296D01*
X54760000Y-44591682D01*
X54774352Y-44557034D01*
X54809000Y-44542682D01*
X54843648Y-44557034D01*
X54849008Y-44563393D01*
X54963222Y-44725002D01*
X54995118Y-44756074D01*
X55119660Y-44877399D01*
X55119663Y-44877402D01*
X55121264Y-44878961D01*
X55123126Y-44880205D01*
X55123127Y-44880206D01*
X55296399Y-44995982D01*
X55304717Y-45001540D01*
X55507436Y-45088635D01*
X55536697Y-45095256D01*
X55720442Y-45136834D01*
X55720448Y-45136835D01*
X55722632Y-45137329D01*
X55815492Y-45140977D01*
X55940851Y-45145903D01*
X55940854Y-45145903D01*
X55943098Y-45145991D01*
X55945317Y-45145669D01*
X55945322Y-45145669D01*
X56052275Y-45130161D01*
X56161452Y-45114331D01*
X56163574Y-45113611D01*
X56163577Y-45113610D01*
X56305781Y-45065338D01*
X56370379Y-45043410D01*
X56441722Y-45003456D01*
X56560922Y-44936701D01*
X56560924Y-44936700D01*
X56562884Y-44935602D01*
X56587604Y-44915043D01*
X56730795Y-44795951D01*
X56732518Y-44794518D01*
X56844258Y-44660167D01*
X56877447Y-44642706D01*
X56881930Y-44642500D01*
X57855548Y-44642500D01*
X57890196Y-44656852D01*
X58672027Y-45438683D01*
X58686207Y-45469231D01*
X58701175Y-45647483D01*
X58701835Y-45649784D01*
X58750513Y-45819542D01*
X58755258Y-45836091D01*
X58756352Y-45838220D01*
X58756353Y-45838222D01*
X58803628Y-45930208D01*
X58844944Y-46010601D01*
X58966818Y-46164369D01*
X58968644Y-46165923D01*
X58968645Y-46165924D01*
X59109790Y-46286047D01*
X59116238Y-46291535D01*
X59287513Y-46387257D01*
X59319305Y-46397587D01*
X59471836Y-46447148D01*
X59471840Y-46447149D01*
X59474118Y-46447889D01*
X59668946Y-46471121D01*
X59864576Y-46456068D01*
X60053556Y-46403303D01*
X60055685Y-46402228D01*
X60055689Y-46402226D01*
X60179692Y-46339587D01*
X60228689Y-46314837D01*
X60256716Y-46292940D01*
X61726308Y-46292940D01*
X61727524Y-46295876D01*
X61805735Y-46339587D01*
X61810106Y-46341497D01*
X61982732Y-46397587D01*
X61987399Y-46398612D01*
X62167629Y-46420104D01*
X62172393Y-46420204D01*
X62353379Y-46406278D01*
X62358069Y-46405451D01*
X62532903Y-46356637D01*
X62537339Y-46354917D01*
X62649801Y-46298107D01*
X62654667Y-46292450D01*
X62654458Y-46289668D01*
X62196893Y-45832103D01*
X62190000Y-45829248D01*
X62183107Y-45832103D01*
X61729163Y-46286047D01*
X61726308Y-46292940D01*
X60256716Y-46292940D01*
X60383303Y-46194040D01*
X60384871Y-46192224D01*
X60509938Y-46047332D01*
X60509942Y-46047327D01*
X60511509Y-46045511D01*
X60608425Y-45874909D01*
X60616048Y-45851995D01*
X60669602Y-45691004D01*
X60670358Y-45688732D01*
X60694949Y-45494071D01*
X60695341Y-45466000D01*
X60694268Y-45455057D01*
X61235696Y-45455057D01*
X61250886Y-45635936D01*
X61251746Y-45640624D01*
X61301778Y-45815110D01*
X61303533Y-45819542D01*
X61358048Y-45925616D01*
X61363739Y-45930442D01*
X61366582Y-45930208D01*
X61823897Y-45472893D01*
X61826752Y-45466000D01*
X62553248Y-45466000D01*
X62556103Y-45472893D01*
X63010040Y-45926830D01*
X63016933Y-45929685D01*
X63019932Y-45928443D01*
X63060883Y-45856356D01*
X63062825Y-45851995D01*
X63120119Y-45679762D01*
X63121175Y-45675116D01*
X63144054Y-45494008D01*
X63144244Y-45491284D01*
X63144578Y-45467371D01*
X63144463Y-45464636D01*
X63126650Y-45282965D01*
X63125726Y-45278296D01*
X63073261Y-45104524D01*
X63071442Y-45100112D01*
X63021746Y-45006646D01*
X63015990Y-45001901D01*
X63013024Y-45002186D01*
X62556103Y-45459107D01*
X62553248Y-45466000D01*
X61826752Y-45466000D01*
X61823897Y-45459107D01*
X61369911Y-45005121D01*
X61363018Y-45002266D01*
X61360144Y-45003456D01*
X61313748Y-45087848D01*
X61311872Y-45092226D01*
X61256987Y-45265247D01*
X61255997Y-45269902D01*
X61235763Y-45450296D01*
X61235696Y-45455057D01*
X60694268Y-45455057D01*
X60676194Y-45270728D01*
X60638534Y-45145991D01*
X60620178Y-45085191D01*
X60620176Y-45085186D01*
X60619484Y-45082894D01*
X60527370Y-44909653D01*
X60502339Y-44878961D01*
X60404878Y-44759462D01*
X60403361Y-44757602D01*
X60261073Y-44639892D01*
X61725747Y-44639892D01*
X61726007Y-44642797D01*
X62183107Y-45099897D01*
X62190000Y-45102752D01*
X62196893Y-45099897D01*
X62650956Y-44645834D01*
X62653811Y-44638941D01*
X62652646Y-44636128D01*
X62562027Y-44587131D01*
X62557636Y-44585285D01*
X62384232Y-44531607D01*
X62379571Y-44530650D01*
X62199047Y-44511676D01*
X62194274Y-44511643D01*
X62013516Y-44528094D01*
X62008824Y-44528990D01*
X61834705Y-44580235D01*
X61830277Y-44582024D01*
X61730532Y-44634170D01*
X61725747Y-44639892D01*
X60261073Y-44639892D01*
X60252180Y-44632535D01*
X60104451Y-44552658D01*
X60081690Y-44540351D01*
X60081689Y-44540350D01*
X60079585Y-44539213D01*
X59892152Y-44481193D01*
X59889775Y-44480943D01*
X59889774Y-44480943D01*
X59868345Y-44478691D01*
X59697019Y-44460683D01*
X59695352Y-44460835D01*
X59661213Y-44446556D01*
X58679728Y-43465071D01*
X58677451Y-43462634D01*
X58640110Y-43419829D01*
X58638169Y-43417604D01*
X58584855Y-43380134D01*
X58582828Y-43378629D01*
X58534456Y-43340700D01*
X58531543Y-43338416D01*
X58518850Y-43332685D01*
X58510844Y-43328118D01*
X58501870Y-43321811D01*
X58501865Y-43321809D01*
X58499453Y-43320113D01*
X58465465Y-43306862D01*
X58438755Y-43296447D01*
X58436391Y-43295453D01*
X58379705Y-43269859D01*
X58379704Y-43269859D01*
X58377016Y-43268645D01*
X58363330Y-43266108D01*
X58354464Y-43263583D01*
X58344242Y-43259598D01*
X58344241Y-43259598D01*
X58341487Y-43258524D01*
X58338555Y-43258138D01*
X58276882Y-43250019D01*
X58274347Y-43249617D01*
X58250926Y-43245276D01*
X58210308Y-43237748D01*
X58146636Y-43241419D01*
X58143816Y-43241500D01*
X56879859Y-43241500D01*
X56845211Y-43227148D01*
X56840598Y-43221818D01*
X56777315Y-43137072D01*
X56777314Y-43137071D01*
X56775967Y-43135267D01*
X56613949Y-42985499D01*
X56612046Y-42984298D01*
X56603352Y-42978812D01*
X56581708Y-42948185D01*
X56580500Y-42937372D01*
X56580500Y-42403930D01*
X56594852Y-42369282D01*
X56598167Y-42366257D01*
X56730795Y-42255951D01*
X56732518Y-42254518D01*
X56844258Y-42120167D01*
X56877447Y-42102706D01*
X56881930Y-42102500D01*
X58393971Y-42102500D01*
X58397303Y-42102613D01*
X58456930Y-42106678D01*
X58521099Y-42095478D01*
X58523635Y-42095103D01*
X58588320Y-42087276D01*
X58594651Y-42084884D01*
X58601347Y-42082354D01*
X58610240Y-42079921D01*
X58621045Y-42078035D01*
X58621047Y-42078034D01*
X58623954Y-42077527D01*
X58683607Y-42051342D01*
X58685981Y-42050373D01*
X58695011Y-42046961D01*
X58746923Y-42027345D01*
X58749353Y-42025675D01*
X58749355Y-42025674D01*
X58758398Y-42019459D01*
X58766452Y-42014976D01*
X58779202Y-42009379D01*
X58830881Y-41969724D01*
X58832956Y-41968216D01*
X58884214Y-41932987D01*
X58886651Y-41931312D01*
X58888616Y-41929107D01*
X58888619Y-41929104D01*
X58929079Y-41883692D01*
X58931016Y-41881640D01*
X60744948Y-40067708D01*
X60779596Y-40053356D01*
X60790408Y-40054564D01*
X60800437Y-40056833D01*
X60800444Y-40056834D01*
X60802632Y-40057329D01*
X60895492Y-40060977D01*
X61020851Y-40065903D01*
X61020854Y-40065903D01*
X61023098Y-40065991D01*
X61025317Y-40065669D01*
X61025322Y-40065669D01*
X61154310Y-40046966D01*
X61241452Y-40034331D01*
X61243574Y-40033611D01*
X61243577Y-40033610D01*
X61385781Y-39985338D01*
X61450379Y-39963410D01*
X61472473Y-39951037D01*
X61640922Y-39856701D01*
X61640924Y-39856700D01*
X61642884Y-39855602D01*
X61652215Y-39847842D01*
X61810795Y-39715951D01*
X61812518Y-39714518D01*
X61857042Y-39660984D01*
X61952166Y-39546611D01*
X61952168Y-39546609D01*
X61953602Y-39544884D01*
X61995650Y-39469803D01*
X62060314Y-39354336D01*
X62061410Y-39352379D01*
X62132331Y-39143452D01*
X62163991Y-38925098D01*
X62165643Y-38862000D01*
X62162743Y-38830440D01*
X64834770Y-38830440D01*
X64849200Y-39050604D01*
X64849753Y-39052783D01*
X64849754Y-39052787D01*
X64873320Y-39145577D01*
X64903511Y-39264452D01*
X64904447Y-39266482D01*
X64904449Y-39266488D01*
X64994940Y-39462776D01*
X64995883Y-39464821D01*
X65123222Y-39645002D01*
X65141616Y-39662921D01*
X65279660Y-39797399D01*
X65279663Y-39797402D01*
X65281264Y-39798961D01*
X65283126Y-39800205D01*
X65283127Y-39800206D01*
X65317723Y-39823322D01*
X65338558Y-39854504D01*
X65339500Y-39864064D01*
X65339500Y-44726421D01*
X65328036Y-44757917D01*
X65212020Y-44896180D01*
X65212017Y-44896184D01*
X65210480Y-44898016D01*
X65189817Y-44935602D01*
X65118494Y-45065338D01*
X65115956Y-45069954D01*
X65056628Y-45256978D01*
X65034757Y-45451963D01*
X65034957Y-45454345D01*
X65034957Y-45454349D01*
X65042966Y-45549723D01*
X65051175Y-45647483D01*
X65051835Y-45649784D01*
X65100513Y-45819542D01*
X65105258Y-45836091D01*
X65106352Y-45838220D01*
X65106353Y-45838222D01*
X65153628Y-45930208D01*
X65194944Y-46010601D01*
X65316818Y-46164369D01*
X65318644Y-46165923D01*
X65318645Y-46165924D01*
X65459790Y-46286047D01*
X65466238Y-46291535D01*
X65637513Y-46387257D01*
X65669305Y-46397587D01*
X65821836Y-46447148D01*
X65821840Y-46447149D01*
X65824118Y-46447889D01*
X66018946Y-46471121D01*
X66214576Y-46456068D01*
X66403556Y-46403303D01*
X66405685Y-46402228D01*
X66405689Y-46402226D01*
X66529692Y-46339587D01*
X66578689Y-46314837D01*
X66606716Y-46292940D01*
X68076308Y-46292940D01*
X68077524Y-46295876D01*
X68155735Y-46339587D01*
X68160106Y-46341497D01*
X68332732Y-46397587D01*
X68337399Y-46398612D01*
X68517629Y-46420104D01*
X68522393Y-46420204D01*
X68703379Y-46406278D01*
X68708069Y-46405451D01*
X68882903Y-46356637D01*
X68887339Y-46354917D01*
X68999801Y-46298107D01*
X69004667Y-46292450D01*
X69004458Y-46289668D01*
X68546893Y-45832103D01*
X68540000Y-45829248D01*
X68533107Y-45832103D01*
X68079163Y-46286047D01*
X68076308Y-46292940D01*
X66606716Y-46292940D01*
X66733303Y-46194040D01*
X66734871Y-46192224D01*
X66859938Y-46047332D01*
X66859942Y-46047327D01*
X66861509Y-46045511D01*
X66958425Y-45874909D01*
X66966048Y-45851995D01*
X67019602Y-45691004D01*
X67020358Y-45688732D01*
X67044949Y-45494071D01*
X67045341Y-45466000D01*
X67044268Y-45455057D01*
X67585696Y-45455057D01*
X67600886Y-45635936D01*
X67601746Y-45640624D01*
X67651778Y-45815110D01*
X67653533Y-45819542D01*
X67708048Y-45925616D01*
X67713739Y-45930442D01*
X67716582Y-45930208D01*
X68173897Y-45472893D01*
X68176752Y-45466000D01*
X68903248Y-45466000D01*
X68906103Y-45472893D01*
X69360040Y-45926830D01*
X69366933Y-45929685D01*
X69369932Y-45928443D01*
X69410883Y-45856356D01*
X69412825Y-45851995D01*
X69470119Y-45679762D01*
X69471175Y-45675116D01*
X69494054Y-45494008D01*
X69494244Y-45491284D01*
X69494578Y-45467371D01*
X69494463Y-45464636D01*
X69493220Y-45451963D01*
X71384757Y-45451963D01*
X71384957Y-45454345D01*
X71384957Y-45454349D01*
X71392966Y-45549723D01*
X71401175Y-45647483D01*
X71401835Y-45649784D01*
X71450513Y-45819542D01*
X71455258Y-45836091D01*
X71456352Y-45838220D01*
X71456353Y-45838222D01*
X71503628Y-45930208D01*
X71544944Y-46010601D01*
X71666818Y-46164369D01*
X71668644Y-46165923D01*
X71668645Y-46165924D01*
X71809790Y-46286047D01*
X71816238Y-46291535D01*
X71987513Y-46387257D01*
X72019305Y-46397587D01*
X72171836Y-46447148D01*
X72171840Y-46447149D01*
X72174118Y-46447889D01*
X72368946Y-46471121D01*
X72564576Y-46456068D01*
X72753556Y-46403303D01*
X72755685Y-46402228D01*
X72755689Y-46402226D01*
X72879692Y-46339587D01*
X72928689Y-46314837D01*
X72956716Y-46292940D01*
X74426308Y-46292940D01*
X74427524Y-46295876D01*
X74505735Y-46339587D01*
X74510106Y-46341497D01*
X74682732Y-46397587D01*
X74687399Y-46398612D01*
X74867629Y-46420104D01*
X74872393Y-46420204D01*
X75053379Y-46406278D01*
X75058069Y-46405451D01*
X75232903Y-46356637D01*
X75237339Y-46354917D01*
X75349801Y-46298107D01*
X75354667Y-46292450D01*
X75354458Y-46289668D01*
X74896893Y-45832103D01*
X74890000Y-45829248D01*
X74883107Y-45832103D01*
X74429163Y-46286047D01*
X74426308Y-46292940D01*
X72956716Y-46292940D01*
X73083303Y-46194040D01*
X73084871Y-46192224D01*
X73209938Y-46047332D01*
X73209942Y-46047327D01*
X73211509Y-46045511D01*
X73308425Y-45874909D01*
X73316048Y-45851995D01*
X73369602Y-45691004D01*
X73370358Y-45688732D01*
X73394949Y-45494071D01*
X73395341Y-45466000D01*
X73394268Y-45455057D01*
X73935696Y-45455057D01*
X73950886Y-45635936D01*
X73951746Y-45640624D01*
X74001778Y-45815110D01*
X74003533Y-45819542D01*
X74058048Y-45925616D01*
X74063739Y-45930442D01*
X74066582Y-45930208D01*
X74523897Y-45472893D01*
X74526752Y-45466000D01*
X75253248Y-45466000D01*
X75256103Y-45472893D01*
X75710040Y-45926830D01*
X75716933Y-45929685D01*
X75719932Y-45928443D01*
X75760883Y-45856356D01*
X75762825Y-45851995D01*
X75820119Y-45679762D01*
X75821175Y-45675116D01*
X75844054Y-45494008D01*
X75844244Y-45491284D01*
X75844578Y-45467371D01*
X75844463Y-45464636D01*
X75843220Y-45451963D01*
X77734757Y-45451963D01*
X77734957Y-45454345D01*
X77734957Y-45454349D01*
X77742966Y-45549723D01*
X77751175Y-45647483D01*
X77751835Y-45649784D01*
X77800513Y-45819542D01*
X77805258Y-45836091D01*
X77806352Y-45838220D01*
X77806353Y-45838222D01*
X77853628Y-45930208D01*
X77894944Y-46010601D01*
X78016818Y-46164369D01*
X78018644Y-46165923D01*
X78018645Y-46165924D01*
X78159790Y-46286047D01*
X78166238Y-46291535D01*
X78337513Y-46387257D01*
X78369305Y-46397587D01*
X78521836Y-46447148D01*
X78521840Y-46447149D01*
X78524118Y-46447889D01*
X78718946Y-46471121D01*
X78914576Y-46456068D01*
X79103556Y-46403303D01*
X79105685Y-46402228D01*
X79105689Y-46402226D01*
X79229692Y-46339587D01*
X79278689Y-46314837D01*
X79306716Y-46292940D01*
X80776308Y-46292940D01*
X80777524Y-46295876D01*
X80855735Y-46339587D01*
X80860106Y-46341497D01*
X81032732Y-46397587D01*
X81037399Y-46398612D01*
X81217629Y-46420104D01*
X81222393Y-46420204D01*
X81403379Y-46406278D01*
X81408069Y-46405451D01*
X81582903Y-46356637D01*
X81587339Y-46354917D01*
X81699801Y-46298107D01*
X81704667Y-46292450D01*
X81704458Y-46289668D01*
X81246893Y-45832103D01*
X81240000Y-45829248D01*
X81233107Y-45832103D01*
X80779163Y-46286047D01*
X80776308Y-46292940D01*
X79306716Y-46292940D01*
X79433303Y-46194040D01*
X79434871Y-46192224D01*
X79559938Y-46047332D01*
X79559942Y-46047327D01*
X79561509Y-46045511D01*
X79658425Y-45874909D01*
X79666048Y-45851995D01*
X79719602Y-45691004D01*
X79720358Y-45688732D01*
X79744949Y-45494071D01*
X79745341Y-45466000D01*
X79744268Y-45455057D01*
X80285696Y-45455057D01*
X80300886Y-45635936D01*
X80301746Y-45640624D01*
X80351778Y-45815110D01*
X80353533Y-45819542D01*
X80408048Y-45925616D01*
X80413739Y-45930442D01*
X80416582Y-45930208D01*
X80873897Y-45472893D01*
X80876752Y-45466000D01*
X81603248Y-45466000D01*
X81606103Y-45472893D01*
X82060040Y-45926830D01*
X82066933Y-45929685D01*
X82069932Y-45928443D01*
X82110883Y-45856356D01*
X82112825Y-45851995D01*
X82170119Y-45679762D01*
X82171175Y-45675116D01*
X82194054Y-45494008D01*
X82194244Y-45491284D01*
X82194578Y-45467371D01*
X82194463Y-45464636D01*
X82176650Y-45282965D01*
X82175726Y-45278296D01*
X82123261Y-45104524D01*
X82121442Y-45100112D01*
X82071746Y-45006646D01*
X82065990Y-45001901D01*
X82063024Y-45002186D01*
X81606103Y-45459107D01*
X81603248Y-45466000D01*
X80876752Y-45466000D01*
X80873897Y-45459107D01*
X80419911Y-45005121D01*
X80413018Y-45002266D01*
X80410144Y-45003456D01*
X80363748Y-45087848D01*
X80361872Y-45092226D01*
X80306987Y-45265247D01*
X80305997Y-45269902D01*
X80285763Y-45450296D01*
X80285696Y-45455057D01*
X79744268Y-45455057D01*
X79726194Y-45270728D01*
X79688534Y-45145991D01*
X79670178Y-45085191D01*
X79670176Y-45085186D01*
X79669484Y-45082894D01*
X79577370Y-44909653D01*
X79552339Y-44878961D01*
X79454878Y-44759462D01*
X79453361Y-44757602D01*
X79453858Y-44757197D01*
X79440500Y-44724787D01*
X79440500Y-44639892D01*
X80775747Y-44639892D01*
X80776007Y-44642797D01*
X81233107Y-45099897D01*
X81240000Y-45102752D01*
X81246893Y-45099897D01*
X81700956Y-44645834D01*
X81703811Y-44638941D01*
X81702646Y-44636128D01*
X81612027Y-44587131D01*
X81607636Y-44585285D01*
X81434232Y-44531607D01*
X81429571Y-44530650D01*
X81249047Y-44511676D01*
X81244274Y-44511643D01*
X81063516Y-44528094D01*
X81058824Y-44528990D01*
X80884705Y-44580235D01*
X80880277Y-44582024D01*
X80780532Y-44634170D01*
X80775747Y-44639892D01*
X79440500Y-44639892D01*
X79440500Y-44252452D01*
X79454852Y-44217804D01*
X83604949Y-40067708D01*
X83639597Y-40053356D01*
X83650411Y-40054564D01*
X83660442Y-40056834D01*
X83660448Y-40056835D01*
X83662632Y-40057329D01*
X83744526Y-40060547D01*
X83880851Y-40065903D01*
X83880854Y-40065903D01*
X83883098Y-40065991D01*
X83885317Y-40065669D01*
X83885322Y-40065669D01*
X83990001Y-40050491D01*
X84026350Y-40059723D01*
X84031680Y-40064336D01*
X84415148Y-40447805D01*
X84429500Y-40482453D01*
X84429500Y-44726421D01*
X84418036Y-44757917D01*
X84302020Y-44896180D01*
X84302017Y-44896184D01*
X84300480Y-44898016D01*
X84279817Y-44935602D01*
X84208494Y-45065338D01*
X84205956Y-45069954D01*
X84146628Y-45256978D01*
X84124757Y-45451963D01*
X84124957Y-45454345D01*
X84124957Y-45454349D01*
X84132966Y-45549723D01*
X84141175Y-45647483D01*
X84141835Y-45649784D01*
X84190513Y-45819542D01*
X84195258Y-45836091D01*
X84196352Y-45838220D01*
X84196353Y-45838222D01*
X84243628Y-45930208D01*
X84284944Y-46010601D01*
X84406818Y-46164369D01*
X84408644Y-46165923D01*
X84408645Y-46165924D01*
X84549790Y-46286047D01*
X84556238Y-46291535D01*
X84727513Y-46387257D01*
X84759305Y-46397587D01*
X84911836Y-46447148D01*
X84911840Y-46447149D01*
X84914118Y-46447889D01*
X85108946Y-46471121D01*
X85304576Y-46456068D01*
X85493556Y-46403303D01*
X85495685Y-46402228D01*
X85495689Y-46402226D01*
X85619692Y-46339587D01*
X85668689Y-46314837D01*
X85823303Y-46194040D01*
X85824871Y-46192224D01*
X85949938Y-46047332D01*
X85949942Y-46047327D01*
X85951509Y-46045511D01*
X86048425Y-45874909D01*
X86056048Y-45851995D01*
X86109602Y-45691004D01*
X86110358Y-45688732D01*
X86134949Y-45494071D01*
X86135341Y-45466000D01*
X86116194Y-45270728D01*
X86078534Y-45145991D01*
X86060178Y-45085191D01*
X86060176Y-45085186D01*
X86059484Y-45082894D01*
X85967370Y-44909653D01*
X85942339Y-44878961D01*
X85844878Y-44759462D01*
X85843361Y-44757602D01*
X85843858Y-44757197D01*
X85830500Y-44724787D01*
X85830500Y-40198029D01*
X85830613Y-40194696D01*
X85834477Y-40138018D01*
X85834678Y-40135070D01*
X85823479Y-40070898D01*
X85823104Y-40068361D01*
X85815631Y-40006614D01*
X85815276Y-40003680D01*
X85814233Y-40000919D01*
X85814231Y-40000912D01*
X85810355Y-39990656D01*
X85807921Y-39981759D01*
X85806037Y-39970961D01*
X85806036Y-39970958D01*
X85805528Y-39968047D01*
X85779340Y-39908387D01*
X85778371Y-39906013D01*
X85756390Y-39847842D01*
X85756389Y-39847841D01*
X85755345Y-39845077D01*
X85747462Y-39833607D01*
X85742977Y-39825549D01*
X85738568Y-39815505D01*
X85738565Y-39815500D01*
X85737379Y-39812798D01*
X85697724Y-39761119D01*
X85696216Y-39759044D01*
X85660987Y-39707786D01*
X85659312Y-39705349D01*
X85657107Y-39703384D01*
X85657104Y-39703381D01*
X85611692Y-39662921D01*
X85609640Y-39660984D01*
X85022336Y-39073680D01*
X85007984Y-39039032D01*
X85008491Y-39032001D01*
X85023784Y-38926527D01*
X85023784Y-38926524D01*
X85023991Y-38925098D01*
X85025643Y-38862000D01*
X85022538Y-38828208D01*
X85005660Y-38644526D01*
X85005659Y-38644521D01*
X85005454Y-38642289D01*
X84964168Y-38495897D01*
X84946177Y-38432105D01*
X84946176Y-38432102D01*
X84945565Y-38429936D01*
X84921612Y-38381363D01*
X84862042Y-38260568D01*
X84847980Y-38232053D01*
X84715967Y-38055267D01*
X84553949Y-37905499D01*
X84367350Y-37787764D01*
X84286389Y-37755464D01*
X84164505Y-37706837D01*
X84164501Y-37706836D01*
X84162421Y-37706006D01*
X84160220Y-37705568D01*
X84160216Y-37705567D01*
X84014718Y-37676626D01*
X83946024Y-37662962D01*
X83840920Y-37661586D01*
X83727654Y-37660103D01*
X83727649Y-37660103D01*
X83725406Y-37660074D01*
X83723189Y-37660455D01*
X83723188Y-37660455D01*
X83658811Y-37671517D01*
X83507957Y-37697438D01*
X83505853Y-37698214D01*
X83505850Y-37698215D01*
X83303065Y-37773026D01*
X83303062Y-37773027D01*
X83300957Y-37773804D01*
X83299029Y-37774951D01*
X83299027Y-37774952D01*
X83113272Y-37885465D01*
X83111341Y-37886614D01*
X83109653Y-37888094D01*
X83109652Y-37888095D01*
X83088067Y-37907025D01*
X82945457Y-38032090D01*
X82944073Y-38033846D01*
X82944069Y-38033850D01*
X82837729Y-38168743D01*
X82808863Y-38205360D01*
X82807817Y-38207348D01*
X82724486Y-38365734D01*
X82706131Y-38400620D01*
X82640703Y-38611333D01*
X82640439Y-38613565D01*
X82640438Y-38613569D01*
X82631630Y-38687987D01*
X82614770Y-38830440D01*
X82616744Y-38860550D01*
X82628458Y-39039280D01*
X82614211Y-39077133D01*
X78263071Y-43428272D01*
X78260634Y-43430549D01*
X78217829Y-43467890D01*
X78215604Y-43469831D01*
X78178134Y-43523145D01*
X78176635Y-43525164D01*
X78136416Y-43576457D01*
X78130687Y-43589147D01*
X78126118Y-43597156D01*
X78119811Y-43606130D01*
X78119809Y-43606135D01*
X78118113Y-43608547D01*
X78117042Y-43611295D01*
X78094447Y-43669245D01*
X78093453Y-43671609D01*
X78067859Y-43728295D01*
X78066645Y-43730984D01*
X78064338Y-43743432D01*
X78064108Y-43744671D01*
X78061583Y-43753536D01*
X78056524Y-43766513D01*
X78056138Y-43769445D01*
X78048019Y-43831118D01*
X78047617Y-43833653D01*
X78035748Y-43897692D01*
X78035918Y-43900640D01*
X78039419Y-43961364D01*
X78039500Y-43964184D01*
X78039500Y-44726421D01*
X78028036Y-44757917D01*
X77912020Y-44896180D01*
X77912017Y-44896184D01*
X77910480Y-44898016D01*
X77889817Y-44935602D01*
X77818494Y-45065338D01*
X77815956Y-45069954D01*
X77756628Y-45256978D01*
X77734757Y-45451963D01*
X75843220Y-45451963D01*
X75826650Y-45282965D01*
X75825726Y-45278296D01*
X75773261Y-45104524D01*
X75771442Y-45100112D01*
X75721746Y-45006646D01*
X75715990Y-45001901D01*
X75713024Y-45002186D01*
X75256103Y-45459107D01*
X75253248Y-45466000D01*
X74526752Y-45466000D01*
X74523897Y-45459107D01*
X74069911Y-45005121D01*
X74063018Y-45002266D01*
X74060144Y-45003456D01*
X74013748Y-45087848D01*
X74011872Y-45092226D01*
X73956987Y-45265247D01*
X73955997Y-45269902D01*
X73935763Y-45450296D01*
X73935696Y-45455057D01*
X73394268Y-45455057D01*
X73376194Y-45270728D01*
X73338534Y-45145991D01*
X73320178Y-45085191D01*
X73320176Y-45085186D01*
X73319484Y-45082894D01*
X73227370Y-44909653D01*
X73202339Y-44878961D01*
X73104878Y-44759462D01*
X73103361Y-44757602D01*
X73103858Y-44757197D01*
X73090500Y-44724787D01*
X73090500Y-44639892D01*
X74425747Y-44639892D01*
X74426007Y-44642797D01*
X74883107Y-45099897D01*
X74890000Y-45102752D01*
X74896893Y-45099897D01*
X75350956Y-44645834D01*
X75353811Y-44638941D01*
X75352646Y-44636128D01*
X75262027Y-44587131D01*
X75257636Y-44585285D01*
X75084232Y-44531607D01*
X75079571Y-44530650D01*
X74899047Y-44511676D01*
X74894274Y-44511643D01*
X74713516Y-44528094D01*
X74708824Y-44528990D01*
X74534705Y-44580235D01*
X74530277Y-44582024D01*
X74430532Y-44634170D01*
X74425747Y-44639892D01*
X73090500Y-44639892D01*
X73090500Y-41712452D01*
X73104852Y-41677804D01*
X74714948Y-40067708D01*
X74749596Y-40053356D01*
X74760408Y-40054564D01*
X74770437Y-40056833D01*
X74770444Y-40056834D01*
X74772632Y-40057329D01*
X74865492Y-40060977D01*
X74990851Y-40065903D01*
X74990854Y-40065903D01*
X74993098Y-40065991D01*
X74995317Y-40065669D01*
X74995322Y-40065669D01*
X75124310Y-40046966D01*
X75211452Y-40034331D01*
X75213574Y-40033611D01*
X75213577Y-40033610D01*
X75355781Y-39985338D01*
X75420379Y-39963410D01*
X75442473Y-39951037D01*
X75610922Y-39856701D01*
X75610924Y-39856700D01*
X75612884Y-39855602D01*
X75622215Y-39847842D01*
X75780795Y-39715951D01*
X75782518Y-39714518D01*
X75894258Y-39580167D01*
X75927447Y-39562706D01*
X75931930Y-39562500D01*
X77739543Y-39562500D01*
X77774191Y-39576852D01*
X77779558Y-39583220D01*
X77821921Y-39643163D01*
X77821929Y-39643172D01*
X77823222Y-39645002D01*
X77824826Y-39646565D01*
X77824829Y-39646568D01*
X77979660Y-39797399D01*
X77979663Y-39797402D01*
X77981264Y-39798961D01*
X77983126Y-39800205D01*
X77983127Y-39800206D01*
X78156399Y-39915982D01*
X78164717Y-39921540D01*
X78367436Y-40008635D01*
X78396697Y-40015256D01*
X78580442Y-40056834D01*
X78580448Y-40056835D01*
X78582632Y-40057329D01*
X78675492Y-40060977D01*
X78800851Y-40065903D01*
X78800854Y-40065903D01*
X78803098Y-40065991D01*
X78805317Y-40065669D01*
X78805322Y-40065669D01*
X78934310Y-40046966D01*
X79021452Y-40034331D01*
X79023574Y-40033611D01*
X79023577Y-40033610D01*
X79165781Y-39985338D01*
X79230379Y-39963410D01*
X79252473Y-39951037D01*
X79420922Y-39856701D01*
X79420924Y-39856700D01*
X79422884Y-39855602D01*
X79432215Y-39847842D01*
X79590795Y-39715951D01*
X79592518Y-39714518D01*
X79637042Y-39660984D01*
X79732166Y-39546611D01*
X79732168Y-39546609D01*
X79733602Y-39544884D01*
X79775650Y-39469803D01*
X79840314Y-39354336D01*
X79841410Y-39352379D01*
X79912331Y-39143452D01*
X79943991Y-38925098D01*
X79945643Y-38862000D01*
X79942538Y-38828208D01*
X79925660Y-38644526D01*
X79925659Y-38644521D01*
X79925454Y-38642289D01*
X79884168Y-38495897D01*
X79866177Y-38432105D01*
X79866176Y-38432102D01*
X79865565Y-38429936D01*
X79841612Y-38381363D01*
X79782042Y-38260568D01*
X79767980Y-38232053D01*
X79635967Y-38055267D01*
X79473949Y-37905499D01*
X79287350Y-37787764D01*
X79206389Y-37755464D01*
X79084505Y-37706837D01*
X79084501Y-37706836D01*
X79082421Y-37706006D01*
X79080220Y-37705568D01*
X79080216Y-37705567D01*
X78934718Y-37676626D01*
X78866024Y-37662962D01*
X78760920Y-37661586D01*
X78647654Y-37660103D01*
X78647649Y-37660103D01*
X78645406Y-37660074D01*
X78643189Y-37660455D01*
X78643188Y-37660455D01*
X78578811Y-37671517D01*
X78427957Y-37697438D01*
X78425853Y-37698214D01*
X78425850Y-37698215D01*
X78223065Y-37773026D01*
X78223062Y-37773027D01*
X78220957Y-37773804D01*
X78219029Y-37774951D01*
X78219027Y-37774952D01*
X78033272Y-37885465D01*
X78031341Y-37886614D01*
X78029653Y-37888094D01*
X78029652Y-37888095D01*
X78008067Y-37907025D01*
X77865457Y-38032090D01*
X77778152Y-38142837D01*
X77745431Y-38161160D01*
X77739672Y-38161500D01*
X75929859Y-38161500D01*
X75895211Y-38147148D01*
X75890598Y-38141818D01*
X75827315Y-38057072D01*
X75827314Y-38057071D01*
X75825967Y-38055267D01*
X75663949Y-37905499D01*
X75477350Y-37787764D01*
X75396389Y-37755464D01*
X75274505Y-37706837D01*
X75274501Y-37706836D01*
X75272421Y-37706006D01*
X75270220Y-37705568D01*
X75270216Y-37705567D01*
X75124718Y-37676626D01*
X75056024Y-37662962D01*
X74950920Y-37661586D01*
X74837654Y-37660103D01*
X74837649Y-37660103D01*
X74835406Y-37660074D01*
X74833189Y-37660455D01*
X74833188Y-37660455D01*
X74768811Y-37671517D01*
X74617957Y-37697438D01*
X74615853Y-37698214D01*
X74615850Y-37698215D01*
X74413065Y-37773026D01*
X74413062Y-37773027D01*
X74410957Y-37773804D01*
X74409029Y-37774951D01*
X74409027Y-37774952D01*
X74223272Y-37885465D01*
X74221341Y-37886614D01*
X74219653Y-37888094D01*
X74219652Y-37888095D01*
X74198067Y-37907025D01*
X74055457Y-38032090D01*
X74054073Y-38033846D01*
X74054069Y-38033850D01*
X73947729Y-38168743D01*
X73918863Y-38205360D01*
X73917817Y-38207348D01*
X73834486Y-38365734D01*
X73816131Y-38400620D01*
X73750703Y-38611333D01*
X73750439Y-38613565D01*
X73750438Y-38613569D01*
X73741630Y-38687987D01*
X73724770Y-38830440D01*
X73730706Y-38920998D01*
X73738458Y-39039279D01*
X73724211Y-39077132D01*
X71913071Y-40888272D01*
X71910634Y-40890549D01*
X71865604Y-40929831D01*
X71828134Y-40983145D01*
X71826635Y-40985164D01*
X71786416Y-41036457D01*
X71780687Y-41049147D01*
X71776118Y-41057156D01*
X71769811Y-41066130D01*
X71769809Y-41066135D01*
X71768113Y-41068547D01*
X71767042Y-41071295D01*
X71744447Y-41129245D01*
X71743453Y-41131609D01*
X71734548Y-41151333D01*
X71716645Y-41190984D01*
X71714338Y-41203432D01*
X71714108Y-41204671D01*
X71711583Y-41213536D01*
X71706524Y-41226513D01*
X71706138Y-41229445D01*
X71698019Y-41291118D01*
X71697617Y-41293653D01*
X71685748Y-41357692D01*
X71685918Y-41360640D01*
X71689419Y-41421364D01*
X71689500Y-41424184D01*
X71689500Y-44726421D01*
X71678036Y-44757917D01*
X71562020Y-44896180D01*
X71562017Y-44896184D01*
X71560480Y-44898016D01*
X71539817Y-44935602D01*
X71468494Y-45065338D01*
X71465956Y-45069954D01*
X71406628Y-45256978D01*
X71384757Y-45451963D01*
X69493220Y-45451963D01*
X69476650Y-45282965D01*
X69475726Y-45278296D01*
X69423261Y-45104524D01*
X69421442Y-45100112D01*
X69371746Y-45006646D01*
X69365990Y-45001901D01*
X69363024Y-45002186D01*
X68906103Y-45459107D01*
X68903248Y-45466000D01*
X68176752Y-45466000D01*
X68173897Y-45459107D01*
X67719911Y-45005121D01*
X67713018Y-45002266D01*
X67710144Y-45003456D01*
X67663748Y-45087848D01*
X67661872Y-45092226D01*
X67606987Y-45265247D01*
X67605997Y-45269902D01*
X67585763Y-45450296D01*
X67585696Y-45455057D01*
X67044268Y-45455057D01*
X67026194Y-45270728D01*
X66988534Y-45145991D01*
X66970178Y-45085191D01*
X66970176Y-45085186D01*
X66969484Y-45082894D01*
X66877370Y-44909653D01*
X66852339Y-44878961D01*
X66754878Y-44759462D01*
X66753361Y-44757602D01*
X66753858Y-44757197D01*
X66740500Y-44724787D01*
X66740500Y-44639892D01*
X68075747Y-44639892D01*
X68076007Y-44642797D01*
X68533107Y-45099897D01*
X68540000Y-45102752D01*
X68546893Y-45099897D01*
X69000956Y-44645834D01*
X69003811Y-44638941D01*
X69002646Y-44636128D01*
X68912027Y-44587131D01*
X68907636Y-44585285D01*
X68734232Y-44531607D01*
X68729571Y-44530650D01*
X68549047Y-44511676D01*
X68544274Y-44511643D01*
X68363516Y-44528094D01*
X68358824Y-44528990D01*
X68184705Y-44580235D01*
X68180277Y-44582024D01*
X68080532Y-44634170D01*
X68075747Y-44639892D01*
X66740500Y-44639892D01*
X66740500Y-39863930D01*
X66754852Y-39829282D01*
X66758167Y-39826257D01*
X66759019Y-39825549D01*
X66892518Y-39714518D01*
X67004258Y-39580167D01*
X67037447Y-39562706D01*
X67041930Y-39562500D01*
X68849543Y-39562500D01*
X68884191Y-39576852D01*
X68889558Y-39583220D01*
X68931921Y-39643163D01*
X68931929Y-39643172D01*
X68933222Y-39645002D01*
X68934826Y-39646565D01*
X68934829Y-39646568D01*
X69089660Y-39797399D01*
X69089663Y-39797402D01*
X69091264Y-39798961D01*
X69093126Y-39800205D01*
X69093127Y-39800206D01*
X69266399Y-39915982D01*
X69274717Y-39921540D01*
X69477436Y-40008635D01*
X69506697Y-40015256D01*
X69690442Y-40056834D01*
X69690448Y-40056835D01*
X69692632Y-40057329D01*
X69785492Y-40060977D01*
X69910851Y-40065903D01*
X69910854Y-40065903D01*
X69913098Y-40065991D01*
X69915317Y-40065669D01*
X69915322Y-40065669D01*
X70044310Y-40046966D01*
X70131452Y-40034331D01*
X70133574Y-40033611D01*
X70133577Y-40033610D01*
X70275781Y-39985338D01*
X70340379Y-39963410D01*
X70362473Y-39951037D01*
X70530922Y-39856701D01*
X70530924Y-39856700D01*
X70532884Y-39855602D01*
X70542215Y-39847842D01*
X70700795Y-39715951D01*
X70702518Y-39714518D01*
X70747042Y-39660984D01*
X70842166Y-39546611D01*
X70842168Y-39546609D01*
X70843602Y-39544884D01*
X70885650Y-39469803D01*
X70950314Y-39354336D01*
X70951410Y-39352379D01*
X71022331Y-39143452D01*
X71053991Y-38925098D01*
X71055643Y-38862000D01*
X71052538Y-38828208D01*
X71035660Y-38644526D01*
X71035659Y-38644521D01*
X71035454Y-38642289D01*
X70994168Y-38495897D01*
X70976177Y-38432105D01*
X70976176Y-38432102D01*
X70975565Y-38429936D01*
X70951612Y-38381363D01*
X70892042Y-38260568D01*
X70877980Y-38232053D01*
X70745967Y-38055267D01*
X70583949Y-37905499D01*
X70397350Y-37787764D01*
X70316389Y-37755464D01*
X70194505Y-37706837D01*
X70194501Y-37706836D01*
X70192421Y-37706006D01*
X70190220Y-37705568D01*
X70190216Y-37705567D01*
X70044718Y-37676626D01*
X69976024Y-37662962D01*
X69870920Y-37661586D01*
X69757654Y-37660103D01*
X69757649Y-37660103D01*
X69755406Y-37660074D01*
X69753189Y-37660455D01*
X69753188Y-37660455D01*
X69688811Y-37671517D01*
X69537957Y-37697438D01*
X69535853Y-37698214D01*
X69535850Y-37698215D01*
X69333065Y-37773026D01*
X69333062Y-37773027D01*
X69330957Y-37773804D01*
X69329029Y-37774951D01*
X69329027Y-37774952D01*
X69143272Y-37885465D01*
X69141341Y-37886614D01*
X69139653Y-37888094D01*
X69139652Y-37888095D01*
X69118067Y-37907025D01*
X68975457Y-38032090D01*
X68888152Y-38142837D01*
X68855431Y-38161160D01*
X68849672Y-38161500D01*
X67039859Y-38161500D01*
X67005211Y-38147148D01*
X67000598Y-38141818D01*
X66937315Y-38057072D01*
X66937314Y-38057071D01*
X66935967Y-38055267D01*
X66773949Y-37905499D01*
X66587350Y-37787764D01*
X66506389Y-37755464D01*
X66384505Y-37706837D01*
X66384501Y-37706836D01*
X66382421Y-37706006D01*
X66380220Y-37705568D01*
X66380216Y-37705567D01*
X66234718Y-37676626D01*
X66166024Y-37662962D01*
X66060920Y-37661586D01*
X65947654Y-37660103D01*
X65947649Y-37660103D01*
X65945406Y-37660074D01*
X65943189Y-37660455D01*
X65943188Y-37660455D01*
X65878811Y-37671517D01*
X65727957Y-37697438D01*
X65725853Y-37698214D01*
X65725850Y-37698215D01*
X65523065Y-37773026D01*
X65523062Y-37773027D01*
X65520957Y-37773804D01*
X65519029Y-37774951D01*
X65519027Y-37774952D01*
X65333272Y-37885465D01*
X65331341Y-37886614D01*
X65329653Y-37888094D01*
X65329652Y-37888095D01*
X65308067Y-37907025D01*
X65165457Y-38032090D01*
X65164073Y-38033846D01*
X65164069Y-38033850D01*
X65057729Y-38168743D01*
X65028863Y-38205360D01*
X65027817Y-38207348D01*
X64944486Y-38365734D01*
X64926131Y-38400620D01*
X64860703Y-38611333D01*
X64860439Y-38613565D01*
X64860438Y-38613569D01*
X64851630Y-38687987D01*
X64834770Y-38830440D01*
X62162743Y-38830440D01*
X62162538Y-38828208D01*
X62145660Y-38644526D01*
X62145659Y-38644521D01*
X62145454Y-38642289D01*
X62104168Y-38495897D01*
X62086177Y-38432105D01*
X62086176Y-38432102D01*
X62085565Y-38429936D01*
X62061612Y-38381363D01*
X62002042Y-38260568D01*
X61987980Y-38232053D01*
X61855967Y-38055267D01*
X61693949Y-37905499D01*
X61507350Y-37787764D01*
X61426389Y-37755464D01*
X61304505Y-37706837D01*
X61304501Y-37706836D01*
X61302421Y-37706006D01*
X61300220Y-37705568D01*
X61300216Y-37705567D01*
X61154718Y-37676626D01*
X61086024Y-37662962D01*
X60980920Y-37661586D01*
X60867654Y-37660103D01*
X60867649Y-37660103D01*
X60865406Y-37660074D01*
X60863189Y-37660455D01*
X60863188Y-37660455D01*
X60798811Y-37671517D01*
X60647957Y-37697438D01*
X60645853Y-37698214D01*
X60645850Y-37698215D01*
X60443065Y-37773026D01*
X60443062Y-37773027D01*
X60440957Y-37773804D01*
X60439029Y-37774951D01*
X60439027Y-37774952D01*
X60253272Y-37885465D01*
X60251341Y-37886614D01*
X60249653Y-37888094D01*
X60249652Y-37888095D01*
X60228067Y-37907025D01*
X60085457Y-38032090D01*
X60084073Y-38033846D01*
X60084069Y-38033850D01*
X59977729Y-38168743D01*
X59948863Y-38205360D01*
X59947817Y-38207348D01*
X59864486Y-38365734D01*
X59846131Y-38400620D01*
X59780703Y-38611333D01*
X59780439Y-38613565D01*
X59780438Y-38613569D01*
X59771630Y-38687987D01*
X59754770Y-38830440D01*
X59760706Y-38920998D01*
X59768458Y-39039279D01*
X59754211Y-39077132D01*
X58144195Y-40687148D01*
X58109547Y-40701500D01*
X56879859Y-40701500D01*
X56845211Y-40687148D01*
X56840598Y-40681818D01*
X56777315Y-40597072D01*
X56777314Y-40597071D01*
X56775967Y-40595267D01*
X56613949Y-40445499D01*
X56427350Y-40327764D01*
X56390409Y-40313026D01*
X56224505Y-40246837D01*
X56224501Y-40246836D01*
X56222421Y-40246006D01*
X56220220Y-40245568D01*
X56220216Y-40245567D01*
X56078988Y-40217475D01*
X56006024Y-40202962D01*
X55900920Y-40201586D01*
X55787654Y-40200103D01*
X55787649Y-40200103D01*
X55785406Y-40200074D01*
X55783189Y-40200455D01*
X55783188Y-40200455D01*
X55716857Y-40211853D01*
X55567957Y-40237438D01*
X55565853Y-40238214D01*
X55565850Y-40238215D01*
X55363065Y-40313026D01*
X55363062Y-40313027D01*
X55360957Y-40313804D01*
X55359029Y-40314951D01*
X55359027Y-40314952D01*
X55337492Y-40327764D01*
X55171341Y-40426614D01*
X55169653Y-40428094D01*
X55169652Y-40428095D01*
X55107669Y-40482453D01*
X55005457Y-40572090D01*
X55004072Y-40573847D01*
X55004069Y-40573850D01*
X54918955Y-40681818D01*
X54868863Y-40745360D01*
X54867817Y-40747348D01*
X54852364Y-40776719D01*
X54823530Y-40800700D01*
X54786185Y-40797268D01*
X54762204Y-40768434D01*
X54760000Y-40753904D01*
X54760000Y-39835043D01*
X55270205Y-39835043D01*
X55271750Y-39838773D01*
X55327047Y-39875721D01*
X55330981Y-39877857D01*
X55521042Y-39959513D01*
X55525300Y-39960897D01*
X55727062Y-40006551D01*
X55731497Y-40007134D01*
X55938197Y-40015256D01*
X55942668Y-40015022D01*
X56147388Y-39985338D01*
X56151737Y-39984295D01*
X56347632Y-39917797D01*
X56351708Y-39915982D01*
X56486192Y-39840669D01*
X56490810Y-39834810D01*
X56490436Y-39831646D01*
X55886893Y-39228103D01*
X55880000Y-39225248D01*
X55873107Y-39228103D01*
X55273060Y-39828150D01*
X55270205Y-39835043D01*
X54760000Y-39835043D01*
X54760000Y-39402917D01*
X54774352Y-39368269D01*
X54809000Y-39353917D01*
X54843648Y-39368269D01*
X54853499Y-39382403D01*
X54878861Y-39437418D01*
X54881105Y-39441303D01*
X54900482Y-39468721D01*
X54906792Y-39472703D01*
X54911051Y-39471739D01*
X55513897Y-38868893D01*
X55516752Y-38862000D01*
X56243248Y-38862000D01*
X56246103Y-38868893D01*
X56847013Y-39469803D01*
X56853906Y-39472658D01*
X56856850Y-39471439D01*
X56933982Y-39333708D01*
X56935797Y-39329632D01*
X57002295Y-39133737D01*
X57003338Y-39129388D01*
X57033137Y-38923874D01*
X57033382Y-38920998D01*
X57034889Y-38863453D01*
X57034794Y-38860551D01*
X57015794Y-38653775D01*
X57014977Y-38649363D01*
X56958826Y-38450272D01*
X56957225Y-38446099D01*
X56865731Y-38260568D01*
X56863390Y-38256749D01*
X56861130Y-38253722D01*
X56854718Y-38249907D01*
X56850140Y-38251070D01*
X56246103Y-38855107D01*
X56243248Y-38862000D01*
X55516752Y-38862000D01*
X55513897Y-38855107D01*
X54911524Y-38252734D01*
X54904631Y-38249879D01*
X54901915Y-38251004D01*
X54852364Y-38345185D01*
X54823531Y-38369166D01*
X54786185Y-38365734D01*
X54762204Y-38336901D01*
X54760000Y-38322370D01*
X54760000Y-37889954D01*
X55270084Y-37889954D01*
X55270579Y-37893369D01*
X55873107Y-38495897D01*
X55880000Y-38498752D01*
X55886893Y-38495897D01*
X56486651Y-37896139D01*
X56489506Y-37889246D01*
X56488078Y-37885797D01*
X56406227Y-37834153D01*
X56402237Y-37832120D01*
X56210101Y-37755464D01*
X56205813Y-37754195D01*
X56002929Y-37713839D01*
X55998478Y-37713371D01*
X55791633Y-37710662D01*
X55787167Y-37711014D01*
X55583296Y-37746046D01*
X55578976Y-37747203D01*
X55384899Y-37818802D01*
X55380861Y-37820728D01*
X55274547Y-37883978D01*
X55270084Y-37889954D01*
X54760000Y-37889954D01*
X54760000Y-37295043D01*
X55270205Y-37295043D01*
X55271750Y-37298773D01*
X55327047Y-37335721D01*
X55330981Y-37337857D01*
X55521042Y-37419513D01*
X55525300Y-37420897D01*
X55727062Y-37466551D01*
X55731497Y-37467134D01*
X55938197Y-37475256D01*
X55942668Y-37475022D01*
X56147388Y-37445338D01*
X56151737Y-37444295D01*
X56347632Y-37377797D01*
X56351708Y-37375982D01*
X56486192Y-37300669D01*
X56490810Y-37294810D01*
X56490436Y-37291646D01*
X55886893Y-36688103D01*
X55880000Y-36685248D01*
X55873107Y-36688103D01*
X55273060Y-37288150D01*
X55270205Y-37295043D01*
X54760000Y-37295043D01*
X54760000Y-36862917D01*
X54774352Y-36828269D01*
X54809000Y-36813917D01*
X54843648Y-36828269D01*
X54853499Y-36842403D01*
X54878861Y-36897418D01*
X54881105Y-36901303D01*
X54900482Y-36928721D01*
X54906792Y-36932703D01*
X54911051Y-36931739D01*
X55513897Y-36328893D01*
X55516752Y-36322000D01*
X56243248Y-36322000D01*
X56246103Y-36328893D01*
X56847013Y-36929803D01*
X56853906Y-36932658D01*
X56856850Y-36931439D01*
X56933982Y-36793708D01*
X56935797Y-36789632D01*
X57002295Y-36593737D01*
X57003338Y-36589388D01*
X57033137Y-36383874D01*
X57033382Y-36380998D01*
X57034889Y-36323453D01*
X57034794Y-36320551D01*
X57015794Y-36113775D01*
X57014977Y-36109363D01*
X56958826Y-35910272D01*
X56957225Y-35906099D01*
X56865731Y-35720568D01*
X56863390Y-35716749D01*
X56861130Y-35713722D01*
X56854718Y-35709907D01*
X56850140Y-35711070D01*
X56246103Y-36315107D01*
X56243248Y-36322000D01*
X55516752Y-36322000D01*
X55513897Y-36315107D01*
X54911524Y-35712734D01*
X54904631Y-35709879D01*
X54901915Y-35711004D01*
X54852364Y-35805185D01*
X54823531Y-35829166D01*
X54786185Y-35825734D01*
X54762204Y-35796901D01*
X54760000Y-35782370D01*
X54760000Y-35349954D01*
X55270084Y-35349954D01*
X55270579Y-35353369D01*
X55873107Y-35955897D01*
X55880000Y-35958752D01*
X55886893Y-35955897D01*
X56486651Y-35356139D01*
X56489506Y-35349246D01*
X56488078Y-35345797D01*
X56406227Y-35294153D01*
X56402237Y-35292120D01*
X56210101Y-35215464D01*
X56205813Y-35214195D01*
X56002929Y-35173839D01*
X55998478Y-35173371D01*
X55791633Y-35170662D01*
X55787167Y-35171014D01*
X55583296Y-35206046D01*
X55578976Y-35207203D01*
X55384899Y-35278802D01*
X55380861Y-35280728D01*
X55274547Y-35343978D01*
X55270084Y-35349954D01*
X54760000Y-35349954D01*
X54760000Y-33554196D01*
X54761670Y-33541514D01*
X54763621Y-33534233D01*
X54763621Y-33534232D01*
X54765291Y-33528000D01*
X54763621Y-33521768D01*
X54763621Y-33515317D01*
X54763686Y-33515317D01*
X54763015Y-33505097D01*
X54771357Y-33441737D01*
X54774668Y-33429382D01*
X54805494Y-33354960D01*
X54811887Y-33343886D01*
X54860931Y-33279971D01*
X54869971Y-33270931D01*
X54933886Y-33221887D01*
X54944958Y-33215495D01*
X55019383Y-33184668D01*
X55031736Y-33181357D01*
X55095098Y-33173015D01*
X55105317Y-33173686D01*
X55105317Y-33173621D01*
X55111768Y-33173621D01*
X55118000Y-33175291D01*
X55124232Y-33173621D01*
X55124233Y-33173621D01*
X55131514Y-33171670D01*
X55144196Y-33170000D01*
X98525804Y-33170000D01*
X98538486Y-33171670D01*
G37*
%TD.AperFunction*%
%TD*%
M02*
