%TF.GenerationSoftware,KiCad,Pcbnew,(6.0.0)*%
%TF.CreationDate,2022-01-14T09:56:19+02:00*%
%TF.ProjectId,uSDX_BPF,75534458-5f42-4504-962e-6b696361645f,rev?*%
%TF.SameCoordinates,Original*%
%TF.FileFunction,Legend,Top*%
%TF.FilePolarity,Positive*%
%FSLAX46Y46*%
G04 Gerber Fmt 4.6, Leading zero omitted, Abs format (unit mm)*
G04 Created by KiCad (PCBNEW (6.0.0)) date 2022-01-14 09:56:19*
%MOMM*%
%LPD*%
G01*
G04 APERTURE LIST*
%ADD10C,0.150000*%
%ADD11C,0.120000*%
G04 APERTURE END LIST*
D10*
%TO.C,C6*%
X90073829Y-45632665D02*
X90121448Y-45680284D01*
X90169067Y-45823141D01*
X90169067Y-45918379D01*
X90121448Y-46061237D01*
X90026210Y-46156475D01*
X89930972Y-46204094D01*
X89740496Y-46251713D01*
X89597639Y-46251713D01*
X89407163Y-46204094D01*
X89311925Y-46156475D01*
X89216687Y-46061237D01*
X89169067Y-45918379D01*
X89169067Y-45823141D01*
X89216687Y-45680284D01*
X89264306Y-45632665D01*
X89169067Y-44775522D02*
X89169067Y-44965999D01*
X89216687Y-45061237D01*
X89264306Y-45108856D01*
X89407163Y-45204094D01*
X89597639Y-45251713D01*
X89978591Y-45251713D01*
X90073829Y-45204094D01*
X90121448Y-45156475D01*
X90169067Y-45061237D01*
X90169067Y-44870760D01*
X90121448Y-44775522D01*
X90073829Y-44727903D01*
X89978591Y-44680284D01*
X89740496Y-44680284D01*
X89645258Y-44727903D01*
X89597639Y-44775522D01*
X89550020Y-44870760D01*
X89550020Y-45061237D01*
X89597639Y-45156475D01*
X89645258Y-45204094D01*
X89740496Y-45251713D01*
%TO.C,C5*%
X83754187Y-45644438D02*
X83801806Y-45692057D01*
X83849425Y-45834914D01*
X83849425Y-45930152D01*
X83801806Y-46073010D01*
X83706568Y-46168248D01*
X83611330Y-46215867D01*
X83420854Y-46263486D01*
X83277997Y-46263486D01*
X83087521Y-46215867D01*
X82992283Y-46168248D01*
X82897045Y-46073010D01*
X82849425Y-45930152D01*
X82849425Y-45834914D01*
X82897045Y-45692057D01*
X82944664Y-45644438D01*
X82849425Y-44739676D02*
X82849425Y-45215867D01*
X83325616Y-45263486D01*
X83277997Y-45215867D01*
X83230378Y-45120629D01*
X83230378Y-44882533D01*
X83277997Y-44787295D01*
X83325616Y-44739676D01*
X83420854Y-44692057D01*
X83658949Y-44692057D01*
X83754187Y-44739676D01*
X83801806Y-44787295D01*
X83849425Y-44882533D01*
X83849425Y-45120629D01*
X83801806Y-45215867D01*
X83754187Y-45263486D01*
%TO.C,C4*%
X77383542Y-45653068D02*
X77431161Y-45700687D01*
X77478780Y-45843544D01*
X77478780Y-45938782D01*
X77431161Y-46081640D01*
X77335923Y-46176878D01*
X77240685Y-46224497D01*
X77050209Y-46272116D01*
X76907352Y-46272116D01*
X76716876Y-46224497D01*
X76621638Y-46176878D01*
X76526400Y-46081640D01*
X76478780Y-45938782D01*
X76478780Y-45843544D01*
X76526400Y-45700687D01*
X76574019Y-45653068D01*
X76812114Y-44795925D02*
X77478780Y-44795925D01*
X76431161Y-45034021D02*
X77145447Y-45272116D01*
X77145447Y-44653068D01*
%TO.C,C3*%
X71059874Y-45625318D02*
X71107493Y-45672937D01*
X71155112Y-45815794D01*
X71155112Y-45911032D01*
X71107493Y-46053890D01*
X71012255Y-46149128D01*
X70917017Y-46196747D01*
X70726541Y-46244366D01*
X70583684Y-46244366D01*
X70393208Y-46196747D01*
X70297970Y-46149128D01*
X70202732Y-46053890D01*
X70155112Y-45911032D01*
X70155112Y-45815794D01*
X70202732Y-45672937D01*
X70250351Y-45625318D01*
X70155112Y-45291985D02*
X70155112Y-44672937D01*
X70536065Y-45006271D01*
X70536065Y-44863413D01*
X70583684Y-44768175D01*
X70631303Y-44720556D01*
X70726541Y-44672937D01*
X70964636Y-44672937D01*
X71059874Y-44720556D01*
X71107493Y-44768175D01*
X71155112Y-44863413D01*
X71155112Y-45149128D01*
X71107493Y-45244366D01*
X71059874Y-45291985D01*
%TO.C,C2*%
X64671352Y-45624932D02*
X64718971Y-45672551D01*
X64766590Y-45815408D01*
X64766590Y-45910646D01*
X64718971Y-46053504D01*
X64623733Y-46148742D01*
X64528495Y-46196361D01*
X64338019Y-46243980D01*
X64195162Y-46243980D01*
X64004686Y-46196361D01*
X63909448Y-46148742D01*
X63814210Y-46053504D01*
X63766590Y-45910646D01*
X63766590Y-45815408D01*
X63814210Y-45672551D01*
X63861829Y-45624932D01*
X63861829Y-45243980D02*
X63814210Y-45196361D01*
X63766590Y-45101123D01*
X63766590Y-44863027D01*
X63814210Y-44767789D01*
X63861829Y-44720170D01*
X63957067Y-44672551D01*
X64052305Y-44672551D01*
X64195162Y-44720170D01*
X64766590Y-45291599D01*
X64766590Y-44672551D01*
%TO.C,C1*%
X58507333Y-44045142D02*
X58459714Y-44092761D01*
X58316857Y-44140380D01*
X58221619Y-44140380D01*
X58078761Y-44092761D01*
X57983523Y-43997523D01*
X57935904Y-43902285D01*
X57888285Y-43711809D01*
X57888285Y-43568952D01*
X57935904Y-43378476D01*
X57983523Y-43283238D01*
X58078761Y-43188000D01*
X58221619Y-43140380D01*
X58316857Y-43140380D01*
X58459714Y-43188000D01*
X58507333Y-43235619D01*
X59459714Y-44140380D02*
X58888285Y-44140380D01*
X59174000Y-44140380D02*
X59174000Y-43140380D01*
X59078761Y-43283238D01*
X58983523Y-43378476D01*
X58888285Y-43426095D01*
%TO.C,L4*%
X86812380Y-35218666D02*
X86812380Y-35694857D01*
X85812380Y-35694857D01*
X86145714Y-34456761D02*
X86812380Y-34456761D01*
X85764761Y-34694857D02*
X86479047Y-34932952D01*
X86479047Y-34313904D01*
%TO.C,L3*%
X77922380Y-35218666D02*
X77922380Y-35694857D01*
X76922380Y-35694857D01*
X76922380Y-34980571D02*
X76922380Y-34361523D01*
X77303333Y-34694857D01*
X77303333Y-34552000D01*
X77350952Y-34456761D01*
X77398571Y-34409142D01*
X77493809Y-34361523D01*
X77731904Y-34361523D01*
X77827142Y-34409142D01*
X77874761Y-34456761D01*
X77922380Y-34552000D01*
X77922380Y-34837714D01*
X77874761Y-34932952D01*
X77827142Y-34980571D01*
%TO.C,L2*%
X69032380Y-35218666D02*
X69032380Y-35694857D01*
X68032380Y-35694857D01*
X68127619Y-34932952D02*
X68080000Y-34885333D01*
X68032380Y-34790095D01*
X68032380Y-34552000D01*
X68080000Y-34456761D01*
X68127619Y-34409142D01*
X68222857Y-34361523D01*
X68318095Y-34361523D01*
X68460952Y-34409142D01*
X69032380Y-34980571D01*
X69032380Y-34361523D01*
%TO.C,L1*%
X60142380Y-35218666D02*
X60142380Y-35694857D01*
X59142380Y-35694857D01*
X60142380Y-34361523D02*
X60142380Y-34932952D01*
X60142380Y-34647238D02*
X59142380Y-34647238D01*
X59285238Y-34742476D01*
X59380476Y-34837714D01*
X59428095Y-34932952D01*
%TO.C,GND*%
X57483441Y-37189903D02*
X57388203Y-37142283D01*
X57245346Y-37142283D01*
X57102488Y-37189903D01*
X57007250Y-37285141D01*
X56959631Y-37380379D01*
X56912012Y-37570855D01*
X56912012Y-37713712D01*
X56959631Y-37904188D01*
X57007250Y-37999426D01*
X57102488Y-38094664D01*
X57245346Y-38142283D01*
X57340584Y-38142283D01*
X57483441Y-38094664D01*
X57531060Y-38047045D01*
X57531060Y-37713712D01*
X57340584Y-37713712D01*
X57959631Y-38142283D02*
X57959631Y-37142283D01*
X58531060Y-38142283D01*
X58531060Y-37142283D01*
X59007250Y-38142283D02*
X59007250Y-37142283D01*
X59245346Y-37142283D01*
X59388203Y-37189903D01*
X59483441Y-37285141D01*
X59531060Y-37380379D01*
X59578679Y-37570855D01*
X59578679Y-37713712D01*
X59531060Y-37904188D01*
X59483441Y-37999426D01*
X59388203Y-38094664D01*
X59245346Y-38142283D01*
X59007250Y-38142283D01*
%TO.C, *%
%TO.C,ANT2*%
X58078666Y-42767047D02*
X58078666Y-42290857D01*
X58364380Y-42862285D02*
X57364380Y-42528952D01*
X58364380Y-42195619D01*
X58364380Y-41862285D02*
X57364380Y-41862285D01*
X58364380Y-41290857D01*
X57364380Y-41290857D01*
X57364380Y-40957523D02*
X57364380Y-40386095D01*
X58364380Y-40671809D02*
X57364380Y-40671809D01*
X57459619Y-40100380D02*
X57412000Y-40052761D01*
X57364380Y-39957523D01*
X57364380Y-39719428D01*
X57412000Y-39624190D01*
X57459619Y-39576571D01*
X57554857Y-39528952D01*
X57650095Y-39528952D01*
X57792952Y-39576571D01*
X58364380Y-40148000D01*
X58364380Y-39528952D01*
%TO.C,ANT1*%
X55026305Y-46176538D02*
X55502495Y-46176538D01*
X54931067Y-46462252D02*
X55264400Y-45462252D01*
X55597733Y-46462252D01*
X55931067Y-46462252D02*
X55931067Y-45462252D01*
X56502495Y-46462252D01*
X56502495Y-45462252D01*
X56835829Y-45462252D02*
X57407257Y-45462252D01*
X57121543Y-46462252D02*
X57121543Y-45462252D01*
X58264400Y-46462252D02*
X57692972Y-46462252D01*
X57978686Y-46462252D02*
X57978686Y-45462252D01*
X57883448Y-45605110D01*
X57788210Y-45700348D01*
X57692972Y-45747967D01*
%TO.C,+12V*%
X94758095Y-34361428D02*
X95520000Y-34361428D01*
X95139047Y-34742380D02*
X95139047Y-33980476D01*
X96520000Y-34742380D02*
X95948571Y-34742380D01*
X96234285Y-34742380D02*
X96234285Y-33742380D01*
X96139047Y-33885238D01*
X96043809Y-33980476D01*
X95948571Y-34028095D01*
X96900952Y-33837619D02*
X96948571Y-33790000D01*
X97043809Y-33742380D01*
X97281904Y-33742380D01*
X97377142Y-33790000D01*
X97424761Y-33837619D01*
X97472380Y-33932857D01*
X97472380Y-34028095D01*
X97424761Y-34170952D01*
X96853333Y-34742380D01*
X97472380Y-34742380D01*
X97758095Y-33742380D02*
X98091428Y-34742380D01*
X98424761Y-33742380D01*
%TO.C,TX*%
X94742095Y-38314380D02*
X95313523Y-38314380D01*
X95027809Y-39314380D02*
X95027809Y-38314380D01*
X95551619Y-38314380D02*
X96218285Y-39314380D01*
X96218285Y-38314380D02*
X95551619Y-39314380D01*
%TO.C,RX*%
X95253333Y-41934380D02*
X94920000Y-41458190D01*
X94681904Y-41934380D02*
X94681904Y-40934380D01*
X95062857Y-40934380D01*
X95158095Y-40982000D01*
X95205714Y-41029619D01*
X95253333Y-41124857D01*
X95253333Y-41267714D01*
X95205714Y-41362952D01*
X95158095Y-41410571D01*
X95062857Y-41458190D01*
X94681904Y-41458190D01*
X95586666Y-40934380D02*
X96253333Y-41934380D01*
X96253333Y-40934380D02*
X95586666Y-41934380D01*
%TO.C,GND*%
X94234095Y-43188000D02*
X94138857Y-43140380D01*
X93996000Y-43140380D01*
X93853142Y-43188000D01*
X93757904Y-43283238D01*
X93710285Y-43378476D01*
X93662666Y-43568952D01*
X93662666Y-43711809D01*
X93710285Y-43902285D01*
X93757904Y-43997523D01*
X93853142Y-44092761D01*
X93996000Y-44140380D01*
X94091238Y-44140380D01*
X94234095Y-44092761D01*
X94281714Y-44045142D01*
X94281714Y-43711809D01*
X94091238Y-43711809D01*
X94710285Y-44140380D02*
X94710285Y-43140380D01*
X95281714Y-44140380D01*
X95281714Y-43140380D01*
X95757904Y-44140380D02*
X95757904Y-43140380D01*
X95996000Y-43140380D01*
X96138857Y-43188000D01*
X96234095Y-43283238D01*
X96281714Y-43378476D01*
X96329333Y-43568952D01*
X96329333Y-43711809D01*
X96281714Y-43902285D01*
X96234095Y-43997523D01*
X96138857Y-44092761D01*
X95996000Y-44140380D01*
X95757904Y-44140380D01*
D11*
%TO.C,C6*%
X92061000Y-44546000D02*
X93319000Y-44546000D01*
X92061000Y-46386000D02*
X93319000Y-46386000D01*
%TO.C,C5*%
X87009000Y-46386000D02*
X85751000Y-46386000D01*
X87009000Y-44546000D02*
X85751000Y-44546000D01*
%TO.C,C4*%
X79361000Y-44546000D02*
X80619000Y-44546000D01*
X79361000Y-46386000D02*
X80619000Y-46386000D01*
%TO.C,C3*%
X73011000Y-44546000D02*
X74269000Y-44546000D01*
X73011000Y-46386000D02*
X74269000Y-46386000D01*
%TO.C,C2*%
X66661000Y-44546000D02*
X67919000Y-44546000D01*
X66661000Y-46386000D02*
X67919000Y-46386000D01*
%TO.C,C1*%
X60311000Y-44546000D02*
X61569000Y-44546000D01*
X60311000Y-46386000D02*
X61569000Y-46386000D01*
%TO.C,L4*%
X87550000Y-33742000D02*
X92790000Y-33742000D01*
X87550000Y-43982000D02*
X92790000Y-43982000D01*
X92790000Y-37607000D02*
X92790000Y-33742000D01*
X92790000Y-43982000D02*
X92790000Y-40117000D01*
X87550000Y-37607000D02*
X87550000Y-33742000D01*
X87550000Y-43982000D02*
X87550000Y-40117000D01*
%TO.C,L3*%
X78660000Y-33742000D02*
X83900000Y-33742000D01*
X78660000Y-43982000D02*
X83900000Y-43982000D01*
X83900000Y-37607000D02*
X83900000Y-33742000D01*
X83900000Y-43982000D02*
X83900000Y-40117000D01*
X78660000Y-37607000D02*
X78660000Y-33742000D01*
X78660000Y-43982000D02*
X78660000Y-40117000D01*
%TO.C,L2*%
X69770000Y-33742000D02*
X75010000Y-33742000D01*
X69770000Y-43982000D02*
X75010000Y-43982000D01*
X75010000Y-37607000D02*
X75010000Y-33742000D01*
X75010000Y-43982000D02*
X75010000Y-40117000D01*
X69770000Y-37607000D02*
X69770000Y-33742000D01*
X69770000Y-43982000D02*
X69770000Y-40117000D01*
%TO.C,L1*%
X60880000Y-33742000D02*
X66120000Y-33742000D01*
X60880000Y-43982000D02*
X66120000Y-43982000D01*
X66120000Y-37607000D02*
X66120000Y-33742000D01*
X66120000Y-43982000D02*
X66120000Y-40117000D01*
X60880000Y-37607000D02*
X60880000Y-33742000D01*
X60880000Y-43982000D02*
X60880000Y-40117000D01*
%TD*%
M02*
