%TF.GenerationSoftware,KiCad,Pcbnew,(6.0.0)*%
%TF.CreationDate,2022-01-14T09:56:19+02:00*%
%TF.ProjectId,uSDX_BPF,75534458-5f42-4504-962e-6b696361645f,rev?*%
%TF.SameCoordinates,Original*%
%TF.FileFunction,Copper,L1,Top*%
%TF.FilePolarity,Positive*%
%FSLAX46Y46*%
G04 Gerber Fmt 4.6, Leading zero omitted, Abs format (unit mm)*
G04 Created by KiCad (PCBNEW (6.0.0)) date 2022-01-14 09:56:19*
%MOMM*%
%LPD*%
G01*
G04 APERTURE LIST*
%TA.AperFunction,ComponentPad*%
%ADD10C,1.600000*%
%TD*%
%TA.AperFunction,ComponentPad*%
%ADD11C,2.000000*%
%TD*%
%TA.AperFunction,ViaPad*%
%ADD12C,0.800000*%
%TD*%
%TA.AperFunction,Conductor*%
%ADD13C,1.000000*%
%TD*%
G04 APERTURE END LIST*
D10*
%TO.P,C6,2*%
%TO.N,GND*%
X93940000Y-45466000D03*
%TO.P,C6,1*%
%TO.N,Net-(C5-Pad1)*%
X91440000Y-45466000D03*
%TD*%
%TO.P,C5,2*%
%TO.N,Net-(C4-Pad1)*%
X85130000Y-45466000D03*
%TO.P,C5,1*%
%TO.N,Net-(C5-Pad1)*%
X87630000Y-45466000D03*
%TD*%
%TO.P,C4,2*%
%TO.N,GND*%
X81240000Y-45466000D03*
%TO.P,C4,1*%
%TO.N,Net-(C4-Pad1)*%
X78740000Y-45466000D03*
%TD*%
%TO.P,C3,2*%
%TO.N,GND*%
X74890000Y-45466000D03*
%TO.P,C3,1*%
%TO.N,Net-(C3-Pad1)*%
X72390000Y-45466000D03*
%TD*%
%TO.P,C2,2*%
%TO.N,GND*%
X68540000Y-45466000D03*
%TO.P,C2,1*%
%TO.N,Net-(C2-Pad1)*%
X66040000Y-45466000D03*
%TD*%
%TO.P,C1,2*%
%TO.N,GND*%
X62190000Y-45466000D03*
%TO.P,C1,1*%
%TO.N,Net-(C1-Pad1)*%
X59690000Y-45466000D03*
%TD*%
D11*
%TO.P,L4,2*%
%TO.N,Net-(L4-Pad2)*%
X92710000Y-38862000D03*
%TO.P,L4,1*%
%TO.N,Net-(C5-Pad1)*%
X87630000Y-38862000D03*
%TD*%
%TO.P,L3,2*%
%TO.N,Net-(C4-Pad1)*%
X83820000Y-38862000D03*
%TO.P,L3,1*%
%TO.N,Net-(C3-Pad1)*%
X78740000Y-38862000D03*
%TD*%
%TO.P,L2,2*%
%TO.N,Net-(C3-Pad1)*%
X74930000Y-38862000D03*
%TO.P,L2,1*%
%TO.N,Net-(C2-Pad1)*%
X69850000Y-38862000D03*
%TD*%
%TO.P,L1,2*%
%TO.N,Net-(C2-Pad1)*%
X66040000Y-38862000D03*
%TO.P,L1,1*%
%TO.N,Net-(C1-Pad1)*%
X60960000Y-38862000D03*
%TD*%
%TO.P,GND,1*%
%TO.N,GND*%
X55880000Y-36322000D03*
%TD*%
%TO.P, ,1*%
%TO.N,GND*%
X55880000Y-38862000D03*
%TD*%
%TO.P,ANT2,1*%
%TO.N,Net-(C1-Pad1)*%
X55880000Y-41402000D03*
%TD*%
%TO.P,ANT1,1*%
%TO.N,Net-(C1-Pad1)*%
X55880000Y-43942000D03*
%TD*%
%TO.P,+12V,1*%
%TO.N,Net-(L4-Pad2)*%
X97790000Y-36322000D03*
%TD*%
%TO.P,TX,1*%
%TO.N,Net-(C5-Pad1)*%
X97790000Y-38862000D03*
%TD*%
%TO.P,RX,1*%
%TO.N,Net-(C4-Pad1)*%
X97790000Y-41402000D03*
%TD*%
%TO.P,GND,1*%
%TO.N,GND*%
X97790000Y-43942000D03*
%TD*%
D12*
%TO.N,GND*%
X57912000Y-34798000D03*
X66548000Y-35052000D03*
X63500000Y-35052000D03*
X59944000Y-42672000D03*
X63500000Y-38862000D03*
X63500000Y-43180000D03*
X71120000Y-40386000D03*
X72390000Y-37846000D03*
X70612000Y-34544000D03*
X74422000Y-34544000D03*
X68072000Y-37084000D03*
X70358000Y-42672000D03*
X68072000Y-43180000D03*
X74168000Y-42672000D03*
X76708000Y-37084000D03*
X76962000Y-40640000D03*
X76708000Y-43434000D03*
X82296000Y-36830000D03*
X79756000Y-35814000D03*
X79756000Y-40640000D03*
X84582000Y-35052000D03*
X88138000Y-35052000D03*
X86360000Y-40894000D03*
X86360000Y-43180000D03*
X85852000Y-38100000D03*
X57912000Y-39878000D03*
X90678000Y-35560000D03*
X91694000Y-37084000D03*
X89154000Y-41402000D03*
X90170000Y-42672000D03*
X94488000Y-42672000D03*
X96012000Y-42672000D03*
X96012000Y-45212000D03*
X95758000Y-37846000D03*
X94488000Y-39116000D03*
X93472000Y-35052000D03*
X83566000Y-41910000D03*
X82296000Y-43180000D03*
%TD*%
D13*
%TO.N,Net-(C4-Pad1)*%
X83820000Y-37084000D02*
X83820000Y-38862000D01*
X84328000Y-36576000D02*
X83820000Y-37084000D01*
X89408000Y-36576000D02*
X84328000Y-36576000D01*
X90170000Y-37338000D02*
X89408000Y-36576000D01*
X90170000Y-40386000D02*
X90170000Y-37338000D01*
X91186000Y-41402000D02*
X90170000Y-40386000D01*
X97790000Y-41402000D02*
X91186000Y-41402000D01*
%TD*%
%TA.AperFunction,Conductor*%
%TO.N,GND*%
G36*
X98538486Y-33171670D02*
G01*
X98545767Y-33173621D01*
X98545768Y-33173621D01*
X98552000Y-33175291D01*
X98558232Y-33173621D01*
X98564683Y-33173621D01*
X98564683Y-33173686D01*
X98574902Y-33173015D01*
X98638264Y-33181357D01*
X98650617Y-33184668D01*
X98725042Y-33215495D01*
X98736114Y-33221887D01*
X98800029Y-33270931D01*
X98809069Y-33279971D01*
X98858113Y-33343886D01*
X98864506Y-33354960D01*
X98895332Y-33429382D01*
X98898643Y-33441737D01*
X98906985Y-33505097D01*
X98906314Y-33515317D01*
X98906379Y-33515317D01*
X98906379Y-33521768D01*
X98904709Y-33528000D01*
X98906379Y-33534232D01*
X98906379Y-33534233D01*
X98908330Y-33541514D01*
X98910000Y-33554196D01*
X98910000Y-35668868D01*
X98895648Y-35703516D01*
X98861000Y-35717868D01*
X98826352Y-35703516D01*
X98819223Y-35694474D01*
X98818972Y-35694064D01*
X98817980Y-35692053D01*
X98685967Y-35515267D01*
X98523949Y-35365499D01*
X98337350Y-35247764D01*
X98256389Y-35215464D01*
X98134505Y-35166837D01*
X98134501Y-35166836D01*
X98132421Y-35166006D01*
X98130220Y-35165568D01*
X98130216Y-35165567D01*
X97988988Y-35137475D01*
X97916024Y-35122962D01*
X97810920Y-35121586D01*
X97697654Y-35120103D01*
X97697649Y-35120103D01*
X97695406Y-35120074D01*
X97693189Y-35120455D01*
X97693188Y-35120455D01*
X97626857Y-35131853D01*
X97477957Y-35157438D01*
X97475853Y-35158214D01*
X97475850Y-35158215D01*
X97273065Y-35233026D01*
X97273062Y-35233027D01*
X97270957Y-35233804D01*
X97269029Y-35234951D01*
X97269027Y-35234952D01*
X97083272Y-35345465D01*
X97081341Y-35346614D01*
X97079653Y-35348094D01*
X97079652Y-35348095D01*
X97058067Y-35367025D01*
X96915457Y-35492090D01*
X96914072Y-35493847D01*
X96914069Y-35493850D01*
X96780252Y-35663598D01*
X96778863Y-35665360D01*
X96777817Y-35667348D01*
X96694486Y-35825734D01*
X96676131Y-35860620D01*
X96610703Y-36071333D01*
X96610439Y-36073565D01*
X96610438Y-36073569D01*
X96585034Y-36288208D01*
X96584770Y-36290440D01*
X96599200Y-36510604D01*
X96599753Y-36512783D01*
X96599754Y-36512787D01*
X96643554Y-36685248D01*
X96653511Y-36724452D01*
X96654447Y-36726482D01*
X96654449Y-36726488D01*
X96744940Y-36922776D01*
X96745883Y-36924821D01*
X96873222Y-37105002D01*
X96874834Y-37106572D01*
X97029660Y-37257399D01*
X97029663Y-37257402D01*
X97031264Y-37258961D01*
X97033126Y-37260205D01*
X97033127Y-37260206D01*
X97186003Y-37362354D01*
X97214717Y-37381540D01*
X97417436Y-37468635D01*
X97446697Y-37475256D01*
X97630442Y-37516834D01*
X97630448Y-37516835D01*
X97632632Y-37517329D01*
X97725492Y-37520977D01*
X97850851Y-37525903D01*
X97850854Y-37525903D01*
X97853098Y-37525991D01*
X97855317Y-37525669D01*
X97855322Y-37525669D01*
X97962275Y-37510161D01*
X98071452Y-37494331D01*
X98073574Y-37493611D01*
X98073577Y-37493610D01*
X98215781Y-37445338D01*
X98280379Y-37423410D01*
X98332087Y-37394452D01*
X98470922Y-37316701D01*
X98470924Y-37316700D01*
X98472884Y-37315602D01*
X98486813Y-37304018D01*
X98640795Y-37175951D01*
X98642518Y-37174518D01*
X98678428Y-37131341D01*
X98782166Y-37006611D01*
X98782168Y-37006609D01*
X98783602Y-37004884D01*
X98818248Y-36943019D01*
X98847699Y-36919801D01*
X98884942Y-36924209D01*
X98908160Y-36953660D01*
X98910000Y-36966961D01*
X98910000Y-38208868D01*
X98895648Y-38243516D01*
X98861000Y-38257868D01*
X98826352Y-38243516D01*
X98819223Y-38234474D01*
X98818972Y-38234064D01*
X98817980Y-38232053D01*
X98685967Y-38055267D01*
X98523949Y-37905499D01*
X98337350Y-37787764D01*
X98256389Y-37755464D01*
X98134505Y-37706837D01*
X98134501Y-37706836D01*
X98132421Y-37706006D01*
X98130220Y-37705568D01*
X98130216Y-37705567D01*
X97988988Y-37677475D01*
X97916024Y-37662962D01*
X97810920Y-37661586D01*
X97697654Y-37660103D01*
X97697649Y-37660103D01*
X97695406Y-37660074D01*
X97693189Y-37660455D01*
X97693188Y-37660455D01*
X97626857Y-37671853D01*
X97477957Y-37697438D01*
X97475853Y-37698214D01*
X97475850Y-37698215D01*
X97273065Y-37773026D01*
X97273062Y-37773027D01*
X97270957Y-37773804D01*
X97269029Y-37774951D01*
X97269027Y-37774952D01*
X97085072Y-37884394D01*
X97081341Y-37886614D01*
X97079653Y-37888094D01*
X97079652Y-37888095D01*
X97058067Y-37907025D01*
X96915457Y-38032090D01*
X96914072Y-38033847D01*
X96914069Y-38033850D01*
X96780252Y-38203598D01*
X96778863Y-38205360D01*
X96777817Y-38207348D01*
X96694486Y-38365734D01*
X96676131Y-38400620D01*
X96610703Y-38611333D01*
X96610439Y-38613565D01*
X96610438Y-38613569D01*
X96585034Y-38828208D01*
X96584770Y-38830440D01*
X96599200Y-39050604D01*
X96599753Y-39052783D01*
X96599754Y-39052787D01*
X96623320Y-39145577D01*
X96653511Y-39264452D01*
X96654447Y-39266482D01*
X96654449Y-39266488D01*
X96744940Y-39462776D01*
X96745883Y-39464821D01*
X96873222Y-39645002D01*
X96874834Y-39646572D01*
X97029660Y-39797399D01*
X97029663Y-39797402D01*
X97031264Y-39798961D01*
X97033126Y-39800205D01*
X97033127Y-39800206D01*
X97206399Y-39915982D01*
X97214717Y-39921540D01*
X97417436Y-40008635D01*
X97446697Y-40015256D01*
X97630442Y-40056834D01*
X97630448Y-40056835D01*
X97632632Y-40057329D01*
X97725492Y-40060977D01*
X97850851Y-40065903D01*
X97850854Y-40065903D01*
X97853098Y-40065991D01*
X97855317Y-40065669D01*
X97855322Y-40065669D01*
X97962275Y-40050161D01*
X98071452Y-40034331D01*
X98073574Y-40033611D01*
X98073577Y-40033610D01*
X98215781Y-39985338D01*
X98280379Y-39963410D01*
X98302473Y-39951037D01*
X98470922Y-39856701D01*
X98470924Y-39856700D01*
X98472884Y-39855602D01*
X98497604Y-39835043D01*
X98640795Y-39715951D01*
X98642518Y-39714518D01*
X98649054Y-39706659D01*
X98782166Y-39546611D01*
X98782168Y-39546609D01*
X98783602Y-39544884D01*
X98818248Y-39483019D01*
X98847699Y-39459801D01*
X98884942Y-39464209D01*
X98908160Y-39493660D01*
X98910000Y-39506961D01*
X98910000Y-40748868D01*
X98895648Y-40783516D01*
X98861000Y-40797868D01*
X98826352Y-40783516D01*
X98819223Y-40774474D01*
X98818972Y-40774064D01*
X98817980Y-40772053D01*
X98815278Y-40768434D01*
X98687315Y-40597072D01*
X98687314Y-40597071D01*
X98685967Y-40595267D01*
X98684313Y-40593738D01*
X98525600Y-40447025D01*
X98525599Y-40447024D01*
X98523949Y-40445499D01*
X98337350Y-40327764D01*
X98300409Y-40313026D01*
X98134505Y-40246837D01*
X98134501Y-40246836D01*
X98132421Y-40246006D01*
X98130220Y-40245568D01*
X98130216Y-40245567D01*
X97988988Y-40217475D01*
X97916024Y-40202962D01*
X97810920Y-40201586D01*
X97697654Y-40200103D01*
X97697649Y-40200103D01*
X97695406Y-40200074D01*
X97693189Y-40200455D01*
X97693188Y-40200455D01*
X97626857Y-40211853D01*
X97477957Y-40237438D01*
X97475853Y-40238214D01*
X97475850Y-40238215D01*
X97273065Y-40313026D01*
X97273062Y-40313027D01*
X97270957Y-40313804D01*
X97269029Y-40314951D01*
X97269027Y-40314952D01*
X97247492Y-40327764D01*
X97081341Y-40426614D01*
X97079653Y-40428094D01*
X97079652Y-40428095D01*
X96932566Y-40557086D01*
X96915457Y-40572090D01*
X96828152Y-40682837D01*
X96795431Y-40701160D01*
X96789672Y-40701500D01*
X91496452Y-40701500D01*
X91461804Y-40687148D01*
X90884852Y-40110195D01*
X90870500Y-40075547D01*
X90870500Y-38830440D01*
X91504770Y-38830440D01*
X91519200Y-39050604D01*
X91519753Y-39052783D01*
X91519754Y-39052787D01*
X91543320Y-39145577D01*
X91573511Y-39264452D01*
X91574447Y-39266482D01*
X91574449Y-39266488D01*
X91664940Y-39462776D01*
X91665883Y-39464821D01*
X91793222Y-39645002D01*
X91794834Y-39646572D01*
X91949660Y-39797399D01*
X91949663Y-39797402D01*
X91951264Y-39798961D01*
X91953126Y-39800205D01*
X91953127Y-39800206D01*
X92126399Y-39915982D01*
X92134717Y-39921540D01*
X92337436Y-40008635D01*
X92366697Y-40015256D01*
X92550442Y-40056834D01*
X92550448Y-40056835D01*
X92552632Y-40057329D01*
X92645492Y-40060977D01*
X92770851Y-40065903D01*
X92770854Y-40065903D01*
X92773098Y-40065991D01*
X92775317Y-40065669D01*
X92775322Y-40065669D01*
X92882275Y-40050161D01*
X92991452Y-40034331D01*
X92993574Y-40033611D01*
X92993577Y-40033610D01*
X93135781Y-39985338D01*
X93200379Y-39963410D01*
X93222473Y-39951037D01*
X93390922Y-39856701D01*
X93390924Y-39856700D01*
X93392884Y-39855602D01*
X93417604Y-39835043D01*
X93560795Y-39715951D01*
X93562518Y-39714518D01*
X93569054Y-39706659D01*
X93702166Y-39546611D01*
X93702168Y-39546609D01*
X93703602Y-39544884D01*
X93745650Y-39469803D01*
X93810314Y-39354336D01*
X93811410Y-39352379D01*
X93882331Y-39143452D01*
X93913991Y-38925098D01*
X93915643Y-38862000D01*
X93912538Y-38828208D01*
X93895660Y-38644526D01*
X93895659Y-38644521D01*
X93895454Y-38642289D01*
X93854168Y-38495897D01*
X93836177Y-38432105D01*
X93836176Y-38432102D01*
X93835565Y-38429936D01*
X93737980Y-38232053D01*
X93605967Y-38055267D01*
X93443949Y-37905499D01*
X93257350Y-37787764D01*
X93176389Y-37755464D01*
X93054505Y-37706837D01*
X93054501Y-37706836D01*
X93052421Y-37706006D01*
X93050220Y-37705568D01*
X93050216Y-37705567D01*
X92908988Y-37677475D01*
X92836024Y-37662962D01*
X92730920Y-37661586D01*
X92617654Y-37660103D01*
X92617649Y-37660103D01*
X92615406Y-37660074D01*
X92613189Y-37660455D01*
X92613188Y-37660455D01*
X92546857Y-37671853D01*
X92397957Y-37697438D01*
X92395853Y-37698214D01*
X92395850Y-37698215D01*
X92193065Y-37773026D01*
X92193062Y-37773027D01*
X92190957Y-37773804D01*
X92189029Y-37774951D01*
X92189027Y-37774952D01*
X92005072Y-37884394D01*
X92001341Y-37886614D01*
X91999653Y-37888094D01*
X91999652Y-37888095D01*
X91978067Y-37907025D01*
X91835457Y-38032090D01*
X91834072Y-38033847D01*
X91834069Y-38033850D01*
X91700252Y-38203598D01*
X91698863Y-38205360D01*
X91697817Y-38207348D01*
X91614486Y-38365734D01*
X91596131Y-38400620D01*
X91530703Y-38611333D01*
X91530439Y-38613565D01*
X91530438Y-38613569D01*
X91505034Y-38828208D01*
X91504770Y-38830440D01*
X90870500Y-38830440D01*
X90870500Y-37364029D01*
X90870613Y-37360696D01*
X90874477Y-37304018D01*
X90874678Y-37301070D01*
X90867329Y-37258961D01*
X90863479Y-37236898D01*
X90863104Y-37234361D01*
X90855631Y-37172614D01*
X90855276Y-37169680D01*
X90854233Y-37166919D01*
X90854231Y-37166912D01*
X90850355Y-37156656D01*
X90847921Y-37147759D01*
X90846037Y-37136961D01*
X90846036Y-37136958D01*
X90845528Y-37134047D01*
X90819340Y-37074387D01*
X90818371Y-37072013D01*
X90796390Y-37013842D01*
X90796389Y-37013841D01*
X90795345Y-37011077D01*
X90787462Y-36999607D01*
X90782977Y-36991549D01*
X90778568Y-36981505D01*
X90778565Y-36981500D01*
X90777379Y-36978798D01*
X90737724Y-36927119D01*
X90736216Y-36925044D01*
X90700987Y-36873786D01*
X90699312Y-36871349D01*
X90697107Y-36869384D01*
X90697104Y-36869381D01*
X90651692Y-36828921D01*
X90649640Y-36826984D01*
X89921729Y-36099072D01*
X89919452Y-36096635D01*
X89882110Y-36053829D01*
X89880169Y-36051604D01*
X89826855Y-36014134D01*
X89824828Y-36012629D01*
X89821203Y-36009786D01*
X89773543Y-35972416D01*
X89760850Y-35966685D01*
X89752844Y-35962118D01*
X89743870Y-35955811D01*
X89743865Y-35955809D01*
X89741453Y-35954113D01*
X89707465Y-35940862D01*
X89680755Y-35930447D01*
X89678391Y-35929453D01*
X89621705Y-35903859D01*
X89621704Y-35903859D01*
X89619016Y-35902645D01*
X89605330Y-35900108D01*
X89596464Y-35897583D01*
X89586242Y-35893598D01*
X89586241Y-35893598D01*
X89583487Y-35892524D01*
X89567117Y-35890369D01*
X89518882Y-35884019D01*
X89516347Y-35883617D01*
X89489552Y-35878651D01*
X89452308Y-35871748D01*
X89389191Y-35875387D01*
X89388636Y-35875419D01*
X89385816Y-35875500D01*
X84354025Y-35875500D01*
X84350692Y-35875387D01*
X84299812Y-35871918D01*
X84291070Y-35871322D01*
X84231994Y-35881633D01*
X84226900Y-35882522D01*
X84224365Y-35882897D01*
X84159680Y-35890724D01*
X84156915Y-35891769D01*
X84156914Y-35891769D01*
X84146653Y-35895646D01*
X84137760Y-35898079D01*
X84134246Y-35898692D01*
X84124046Y-35900473D01*
X84064385Y-35926662D01*
X84062055Y-35927614D01*
X84021153Y-35943069D01*
X84003842Y-35949610D01*
X84003841Y-35949611D01*
X84001077Y-35950655D01*
X83998640Y-35952330D01*
X83998636Y-35952332D01*
X83989603Y-35958540D01*
X83981545Y-35963025D01*
X83971507Y-35967432D01*
X83971504Y-35967434D01*
X83968797Y-35968622D01*
X83920430Y-36005735D01*
X83917116Y-36008278D01*
X83915041Y-36009786D01*
X83910905Y-36012629D01*
X83861349Y-36046688D01*
X83859384Y-36048893D01*
X83859381Y-36048896D01*
X83818929Y-36094299D01*
X83816992Y-36096351D01*
X83343071Y-36570272D01*
X83340634Y-36572549D01*
X83295604Y-36611831D01*
X83258134Y-36665145D01*
X83256635Y-36667164D01*
X83216416Y-36718457D01*
X83210687Y-36731147D01*
X83206118Y-36739156D01*
X83199811Y-36748130D01*
X83199809Y-36748135D01*
X83198113Y-36750547D01*
X83184862Y-36784535D01*
X83174447Y-36811245D01*
X83173453Y-36813609D01*
X83151190Y-36862917D01*
X83146645Y-36872984D01*
X83144338Y-36885432D01*
X83144108Y-36886671D01*
X83141583Y-36895536D01*
X83139335Y-36901303D01*
X83136524Y-36908513D01*
X83136138Y-36911445D01*
X83128019Y-36973118D01*
X83127617Y-36975653D01*
X83124671Y-36991549D01*
X83115748Y-37039692D01*
X83115918Y-37042640D01*
X83119419Y-37103364D01*
X83119500Y-37106184D01*
X83119500Y-37857257D01*
X83102808Y-37894097D01*
X83088067Y-37907025D01*
X82945457Y-38032090D01*
X82944072Y-38033847D01*
X82944069Y-38033850D01*
X82810252Y-38203598D01*
X82808863Y-38205360D01*
X82807817Y-38207348D01*
X82724486Y-38365734D01*
X82706131Y-38400620D01*
X82640703Y-38611333D01*
X82640439Y-38613565D01*
X82640438Y-38613569D01*
X82615034Y-38828208D01*
X82614770Y-38830440D01*
X82629200Y-39050604D01*
X82629753Y-39052783D01*
X82629754Y-39052787D01*
X82653320Y-39145577D01*
X82683511Y-39264452D01*
X82684447Y-39266482D01*
X82684449Y-39266488D01*
X82774940Y-39462776D01*
X82775883Y-39464821D01*
X82903222Y-39645002D01*
X82904834Y-39646572D01*
X83059660Y-39797399D01*
X83059663Y-39797402D01*
X83061264Y-39798961D01*
X83063126Y-39800205D01*
X83063127Y-39800206D01*
X83236399Y-39915982D01*
X83244717Y-39921540D01*
X83447436Y-40008635D01*
X83476697Y-40015256D01*
X83660442Y-40056834D01*
X83660448Y-40056835D01*
X83662632Y-40057329D01*
X83755492Y-40060977D01*
X83880851Y-40065903D01*
X83880854Y-40065903D01*
X83883098Y-40065991D01*
X83885317Y-40065669D01*
X83885322Y-40065669D01*
X83992275Y-40050161D01*
X84101452Y-40034331D01*
X84103574Y-40033611D01*
X84103577Y-40033610D01*
X84245781Y-39985338D01*
X84310379Y-39963410D01*
X84332473Y-39951037D01*
X84500922Y-39856701D01*
X84500924Y-39856700D01*
X84502884Y-39855602D01*
X84527604Y-39835043D01*
X84670795Y-39715951D01*
X84672518Y-39714518D01*
X84679054Y-39706659D01*
X84812166Y-39546611D01*
X84812168Y-39546609D01*
X84813602Y-39544884D01*
X84855650Y-39469803D01*
X84920314Y-39354336D01*
X84921410Y-39352379D01*
X84992331Y-39143452D01*
X85023991Y-38925098D01*
X85025643Y-38862000D01*
X85022743Y-38830440D01*
X86424770Y-38830440D01*
X86439200Y-39050604D01*
X86439753Y-39052783D01*
X86439754Y-39052787D01*
X86463320Y-39145577D01*
X86493511Y-39264452D01*
X86494447Y-39266482D01*
X86494449Y-39266488D01*
X86584940Y-39462776D01*
X86585883Y-39464821D01*
X86713222Y-39645002D01*
X86714834Y-39646572D01*
X86869660Y-39797399D01*
X86869663Y-39797402D01*
X86871264Y-39798961D01*
X86873126Y-39800205D01*
X86873127Y-39800206D01*
X87046399Y-39915982D01*
X87054717Y-39921540D01*
X87257436Y-40008635D01*
X87286697Y-40015256D01*
X87470442Y-40056834D01*
X87470448Y-40056835D01*
X87472632Y-40057329D01*
X87565492Y-40060977D01*
X87690851Y-40065903D01*
X87690854Y-40065903D01*
X87693098Y-40065991D01*
X87695317Y-40065669D01*
X87695322Y-40065669D01*
X87802275Y-40050161D01*
X87911452Y-40034331D01*
X87913574Y-40033611D01*
X87913577Y-40033610D01*
X88055781Y-39985338D01*
X88120379Y-39963410D01*
X88142473Y-39951037D01*
X88310922Y-39856701D01*
X88310924Y-39856700D01*
X88312884Y-39855602D01*
X88337604Y-39835043D01*
X88480795Y-39715951D01*
X88482518Y-39714518D01*
X88489054Y-39706659D01*
X88622166Y-39546611D01*
X88622168Y-39546609D01*
X88623602Y-39544884D01*
X88665650Y-39469803D01*
X88730314Y-39354336D01*
X88731410Y-39352379D01*
X88802331Y-39143452D01*
X88833991Y-38925098D01*
X88835643Y-38862000D01*
X88832538Y-38828208D01*
X88815660Y-38644526D01*
X88815659Y-38644521D01*
X88815454Y-38642289D01*
X88774168Y-38495897D01*
X88756177Y-38432105D01*
X88756176Y-38432102D01*
X88755565Y-38429936D01*
X88657980Y-38232053D01*
X88525967Y-38055267D01*
X88363949Y-37905499D01*
X88177350Y-37787764D01*
X88096389Y-37755464D01*
X87974505Y-37706837D01*
X87974501Y-37706836D01*
X87972421Y-37706006D01*
X87970220Y-37705568D01*
X87970216Y-37705567D01*
X87828988Y-37677475D01*
X87756024Y-37662962D01*
X87650920Y-37661586D01*
X87537654Y-37660103D01*
X87537649Y-37660103D01*
X87535406Y-37660074D01*
X87533189Y-37660455D01*
X87533188Y-37660455D01*
X87466857Y-37671853D01*
X87317957Y-37697438D01*
X87315853Y-37698214D01*
X87315850Y-37698215D01*
X87113065Y-37773026D01*
X87113062Y-37773027D01*
X87110957Y-37773804D01*
X87109029Y-37774951D01*
X87109027Y-37774952D01*
X86925072Y-37884394D01*
X86921341Y-37886614D01*
X86919653Y-37888094D01*
X86919652Y-37888095D01*
X86898067Y-37907025D01*
X86755457Y-38032090D01*
X86754072Y-38033847D01*
X86754069Y-38033850D01*
X86620252Y-38203598D01*
X86618863Y-38205360D01*
X86617817Y-38207348D01*
X86534486Y-38365734D01*
X86516131Y-38400620D01*
X86450703Y-38611333D01*
X86450439Y-38613565D01*
X86450438Y-38613569D01*
X86425034Y-38828208D01*
X86424770Y-38830440D01*
X85022743Y-38830440D01*
X85022538Y-38828208D01*
X85005660Y-38644526D01*
X85005659Y-38644521D01*
X85005454Y-38642289D01*
X84964168Y-38495897D01*
X84946177Y-38432105D01*
X84946176Y-38432102D01*
X84945565Y-38429936D01*
X84847980Y-38232053D01*
X84715967Y-38055267D01*
X84553949Y-37905499D01*
X84552046Y-37904298D01*
X84543352Y-37898812D01*
X84521708Y-37868185D01*
X84520500Y-37857372D01*
X84520500Y-37394452D01*
X84534852Y-37359804D01*
X84603804Y-37290852D01*
X84638452Y-37276500D01*
X89097548Y-37276500D01*
X89132196Y-37290852D01*
X89455148Y-37613805D01*
X89469500Y-37648453D01*
X89469500Y-40359971D01*
X89469387Y-40363303D01*
X89465322Y-40422930D01*
X89475633Y-40482006D01*
X89476522Y-40487100D01*
X89476897Y-40489635D01*
X89484724Y-40554320D01*
X89485769Y-40557085D01*
X89485769Y-40557086D01*
X89489646Y-40567347D01*
X89492079Y-40576240D01*
X89494473Y-40589954D01*
X89495659Y-40592655D01*
X89495659Y-40592656D01*
X89520658Y-40649606D01*
X89521626Y-40651979D01*
X89544655Y-40712923D01*
X89546325Y-40715353D01*
X89546326Y-40715355D01*
X89552541Y-40724398D01*
X89557024Y-40732452D01*
X89562621Y-40745202D01*
X89564422Y-40747549D01*
X89602276Y-40796881D01*
X89603784Y-40798956D01*
X89640688Y-40852651D01*
X89642893Y-40854616D01*
X89642896Y-40854619D01*
X89688308Y-40895079D01*
X89690360Y-40897016D01*
X90672271Y-41878928D01*
X90674548Y-41881365D01*
X90713831Y-41926396D01*
X90767145Y-41963866D01*
X90769164Y-41965365D01*
X90820457Y-42005584D01*
X90833150Y-42011315D01*
X90841156Y-42015882D01*
X90850130Y-42022189D01*
X90850135Y-42022191D01*
X90852547Y-42023887D01*
X90877613Y-42033660D01*
X90913245Y-42047553D01*
X90915609Y-42048547D01*
X90972295Y-42074141D01*
X90974984Y-42075355D01*
X90987432Y-42077662D01*
X90988671Y-42077892D01*
X90997536Y-42080417D01*
X91003962Y-42082922D01*
X91010513Y-42085476D01*
X91013445Y-42085862D01*
X91075118Y-42093981D01*
X91077653Y-42094383D01*
X91101074Y-42098724D01*
X91141692Y-42106252D01*
X91205364Y-42102581D01*
X91208184Y-42102500D01*
X96789543Y-42102500D01*
X96824191Y-42116852D01*
X96829558Y-42123220D01*
X96871921Y-42183163D01*
X96871929Y-42183172D01*
X96873222Y-42185002D01*
X96874826Y-42186565D01*
X96874829Y-42186568D01*
X97029660Y-42337399D01*
X97029663Y-42337402D01*
X97031264Y-42338961D01*
X97033126Y-42340205D01*
X97033127Y-42340206D01*
X97117678Y-42396701D01*
X97214717Y-42461540D01*
X97417436Y-42548635D01*
X97481299Y-42563086D01*
X97630442Y-42596834D01*
X97630448Y-42596835D01*
X97632632Y-42597329D01*
X97725492Y-42600977D01*
X97850851Y-42605903D01*
X97850854Y-42605903D01*
X97853098Y-42605991D01*
X97855317Y-42605669D01*
X97855322Y-42605669D01*
X97962275Y-42590161D01*
X98071452Y-42574331D01*
X98073574Y-42573611D01*
X98073577Y-42573610D01*
X98181785Y-42536878D01*
X98280379Y-42503410D01*
X98302473Y-42491037D01*
X98470922Y-42396701D01*
X98470924Y-42396700D01*
X98472884Y-42395602D01*
X98642518Y-42254518D01*
X98649054Y-42246659D01*
X98782166Y-42086611D01*
X98782168Y-42086609D01*
X98783602Y-42084884D01*
X98788939Y-42075355D01*
X98818248Y-42023019D01*
X98847699Y-41999801D01*
X98884942Y-42004209D01*
X98908160Y-42033660D01*
X98910000Y-42046961D01*
X98910000Y-43402689D01*
X98895648Y-43437337D01*
X98861000Y-43451689D01*
X98826352Y-43437337D01*
X98817053Y-43424361D01*
X98775731Y-43340568D01*
X98773390Y-43336749D01*
X98771130Y-43333722D01*
X98764718Y-43329907D01*
X98760140Y-43331070D01*
X98156103Y-43935107D01*
X98153248Y-43942000D01*
X98156103Y-43948893D01*
X98757013Y-44549803D01*
X98763906Y-44552658D01*
X98766850Y-44551439D01*
X98818248Y-44459660D01*
X98847699Y-44436442D01*
X98884942Y-44440850D01*
X98908160Y-44470301D01*
X98910000Y-44483602D01*
X98910000Y-46471385D01*
X98909575Y-46471385D01*
X98909812Y-46471991D01*
X98908546Y-46476070D01*
X98909970Y-46482360D01*
X98909815Y-46486317D01*
X98910000Y-46487968D01*
X98910000Y-46495664D01*
X98909354Y-46503593D01*
X98899296Y-46564930D01*
X98895895Y-46576500D01*
X98862562Y-46653344D01*
X98856437Y-46663735D01*
X98805342Y-46730110D01*
X98796869Y-46738685D01*
X98731101Y-46790574D01*
X98720792Y-46796817D01*
X98644348Y-46831065D01*
X98632822Y-46834602D01*
X98616272Y-46837519D01*
X98567151Y-46846175D01*
X98556008Y-46845973D01*
X98550384Y-46846261D01*
X98544076Y-46844911D01*
X98535693Y-46847623D01*
X98520617Y-46850000D01*
X55145410Y-46850000D01*
X55133016Y-46848407D01*
X55123294Y-46845865D01*
X55123293Y-46845865D01*
X55117055Y-46844234D01*
X55110837Y-46845941D01*
X55104384Y-46845980D01*
X55104383Y-46845874D01*
X55094192Y-46846591D01*
X55045041Y-46840296D01*
X55029880Y-46838355D01*
X55017284Y-46834993D01*
X54942179Y-46803742D01*
X54930919Y-46797178D01*
X54897463Y-46771146D01*
X54866720Y-46747225D01*
X54857586Y-46737920D01*
X54808837Y-46672807D01*
X54802480Y-46661421D01*
X54772629Y-46585750D01*
X54769502Y-46573093D01*
X54768611Y-46564930D01*
X54762462Y-46508645D01*
X54763368Y-46498469D01*
X54763262Y-46498466D01*
X54763421Y-46492016D01*
X54765244Y-46485827D01*
X54761372Y-46469808D01*
X54760000Y-46458296D01*
X54760000Y-45451963D01*
X58684757Y-45451963D01*
X58684957Y-45454345D01*
X58684957Y-45454349D01*
X58692966Y-45549723D01*
X58701175Y-45647483D01*
X58701835Y-45649784D01*
X58750513Y-45819542D01*
X58755258Y-45836091D01*
X58756352Y-45838220D01*
X58756353Y-45838222D01*
X58803628Y-45930208D01*
X58844944Y-46010601D01*
X58966818Y-46164369D01*
X58968644Y-46165923D01*
X58968645Y-46165924D01*
X59109790Y-46286047D01*
X59116238Y-46291535D01*
X59287513Y-46387257D01*
X59319305Y-46397587D01*
X59471836Y-46447148D01*
X59471840Y-46447149D01*
X59474118Y-46447889D01*
X59668946Y-46471121D01*
X59864576Y-46456068D01*
X60053556Y-46403303D01*
X60055685Y-46402228D01*
X60055689Y-46402226D01*
X60179692Y-46339587D01*
X60228689Y-46314837D01*
X60256716Y-46292940D01*
X61726308Y-46292940D01*
X61727524Y-46295876D01*
X61805735Y-46339587D01*
X61810106Y-46341497D01*
X61982732Y-46397587D01*
X61987399Y-46398612D01*
X62167629Y-46420104D01*
X62172393Y-46420204D01*
X62353379Y-46406278D01*
X62358069Y-46405451D01*
X62532903Y-46356637D01*
X62537339Y-46354917D01*
X62649801Y-46298107D01*
X62654667Y-46292450D01*
X62654458Y-46289668D01*
X62196893Y-45832103D01*
X62190000Y-45829248D01*
X62183107Y-45832103D01*
X61729163Y-46286047D01*
X61726308Y-46292940D01*
X60256716Y-46292940D01*
X60383303Y-46194040D01*
X60407572Y-46165924D01*
X60509938Y-46047332D01*
X60509942Y-46047327D01*
X60511509Y-46045511D01*
X60608425Y-45874909D01*
X60616048Y-45851995D01*
X60669602Y-45691004D01*
X60670358Y-45688732D01*
X60694949Y-45494071D01*
X60695341Y-45466000D01*
X60694268Y-45455057D01*
X61235696Y-45455057D01*
X61250886Y-45635936D01*
X61251746Y-45640624D01*
X61301778Y-45815110D01*
X61303533Y-45819542D01*
X61358048Y-45925616D01*
X61363739Y-45930442D01*
X61366582Y-45930208D01*
X61823897Y-45472893D01*
X61826752Y-45466000D01*
X62553248Y-45466000D01*
X62556103Y-45472893D01*
X63010040Y-45926830D01*
X63016933Y-45929685D01*
X63019932Y-45928443D01*
X63060883Y-45856356D01*
X63062825Y-45851995D01*
X63120119Y-45679762D01*
X63121175Y-45675116D01*
X63144054Y-45494008D01*
X63144244Y-45491284D01*
X63144578Y-45467371D01*
X63144463Y-45464636D01*
X63143220Y-45451963D01*
X65034757Y-45451963D01*
X65034957Y-45454345D01*
X65034957Y-45454349D01*
X65042966Y-45549723D01*
X65051175Y-45647483D01*
X65051835Y-45649784D01*
X65100513Y-45819542D01*
X65105258Y-45836091D01*
X65106352Y-45838220D01*
X65106353Y-45838222D01*
X65153628Y-45930208D01*
X65194944Y-46010601D01*
X65316818Y-46164369D01*
X65318644Y-46165923D01*
X65318645Y-46165924D01*
X65459790Y-46286047D01*
X65466238Y-46291535D01*
X65637513Y-46387257D01*
X65669305Y-46397587D01*
X65821836Y-46447148D01*
X65821840Y-46447149D01*
X65824118Y-46447889D01*
X66018946Y-46471121D01*
X66214576Y-46456068D01*
X66403556Y-46403303D01*
X66405685Y-46402228D01*
X66405689Y-46402226D01*
X66529692Y-46339587D01*
X66578689Y-46314837D01*
X66606716Y-46292940D01*
X68076308Y-46292940D01*
X68077524Y-46295876D01*
X68155735Y-46339587D01*
X68160106Y-46341497D01*
X68332732Y-46397587D01*
X68337399Y-46398612D01*
X68517629Y-46420104D01*
X68522393Y-46420204D01*
X68703379Y-46406278D01*
X68708069Y-46405451D01*
X68882903Y-46356637D01*
X68887339Y-46354917D01*
X68999801Y-46298107D01*
X69004667Y-46292450D01*
X69004458Y-46289668D01*
X68546893Y-45832103D01*
X68540000Y-45829248D01*
X68533107Y-45832103D01*
X68079163Y-46286047D01*
X68076308Y-46292940D01*
X66606716Y-46292940D01*
X66733303Y-46194040D01*
X66757572Y-46165924D01*
X66859938Y-46047332D01*
X66859942Y-46047327D01*
X66861509Y-46045511D01*
X66958425Y-45874909D01*
X66966048Y-45851995D01*
X67019602Y-45691004D01*
X67020358Y-45688732D01*
X67044949Y-45494071D01*
X67045341Y-45466000D01*
X67044268Y-45455057D01*
X67585696Y-45455057D01*
X67600886Y-45635936D01*
X67601746Y-45640624D01*
X67651778Y-45815110D01*
X67653533Y-45819542D01*
X67708048Y-45925616D01*
X67713739Y-45930442D01*
X67716582Y-45930208D01*
X68173897Y-45472893D01*
X68176752Y-45466000D01*
X68903248Y-45466000D01*
X68906103Y-45472893D01*
X69360040Y-45926830D01*
X69366933Y-45929685D01*
X69369932Y-45928443D01*
X69410883Y-45856356D01*
X69412825Y-45851995D01*
X69470119Y-45679762D01*
X69471175Y-45675116D01*
X69494054Y-45494008D01*
X69494244Y-45491284D01*
X69494578Y-45467371D01*
X69494463Y-45464636D01*
X69493220Y-45451963D01*
X71384757Y-45451963D01*
X71384957Y-45454345D01*
X71384957Y-45454349D01*
X71392966Y-45549723D01*
X71401175Y-45647483D01*
X71401835Y-45649784D01*
X71450513Y-45819542D01*
X71455258Y-45836091D01*
X71456352Y-45838220D01*
X71456353Y-45838222D01*
X71503628Y-45930208D01*
X71544944Y-46010601D01*
X71666818Y-46164369D01*
X71668644Y-46165923D01*
X71668645Y-46165924D01*
X71809790Y-46286047D01*
X71816238Y-46291535D01*
X71987513Y-46387257D01*
X72019305Y-46397587D01*
X72171836Y-46447148D01*
X72171840Y-46447149D01*
X72174118Y-46447889D01*
X72368946Y-46471121D01*
X72564576Y-46456068D01*
X72753556Y-46403303D01*
X72755685Y-46402228D01*
X72755689Y-46402226D01*
X72879692Y-46339587D01*
X72928689Y-46314837D01*
X72956716Y-46292940D01*
X74426308Y-46292940D01*
X74427524Y-46295876D01*
X74505735Y-46339587D01*
X74510106Y-46341497D01*
X74682732Y-46397587D01*
X74687399Y-46398612D01*
X74867629Y-46420104D01*
X74872393Y-46420204D01*
X75053379Y-46406278D01*
X75058069Y-46405451D01*
X75232903Y-46356637D01*
X75237339Y-46354917D01*
X75349801Y-46298107D01*
X75354667Y-46292450D01*
X75354458Y-46289668D01*
X74896893Y-45832103D01*
X74890000Y-45829248D01*
X74883107Y-45832103D01*
X74429163Y-46286047D01*
X74426308Y-46292940D01*
X72956716Y-46292940D01*
X73083303Y-46194040D01*
X73107572Y-46165924D01*
X73209938Y-46047332D01*
X73209942Y-46047327D01*
X73211509Y-46045511D01*
X73308425Y-45874909D01*
X73316048Y-45851995D01*
X73369602Y-45691004D01*
X73370358Y-45688732D01*
X73394949Y-45494071D01*
X73395341Y-45466000D01*
X73394268Y-45455057D01*
X73935696Y-45455057D01*
X73950886Y-45635936D01*
X73951746Y-45640624D01*
X74001778Y-45815110D01*
X74003533Y-45819542D01*
X74058048Y-45925616D01*
X74063739Y-45930442D01*
X74066582Y-45930208D01*
X74523897Y-45472893D01*
X74526752Y-45466000D01*
X75253248Y-45466000D01*
X75256103Y-45472893D01*
X75710040Y-45926830D01*
X75716933Y-45929685D01*
X75719932Y-45928443D01*
X75760883Y-45856356D01*
X75762825Y-45851995D01*
X75820119Y-45679762D01*
X75821175Y-45675116D01*
X75844054Y-45494008D01*
X75844244Y-45491284D01*
X75844578Y-45467371D01*
X75844463Y-45464636D01*
X75843220Y-45451963D01*
X77734757Y-45451963D01*
X77734957Y-45454345D01*
X77734957Y-45454349D01*
X77742966Y-45549723D01*
X77751175Y-45647483D01*
X77751835Y-45649784D01*
X77800513Y-45819542D01*
X77805258Y-45836091D01*
X77806352Y-45838220D01*
X77806353Y-45838222D01*
X77853628Y-45930208D01*
X77894944Y-46010601D01*
X78016818Y-46164369D01*
X78018644Y-46165923D01*
X78018645Y-46165924D01*
X78159790Y-46286047D01*
X78166238Y-46291535D01*
X78337513Y-46387257D01*
X78369305Y-46397587D01*
X78521836Y-46447148D01*
X78521840Y-46447149D01*
X78524118Y-46447889D01*
X78718946Y-46471121D01*
X78914576Y-46456068D01*
X79103556Y-46403303D01*
X79105685Y-46402228D01*
X79105689Y-46402226D01*
X79229692Y-46339587D01*
X79278689Y-46314837D01*
X79306716Y-46292940D01*
X80776308Y-46292940D01*
X80777524Y-46295876D01*
X80855735Y-46339587D01*
X80860106Y-46341497D01*
X81032732Y-46397587D01*
X81037399Y-46398612D01*
X81217629Y-46420104D01*
X81222393Y-46420204D01*
X81403379Y-46406278D01*
X81408069Y-46405451D01*
X81582903Y-46356637D01*
X81587339Y-46354917D01*
X81699801Y-46298107D01*
X81704667Y-46292450D01*
X81704458Y-46289668D01*
X81246893Y-45832103D01*
X81240000Y-45829248D01*
X81233107Y-45832103D01*
X80779163Y-46286047D01*
X80776308Y-46292940D01*
X79306716Y-46292940D01*
X79433303Y-46194040D01*
X79457572Y-46165924D01*
X79559938Y-46047332D01*
X79559942Y-46047327D01*
X79561509Y-46045511D01*
X79658425Y-45874909D01*
X79666048Y-45851995D01*
X79719602Y-45691004D01*
X79720358Y-45688732D01*
X79744949Y-45494071D01*
X79745341Y-45466000D01*
X79744268Y-45455057D01*
X80285696Y-45455057D01*
X80300886Y-45635936D01*
X80301746Y-45640624D01*
X80351778Y-45815110D01*
X80353533Y-45819542D01*
X80408048Y-45925616D01*
X80413739Y-45930442D01*
X80416582Y-45930208D01*
X80873897Y-45472893D01*
X80876752Y-45466000D01*
X81603248Y-45466000D01*
X81606103Y-45472893D01*
X82060040Y-45926830D01*
X82066933Y-45929685D01*
X82069932Y-45928443D01*
X82110883Y-45856356D01*
X82112825Y-45851995D01*
X82170119Y-45679762D01*
X82171175Y-45675116D01*
X82194054Y-45494008D01*
X82194244Y-45491284D01*
X82194578Y-45467371D01*
X82194463Y-45464636D01*
X82193220Y-45451963D01*
X84124757Y-45451963D01*
X84124957Y-45454345D01*
X84124957Y-45454349D01*
X84132966Y-45549723D01*
X84141175Y-45647483D01*
X84141835Y-45649784D01*
X84190513Y-45819542D01*
X84195258Y-45836091D01*
X84196352Y-45838220D01*
X84196353Y-45838222D01*
X84243628Y-45930208D01*
X84284944Y-46010601D01*
X84406818Y-46164369D01*
X84408644Y-46165923D01*
X84408645Y-46165924D01*
X84549790Y-46286047D01*
X84556238Y-46291535D01*
X84727513Y-46387257D01*
X84759305Y-46397587D01*
X84911836Y-46447148D01*
X84911840Y-46447149D01*
X84914118Y-46447889D01*
X85108946Y-46471121D01*
X85304576Y-46456068D01*
X85493556Y-46403303D01*
X85495685Y-46402228D01*
X85495689Y-46402226D01*
X85619692Y-46339587D01*
X85668689Y-46314837D01*
X85823303Y-46194040D01*
X85847572Y-46165924D01*
X85949938Y-46047332D01*
X85949942Y-46047327D01*
X85951509Y-46045511D01*
X86048425Y-45874909D01*
X86056048Y-45851995D01*
X86109602Y-45691004D01*
X86110358Y-45688732D01*
X86134949Y-45494071D01*
X86135341Y-45466000D01*
X86133965Y-45451963D01*
X86624757Y-45451963D01*
X86624957Y-45454345D01*
X86624957Y-45454349D01*
X86632966Y-45549723D01*
X86641175Y-45647483D01*
X86641835Y-45649784D01*
X86690513Y-45819542D01*
X86695258Y-45836091D01*
X86696352Y-45838220D01*
X86696353Y-45838222D01*
X86743628Y-45930208D01*
X86784944Y-46010601D01*
X86906818Y-46164369D01*
X86908644Y-46165923D01*
X86908645Y-46165924D01*
X87049790Y-46286047D01*
X87056238Y-46291535D01*
X87227513Y-46387257D01*
X87259305Y-46397587D01*
X87411836Y-46447148D01*
X87411840Y-46447149D01*
X87414118Y-46447889D01*
X87608946Y-46471121D01*
X87804576Y-46456068D01*
X87993556Y-46403303D01*
X87995685Y-46402228D01*
X87995689Y-46402226D01*
X88119692Y-46339587D01*
X88168689Y-46314837D01*
X88323303Y-46194040D01*
X88347572Y-46165924D01*
X88449938Y-46047332D01*
X88449942Y-46047327D01*
X88451509Y-46045511D01*
X88548425Y-45874909D01*
X88556048Y-45851995D01*
X88609602Y-45691004D01*
X88610358Y-45688732D01*
X88634949Y-45494071D01*
X88635341Y-45466000D01*
X88633965Y-45451963D01*
X90434757Y-45451963D01*
X90434957Y-45454345D01*
X90434957Y-45454349D01*
X90442966Y-45549723D01*
X90451175Y-45647483D01*
X90451835Y-45649784D01*
X90500513Y-45819542D01*
X90505258Y-45836091D01*
X90506352Y-45838220D01*
X90506353Y-45838222D01*
X90553628Y-45930208D01*
X90594944Y-46010601D01*
X90716818Y-46164369D01*
X90718644Y-46165923D01*
X90718645Y-46165924D01*
X90859790Y-46286047D01*
X90866238Y-46291535D01*
X91037513Y-46387257D01*
X91069305Y-46397587D01*
X91221836Y-46447148D01*
X91221840Y-46447149D01*
X91224118Y-46447889D01*
X91418946Y-46471121D01*
X91614576Y-46456068D01*
X91803556Y-46403303D01*
X91805685Y-46402228D01*
X91805689Y-46402226D01*
X91929692Y-46339587D01*
X91978689Y-46314837D01*
X92006716Y-46292940D01*
X93476308Y-46292940D01*
X93477524Y-46295876D01*
X93555735Y-46339587D01*
X93560106Y-46341497D01*
X93732732Y-46397587D01*
X93737399Y-46398612D01*
X93917629Y-46420104D01*
X93922393Y-46420204D01*
X94103379Y-46406278D01*
X94108069Y-46405451D01*
X94282903Y-46356637D01*
X94287339Y-46354917D01*
X94399801Y-46298107D01*
X94404667Y-46292450D01*
X94404458Y-46289668D01*
X93946893Y-45832103D01*
X93940000Y-45829248D01*
X93933107Y-45832103D01*
X93479163Y-46286047D01*
X93476308Y-46292940D01*
X92006716Y-46292940D01*
X92133303Y-46194040D01*
X92157572Y-46165924D01*
X92259938Y-46047332D01*
X92259942Y-46047327D01*
X92261509Y-46045511D01*
X92358425Y-45874909D01*
X92366048Y-45851995D01*
X92419602Y-45691004D01*
X92420358Y-45688732D01*
X92444949Y-45494071D01*
X92445341Y-45466000D01*
X92444268Y-45455057D01*
X92985696Y-45455057D01*
X93000886Y-45635936D01*
X93001746Y-45640624D01*
X93051778Y-45815110D01*
X93053533Y-45819542D01*
X93108048Y-45925616D01*
X93113739Y-45930442D01*
X93116582Y-45930208D01*
X93573897Y-45472893D01*
X93576752Y-45466000D01*
X94303248Y-45466000D01*
X94306103Y-45472893D01*
X94760040Y-45926830D01*
X94766933Y-45929685D01*
X94769932Y-45928443D01*
X94810883Y-45856356D01*
X94812825Y-45851995D01*
X94870119Y-45679762D01*
X94871175Y-45675116D01*
X94894054Y-45494008D01*
X94894244Y-45491284D01*
X94894578Y-45467371D01*
X94894463Y-45464636D01*
X94876650Y-45282965D01*
X94875726Y-45278296D01*
X94823261Y-45104524D01*
X94821442Y-45100112D01*
X94771746Y-45006646D01*
X94765990Y-45001901D01*
X94763024Y-45002186D01*
X94306103Y-45459107D01*
X94303248Y-45466000D01*
X93576752Y-45466000D01*
X93573897Y-45459107D01*
X93119911Y-45005121D01*
X93113018Y-45002266D01*
X93110144Y-45003456D01*
X93063748Y-45087848D01*
X93061872Y-45092226D01*
X93006987Y-45265247D01*
X93005997Y-45269902D01*
X92985763Y-45450296D01*
X92985696Y-45455057D01*
X92444268Y-45455057D01*
X92426194Y-45270728D01*
X92388534Y-45145991D01*
X92370178Y-45085191D01*
X92370176Y-45085186D01*
X92369484Y-45082894D01*
X92277370Y-44909653D01*
X92252339Y-44878961D01*
X92154878Y-44759462D01*
X92153361Y-44757602D01*
X92011073Y-44639892D01*
X93475747Y-44639892D01*
X93476007Y-44642797D01*
X93933107Y-45099897D01*
X93940000Y-45102752D01*
X93946893Y-45099897D01*
X94131747Y-44915043D01*
X97180205Y-44915043D01*
X97181750Y-44918773D01*
X97237047Y-44955721D01*
X97240981Y-44957857D01*
X97431042Y-45039513D01*
X97435300Y-45040897D01*
X97637062Y-45086551D01*
X97641497Y-45087134D01*
X97848197Y-45095256D01*
X97852668Y-45095022D01*
X98057388Y-45065338D01*
X98061737Y-45064295D01*
X98257632Y-44997797D01*
X98261708Y-44995982D01*
X98396192Y-44920669D01*
X98400810Y-44914810D01*
X98400436Y-44911646D01*
X97796893Y-44308103D01*
X97790000Y-44305248D01*
X97783107Y-44308103D01*
X97183060Y-44908150D01*
X97180205Y-44915043D01*
X94131747Y-44915043D01*
X94400956Y-44645834D01*
X94403811Y-44638941D01*
X94402646Y-44636128D01*
X94312027Y-44587131D01*
X94307636Y-44585285D01*
X94134232Y-44531607D01*
X94129571Y-44530650D01*
X93949047Y-44511676D01*
X93944274Y-44511643D01*
X93763516Y-44528094D01*
X93758824Y-44528990D01*
X93584705Y-44580235D01*
X93580277Y-44582024D01*
X93480532Y-44634170D01*
X93475747Y-44639892D01*
X92011073Y-44639892D01*
X92002180Y-44632535D01*
X91854451Y-44552658D01*
X91831690Y-44540351D01*
X91831689Y-44540350D01*
X91829585Y-44539213D01*
X91642152Y-44481193D01*
X91639775Y-44480943D01*
X91639774Y-44480943D01*
X91449402Y-44460933D01*
X91449397Y-44460933D01*
X91447019Y-44460683D01*
X91444634Y-44460900D01*
X91444629Y-44460900D01*
X91349319Y-44469574D01*
X91251618Y-44478466D01*
X91138893Y-44511643D01*
X91065696Y-44533186D01*
X91065694Y-44533187D01*
X91063393Y-44533864D01*
X91061267Y-44534975D01*
X91061268Y-44534975D01*
X90952798Y-44591682D01*
X90889512Y-44624767D01*
X90736600Y-44747711D01*
X90735057Y-44749550D01*
X90612020Y-44896180D01*
X90612017Y-44896184D01*
X90610480Y-44898016D01*
X90589817Y-44935602D01*
X90518494Y-45065338D01*
X90515956Y-45069954D01*
X90456628Y-45256978D01*
X90434757Y-45451963D01*
X88633965Y-45451963D01*
X88616194Y-45270728D01*
X88578534Y-45145991D01*
X88560178Y-45085191D01*
X88560176Y-45085186D01*
X88559484Y-45082894D01*
X88467370Y-44909653D01*
X88442339Y-44878961D01*
X88344878Y-44759462D01*
X88343361Y-44757602D01*
X88192180Y-44632535D01*
X88044451Y-44552658D01*
X88021690Y-44540351D01*
X88021689Y-44540350D01*
X88019585Y-44539213D01*
X87832152Y-44481193D01*
X87829775Y-44480943D01*
X87829774Y-44480943D01*
X87639402Y-44460933D01*
X87639397Y-44460933D01*
X87637019Y-44460683D01*
X87634634Y-44460900D01*
X87634629Y-44460900D01*
X87539319Y-44469574D01*
X87441618Y-44478466D01*
X87328893Y-44511643D01*
X87255696Y-44533186D01*
X87255694Y-44533187D01*
X87253393Y-44533864D01*
X87251267Y-44534975D01*
X87251268Y-44534975D01*
X87142798Y-44591682D01*
X87079512Y-44624767D01*
X86926600Y-44747711D01*
X86925057Y-44749550D01*
X86802020Y-44896180D01*
X86802017Y-44896184D01*
X86800480Y-44898016D01*
X86779817Y-44935602D01*
X86708494Y-45065338D01*
X86705956Y-45069954D01*
X86646628Y-45256978D01*
X86624757Y-45451963D01*
X86133965Y-45451963D01*
X86116194Y-45270728D01*
X86078534Y-45145991D01*
X86060178Y-45085191D01*
X86060176Y-45085186D01*
X86059484Y-45082894D01*
X85967370Y-44909653D01*
X85942339Y-44878961D01*
X85844878Y-44759462D01*
X85843361Y-44757602D01*
X85692180Y-44632535D01*
X85544451Y-44552658D01*
X85521690Y-44540351D01*
X85521689Y-44540350D01*
X85519585Y-44539213D01*
X85332152Y-44481193D01*
X85329775Y-44480943D01*
X85329774Y-44480943D01*
X85139402Y-44460933D01*
X85139397Y-44460933D01*
X85137019Y-44460683D01*
X85134634Y-44460900D01*
X85134629Y-44460900D01*
X85039319Y-44469574D01*
X84941618Y-44478466D01*
X84828893Y-44511643D01*
X84755696Y-44533186D01*
X84755694Y-44533187D01*
X84753393Y-44533864D01*
X84751267Y-44534975D01*
X84751268Y-44534975D01*
X84642798Y-44591682D01*
X84579512Y-44624767D01*
X84426600Y-44747711D01*
X84425057Y-44749550D01*
X84302020Y-44896180D01*
X84302017Y-44896184D01*
X84300480Y-44898016D01*
X84279817Y-44935602D01*
X84208494Y-45065338D01*
X84205956Y-45069954D01*
X84146628Y-45256978D01*
X84124757Y-45451963D01*
X82193220Y-45451963D01*
X82176650Y-45282965D01*
X82175726Y-45278296D01*
X82123261Y-45104524D01*
X82121442Y-45100112D01*
X82071746Y-45006646D01*
X82065990Y-45001901D01*
X82063024Y-45002186D01*
X81606103Y-45459107D01*
X81603248Y-45466000D01*
X80876752Y-45466000D01*
X80873897Y-45459107D01*
X80419911Y-45005121D01*
X80413018Y-45002266D01*
X80410144Y-45003456D01*
X80363748Y-45087848D01*
X80361872Y-45092226D01*
X80306987Y-45265247D01*
X80305997Y-45269902D01*
X80285763Y-45450296D01*
X80285696Y-45455057D01*
X79744268Y-45455057D01*
X79726194Y-45270728D01*
X79688534Y-45145991D01*
X79670178Y-45085191D01*
X79670176Y-45085186D01*
X79669484Y-45082894D01*
X79577370Y-44909653D01*
X79552339Y-44878961D01*
X79454878Y-44759462D01*
X79453361Y-44757602D01*
X79311073Y-44639892D01*
X80775747Y-44639892D01*
X80776007Y-44642797D01*
X81233107Y-45099897D01*
X81240000Y-45102752D01*
X81246893Y-45099897D01*
X81700956Y-44645834D01*
X81703811Y-44638941D01*
X81702646Y-44636128D01*
X81612027Y-44587131D01*
X81607636Y-44585285D01*
X81434232Y-44531607D01*
X81429571Y-44530650D01*
X81249047Y-44511676D01*
X81244274Y-44511643D01*
X81063516Y-44528094D01*
X81058824Y-44528990D01*
X80884705Y-44580235D01*
X80880277Y-44582024D01*
X80780532Y-44634170D01*
X80775747Y-44639892D01*
X79311073Y-44639892D01*
X79302180Y-44632535D01*
X79154451Y-44552658D01*
X79131690Y-44540351D01*
X79131689Y-44540350D01*
X79129585Y-44539213D01*
X78942152Y-44481193D01*
X78939775Y-44480943D01*
X78939774Y-44480943D01*
X78749402Y-44460933D01*
X78749397Y-44460933D01*
X78747019Y-44460683D01*
X78744634Y-44460900D01*
X78744629Y-44460900D01*
X78649319Y-44469574D01*
X78551618Y-44478466D01*
X78438893Y-44511643D01*
X78365696Y-44533186D01*
X78365694Y-44533187D01*
X78363393Y-44533864D01*
X78361267Y-44534975D01*
X78361268Y-44534975D01*
X78252798Y-44591682D01*
X78189512Y-44624767D01*
X78036600Y-44747711D01*
X78035057Y-44749550D01*
X77912020Y-44896180D01*
X77912017Y-44896184D01*
X77910480Y-44898016D01*
X77889817Y-44935602D01*
X77818494Y-45065338D01*
X77815956Y-45069954D01*
X77756628Y-45256978D01*
X77734757Y-45451963D01*
X75843220Y-45451963D01*
X75826650Y-45282965D01*
X75825726Y-45278296D01*
X75773261Y-45104524D01*
X75771442Y-45100112D01*
X75721746Y-45006646D01*
X75715990Y-45001901D01*
X75713024Y-45002186D01*
X75256103Y-45459107D01*
X75253248Y-45466000D01*
X74526752Y-45466000D01*
X74523897Y-45459107D01*
X74069911Y-45005121D01*
X74063018Y-45002266D01*
X74060144Y-45003456D01*
X74013748Y-45087848D01*
X74011872Y-45092226D01*
X73956987Y-45265247D01*
X73955997Y-45269902D01*
X73935763Y-45450296D01*
X73935696Y-45455057D01*
X73394268Y-45455057D01*
X73376194Y-45270728D01*
X73338534Y-45145991D01*
X73320178Y-45085191D01*
X73320176Y-45085186D01*
X73319484Y-45082894D01*
X73227370Y-44909653D01*
X73202339Y-44878961D01*
X73104878Y-44759462D01*
X73103361Y-44757602D01*
X72961073Y-44639892D01*
X74425747Y-44639892D01*
X74426007Y-44642797D01*
X74883107Y-45099897D01*
X74890000Y-45102752D01*
X74896893Y-45099897D01*
X75350956Y-44645834D01*
X75353811Y-44638941D01*
X75352646Y-44636128D01*
X75262027Y-44587131D01*
X75257636Y-44585285D01*
X75084232Y-44531607D01*
X75079571Y-44530650D01*
X74899047Y-44511676D01*
X74894274Y-44511643D01*
X74713516Y-44528094D01*
X74708824Y-44528990D01*
X74534705Y-44580235D01*
X74530277Y-44582024D01*
X74430532Y-44634170D01*
X74425747Y-44639892D01*
X72961073Y-44639892D01*
X72952180Y-44632535D01*
X72804451Y-44552658D01*
X72781690Y-44540351D01*
X72781689Y-44540350D01*
X72779585Y-44539213D01*
X72592152Y-44481193D01*
X72589775Y-44480943D01*
X72589774Y-44480943D01*
X72399402Y-44460933D01*
X72399397Y-44460933D01*
X72397019Y-44460683D01*
X72394634Y-44460900D01*
X72394629Y-44460900D01*
X72299319Y-44469574D01*
X72201618Y-44478466D01*
X72088893Y-44511643D01*
X72015696Y-44533186D01*
X72015694Y-44533187D01*
X72013393Y-44533864D01*
X72011267Y-44534975D01*
X72011268Y-44534975D01*
X71902798Y-44591682D01*
X71839512Y-44624767D01*
X71686600Y-44747711D01*
X71685057Y-44749550D01*
X71562020Y-44896180D01*
X71562017Y-44896184D01*
X71560480Y-44898016D01*
X71539817Y-44935602D01*
X71468494Y-45065338D01*
X71465956Y-45069954D01*
X71406628Y-45256978D01*
X71384757Y-45451963D01*
X69493220Y-45451963D01*
X69476650Y-45282965D01*
X69475726Y-45278296D01*
X69423261Y-45104524D01*
X69421442Y-45100112D01*
X69371746Y-45006646D01*
X69365990Y-45001901D01*
X69363024Y-45002186D01*
X68906103Y-45459107D01*
X68903248Y-45466000D01*
X68176752Y-45466000D01*
X68173897Y-45459107D01*
X67719911Y-45005121D01*
X67713018Y-45002266D01*
X67710144Y-45003456D01*
X67663748Y-45087848D01*
X67661872Y-45092226D01*
X67606987Y-45265247D01*
X67605997Y-45269902D01*
X67585763Y-45450296D01*
X67585696Y-45455057D01*
X67044268Y-45455057D01*
X67026194Y-45270728D01*
X66988534Y-45145991D01*
X66970178Y-45085191D01*
X66970176Y-45085186D01*
X66969484Y-45082894D01*
X66877370Y-44909653D01*
X66852339Y-44878961D01*
X66754878Y-44759462D01*
X66753361Y-44757602D01*
X66611073Y-44639892D01*
X68075747Y-44639892D01*
X68076007Y-44642797D01*
X68533107Y-45099897D01*
X68540000Y-45102752D01*
X68546893Y-45099897D01*
X69000956Y-44645834D01*
X69003811Y-44638941D01*
X69002646Y-44636128D01*
X68912027Y-44587131D01*
X68907636Y-44585285D01*
X68734232Y-44531607D01*
X68729571Y-44530650D01*
X68549047Y-44511676D01*
X68544274Y-44511643D01*
X68363516Y-44528094D01*
X68358824Y-44528990D01*
X68184705Y-44580235D01*
X68180277Y-44582024D01*
X68080532Y-44634170D01*
X68075747Y-44639892D01*
X66611073Y-44639892D01*
X66602180Y-44632535D01*
X66454451Y-44552658D01*
X66431690Y-44540351D01*
X66431689Y-44540350D01*
X66429585Y-44539213D01*
X66242152Y-44481193D01*
X66239775Y-44480943D01*
X66239774Y-44480943D01*
X66049402Y-44460933D01*
X66049397Y-44460933D01*
X66047019Y-44460683D01*
X66044634Y-44460900D01*
X66044629Y-44460900D01*
X65949319Y-44469574D01*
X65851618Y-44478466D01*
X65738893Y-44511643D01*
X65665696Y-44533186D01*
X65665694Y-44533187D01*
X65663393Y-44533864D01*
X65661267Y-44534975D01*
X65661268Y-44534975D01*
X65552798Y-44591682D01*
X65489512Y-44624767D01*
X65336600Y-44747711D01*
X65335057Y-44749550D01*
X65212020Y-44896180D01*
X65212017Y-44896184D01*
X65210480Y-44898016D01*
X65189817Y-44935602D01*
X65118494Y-45065338D01*
X65115956Y-45069954D01*
X65056628Y-45256978D01*
X65034757Y-45451963D01*
X63143220Y-45451963D01*
X63126650Y-45282965D01*
X63125726Y-45278296D01*
X63073261Y-45104524D01*
X63071442Y-45100112D01*
X63021746Y-45006646D01*
X63015990Y-45001901D01*
X63013024Y-45002186D01*
X62556103Y-45459107D01*
X62553248Y-45466000D01*
X61826752Y-45466000D01*
X61823897Y-45459107D01*
X61369911Y-45005121D01*
X61363018Y-45002266D01*
X61360144Y-45003456D01*
X61313748Y-45087848D01*
X61311872Y-45092226D01*
X61256987Y-45265247D01*
X61255997Y-45269902D01*
X61235763Y-45450296D01*
X61235696Y-45455057D01*
X60694268Y-45455057D01*
X60676194Y-45270728D01*
X60638534Y-45145991D01*
X60620178Y-45085191D01*
X60620176Y-45085186D01*
X60619484Y-45082894D01*
X60527370Y-44909653D01*
X60502339Y-44878961D01*
X60404878Y-44759462D01*
X60403361Y-44757602D01*
X60261073Y-44639892D01*
X61725747Y-44639892D01*
X61726007Y-44642797D01*
X62183107Y-45099897D01*
X62190000Y-45102752D01*
X62196893Y-45099897D01*
X62650956Y-44645834D01*
X62653811Y-44638941D01*
X62652646Y-44636128D01*
X62562027Y-44587131D01*
X62557636Y-44585285D01*
X62384232Y-44531607D01*
X62379571Y-44530650D01*
X62199047Y-44511676D01*
X62194274Y-44511643D01*
X62013516Y-44528094D01*
X62008824Y-44528990D01*
X61834705Y-44580235D01*
X61830277Y-44582024D01*
X61730532Y-44634170D01*
X61725747Y-44639892D01*
X60261073Y-44639892D01*
X60252180Y-44632535D01*
X60104451Y-44552658D01*
X60081690Y-44540351D01*
X60081689Y-44540350D01*
X60079585Y-44539213D01*
X59892152Y-44481193D01*
X59889775Y-44480943D01*
X59889774Y-44480943D01*
X59699402Y-44460933D01*
X59699397Y-44460933D01*
X59697019Y-44460683D01*
X59694634Y-44460900D01*
X59694629Y-44460900D01*
X59599319Y-44469574D01*
X59501618Y-44478466D01*
X59388893Y-44511643D01*
X59315696Y-44533186D01*
X59315694Y-44533187D01*
X59313393Y-44533864D01*
X59311267Y-44534975D01*
X59311268Y-44534975D01*
X59202798Y-44591682D01*
X59139512Y-44624767D01*
X58986600Y-44747711D01*
X58985057Y-44749550D01*
X58862020Y-44896180D01*
X58862017Y-44896184D01*
X58860480Y-44898016D01*
X58839817Y-44935602D01*
X58768494Y-45065338D01*
X58765956Y-45069954D01*
X58706628Y-45256978D01*
X58684757Y-45451963D01*
X54760000Y-45451963D01*
X54760000Y-44591682D01*
X54774352Y-44557034D01*
X54809000Y-44542682D01*
X54843648Y-44557034D01*
X54849008Y-44563393D01*
X54963222Y-44725002D01*
X54986533Y-44747711D01*
X55119660Y-44877399D01*
X55119663Y-44877402D01*
X55121264Y-44878961D01*
X55123126Y-44880205D01*
X55123127Y-44880206D01*
X55296399Y-44995982D01*
X55304717Y-45001540D01*
X55507436Y-45088635D01*
X55536697Y-45095256D01*
X55720442Y-45136834D01*
X55720448Y-45136835D01*
X55722632Y-45137329D01*
X55815492Y-45140977D01*
X55940851Y-45145903D01*
X55940854Y-45145903D01*
X55943098Y-45145991D01*
X55945317Y-45145669D01*
X55945322Y-45145669D01*
X56052275Y-45130161D01*
X56161452Y-45114331D01*
X56163574Y-45113611D01*
X56163577Y-45113610D01*
X56305781Y-45065338D01*
X56370379Y-45043410D01*
X56441722Y-45003456D01*
X56560922Y-44936701D01*
X56560924Y-44936700D01*
X56562884Y-44935602D01*
X56587604Y-44915043D01*
X56730795Y-44795951D01*
X56732518Y-44794518D01*
X56772696Y-44746210D01*
X56872166Y-44626611D01*
X56872168Y-44626609D01*
X56873602Y-44624884D01*
X56915650Y-44549803D01*
X56980314Y-44434336D01*
X56981410Y-44432379D01*
X57052331Y-44223452D01*
X57083991Y-44005098D01*
X57085643Y-43942000D01*
X57083071Y-43914010D01*
X96635616Y-43914010D01*
X96649145Y-44120423D01*
X96649847Y-44124853D01*
X96700766Y-44325350D01*
X96702256Y-44329559D01*
X96788861Y-44517418D01*
X96791105Y-44521303D01*
X96810482Y-44548721D01*
X96816792Y-44552703D01*
X96821051Y-44551739D01*
X97423897Y-43948893D01*
X97426752Y-43942000D01*
X97423897Y-43935107D01*
X96821524Y-43332734D01*
X96814631Y-43329879D01*
X96811915Y-43331004D01*
X96724036Y-43498035D01*
X96722320Y-43502177D01*
X96660978Y-43699729D01*
X96660046Y-43704113D01*
X96635733Y-43909536D01*
X96635616Y-43914010D01*
X57083071Y-43914010D01*
X57065454Y-43722289D01*
X57005565Y-43509936D01*
X56907980Y-43312053D01*
X56775967Y-43135267D01*
X56613949Y-42985499D01*
X56589312Y-42969954D01*
X97180084Y-42969954D01*
X97180579Y-42973369D01*
X97783107Y-43575897D01*
X97790000Y-43578752D01*
X97796893Y-43575897D01*
X98396651Y-42976139D01*
X98399506Y-42969246D01*
X98398078Y-42965797D01*
X98316227Y-42914153D01*
X98312237Y-42912120D01*
X98120101Y-42835464D01*
X98115813Y-42834195D01*
X97912929Y-42793839D01*
X97908478Y-42793371D01*
X97701633Y-42790662D01*
X97697167Y-42791014D01*
X97493296Y-42826046D01*
X97488976Y-42827203D01*
X97294899Y-42898802D01*
X97290861Y-42900728D01*
X97184547Y-42963978D01*
X97180084Y-42969954D01*
X56589312Y-42969954D01*
X56427350Y-42867764D01*
X56346389Y-42835464D01*
X56224505Y-42786837D01*
X56224501Y-42786836D01*
X56222421Y-42786006D01*
X56220220Y-42785568D01*
X56220216Y-42785567D01*
X56078988Y-42757475D01*
X56006024Y-42742962D01*
X55900920Y-42741586D01*
X55787654Y-42740103D01*
X55787649Y-42740103D01*
X55785406Y-42740074D01*
X55783189Y-42740455D01*
X55783188Y-42740455D01*
X55716857Y-42751853D01*
X55567957Y-42777438D01*
X55565853Y-42778214D01*
X55565850Y-42778215D01*
X55363065Y-42853026D01*
X55363062Y-42853027D01*
X55360957Y-42853804D01*
X55359029Y-42854951D01*
X55359027Y-42854952D01*
X55173272Y-42965465D01*
X55171341Y-42966614D01*
X55169653Y-42968094D01*
X55169652Y-42968095D01*
X55148067Y-42987025D01*
X55005457Y-43112090D01*
X55004072Y-43113847D01*
X55004069Y-43113850D01*
X54870252Y-43283598D01*
X54868863Y-43285360D01*
X54867817Y-43287348D01*
X54852364Y-43316719D01*
X54823530Y-43340700D01*
X54786185Y-43337268D01*
X54762204Y-43308434D01*
X54760000Y-43293904D01*
X54760000Y-42051682D01*
X54774352Y-42017034D01*
X54809000Y-42002682D01*
X54843648Y-42017034D01*
X54849008Y-42023393D01*
X54963222Y-42185002D01*
X54964834Y-42186572D01*
X55119660Y-42337399D01*
X55119663Y-42337402D01*
X55121264Y-42338961D01*
X55123126Y-42340205D01*
X55123127Y-42340206D01*
X55207678Y-42396701D01*
X55304717Y-42461540D01*
X55507436Y-42548635D01*
X55571299Y-42563086D01*
X55720442Y-42596834D01*
X55720448Y-42596835D01*
X55722632Y-42597329D01*
X55815492Y-42600977D01*
X55940851Y-42605903D01*
X55940854Y-42605903D01*
X55943098Y-42605991D01*
X55945317Y-42605669D01*
X55945322Y-42605669D01*
X56052275Y-42590161D01*
X56161452Y-42574331D01*
X56163574Y-42573611D01*
X56163577Y-42573610D01*
X56271785Y-42536878D01*
X56370379Y-42503410D01*
X56392473Y-42491037D01*
X56560922Y-42396701D01*
X56560924Y-42396700D01*
X56562884Y-42395602D01*
X56732518Y-42254518D01*
X56739054Y-42246659D01*
X56872166Y-42086611D01*
X56872168Y-42086609D01*
X56873602Y-42084884D01*
X56878939Y-42075355D01*
X56980314Y-41894336D01*
X56981410Y-41892379D01*
X57052331Y-41683452D01*
X57083991Y-41465098D01*
X57085643Y-41402000D01*
X57065454Y-41182289D01*
X57005565Y-40969936D01*
X56907980Y-40772053D01*
X56775967Y-40595267D01*
X56774313Y-40593738D01*
X56615600Y-40447025D01*
X56615599Y-40447024D01*
X56613949Y-40445499D01*
X56427350Y-40327764D01*
X56390409Y-40313026D01*
X56224505Y-40246837D01*
X56224501Y-40246836D01*
X56222421Y-40246006D01*
X56220220Y-40245568D01*
X56220216Y-40245567D01*
X56078988Y-40217475D01*
X56006024Y-40202962D01*
X55900920Y-40201586D01*
X55787654Y-40200103D01*
X55787649Y-40200103D01*
X55785406Y-40200074D01*
X55783189Y-40200455D01*
X55783188Y-40200455D01*
X55716857Y-40211853D01*
X55567957Y-40237438D01*
X55565853Y-40238214D01*
X55565850Y-40238215D01*
X55363065Y-40313026D01*
X55363062Y-40313027D01*
X55360957Y-40313804D01*
X55359029Y-40314951D01*
X55359027Y-40314952D01*
X55337492Y-40327764D01*
X55171341Y-40426614D01*
X55169653Y-40428094D01*
X55169652Y-40428095D01*
X55022566Y-40557086D01*
X55005457Y-40572090D01*
X55004073Y-40573846D01*
X55004069Y-40573850D01*
X54879037Y-40732454D01*
X54868863Y-40745360D01*
X54867817Y-40747348D01*
X54852364Y-40776719D01*
X54823530Y-40800700D01*
X54786185Y-40797268D01*
X54762204Y-40768434D01*
X54760000Y-40753904D01*
X54760000Y-39835043D01*
X55270205Y-39835043D01*
X55271750Y-39838773D01*
X55327047Y-39875721D01*
X55330981Y-39877857D01*
X55521042Y-39959513D01*
X55525300Y-39960897D01*
X55727062Y-40006551D01*
X55731497Y-40007134D01*
X55938197Y-40015256D01*
X55942668Y-40015022D01*
X56147388Y-39985338D01*
X56151737Y-39984295D01*
X56347632Y-39917797D01*
X56351708Y-39915982D01*
X56486192Y-39840669D01*
X56490810Y-39834810D01*
X56490436Y-39831646D01*
X55886893Y-39228103D01*
X55880000Y-39225248D01*
X55873107Y-39228103D01*
X55273060Y-39828150D01*
X55270205Y-39835043D01*
X54760000Y-39835043D01*
X54760000Y-39402917D01*
X54774352Y-39368269D01*
X54809000Y-39353917D01*
X54843648Y-39368269D01*
X54853499Y-39382403D01*
X54878861Y-39437418D01*
X54881105Y-39441303D01*
X54900482Y-39468721D01*
X54906792Y-39472703D01*
X54911051Y-39471739D01*
X55513897Y-38868893D01*
X55516752Y-38862000D01*
X56243248Y-38862000D01*
X56246103Y-38868893D01*
X56847013Y-39469803D01*
X56853906Y-39472658D01*
X56856850Y-39471439D01*
X56933982Y-39333708D01*
X56935797Y-39329632D01*
X57002295Y-39133737D01*
X57003338Y-39129388D01*
X57033137Y-38923874D01*
X57033382Y-38920998D01*
X57034889Y-38863453D01*
X57034794Y-38860551D01*
X57032027Y-38830440D01*
X59754770Y-38830440D01*
X59769200Y-39050604D01*
X59769753Y-39052783D01*
X59769754Y-39052787D01*
X59793320Y-39145577D01*
X59823511Y-39264452D01*
X59824447Y-39266482D01*
X59824449Y-39266488D01*
X59914940Y-39462776D01*
X59915883Y-39464821D01*
X60043222Y-39645002D01*
X60044834Y-39646572D01*
X60199660Y-39797399D01*
X60199663Y-39797402D01*
X60201264Y-39798961D01*
X60203126Y-39800205D01*
X60203127Y-39800206D01*
X60376399Y-39915982D01*
X60384717Y-39921540D01*
X60587436Y-40008635D01*
X60616697Y-40015256D01*
X60800442Y-40056834D01*
X60800448Y-40056835D01*
X60802632Y-40057329D01*
X60895492Y-40060977D01*
X61020851Y-40065903D01*
X61020854Y-40065903D01*
X61023098Y-40065991D01*
X61025317Y-40065669D01*
X61025322Y-40065669D01*
X61132275Y-40050161D01*
X61241452Y-40034331D01*
X61243574Y-40033611D01*
X61243577Y-40033610D01*
X61385781Y-39985338D01*
X61450379Y-39963410D01*
X61472473Y-39951037D01*
X61640922Y-39856701D01*
X61640924Y-39856700D01*
X61642884Y-39855602D01*
X61667604Y-39835043D01*
X61810795Y-39715951D01*
X61812518Y-39714518D01*
X61819054Y-39706659D01*
X61952166Y-39546611D01*
X61952168Y-39546609D01*
X61953602Y-39544884D01*
X61995650Y-39469803D01*
X62060314Y-39354336D01*
X62061410Y-39352379D01*
X62132331Y-39143452D01*
X62163991Y-38925098D01*
X62165643Y-38862000D01*
X62162743Y-38830440D01*
X64834770Y-38830440D01*
X64849200Y-39050604D01*
X64849753Y-39052783D01*
X64849754Y-39052787D01*
X64873320Y-39145577D01*
X64903511Y-39264452D01*
X64904447Y-39266482D01*
X64904449Y-39266488D01*
X64994940Y-39462776D01*
X64995883Y-39464821D01*
X65123222Y-39645002D01*
X65124834Y-39646572D01*
X65279660Y-39797399D01*
X65279663Y-39797402D01*
X65281264Y-39798961D01*
X65283126Y-39800205D01*
X65283127Y-39800206D01*
X65456399Y-39915982D01*
X65464717Y-39921540D01*
X65667436Y-40008635D01*
X65696697Y-40015256D01*
X65880442Y-40056834D01*
X65880448Y-40056835D01*
X65882632Y-40057329D01*
X65975492Y-40060977D01*
X66100851Y-40065903D01*
X66100854Y-40065903D01*
X66103098Y-40065991D01*
X66105317Y-40065669D01*
X66105322Y-40065669D01*
X66212275Y-40050161D01*
X66321452Y-40034331D01*
X66323574Y-40033611D01*
X66323577Y-40033610D01*
X66465781Y-39985338D01*
X66530379Y-39963410D01*
X66552473Y-39951037D01*
X66720922Y-39856701D01*
X66720924Y-39856700D01*
X66722884Y-39855602D01*
X66747604Y-39835043D01*
X66890795Y-39715951D01*
X66892518Y-39714518D01*
X66899054Y-39706659D01*
X67032166Y-39546611D01*
X67032168Y-39546609D01*
X67033602Y-39544884D01*
X67075650Y-39469803D01*
X67140314Y-39354336D01*
X67141410Y-39352379D01*
X67212331Y-39143452D01*
X67243991Y-38925098D01*
X67245643Y-38862000D01*
X67242743Y-38830440D01*
X68644770Y-38830440D01*
X68659200Y-39050604D01*
X68659753Y-39052783D01*
X68659754Y-39052787D01*
X68683320Y-39145577D01*
X68713511Y-39264452D01*
X68714447Y-39266482D01*
X68714449Y-39266488D01*
X68804940Y-39462776D01*
X68805883Y-39464821D01*
X68933222Y-39645002D01*
X68934834Y-39646572D01*
X69089660Y-39797399D01*
X69089663Y-39797402D01*
X69091264Y-39798961D01*
X69093126Y-39800205D01*
X69093127Y-39800206D01*
X69266399Y-39915982D01*
X69274717Y-39921540D01*
X69477436Y-40008635D01*
X69506697Y-40015256D01*
X69690442Y-40056834D01*
X69690448Y-40056835D01*
X69692632Y-40057329D01*
X69785492Y-40060977D01*
X69910851Y-40065903D01*
X69910854Y-40065903D01*
X69913098Y-40065991D01*
X69915317Y-40065669D01*
X69915322Y-40065669D01*
X70022275Y-40050161D01*
X70131452Y-40034331D01*
X70133574Y-40033611D01*
X70133577Y-40033610D01*
X70275781Y-39985338D01*
X70340379Y-39963410D01*
X70362473Y-39951037D01*
X70530922Y-39856701D01*
X70530924Y-39856700D01*
X70532884Y-39855602D01*
X70557604Y-39835043D01*
X70700795Y-39715951D01*
X70702518Y-39714518D01*
X70709054Y-39706659D01*
X70842166Y-39546611D01*
X70842168Y-39546609D01*
X70843602Y-39544884D01*
X70885650Y-39469803D01*
X70950314Y-39354336D01*
X70951410Y-39352379D01*
X71022331Y-39143452D01*
X71053991Y-38925098D01*
X71055643Y-38862000D01*
X71052743Y-38830440D01*
X73724770Y-38830440D01*
X73739200Y-39050604D01*
X73739753Y-39052783D01*
X73739754Y-39052787D01*
X73763320Y-39145577D01*
X73793511Y-39264452D01*
X73794447Y-39266482D01*
X73794449Y-39266488D01*
X73884940Y-39462776D01*
X73885883Y-39464821D01*
X74013222Y-39645002D01*
X74014834Y-39646572D01*
X74169660Y-39797399D01*
X74169663Y-39797402D01*
X74171264Y-39798961D01*
X74173126Y-39800205D01*
X74173127Y-39800206D01*
X74346399Y-39915982D01*
X74354717Y-39921540D01*
X74557436Y-40008635D01*
X74586697Y-40015256D01*
X74770442Y-40056834D01*
X74770448Y-40056835D01*
X74772632Y-40057329D01*
X74865492Y-40060977D01*
X74990851Y-40065903D01*
X74990854Y-40065903D01*
X74993098Y-40065991D01*
X74995317Y-40065669D01*
X74995322Y-40065669D01*
X75102275Y-40050161D01*
X75211452Y-40034331D01*
X75213574Y-40033611D01*
X75213577Y-40033610D01*
X75355781Y-39985338D01*
X75420379Y-39963410D01*
X75442473Y-39951037D01*
X75610922Y-39856701D01*
X75610924Y-39856700D01*
X75612884Y-39855602D01*
X75637604Y-39835043D01*
X75780795Y-39715951D01*
X75782518Y-39714518D01*
X75789054Y-39706659D01*
X75922166Y-39546611D01*
X75922168Y-39546609D01*
X75923602Y-39544884D01*
X75965650Y-39469803D01*
X76030314Y-39354336D01*
X76031410Y-39352379D01*
X76102331Y-39143452D01*
X76133991Y-38925098D01*
X76135643Y-38862000D01*
X76132743Y-38830440D01*
X77534770Y-38830440D01*
X77549200Y-39050604D01*
X77549753Y-39052783D01*
X77549754Y-39052787D01*
X77573320Y-39145577D01*
X77603511Y-39264452D01*
X77604447Y-39266482D01*
X77604449Y-39266488D01*
X77694940Y-39462776D01*
X77695883Y-39464821D01*
X77823222Y-39645002D01*
X77824834Y-39646572D01*
X77979660Y-39797399D01*
X77979663Y-39797402D01*
X77981264Y-39798961D01*
X77983126Y-39800205D01*
X77983127Y-39800206D01*
X78156399Y-39915982D01*
X78164717Y-39921540D01*
X78367436Y-40008635D01*
X78396697Y-40015256D01*
X78580442Y-40056834D01*
X78580448Y-40056835D01*
X78582632Y-40057329D01*
X78675492Y-40060977D01*
X78800851Y-40065903D01*
X78800854Y-40065903D01*
X78803098Y-40065991D01*
X78805317Y-40065669D01*
X78805322Y-40065669D01*
X78912275Y-40050161D01*
X79021452Y-40034331D01*
X79023574Y-40033611D01*
X79023577Y-40033610D01*
X79165781Y-39985338D01*
X79230379Y-39963410D01*
X79252473Y-39951037D01*
X79420922Y-39856701D01*
X79420924Y-39856700D01*
X79422884Y-39855602D01*
X79447604Y-39835043D01*
X79590795Y-39715951D01*
X79592518Y-39714518D01*
X79599054Y-39706659D01*
X79732166Y-39546611D01*
X79732168Y-39546609D01*
X79733602Y-39544884D01*
X79775650Y-39469803D01*
X79840314Y-39354336D01*
X79841410Y-39352379D01*
X79912331Y-39143452D01*
X79943991Y-38925098D01*
X79945643Y-38862000D01*
X79942538Y-38828208D01*
X79925660Y-38644526D01*
X79925659Y-38644521D01*
X79925454Y-38642289D01*
X79884168Y-38495897D01*
X79866177Y-38432105D01*
X79866176Y-38432102D01*
X79865565Y-38429936D01*
X79767980Y-38232053D01*
X79635967Y-38055267D01*
X79473949Y-37905499D01*
X79287350Y-37787764D01*
X79206389Y-37755464D01*
X79084505Y-37706837D01*
X79084501Y-37706836D01*
X79082421Y-37706006D01*
X79080220Y-37705568D01*
X79080216Y-37705567D01*
X78938988Y-37677475D01*
X78866024Y-37662962D01*
X78760920Y-37661586D01*
X78647654Y-37660103D01*
X78647649Y-37660103D01*
X78645406Y-37660074D01*
X78643189Y-37660455D01*
X78643188Y-37660455D01*
X78576857Y-37671853D01*
X78427957Y-37697438D01*
X78425853Y-37698214D01*
X78425850Y-37698215D01*
X78223065Y-37773026D01*
X78223062Y-37773027D01*
X78220957Y-37773804D01*
X78219029Y-37774951D01*
X78219027Y-37774952D01*
X78035072Y-37884394D01*
X78031341Y-37886614D01*
X78029653Y-37888094D01*
X78029652Y-37888095D01*
X78008067Y-37907025D01*
X77865457Y-38032090D01*
X77864072Y-38033847D01*
X77864069Y-38033850D01*
X77730252Y-38203598D01*
X77728863Y-38205360D01*
X77727817Y-38207348D01*
X77644486Y-38365734D01*
X77626131Y-38400620D01*
X77560703Y-38611333D01*
X77560439Y-38613565D01*
X77560438Y-38613569D01*
X77535034Y-38828208D01*
X77534770Y-38830440D01*
X76132743Y-38830440D01*
X76132538Y-38828208D01*
X76115660Y-38644526D01*
X76115659Y-38644521D01*
X76115454Y-38642289D01*
X76074168Y-38495897D01*
X76056177Y-38432105D01*
X76056176Y-38432102D01*
X76055565Y-38429936D01*
X75957980Y-38232053D01*
X75825967Y-38055267D01*
X75663949Y-37905499D01*
X75477350Y-37787764D01*
X75396389Y-37755464D01*
X75274505Y-37706837D01*
X75274501Y-37706836D01*
X75272421Y-37706006D01*
X75270220Y-37705568D01*
X75270216Y-37705567D01*
X75128988Y-37677475D01*
X75056024Y-37662962D01*
X74950920Y-37661586D01*
X74837654Y-37660103D01*
X74837649Y-37660103D01*
X74835406Y-37660074D01*
X74833189Y-37660455D01*
X74833188Y-37660455D01*
X74766857Y-37671853D01*
X74617957Y-37697438D01*
X74615853Y-37698214D01*
X74615850Y-37698215D01*
X74413065Y-37773026D01*
X74413062Y-37773027D01*
X74410957Y-37773804D01*
X74409029Y-37774951D01*
X74409027Y-37774952D01*
X74225072Y-37884394D01*
X74221341Y-37886614D01*
X74219653Y-37888094D01*
X74219652Y-37888095D01*
X74198067Y-37907025D01*
X74055457Y-38032090D01*
X74054072Y-38033847D01*
X74054069Y-38033850D01*
X73920252Y-38203598D01*
X73918863Y-38205360D01*
X73917817Y-38207348D01*
X73834486Y-38365734D01*
X73816131Y-38400620D01*
X73750703Y-38611333D01*
X73750439Y-38613565D01*
X73750438Y-38613569D01*
X73725034Y-38828208D01*
X73724770Y-38830440D01*
X71052743Y-38830440D01*
X71052538Y-38828208D01*
X71035660Y-38644526D01*
X71035659Y-38644521D01*
X71035454Y-38642289D01*
X70994168Y-38495897D01*
X70976177Y-38432105D01*
X70976176Y-38432102D01*
X70975565Y-38429936D01*
X70877980Y-38232053D01*
X70745967Y-38055267D01*
X70583949Y-37905499D01*
X70397350Y-37787764D01*
X70316389Y-37755464D01*
X70194505Y-37706837D01*
X70194501Y-37706836D01*
X70192421Y-37706006D01*
X70190220Y-37705568D01*
X70190216Y-37705567D01*
X70048988Y-37677475D01*
X69976024Y-37662962D01*
X69870920Y-37661586D01*
X69757654Y-37660103D01*
X69757649Y-37660103D01*
X69755406Y-37660074D01*
X69753189Y-37660455D01*
X69753188Y-37660455D01*
X69686857Y-37671853D01*
X69537957Y-37697438D01*
X69535853Y-37698214D01*
X69535850Y-37698215D01*
X69333065Y-37773026D01*
X69333062Y-37773027D01*
X69330957Y-37773804D01*
X69329029Y-37774951D01*
X69329027Y-37774952D01*
X69145072Y-37884394D01*
X69141341Y-37886614D01*
X69139653Y-37888094D01*
X69139652Y-37888095D01*
X69118067Y-37907025D01*
X68975457Y-38032090D01*
X68974072Y-38033847D01*
X68974069Y-38033850D01*
X68840252Y-38203598D01*
X68838863Y-38205360D01*
X68837817Y-38207348D01*
X68754486Y-38365734D01*
X68736131Y-38400620D01*
X68670703Y-38611333D01*
X68670439Y-38613565D01*
X68670438Y-38613569D01*
X68645034Y-38828208D01*
X68644770Y-38830440D01*
X67242743Y-38830440D01*
X67242538Y-38828208D01*
X67225660Y-38644526D01*
X67225659Y-38644521D01*
X67225454Y-38642289D01*
X67184168Y-38495897D01*
X67166177Y-38432105D01*
X67166176Y-38432102D01*
X67165565Y-38429936D01*
X67067980Y-38232053D01*
X66935967Y-38055267D01*
X66773949Y-37905499D01*
X66587350Y-37787764D01*
X66506389Y-37755464D01*
X66384505Y-37706837D01*
X66384501Y-37706836D01*
X66382421Y-37706006D01*
X66380220Y-37705568D01*
X66380216Y-37705567D01*
X66238988Y-37677475D01*
X66166024Y-37662962D01*
X66060920Y-37661586D01*
X65947654Y-37660103D01*
X65947649Y-37660103D01*
X65945406Y-37660074D01*
X65943189Y-37660455D01*
X65943188Y-37660455D01*
X65876857Y-37671853D01*
X65727957Y-37697438D01*
X65725853Y-37698214D01*
X65725850Y-37698215D01*
X65523065Y-37773026D01*
X65523062Y-37773027D01*
X65520957Y-37773804D01*
X65519029Y-37774951D01*
X65519027Y-37774952D01*
X65335072Y-37884394D01*
X65331341Y-37886614D01*
X65329653Y-37888094D01*
X65329652Y-37888095D01*
X65308067Y-37907025D01*
X65165457Y-38032090D01*
X65164072Y-38033847D01*
X65164069Y-38033850D01*
X65030252Y-38203598D01*
X65028863Y-38205360D01*
X65027817Y-38207348D01*
X64944486Y-38365734D01*
X64926131Y-38400620D01*
X64860703Y-38611333D01*
X64860439Y-38613565D01*
X64860438Y-38613569D01*
X64835034Y-38828208D01*
X64834770Y-38830440D01*
X62162743Y-38830440D01*
X62162538Y-38828208D01*
X62145660Y-38644526D01*
X62145659Y-38644521D01*
X62145454Y-38642289D01*
X62104168Y-38495897D01*
X62086177Y-38432105D01*
X62086176Y-38432102D01*
X62085565Y-38429936D01*
X61987980Y-38232053D01*
X61855967Y-38055267D01*
X61693949Y-37905499D01*
X61507350Y-37787764D01*
X61426389Y-37755464D01*
X61304505Y-37706837D01*
X61304501Y-37706836D01*
X61302421Y-37706006D01*
X61300220Y-37705568D01*
X61300216Y-37705567D01*
X61158988Y-37677475D01*
X61086024Y-37662962D01*
X60980920Y-37661586D01*
X60867654Y-37660103D01*
X60867649Y-37660103D01*
X60865406Y-37660074D01*
X60863189Y-37660455D01*
X60863188Y-37660455D01*
X60796857Y-37671853D01*
X60647957Y-37697438D01*
X60645853Y-37698214D01*
X60645850Y-37698215D01*
X60443065Y-37773026D01*
X60443062Y-37773027D01*
X60440957Y-37773804D01*
X60439029Y-37774951D01*
X60439027Y-37774952D01*
X60255072Y-37884394D01*
X60251341Y-37886614D01*
X60249653Y-37888094D01*
X60249652Y-37888095D01*
X60228067Y-37907025D01*
X60085457Y-38032090D01*
X60084072Y-38033847D01*
X60084069Y-38033850D01*
X59950252Y-38203598D01*
X59948863Y-38205360D01*
X59947817Y-38207348D01*
X59864486Y-38365734D01*
X59846131Y-38400620D01*
X59780703Y-38611333D01*
X59780439Y-38613565D01*
X59780438Y-38613569D01*
X59755034Y-38828208D01*
X59754770Y-38830440D01*
X57032027Y-38830440D01*
X57015794Y-38653775D01*
X57014977Y-38649363D01*
X56958826Y-38450272D01*
X56957225Y-38446099D01*
X56865731Y-38260568D01*
X56863390Y-38256749D01*
X56861130Y-38253722D01*
X56854718Y-38249907D01*
X56850140Y-38251070D01*
X56246103Y-38855107D01*
X56243248Y-38862000D01*
X55516752Y-38862000D01*
X55513897Y-38855107D01*
X54911524Y-38252734D01*
X54904631Y-38249879D01*
X54901915Y-38251004D01*
X54852364Y-38345185D01*
X54823531Y-38369166D01*
X54786185Y-38365734D01*
X54762204Y-38336901D01*
X54760000Y-38322370D01*
X54760000Y-37889954D01*
X55270084Y-37889954D01*
X55270579Y-37893369D01*
X55873107Y-38495897D01*
X55880000Y-38498752D01*
X55886893Y-38495897D01*
X56486651Y-37896139D01*
X56489506Y-37889246D01*
X56488078Y-37885797D01*
X56406227Y-37834153D01*
X56402237Y-37832120D01*
X56210101Y-37755464D01*
X56205813Y-37754195D01*
X56002929Y-37713839D01*
X55998478Y-37713371D01*
X55791633Y-37710662D01*
X55787167Y-37711014D01*
X55583296Y-37746046D01*
X55578976Y-37747203D01*
X55384899Y-37818802D01*
X55380861Y-37820728D01*
X55274547Y-37883978D01*
X55270084Y-37889954D01*
X54760000Y-37889954D01*
X54760000Y-37295043D01*
X55270205Y-37295043D01*
X55271750Y-37298773D01*
X55327047Y-37335721D01*
X55330981Y-37337857D01*
X55521042Y-37419513D01*
X55525300Y-37420897D01*
X55727062Y-37466551D01*
X55731497Y-37467134D01*
X55938197Y-37475256D01*
X55942668Y-37475022D01*
X56147388Y-37445338D01*
X56151737Y-37444295D01*
X56347632Y-37377797D01*
X56351708Y-37375982D01*
X56486192Y-37300669D01*
X56490810Y-37294810D01*
X56490436Y-37291646D01*
X55886893Y-36688103D01*
X55880000Y-36685248D01*
X55873107Y-36688103D01*
X55273060Y-37288150D01*
X55270205Y-37295043D01*
X54760000Y-37295043D01*
X54760000Y-36862917D01*
X54774352Y-36828269D01*
X54809000Y-36813917D01*
X54843648Y-36828269D01*
X54853499Y-36842403D01*
X54878861Y-36897418D01*
X54881105Y-36901303D01*
X54900482Y-36928721D01*
X54906792Y-36932703D01*
X54911051Y-36931739D01*
X55513897Y-36328893D01*
X55516752Y-36322000D01*
X56243248Y-36322000D01*
X56246103Y-36328893D01*
X56847013Y-36929803D01*
X56853906Y-36932658D01*
X56856850Y-36931439D01*
X56933982Y-36793708D01*
X56935797Y-36789632D01*
X57002295Y-36593737D01*
X57003338Y-36589388D01*
X57033137Y-36383874D01*
X57033382Y-36380998D01*
X57034889Y-36323453D01*
X57034794Y-36320551D01*
X57015794Y-36113775D01*
X57014977Y-36109363D01*
X56958826Y-35910272D01*
X56957225Y-35906099D01*
X56865731Y-35720568D01*
X56863390Y-35716749D01*
X56861130Y-35713722D01*
X56854718Y-35709907D01*
X56850140Y-35711070D01*
X56246103Y-36315107D01*
X56243248Y-36322000D01*
X55516752Y-36322000D01*
X55513897Y-36315107D01*
X54911524Y-35712734D01*
X54904631Y-35709879D01*
X54901915Y-35711004D01*
X54852364Y-35805185D01*
X54823531Y-35829166D01*
X54786185Y-35825734D01*
X54762204Y-35796901D01*
X54760000Y-35782370D01*
X54760000Y-35349954D01*
X55270084Y-35349954D01*
X55270579Y-35353369D01*
X55873107Y-35955897D01*
X55880000Y-35958752D01*
X55886893Y-35955897D01*
X56486651Y-35356139D01*
X56489506Y-35349246D01*
X56488078Y-35345797D01*
X56406227Y-35294153D01*
X56402237Y-35292120D01*
X56210101Y-35215464D01*
X56205813Y-35214195D01*
X56002929Y-35173839D01*
X55998478Y-35173371D01*
X55791633Y-35170662D01*
X55787167Y-35171014D01*
X55583296Y-35206046D01*
X55578976Y-35207203D01*
X55384899Y-35278802D01*
X55380861Y-35280728D01*
X55274547Y-35343978D01*
X55270084Y-35349954D01*
X54760000Y-35349954D01*
X54760000Y-33554196D01*
X54761670Y-33541514D01*
X54763621Y-33534233D01*
X54763621Y-33534232D01*
X54765291Y-33528000D01*
X54763621Y-33521768D01*
X54763621Y-33515317D01*
X54763686Y-33515317D01*
X54763015Y-33505097D01*
X54771357Y-33441737D01*
X54774668Y-33429382D01*
X54805494Y-33354960D01*
X54811887Y-33343886D01*
X54860931Y-33279971D01*
X54869971Y-33270931D01*
X54933886Y-33221887D01*
X54944958Y-33215495D01*
X55019383Y-33184668D01*
X55031736Y-33181357D01*
X55095098Y-33173015D01*
X55105317Y-33173686D01*
X55105317Y-33173621D01*
X55111768Y-33173621D01*
X55118000Y-33175291D01*
X55124232Y-33173621D01*
X55124233Y-33173621D01*
X55131514Y-33171670D01*
X55144196Y-33170000D01*
X98525804Y-33170000D01*
X98538486Y-33171670D01*
G37*
%TD.AperFunction*%
%TD*%
M02*
