M48
; DRILL file {KiCad (6.0.0)} date Fri Jan 14 09:57:53 2022
; FORMAT={-:-/ absolute / metric / decimal}
; #@! TF.CreationDate,2022-01-14T09:57:53+02:00
; #@! TF.GenerationSoftware,Kicad,Pcbnew,(6.0.0)
; #@! TF.FileFunction,Plated,1,2,PTH
FMAT,2
METRIC
; #@! TA.AperFunction,Plated,PTH,ViaDrill
T1C0.400
; #@! TA.AperFunction,Plated,PTH,ComponentDrill
T2C0.800
; #@! TA.AperFunction,Plated,PTH,ComponentDrill
T3C1.000
%
G90
G05
T1
X57.912Y-34.798
X57.912Y-39.878
X59.944Y-42.672
X63.5Y-35.052
X63.5Y-38.862
X63.5Y-43.18
X66.548Y-35.052
X68.072Y-37.084
X68.072Y-43.18
X70.358Y-42.672
X70.612Y-34.544
X71.12Y-40.386
X72.39Y-37.846
X74.168Y-42.672
X74.422Y-34.544
X76.708Y-37.084
X76.708Y-43.434
X76.962Y-40.64
X79.756Y-35.814
X79.756Y-40.64
X82.296Y-36.83
X82.296Y-43.18
X83.566Y-41.91
X84.582Y-35.052
X85.852Y-38.1
X86.36Y-40.894
X86.36Y-43.18
X88.138Y-35.052
X89.154Y-41.402
X90.17Y-42.672
X90.678Y-35.56
X91.694Y-37.084
X93.472Y-35.052
X94.488Y-39.116
X94.488Y-42.672
X95.758Y-37.846
X96.012Y-42.672
X96.012Y-45.212
T2
X59.69Y-45.466
X62.19Y-45.466
X66.04Y-45.466
X68.54Y-45.466
X72.39Y-45.466
X74.89Y-45.466
X78.74Y-45.466
X81.24Y-45.466
X85.13Y-45.466
X87.63Y-45.466
X91.44Y-45.466
X93.94Y-45.466
T3
X55.88Y-36.322
X55.88Y-38.862
X55.88Y-41.402
X55.88Y-43.942
X60.96Y-38.862
X66.04Y-38.862
X69.85Y-38.862
X74.93Y-38.862
X78.74Y-38.862
X83.82Y-38.862
X87.63Y-38.862
X92.71Y-38.862
X97.79Y-36.322
X97.79Y-38.862
X97.79Y-41.402
X97.79Y-43.942
T0
M30
