G04 #@! TF.GenerationSoftware,KiCad,Pcbnew,(5.1.5)-3*
G04 #@! TF.CreationDate,2020-06-06T12:22:37-04:00*
G04 #@! TF.ProjectId,SDR_SSB,5344525f-5353-4422-9e6b-696361645f70,rev?*
G04 #@! TF.SameCoordinates,Original*
G04 #@! TF.FileFunction,Soldermask,Top*
G04 #@! TF.FilePolarity,Negative*
%FSLAX46Y46*%
G04 Gerber Fmt 4.6, Leading zero omitted, Abs format (unit mm)*
G04 Created by KiCad (PCBNEW (5.1.5)-3) date 2020-06-06 12:22:37*
%MOMM*%
%LPD*%
G04 APERTURE LIST*
%ADD10R,2.000000X2.000000*%
%ADD11C,2.000000*%
%ADD12R,2.000000X3.200000*%
%ADD13R,1.800000X1.100000*%
%ADD14C,0.100000*%
%ADD15C,5.000000*%
%ADD16O,1.700000X1.700000*%
%ADD17R,1.700000X1.700000*%
%ADD18C,1.500000*%
%ADD19C,1.800000*%
%ADD20O,1.600000X2.400000*%
%ADD21R,1.600000X2.400000*%
%ADD22O,2.400000X1.600000*%
%ADD23R,2.400000X1.600000*%
%ADD24C,3.000000*%
%ADD25O,1.800000X2.600000*%
%ADD26R,1.800000X2.600000*%
%ADD27C,2.340000*%
%ADD28O,1.400000X1.400000*%
%ADD29C,1.400000*%
%ADD30O,1.600000X1.600000*%
%ADD31C,1.600000*%
%ADD32C,2.020000*%
%ADD33R,1.270000X3.600000*%
%ADD34R,1.350000X4.200000*%
%ADD35O,1.800000X1.800000*%
%ADD36R,1.800000X1.800000*%
%ADD37C,1.200000*%
%ADD38R,1.800000X2.500000*%
%ADD39R,2.500000X1.800000*%
%ADD40R,1.200000X1.200000*%
%ADD41R,1.600000X1.600000*%
G04 APERTURE END LIST*
D10*
X143040000Y248070000D03*
D11*
X140540000Y248070000D03*
X138040000Y248070000D03*
D12*
X146140000Y240570000D03*
X134940000Y240570000D03*
D11*
X143040000Y233570000D03*
X138040000Y233570000D03*
D13*
X96600000Y209800000D03*
D14*
G36*
X97251955Y207808676D02*
G01*
X97278650Y207804716D01*
X97304828Y207798159D01*
X97330238Y207789067D01*
X97354634Y207777528D01*
X97377782Y207763654D01*
X97399458Y207747578D01*
X97419454Y207729454D01*
X97437578Y207709458D01*
X97453654Y207687782D01*
X97467528Y207664634D01*
X97479067Y207640238D01*
X97488159Y207614828D01*
X97494716Y207588650D01*
X97498676Y207561955D01*
X97500000Y207535000D01*
X97500000Y206985000D01*
X97498676Y206958045D01*
X97494716Y206931350D01*
X97488159Y206905172D01*
X97479067Y206879762D01*
X97467528Y206855366D01*
X97453654Y206832218D01*
X97437578Y206810542D01*
X97419454Y206790546D01*
X97399458Y206772422D01*
X97377782Y206756346D01*
X97354634Y206742472D01*
X97330238Y206730933D01*
X97304828Y206721841D01*
X97278650Y206715284D01*
X97251955Y206711324D01*
X97225000Y206710000D01*
X95975000Y206710000D01*
X95948045Y206711324D01*
X95921350Y206715284D01*
X95895172Y206721841D01*
X95869762Y206730933D01*
X95845366Y206742472D01*
X95822218Y206756346D01*
X95800542Y206772422D01*
X95780546Y206790546D01*
X95762422Y206810542D01*
X95746346Y206832218D01*
X95732472Y206855366D01*
X95720933Y206879762D01*
X95711841Y206905172D01*
X95705284Y206931350D01*
X95701324Y206958045D01*
X95700000Y206985000D01*
X95700000Y207535000D01*
X95701324Y207561955D01*
X95705284Y207588650D01*
X95711841Y207614828D01*
X95720933Y207640238D01*
X95732472Y207664634D01*
X95746346Y207687782D01*
X95762422Y207709458D01*
X95780546Y207729454D01*
X95800542Y207747578D01*
X95822218Y207763654D01*
X95845366Y207777528D01*
X95869762Y207789067D01*
X95895172Y207798159D01*
X95921350Y207804716D01*
X95948045Y207808676D01*
X95975000Y207810000D01*
X97225000Y207810000D01*
X97251955Y207808676D01*
G37*
G36*
X99321955Y209078676D02*
G01*
X99348650Y209074716D01*
X99374828Y209068159D01*
X99400238Y209059067D01*
X99424634Y209047528D01*
X99447782Y209033654D01*
X99469458Y209017578D01*
X99489454Y208999454D01*
X99507578Y208979458D01*
X99523654Y208957782D01*
X99537528Y208934634D01*
X99549067Y208910238D01*
X99558159Y208884828D01*
X99564716Y208858650D01*
X99568676Y208831955D01*
X99570000Y208805000D01*
X99570000Y208255000D01*
X99568676Y208228045D01*
X99564716Y208201350D01*
X99558159Y208175172D01*
X99549067Y208149762D01*
X99537528Y208125366D01*
X99523654Y208102218D01*
X99507578Y208080542D01*
X99489454Y208060546D01*
X99469458Y208042422D01*
X99447782Y208026346D01*
X99424634Y208012472D01*
X99400238Y208000933D01*
X99374828Y207991841D01*
X99348650Y207985284D01*
X99321955Y207981324D01*
X99295000Y207980000D01*
X98045000Y207980000D01*
X98018045Y207981324D01*
X97991350Y207985284D01*
X97965172Y207991841D01*
X97939762Y208000933D01*
X97915366Y208012472D01*
X97892218Y208026346D01*
X97870542Y208042422D01*
X97850546Y208060546D01*
X97832422Y208080542D01*
X97816346Y208102218D01*
X97802472Y208125366D01*
X97790933Y208149762D01*
X97781841Y208175172D01*
X97775284Y208201350D01*
X97771324Y208228045D01*
X97770000Y208255000D01*
X97770000Y208805000D01*
X97771324Y208831955D01*
X97775284Y208858650D01*
X97781841Y208884828D01*
X97790933Y208910238D01*
X97802472Y208934634D01*
X97816346Y208957782D01*
X97832422Y208979458D01*
X97850546Y208999454D01*
X97870542Y209017578D01*
X97892218Y209033654D01*
X97915366Y209047528D01*
X97939762Y209059067D01*
X97965172Y209068159D01*
X97991350Y209074716D01*
X98018045Y209078676D01*
X98045000Y209080000D01*
X99295000Y209080000D01*
X99321955Y209078676D01*
G37*
G36*
X158525977Y218019338D02*
G01*
X158539325Y218017358D01*
X158552414Y218014079D01*
X158565119Y218009533D01*
X158577317Y218003764D01*
X158588891Y217996827D01*
X158599729Y217988789D01*
X158609727Y217979727D01*
X158618789Y217969729D01*
X158626827Y217958891D01*
X158633764Y217947317D01*
X158639533Y217935119D01*
X158644079Y217922414D01*
X158647358Y217909325D01*
X158649338Y217895977D01*
X158650000Y217882500D01*
X158650000Y217607500D01*
X158649338Y217594023D01*
X158647358Y217580675D01*
X158644079Y217567586D01*
X158639533Y217554881D01*
X158633764Y217542683D01*
X158626827Y217531109D01*
X158618789Y217520271D01*
X158609727Y217510273D01*
X158599729Y217501211D01*
X158588891Y217493173D01*
X158577317Y217486236D01*
X158565119Y217480467D01*
X158552414Y217475921D01*
X158539325Y217472642D01*
X158525977Y217470662D01*
X158512500Y217470000D01*
X157187500Y217470000D01*
X157174023Y217470662D01*
X157160675Y217472642D01*
X157147586Y217475921D01*
X157134881Y217480467D01*
X157122683Y217486236D01*
X157111109Y217493173D01*
X157100271Y217501211D01*
X157090273Y217510273D01*
X157081211Y217520271D01*
X157073173Y217531109D01*
X157066236Y217542683D01*
X157060467Y217554881D01*
X157055921Y217567586D01*
X157052642Y217580675D01*
X157050662Y217594023D01*
X157050000Y217607500D01*
X157050000Y217882500D01*
X157050662Y217895977D01*
X157052642Y217909325D01*
X157055921Y217922414D01*
X157060467Y217935119D01*
X157066236Y217947317D01*
X157073173Y217958891D01*
X157081211Y217969729D01*
X157090273Y217979727D01*
X157100271Y217988789D01*
X157111109Y217996827D01*
X157122683Y218003764D01*
X157134881Y218009533D01*
X157147586Y218014079D01*
X157160675Y218017358D01*
X157174023Y218019338D01*
X157187500Y218020000D01*
X158512500Y218020000D01*
X158525977Y218019338D01*
G37*
G36*
X158525977Y216749338D02*
G01*
X158539325Y216747358D01*
X158552414Y216744079D01*
X158565119Y216739533D01*
X158577317Y216733764D01*
X158588891Y216726827D01*
X158599729Y216718789D01*
X158609727Y216709727D01*
X158618789Y216699729D01*
X158626827Y216688891D01*
X158633764Y216677317D01*
X158639533Y216665119D01*
X158644079Y216652414D01*
X158647358Y216639325D01*
X158649338Y216625977D01*
X158650000Y216612500D01*
X158650000Y216337500D01*
X158649338Y216324023D01*
X158647358Y216310675D01*
X158644079Y216297586D01*
X158639533Y216284881D01*
X158633764Y216272683D01*
X158626827Y216261109D01*
X158618789Y216250271D01*
X158609727Y216240273D01*
X158599729Y216231211D01*
X158588891Y216223173D01*
X158577317Y216216236D01*
X158565119Y216210467D01*
X158552414Y216205921D01*
X158539325Y216202642D01*
X158525977Y216200662D01*
X158512500Y216200000D01*
X157187500Y216200000D01*
X157174023Y216200662D01*
X157160675Y216202642D01*
X157147586Y216205921D01*
X157134881Y216210467D01*
X157122683Y216216236D01*
X157111109Y216223173D01*
X157100271Y216231211D01*
X157090273Y216240273D01*
X157081211Y216250271D01*
X157073173Y216261109D01*
X157066236Y216272683D01*
X157060467Y216284881D01*
X157055921Y216297586D01*
X157052642Y216310675D01*
X157050662Y216324023D01*
X157050000Y216337500D01*
X157050000Y216612500D01*
X157050662Y216625977D01*
X157052642Y216639325D01*
X157055921Y216652414D01*
X157060467Y216665119D01*
X157066236Y216677317D01*
X157073173Y216688891D01*
X157081211Y216699729D01*
X157090273Y216709727D01*
X157100271Y216718789D01*
X157111109Y216726827D01*
X157122683Y216733764D01*
X157134881Y216739533D01*
X157147586Y216744079D01*
X157160675Y216747358D01*
X157174023Y216749338D01*
X157187500Y216750000D01*
X158512500Y216750000D01*
X158525977Y216749338D01*
G37*
G36*
X158525977Y215479338D02*
G01*
X158539325Y215477358D01*
X158552414Y215474079D01*
X158565119Y215469533D01*
X158577317Y215463764D01*
X158588891Y215456827D01*
X158599729Y215448789D01*
X158609727Y215439727D01*
X158618789Y215429729D01*
X158626827Y215418891D01*
X158633764Y215407317D01*
X158639533Y215395119D01*
X158644079Y215382414D01*
X158647358Y215369325D01*
X158649338Y215355977D01*
X158650000Y215342500D01*
X158650000Y215067500D01*
X158649338Y215054023D01*
X158647358Y215040675D01*
X158644079Y215027586D01*
X158639533Y215014881D01*
X158633764Y215002683D01*
X158626827Y214991109D01*
X158618789Y214980271D01*
X158609727Y214970273D01*
X158599729Y214961211D01*
X158588891Y214953173D01*
X158577317Y214946236D01*
X158565119Y214940467D01*
X158552414Y214935921D01*
X158539325Y214932642D01*
X158525977Y214930662D01*
X158512500Y214930000D01*
X157187500Y214930000D01*
X157174023Y214930662D01*
X157160675Y214932642D01*
X157147586Y214935921D01*
X157134881Y214940467D01*
X157122683Y214946236D01*
X157111109Y214953173D01*
X157100271Y214961211D01*
X157090273Y214970273D01*
X157081211Y214980271D01*
X157073173Y214991109D01*
X157066236Y215002683D01*
X157060467Y215014881D01*
X157055921Y215027586D01*
X157052642Y215040675D01*
X157050662Y215054023D01*
X157050000Y215067500D01*
X157050000Y215342500D01*
X157050662Y215355977D01*
X157052642Y215369325D01*
X157055921Y215382414D01*
X157060467Y215395119D01*
X157066236Y215407317D01*
X157073173Y215418891D01*
X157081211Y215429729D01*
X157090273Y215439727D01*
X157100271Y215448789D01*
X157111109Y215456827D01*
X157122683Y215463764D01*
X157134881Y215469533D01*
X157147586Y215474079D01*
X157160675Y215477358D01*
X157174023Y215479338D01*
X157187500Y215480000D01*
X158512500Y215480000D01*
X158525977Y215479338D01*
G37*
G36*
X158525977Y214209338D02*
G01*
X158539325Y214207358D01*
X158552414Y214204079D01*
X158565119Y214199533D01*
X158577317Y214193764D01*
X158588891Y214186827D01*
X158599729Y214178789D01*
X158609727Y214169727D01*
X158618789Y214159729D01*
X158626827Y214148891D01*
X158633764Y214137317D01*
X158639533Y214125119D01*
X158644079Y214112414D01*
X158647358Y214099325D01*
X158649338Y214085977D01*
X158650000Y214072500D01*
X158650000Y213797500D01*
X158649338Y213784023D01*
X158647358Y213770675D01*
X158644079Y213757586D01*
X158639533Y213744881D01*
X158633764Y213732683D01*
X158626827Y213721109D01*
X158618789Y213710271D01*
X158609727Y213700273D01*
X158599729Y213691211D01*
X158588891Y213683173D01*
X158577317Y213676236D01*
X158565119Y213670467D01*
X158552414Y213665921D01*
X158539325Y213662642D01*
X158525977Y213660662D01*
X158512500Y213660000D01*
X157187500Y213660000D01*
X157174023Y213660662D01*
X157160675Y213662642D01*
X157147586Y213665921D01*
X157134881Y213670467D01*
X157122683Y213676236D01*
X157111109Y213683173D01*
X157100271Y213691211D01*
X157090273Y213700273D01*
X157081211Y213710271D01*
X157073173Y213721109D01*
X157066236Y213732683D01*
X157060467Y213744881D01*
X157055921Y213757586D01*
X157052642Y213770675D01*
X157050662Y213784023D01*
X157050000Y213797500D01*
X157050000Y214072500D01*
X157050662Y214085977D01*
X157052642Y214099325D01*
X157055921Y214112414D01*
X157060467Y214125119D01*
X157066236Y214137317D01*
X157073173Y214148891D01*
X157081211Y214159729D01*
X157090273Y214169727D01*
X157100271Y214178789D01*
X157111109Y214186827D01*
X157122683Y214193764D01*
X157134881Y214199533D01*
X157147586Y214204079D01*
X157160675Y214207358D01*
X157174023Y214209338D01*
X157187500Y214210000D01*
X158512500Y214210000D01*
X158525977Y214209338D01*
G37*
G36*
X158525977Y212939338D02*
G01*
X158539325Y212937358D01*
X158552414Y212934079D01*
X158565119Y212929533D01*
X158577317Y212923764D01*
X158588891Y212916827D01*
X158599729Y212908789D01*
X158609727Y212899727D01*
X158618789Y212889729D01*
X158626827Y212878891D01*
X158633764Y212867317D01*
X158639533Y212855119D01*
X158644079Y212842414D01*
X158647358Y212829325D01*
X158649338Y212815977D01*
X158650000Y212802500D01*
X158650000Y212527500D01*
X158649338Y212514023D01*
X158647358Y212500675D01*
X158644079Y212487586D01*
X158639533Y212474881D01*
X158633764Y212462683D01*
X158626827Y212451109D01*
X158618789Y212440271D01*
X158609727Y212430273D01*
X158599729Y212421211D01*
X158588891Y212413173D01*
X158577317Y212406236D01*
X158565119Y212400467D01*
X158552414Y212395921D01*
X158539325Y212392642D01*
X158525977Y212390662D01*
X158512500Y212390000D01*
X157187500Y212390000D01*
X157174023Y212390662D01*
X157160675Y212392642D01*
X157147586Y212395921D01*
X157134881Y212400467D01*
X157122683Y212406236D01*
X157111109Y212413173D01*
X157100271Y212421211D01*
X157090273Y212430273D01*
X157081211Y212440271D01*
X157073173Y212451109D01*
X157066236Y212462683D01*
X157060467Y212474881D01*
X157055921Y212487586D01*
X157052642Y212500675D01*
X157050662Y212514023D01*
X157050000Y212527500D01*
X157050000Y212802500D01*
X157050662Y212815977D01*
X157052642Y212829325D01*
X157055921Y212842414D01*
X157060467Y212855119D01*
X157066236Y212867317D01*
X157073173Y212878891D01*
X157081211Y212889729D01*
X157090273Y212899727D01*
X157100271Y212908789D01*
X157111109Y212916827D01*
X157122683Y212923764D01*
X157134881Y212929533D01*
X157147586Y212934079D01*
X157160675Y212937358D01*
X157174023Y212939338D01*
X157187500Y212940000D01*
X158512500Y212940000D01*
X158525977Y212939338D01*
G37*
G36*
X158525977Y211669338D02*
G01*
X158539325Y211667358D01*
X158552414Y211664079D01*
X158565119Y211659533D01*
X158577317Y211653764D01*
X158588891Y211646827D01*
X158599729Y211638789D01*
X158609727Y211629727D01*
X158618789Y211619729D01*
X158626827Y211608891D01*
X158633764Y211597317D01*
X158639533Y211585119D01*
X158644079Y211572414D01*
X158647358Y211559325D01*
X158649338Y211545977D01*
X158650000Y211532500D01*
X158650000Y211257500D01*
X158649338Y211244023D01*
X158647358Y211230675D01*
X158644079Y211217586D01*
X158639533Y211204881D01*
X158633764Y211192683D01*
X158626827Y211181109D01*
X158618789Y211170271D01*
X158609727Y211160273D01*
X158599729Y211151211D01*
X158588891Y211143173D01*
X158577317Y211136236D01*
X158565119Y211130467D01*
X158552414Y211125921D01*
X158539325Y211122642D01*
X158525977Y211120662D01*
X158512500Y211120000D01*
X157187500Y211120000D01*
X157174023Y211120662D01*
X157160675Y211122642D01*
X157147586Y211125921D01*
X157134881Y211130467D01*
X157122683Y211136236D01*
X157111109Y211143173D01*
X157100271Y211151211D01*
X157090273Y211160273D01*
X157081211Y211170271D01*
X157073173Y211181109D01*
X157066236Y211192683D01*
X157060467Y211204881D01*
X157055921Y211217586D01*
X157052642Y211230675D01*
X157050662Y211244023D01*
X157050000Y211257500D01*
X157050000Y211532500D01*
X157050662Y211545977D01*
X157052642Y211559325D01*
X157055921Y211572414D01*
X157060467Y211585119D01*
X157066236Y211597317D01*
X157073173Y211608891D01*
X157081211Y211619729D01*
X157090273Y211629727D01*
X157100271Y211638789D01*
X157111109Y211646827D01*
X157122683Y211653764D01*
X157134881Y211659533D01*
X157147586Y211664079D01*
X157160675Y211667358D01*
X157174023Y211669338D01*
X157187500Y211670000D01*
X158512500Y211670000D01*
X158525977Y211669338D01*
G37*
G36*
X158525977Y210399338D02*
G01*
X158539325Y210397358D01*
X158552414Y210394079D01*
X158565119Y210389533D01*
X158577317Y210383764D01*
X158588891Y210376827D01*
X158599729Y210368789D01*
X158609727Y210359727D01*
X158618789Y210349729D01*
X158626827Y210338891D01*
X158633764Y210327317D01*
X158639533Y210315119D01*
X158644079Y210302414D01*
X158647358Y210289325D01*
X158649338Y210275977D01*
X158650000Y210262500D01*
X158650000Y209987500D01*
X158649338Y209974023D01*
X158647358Y209960675D01*
X158644079Y209947586D01*
X158639533Y209934881D01*
X158633764Y209922683D01*
X158626827Y209911109D01*
X158618789Y209900271D01*
X158609727Y209890273D01*
X158599729Y209881211D01*
X158588891Y209873173D01*
X158577317Y209866236D01*
X158565119Y209860467D01*
X158552414Y209855921D01*
X158539325Y209852642D01*
X158525977Y209850662D01*
X158512500Y209850000D01*
X157187500Y209850000D01*
X157174023Y209850662D01*
X157160675Y209852642D01*
X157147586Y209855921D01*
X157134881Y209860467D01*
X157122683Y209866236D01*
X157111109Y209873173D01*
X157100271Y209881211D01*
X157090273Y209890273D01*
X157081211Y209900271D01*
X157073173Y209911109D01*
X157066236Y209922683D01*
X157060467Y209934881D01*
X157055921Y209947586D01*
X157052642Y209960675D01*
X157050662Y209974023D01*
X157050000Y209987500D01*
X157050000Y210262500D01*
X157050662Y210275977D01*
X157052642Y210289325D01*
X157055921Y210302414D01*
X157060467Y210315119D01*
X157066236Y210327317D01*
X157073173Y210338891D01*
X157081211Y210349729D01*
X157090273Y210359727D01*
X157100271Y210368789D01*
X157111109Y210376827D01*
X157122683Y210383764D01*
X157134881Y210389533D01*
X157147586Y210394079D01*
X157160675Y210397358D01*
X157174023Y210399338D01*
X157187500Y210400000D01*
X158512500Y210400000D01*
X158525977Y210399338D01*
G37*
G36*
X158525977Y209129338D02*
G01*
X158539325Y209127358D01*
X158552414Y209124079D01*
X158565119Y209119533D01*
X158577317Y209113764D01*
X158588891Y209106827D01*
X158599729Y209098789D01*
X158609727Y209089727D01*
X158618789Y209079729D01*
X158626827Y209068891D01*
X158633764Y209057317D01*
X158639533Y209045119D01*
X158644079Y209032414D01*
X158647358Y209019325D01*
X158649338Y209005977D01*
X158650000Y208992500D01*
X158650000Y208717500D01*
X158649338Y208704023D01*
X158647358Y208690675D01*
X158644079Y208677586D01*
X158639533Y208664881D01*
X158633764Y208652683D01*
X158626827Y208641109D01*
X158618789Y208630271D01*
X158609727Y208620273D01*
X158599729Y208611211D01*
X158588891Y208603173D01*
X158577317Y208596236D01*
X158565119Y208590467D01*
X158552414Y208585921D01*
X158539325Y208582642D01*
X158525977Y208580662D01*
X158512500Y208580000D01*
X157187500Y208580000D01*
X157174023Y208580662D01*
X157160675Y208582642D01*
X157147586Y208585921D01*
X157134881Y208590467D01*
X157122683Y208596236D01*
X157111109Y208603173D01*
X157100271Y208611211D01*
X157090273Y208620273D01*
X157081211Y208630271D01*
X157073173Y208641109D01*
X157066236Y208652683D01*
X157060467Y208664881D01*
X157055921Y208677586D01*
X157052642Y208690675D01*
X157050662Y208704023D01*
X157050000Y208717500D01*
X157050000Y208992500D01*
X157050662Y209005977D01*
X157052642Y209019325D01*
X157055921Y209032414D01*
X157060467Y209045119D01*
X157066236Y209057317D01*
X157073173Y209068891D01*
X157081211Y209079729D01*
X157090273Y209089727D01*
X157100271Y209098789D01*
X157111109Y209106827D01*
X157122683Y209113764D01*
X157134881Y209119533D01*
X157147586Y209124079D01*
X157160675Y209127358D01*
X157174023Y209129338D01*
X157187500Y209130000D01*
X158512500Y209130000D01*
X158525977Y209129338D01*
G37*
G36*
X152025977Y209129338D02*
G01*
X152039325Y209127358D01*
X152052414Y209124079D01*
X152065119Y209119533D01*
X152077317Y209113764D01*
X152088891Y209106827D01*
X152099729Y209098789D01*
X152109727Y209089727D01*
X152118789Y209079729D01*
X152126827Y209068891D01*
X152133764Y209057317D01*
X152139533Y209045119D01*
X152144079Y209032414D01*
X152147358Y209019325D01*
X152149338Y209005977D01*
X152150000Y208992500D01*
X152150000Y208717500D01*
X152149338Y208704023D01*
X152147358Y208690675D01*
X152144079Y208677586D01*
X152139533Y208664881D01*
X152133764Y208652683D01*
X152126827Y208641109D01*
X152118789Y208630271D01*
X152109727Y208620273D01*
X152099729Y208611211D01*
X152088891Y208603173D01*
X152077317Y208596236D01*
X152065119Y208590467D01*
X152052414Y208585921D01*
X152039325Y208582642D01*
X152025977Y208580662D01*
X152012500Y208580000D01*
X150687500Y208580000D01*
X150674023Y208580662D01*
X150660675Y208582642D01*
X150647586Y208585921D01*
X150634881Y208590467D01*
X150622683Y208596236D01*
X150611109Y208603173D01*
X150600271Y208611211D01*
X150590273Y208620273D01*
X150581211Y208630271D01*
X150573173Y208641109D01*
X150566236Y208652683D01*
X150560467Y208664881D01*
X150555921Y208677586D01*
X150552642Y208690675D01*
X150550662Y208704023D01*
X150550000Y208717500D01*
X150550000Y208992500D01*
X150550662Y209005977D01*
X150552642Y209019325D01*
X150555921Y209032414D01*
X150560467Y209045119D01*
X150566236Y209057317D01*
X150573173Y209068891D01*
X150581211Y209079729D01*
X150590273Y209089727D01*
X150600271Y209098789D01*
X150611109Y209106827D01*
X150622683Y209113764D01*
X150634881Y209119533D01*
X150647586Y209124079D01*
X150660675Y209127358D01*
X150674023Y209129338D01*
X150687500Y209130000D01*
X152012500Y209130000D01*
X152025977Y209129338D01*
G37*
G36*
X152025977Y210399338D02*
G01*
X152039325Y210397358D01*
X152052414Y210394079D01*
X152065119Y210389533D01*
X152077317Y210383764D01*
X152088891Y210376827D01*
X152099729Y210368789D01*
X152109727Y210359727D01*
X152118789Y210349729D01*
X152126827Y210338891D01*
X152133764Y210327317D01*
X152139533Y210315119D01*
X152144079Y210302414D01*
X152147358Y210289325D01*
X152149338Y210275977D01*
X152150000Y210262500D01*
X152150000Y209987500D01*
X152149338Y209974023D01*
X152147358Y209960675D01*
X152144079Y209947586D01*
X152139533Y209934881D01*
X152133764Y209922683D01*
X152126827Y209911109D01*
X152118789Y209900271D01*
X152109727Y209890273D01*
X152099729Y209881211D01*
X152088891Y209873173D01*
X152077317Y209866236D01*
X152065119Y209860467D01*
X152052414Y209855921D01*
X152039325Y209852642D01*
X152025977Y209850662D01*
X152012500Y209850000D01*
X150687500Y209850000D01*
X150674023Y209850662D01*
X150660675Y209852642D01*
X150647586Y209855921D01*
X150634881Y209860467D01*
X150622683Y209866236D01*
X150611109Y209873173D01*
X150600271Y209881211D01*
X150590273Y209890273D01*
X150581211Y209900271D01*
X150573173Y209911109D01*
X150566236Y209922683D01*
X150560467Y209934881D01*
X150555921Y209947586D01*
X150552642Y209960675D01*
X150550662Y209974023D01*
X150550000Y209987500D01*
X150550000Y210262500D01*
X150550662Y210275977D01*
X150552642Y210289325D01*
X150555921Y210302414D01*
X150560467Y210315119D01*
X150566236Y210327317D01*
X150573173Y210338891D01*
X150581211Y210349729D01*
X150590273Y210359727D01*
X150600271Y210368789D01*
X150611109Y210376827D01*
X150622683Y210383764D01*
X150634881Y210389533D01*
X150647586Y210394079D01*
X150660675Y210397358D01*
X150674023Y210399338D01*
X150687500Y210400000D01*
X152012500Y210400000D01*
X152025977Y210399338D01*
G37*
G36*
X152025977Y211669338D02*
G01*
X152039325Y211667358D01*
X152052414Y211664079D01*
X152065119Y211659533D01*
X152077317Y211653764D01*
X152088891Y211646827D01*
X152099729Y211638789D01*
X152109727Y211629727D01*
X152118789Y211619729D01*
X152126827Y211608891D01*
X152133764Y211597317D01*
X152139533Y211585119D01*
X152144079Y211572414D01*
X152147358Y211559325D01*
X152149338Y211545977D01*
X152150000Y211532500D01*
X152150000Y211257500D01*
X152149338Y211244023D01*
X152147358Y211230675D01*
X152144079Y211217586D01*
X152139533Y211204881D01*
X152133764Y211192683D01*
X152126827Y211181109D01*
X152118789Y211170271D01*
X152109727Y211160273D01*
X152099729Y211151211D01*
X152088891Y211143173D01*
X152077317Y211136236D01*
X152065119Y211130467D01*
X152052414Y211125921D01*
X152039325Y211122642D01*
X152025977Y211120662D01*
X152012500Y211120000D01*
X150687500Y211120000D01*
X150674023Y211120662D01*
X150660675Y211122642D01*
X150647586Y211125921D01*
X150634881Y211130467D01*
X150622683Y211136236D01*
X150611109Y211143173D01*
X150600271Y211151211D01*
X150590273Y211160273D01*
X150581211Y211170271D01*
X150573173Y211181109D01*
X150566236Y211192683D01*
X150560467Y211204881D01*
X150555921Y211217586D01*
X150552642Y211230675D01*
X150550662Y211244023D01*
X150550000Y211257500D01*
X150550000Y211532500D01*
X150550662Y211545977D01*
X150552642Y211559325D01*
X150555921Y211572414D01*
X150560467Y211585119D01*
X150566236Y211597317D01*
X150573173Y211608891D01*
X150581211Y211619729D01*
X150590273Y211629727D01*
X150600271Y211638789D01*
X150611109Y211646827D01*
X150622683Y211653764D01*
X150634881Y211659533D01*
X150647586Y211664079D01*
X150660675Y211667358D01*
X150674023Y211669338D01*
X150687500Y211670000D01*
X152012500Y211670000D01*
X152025977Y211669338D01*
G37*
G36*
X152025977Y212939338D02*
G01*
X152039325Y212937358D01*
X152052414Y212934079D01*
X152065119Y212929533D01*
X152077317Y212923764D01*
X152088891Y212916827D01*
X152099729Y212908789D01*
X152109727Y212899727D01*
X152118789Y212889729D01*
X152126827Y212878891D01*
X152133764Y212867317D01*
X152139533Y212855119D01*
X152144079Y212842414D01*
X152147358Y212829325D01*
X152149338Y212815977D01*
X152150000Y212802500D01*
X152150000Y212527500D01*
X152149338Y212514023D01*
X152147358Y212500675D01*
X152144079Y212487586D01*
X152139533Y212474881D01*
X152133764Y212462683D01*
X152126827Y212451109D01*
X152118789Y212440271D01*
X152109727Y212430273D01*
X152099729Y212421211D01*
X152088891Y212413173D01*
X152077317Y212406236D01*
X152065119Y212400467D01*
X152052414Y212395921D01*
X152039325Y212392642D01*
X152025977Y212390662D01*
X152012500Y212390000D01*
X150687500Y212390000D01*
X150674023Y212390662D01*
X150660675Y212392642D01*
X150647586Y212395921D01*
X150634881Y212400467D01*
X150622683Y212406236D01*
X150611109Y212413173D01*
X150600271Y212421211D01*
X150590273Y212430273D01*
X150581211Y212440271D01*
X150573173Y212451109D01*
X150566236Y212462683D01*
X150560467Y212474881D01*
X150555921Y212487586D01*
X150552642Y212500675D01*
X150550662Y212514023D01*
X150550000Y212527500D01*
X150550000Y212802500D01*
X150550662Y212815977D01*
X150552642Y212829325D01*
X150555921Y212842414D01*
X150560467Y212855119D01*
X150566236Y212867317D01*
X150573173Y212878891D01*
X150581211Y212889729D01*
X150590273Y212899727D01*
X150600271Y212908789D01*
X150611109Y212916827D01*
X150622683Y212923764D01*
X150634881Y212929533D01*
X150647586Y212934079D01*
X150660675Y212937358D01*
X150674023Y212939338D01*
X150687500Y212940000D01*
X152012500Y212940000D01*
X152025977Y212939338D01*
G37*
G36*
X152025977Y214209338D02*
G01*
X152039325Y214207358D01*
X152052414Y214204079D01*
X152065119Y214199533D01*
X152077317Y214193764D01*
X152088891Y214186827D01*
X152099729Y214178789D01*
X152109727Y214169727D01*
X152118789Y214159729D01*
X152126827Y214148891D01*
X152133764Y214137317D01*
X152139533Y214125119D01*
X152144079Y214112414D01*
X152147358Y214099325D01*
X152149338Y214085977D01*
X152150000Y214072500D01*
X152150000Y213797500D01*
X152149338Y213784023D01*
X152147358Y213770675D01*
X152144079Y213757586D01*
X152139533Y213744881D01*
X152133764Y213732683D01*
X152126827Y213721109D01*
X152118789Y213710271D01*
X152109727Y213700273D01*
X152099729Y213691211D01*
X152088891Y213683173D01*
X152077317Y213676236D01*
X152065119Y213670467D01*
X152052414Y213665921D01*
X152039325Y213662642D01*
X152025977Y213660662D01*
X152012500Y213660000D01*
X150687500Y213660000D01*
X150674023Y213660662D01*
X150660675Y213662642D01*
X150647586Y213665921D01*
X150634881Y213670467D01*
X150622683Y213676236D01*
X150611109Y213683173D01*
X150600271Y213691211D01*
X150590273Y213700273D01*
X150581211Y213710271D01*
X150573173Y213721109D01*
X150566236Y213732683D01*
X150560467Y213744881D01*
X150555921Y213757586D01*
X150552642Y213770675D01*
X150550662Y213784023D01*
X150550000Y213797500D01*
X150550000Y214072500D01*
X150550662Y214085977D01*
X150552642Y214099325D01*
X150555921Y214112414D01*
X150560467Y214125119D01*
X150566236Y214137317D01*
X150573173Y214148891D01*
X150581211Y214159729D01*
X150590273Y214169727D01*
X150600271Y214178789D01*
X150611109Y214186827D01*
X150622683Y214193764D01*
X150634881Y214199533D01*
X150647586Y214204079D01*
X150660675Y214207358D01*
X150674023Y214209338D01*
X150687500Y214210000D01*
X152012500Y214210000D01*
X152025977Y214209338D01*
G37*
G36*
X152025977Y215479338D02*
G01*
X152039325Y215477358D01*
X152052414Y215474079D01*
X152065119Y215469533D01*
X152077317Y215463764D01*
X152088891Y215456827D01*
X152099729Y215448789D01*
X152109727Y215439727D01*
X152118789Y215429729D01*
X152126827Y215418891D01*
X152133764Y215407317D01*
X152139533Y215395119D01*
X152144079Y215382414D01*
X152147358Y215369325D01*
X152149338Y215355977D01*
X152150000Y215342500D01*
X152150000Y215067500D01*
X152149338Y215054023D01*
X152147358Y215040675D01*
X152144079Y215027586D01*
X152139533Y215014881D01*
X152133764Y215002683D01*
X152126827Y214991109D01*
X152118789Y214980271D01*
X152109727Y214970273D01*
X152099729Y214961211D01*
X152088891Y214953173D01*
X152077317Y214946236D01*
X152065119Y214940467D01*
X152052414Y214935921D01*
X152039325Y214932642D01*
X152025977Y214930662D01*
X152012500Y214930000D01*
X150687500Y214930000D01*
X150674023Y214930662D01*
X150660675Y214932642D01*
X150647586Y214935921D01*
X150634881Y214940467D01*
X150622683Y214946236D01*
X150611109Y214953173D01*
X150600271Y214961211D01*
X150590273Y214970273D01*
X150581211Y214980271D01*
X150573173Y214991109D01*
X150566236Y215002683D01*
X150560467Y215014881D01*
X150555921Y215027586D01*
X150552642Y215040675D01*
X150550662Y215054023D01*
X150550000Y215067500D01*
X150550000Y215342500D01*
X150550662Y215355977D01*
X150552642Y215369325D01*
X150555921Y215382414D01*
X150560467Y215395119D01*
X150566236Y215407317D01*
X150573173Y215418891D01*
X150581211Y215429729D01*
X150590273Y215439727D01*
X150600271Y215448789D01*
X150611109Y215456827D01*
X150622683Y215463764D01*
X150634881Y215469533D01*
X150647586Y215474079D01*
X150660675Y215477358D01*
X150674023Y215479338D01*
X150687500Y215480000D01*
X152012500Y215480000D01*
X152025977Y215479338D01*
G37*
G36*
X152025977Y216749338D02*
G01*
X152039325Y216747358D01*
X152052414Y216744079D01*
X152065119Y216739533D01*
X152077317Y216733764D01*
X152088891Y216726827D01*
X152099729Y216718789D01*
X152109727Y216709727D01*
X152118789Y216699729D01*
X152126827Y216688891D01*
X152133764Y216677317D01*
X152139533Y216665119D01*
X152144079Y216652414D01*
X152147358Y216639325D01*
X152149338Y216625977D01*
X152150000Y216612500D01*
X152150000Y216337500D01*
X152149338Y216324023D01*
X152147358Y216310675D01*
X152144079Y216297586D01*
X152139533Y216284881D01*
X152133764Y216272683D01*
X152126827Y216261109D01*
X152118789Y216250271D01*
X152109727Y216240273D01*
X152099729Y216231211D01*
X152088891Y216223173D01*
X152077317Y216216236D01*
X152065119Y216210467D01*
X152052414Y216205921D01*
X152039325Y216202642D01*
X152025977Y216200662D01*
X152012500Y216200000D01*
X150687500Y216200000D01*
X150674023Y216200662D01*
X150660675Y216202642D01*
X150647586Y216205921D01*
X150634881Y216210467D01*
X150622683Y216216236D01*
X150611109Y216223173D01*
X150600271Y216231211D01*
X150590273Y216240273D01*
X150581211Y216250271D01*
X150573173Y216261109D01*
X150566236Y216272683D01*
X150560467Y216284881D01*
X150555921Y216297586D01*
X150552642Y216310675D01*
X150550662Y216324023D01*
X150550000Y216337500D01*
X150550000Y216612500D01*
X150550662Y216625977D01*
X150552642Y216639325D01*
X150555921Y216652414D01*
X150560467Y216665119D01*
X150566236Y216677317D01*
X150573173Y216688891D01*
X150581211Y216699729D01*
X150590273Y216709727D01*
X150600271Y216718789D01*
X150611109Y216726827D01*
X150622683Y216733764D01*
X150634881Y216739533D01*
X150647586Y216744079D01*
X150660675Y216747358D01*
X150674023Y216749338D01*
X150687500Y216750000D01*
X152012500Y216750000D01*
X152025977Y216749338D01*
G37*
G36*
X152025977Y218019338D02*
G01*
X152039325Y218017358D01*
X152052414Y218014079D01*
X152065119Y218009533D01*
X152077317Y218003764D01*
X152088891Y217996827D01*
X152099729Y217988789D01*
X152109727Y217979727D01*
X152118789Y217969729D01*
X152126827Y217958891D01*
X152133764Y217947317D01*
X152139533Y217935119D01*
X152144079Y217922414D01*
X152147358Y217909325D01*
X152149338Y217895977D01*
X152150000Y217882500D01*
X152150000Y217607500D01*
X152149338Y217594023D01*
X152147358Y217580675D01*
X152144079Y217567586D01*
X152139533Y217554881D01*
X152133764Y217542683D01*
X152126827Y217531109D01*
X152118789Y217520271D01*
X152109727Y217510273D01*
X152099729Y217501211D01*
X152088891Y217493173D01*
X152077317Y217486236D01*
X152065119Y217480467D01*
X152052414Y217475921D01*
X152039325Y217472642D01*
X152025977Y217470662D01*
X152012500Y217470000D01*
X150687500Y217470000D01*
X150674023Y217470662D01*
X150660675Y217472642D01*
X150647586Y217475921D01*
X150634881Y217480467D01*
X150622683Y217486236D01*
X150611109Y217493173D01*
X150600271Y217501211D01*
X150590273Y217510273D01*
X150581211Y217520271D01*
X150573173Y217531109D01*
X150566236Y217542683D01*
X150560467Y217554881D01*
X150555921Y217567586D01*
X150552642Y217580675D01*
X150550662Y217594023D01*
X150550000Y217607500D01*
X150550000Y217882500D01*
X150550662Y217895977D01*
X150552642Y217909325D01*
X150555921Y217922414D01*
X150560467Y217935119D01*
X150566236Y217947317D01*
X150573173Y217958891D01*
X150581211Y217969729D01*
X150590273Y217979727D01*
X150600271Y217988789D01*
X150611109Y217996827D01*
X150622683Y218003764D01*
X150634881Y218009533D01*
X150647586Y218014079D01*
X150660675Y218017358D01*
X150674023Y218019338D01*
X150687500Y218020000D01*
X152012500Y218020000D01*
X152025977Y218019338D01*
G37*
D15*
X96520000Y193040000D03*
X186690000Y193040000D03*
X96520000Y283210000D03*
X186690000Y283210000D03*
D16*
X162540000Y224530000D03*
D17*
X162540000Y221990000D03*
D16*
X162620000Y214400000D03*
D17*
X162620000Y211860000D03*
D16*
X162750000Y202850000D03*
D17*
X162750000Y200310000D03*
D18*
X137020000Y278000000D03*
X141900000Y278000000D03*
D19*
X156464000Y196748400D03*
X156464000Y194208400D03*
X156464000Y199288400D03*
X156464000Y191668400D03*
X123317000Y191719200D03*
X123317000Y194259200D03*
X123317000Y196799200D03*
X123317000Y199339200D03*
D20*
X99060000Y234950000D03*
X114300000Y227330000D03*
X101600000Y234950000D03*
X111760000Y227330000D03*
X104140000Y234950000D03*
X109220000Y227330000D03*
X106680000Y234950000D03*
X106680000Y227330000D03*
X109220000Y234950000D03*
X104140000Y227330000D03*
X111760000Y234950000D03*
X101600000Y227330000D03*
X114300000Y234950000D03*
D21*
X99060000Y227330000D03*
D19*
X185318400Y204063600D03*
X185318400Y206603600D03*
X185318400Y209143600D03*
X185318400Y211683600D03*
X185318400Y214223600D03*
X185318400Y216763600D03*
X185318400Y219303600D03*
D22*
X129540000Y215900000D03*
X137160000Y223520000D03*
X129540000Y218440000D03*
X137160000Y220980000D03*
X129540000Y220980000D03*
X137160000Y218440000D03*
X129540000Y223520000D03*
D23*
X137160000Y215900000D03*
D24*
X178720000Y284480000D03*
X178719480Y253479300D03*
X103720900Y253479300D03*
X103720900Y284480000D03*
D25*
X147320000Y284480000D03*
X144780000Y284480000D03*
X142240000Y284480000D03*
X139700000Y284480000D03*
X137160000Y284480000D03*
X134620000Y284480000D03*
X132080000Y284480000D03*
X129540000Y284480000D03*
X127000000Y284480000D03*
X124460000Y284480000D03*
X121920000Y284480000D03*
X119380000Y284480000D03*
X116840000Y284480000D03*
X114300000Y284480000D03*
X111760000Y284480000D03*
D26*
X109220000Y284480000D03*
D20*
X161290000Y265430000D03*
X128270000Y273050000D03*
X158750000Y265430000D03*
X130810000Y273050000D03*
X156210000Y265430000D03*
X133350000Y273050000D03*
X153670000Y265430000D03*
X135890000Y273050000D03*
X151130000Y265430000D03*
X138430000Y273050000D03*
X148590000Y265430000D03*
X140970000Y273050000D03*
X146050000Y265430000D03*
X143510000Y273050000D03*
X143510000Y265430000D03*
X146050000Y273050000D03*
X140970000Y265430000D03*
X148590000Y273050000D03*
X138430000Y265430000D03*
X151130000Y273050000D03*
X135890000Y265430000D03*
X153670000Y273050000D03*
X133350000Y265430000D03*
X156210000Y273050000D03*
X130810000Y265430000D03*
X158750000Y273050000D03*
X128270000Y265430000D03*
D21*
X161290000Y273050000D03*
D11*
X186690000Y231140000D03*
X186690000Y233680000D03*
D10*
X186690000Y236220000D03*
D11*
X162710000Y242570000D03*
X162710000Y238070000D03*
X156210000Y242570000D03*
X156210000Y238070000D03*
X119240000Y238200000D03*
X119240000Y242700000D03*
X125740000Y238200000D03*
X125740000Y242700000D03*
D27*
X95250000Y241300000D03*
X105250000Y243800000D03*
X95250000Y246300000D03*
D28*
X151760000Y204470000D03*
D29*
X149860000Y204470000D03*
D28*
X110400000Y270700000D03*
D29*
X112300000Y270700000D03*
D28*
X187960000Y252730000D03*
D29*
X186060000Y252730000D03*
D28*
X162460000Y284400000D03*
D29*
X165000000Y284400000D03*
D28*
X97300000Y254700000D03*
D29*
X95400000Y254700000D03*
D28*
X121200000Y255900000D03*
D29*
X119300000Y255900000D03*
D28*
X119300000Y262500000D03*
D29*
X121200000Y262500000D03*
D28*
X153500000Y246300000D03*
D29*
X151600000Y246300000D03*
D28*
X151130000Y238120000D03*
D29*
X151130000Y236220000D03*
D28*
X126360000Y247650000D03*
D29*
X124460000Y247650000D03*
D28*
X104700000Y214700000D03*
D29*
X104700000Y212800000D03*
D28*
X106400000Y207300000D03*
D29*
X104500000Y207300000D03*
D28*
X110074999Y217094999D03*
D29*
X110074999Y218994999D03*
D28*
X107320000Y223520000D03*
D29*
X109220000Y223520000D03*
D28*
X110490000Y211460000D03*
D29*
X110490000Y213360000D03*
D28*
X110490000Y206380000D03*
D29*
X110490000Y208280000D03*
D28*
X140970000Y220350000D03*
D29*
X140970000Y222250000D03*
D28*
X140970000Y215270000D03*
D29*
X140970000Y217170000D03*
D28*
X130170000Y209550000D03*
D29*
X128270000Y209550000D03*
D28*
X128910000Y228600000D03*
D29*
X130810000Y228600000D03*
D28*
X125200000Y222900000D03*
D29*
X125200000Y221000000D03*
D28*
X125600000Y218000000D03*
D29*
X123700000Y218000000D03*
D28*
X158200000Y228700000D03*
D29*
X156300000Y228700000D03*
D28*
X150500000Y228600000D03*
D29*
X152400000Y228600000D03*
D28*
X152500000Y222300000D03*
D29*
X150600000Y222300000D03*
D13*
X96600000Y203800000D03*
D14*
G36*
X97251955Y201808676D02*
G01*
X97278650Y201804716D01*
X97304828Y201798159D01*
X97330238Y201789067D01*
X97354634Y201777528D01*
X97377782Y201763654D01*
X97399458Y201747578D01*
X97419454Y201729454D01*
X97437578Y201709458D01*
X97453654Y201687782D01*
X97467528Y201664634D01*
X97479067Y201640238D01*
X97488159Y201614828D01*
X97494716Y201588650D01*
X97498676Y201561955D01*
X97500000Y201535000D01*
X97500000Y200985000D01*
X97498676Y200958045D01*
X97494716Y200931350D01*
X97488159Y200905172D01*
X97479067Y200879762D01*
X97467528Y200855366D01*
X97453654Y200832218D01*
X97437578Y200810542D01*
X97419454Y200790546D01*
X97399458Y200772422D01*
X97377782Y200756346D01*
X97354634Y200742472D01*
X97330238Y200730933D01*
X97304828Y200721841D01*
X97278650Y200715284D01*
X97251955Y200711324D01*
X97225000Y200710000D01*
X95975000Y200710000D01*
X95948045Y200711324D01*
X95921350Y200715284D01*
X95895172Y200721841D01*
X95869762Y200730933D01*
X95845366Y200742472D01*
X95822218Y200756346D01*
X95800542Y200772422D01*
X95780546Y200790546D01*
X95762422Y200810542D01*
X95746346Y200832218D01*
X95732472Y200855366D01*
X95720933Y200879762D01*
X95711841Y200905172D01*
X95705284Y200931350D01*
X95701324Y200958045D01*
X95700000Y200985000D01*
X95700000Y201535000D01*
X95701324Y201561955D01*
X95705284Y201588650D01*
X95711841Y201614828D01*
X95720933Y201640238D01*
X95732472Y201664634D01*
X95746346Y201687782D01*
X95762422Y201709458D01*
X95780546Y201729454D01*
X95800542Y201747578D01*
X95822218Y201763654D01*
X95845366Y201777528D01*
X95869762Y201789067D01*
X95895172Y201798159D01*
X95921350Y201804716D01*
X95948045Y201808676D01*
X95975000Y201810000D01*
X97225000Y201810000D01*
X97251955Y201808676D01*
G37*
G36*
X99321955Y203078676D02*
G01*
X99348650Y203074716D01*
X99374828Y203068159D01*
X99400238Y203059067D01*
X99424634Y203047528D01*
X99447782Y203033654D01*
X99469458Y203017578D01*
X99489454Y202999454D01*
X99507578Y202979458D01*
X99523654Y202957782D01*
X99537528Y202934634D01*
X99549067Y202910238D01*
X99558159Y202884828D01*
X99564716Y202858650D01*
X99568676Y202831955D01*
X99570000Y202805000D01*
X99570000Y202255000D01*
X99568676Y202228045D01*
X99564716Y202201350D01*
X99558159Y202175172D01*
X99549067Y202149762D01*
X99537528Y202125366D01*
X99523654Y202102218D01*
X99507578Y202080542D01*
X99489454Y202060546D01*
X99469458Y202042422D01*
X99447782Y202026346D01*
X99424634Y202012472D01*
X99400238Y202000933D01*
X99374828Y201991841D01*
X99348650Y201985284D01*
X99321955Y201981324D01*
X99295000Y201980000D01*
X98045000Y201980000D01*
X98018045Y201981324D01*
X97991350Y201985284D01*
X97965172Y201991841D01*
X97939762Y202000933D01*
X97915366Y202012472D01*
X97892218Y202026346D01*
X97870542Y202042422D01*
X97850546Y202060546D01*
X97832422Y202080542D01*
X97816346Y202102218D01*
X97802472Y202125366D01*
X97790933Y202149762D01*
X97781841Y202175172D01*
X97775284Y202201350D01*
X97771324Y202228045D01*
X97770000Y202255000D01*
X97770000Y202805000D01*
X97771324Y202831955D01*
X97775284Y202858650D01*
X97781841Y202884828D01*
X97790933Y202910238D01*
X97802472Y202934634D01*
X97816346Y202957782D01*
X97832422Y202979458D01*
X97850546Y202999454D01*
X97870542Y203017578D01*
X97892218Y203033654D01*
X97915366Y203047528D01*
X97939762Y203059067D01*
X97965172Y203068159D01*
X97991350Y203074716D01*
X98018045Y203078676D01*
X98045000Y203080000D01*
X99295000Y203080000D01*
X99321955Y203078676D01*
G37*
D13*
X96500000Y215700000D03*
D14*
G36*
X97151955Y213708676D02*
G01*
X97178650Y213704716D01*
X97204828Y213698159D01*
X97230238Y213689067D01*
X97254634Y213677528D01*
X97277782Y213663654D01*
X97299458Y213647578D01*
X97319454Y213629454D01*
X97337578Y213609458D01*
X97353654Y213587782D01*
X97367528Y213564634D01*
X97379067Y213540238D01*
X97388159Y213514828D01*
X97394716Y213488650D01*
X97398676Y213461955D01*
X97400000Y213435000D01*
X97400000Y212885000D01*
X97398676Y212858045D01*
X97394716Y212831350D01*
X97388159Y212805172D01*
X97379067Y212779762D01*
X97367528Y212755366D01*
X97353654Y212732218D01*
X97337578Y212710542D01*
X97319454Y212690546D01*
X97299458Y212672422D01*
X97277782Y212656346D01*
X97254634Y212642472D01*
X97230238Y212630933D01*
X97204828Y212621841D01*
X97178650Y212615284D01*
X97151955Y212611324D01*
X97125000Y212610000D01*
X95875000Y212610000D01*
X95848045Y212611324D01*
X95821350Y212615284D01*
X95795172Y212621841D01*
X95769762Y212630933D01*
X95745366Y212642472D01*
X95722218Y212656346D01*
X95700542Y212672422D01*
X95680546Y212690546D01*
X95662422Y212710542D01*
X95646346Y212732218D01*
X95632472Y212755366D01*
X95620933Y212779762D01*
X95611841Y212805172D01*
X95605284Y212831350D01*
X95601324Y212858045D01*
X95600000Y212885000D01*
X95600000Y213435000D01*
X95601324Y213461955D01*
X95605284Y213488650D01*
X95611841Y213514828D01*
X95620933Y213540238D01*
X95632472Y213564634D01*
X95646346Y213587782D01*
X95662422Y213609458D01*
X95680546Y213629454D01*
X95700542Y213647578D01*
X95722218Y213663654D01*
X95745366Y213677528D01*
X95769762Y213689067D01*
X95795172Y213698159D01*
X95821350Y213704716D01*
X95848045Y213708676D01*
X95875000Y213710000D01*
X97125000Y213710000D01*
X97151955Y213708676D01*
G37*
G36*
X99221955Y214978676D02*
G01*
X99248650Y214974716D01*
X99274828Y214968159D01*
X99300238Y214959067D01*
X99324634Y214947528D01*
X99347782Y214933654D01*
X99369458Y214917578D01*
X99389454Y214899454D01*
X99407578Y214879458D01*
X99423654Y214857782D01*
X99437528Y214834634D01*
X99449067Y214810238D01*
X99458159Y214784828D01*
X99464716Y214758650D01*
X99468676Y214731955D01*
X99470000Y214705000D01*
X99470000Y214155000D01*
X99468676Y214128045D01*
X99464716Y214101350D01*
X99458159Y214075172D01*
X99449067Y214049762D01*
X99437528Y214025366D01*
X99423654Y214002218D01*
X99407578Y213980542D01*
X99389454Y213960546D01*
X99369458Y213942422D01*
X99347782Y213926346D01*
X99324634Y213912472D01*
X99300238Y213900933D01*
X99274828Y213891841D01*
X99248650Y213885284D01*
X99221955Y213881324D01*
X99195000Y213880000D01*
X97945000Y213880000D01*
X97918045Y213881324D01*
X97891350Y213885284D01*
X97865172Y213891841D01*
X97839762Y213900933D01*
X97815366Y213912472D01*
X97792218Y213926346D01*
X97770542Y213942422D01*
X97750546Y213960546D01*
X97732422Y213980542D01*
X97716346Y214002218D01*
X97702472Y214025366D01*
X97690933Y214049762D01*
X97681841Y214075172D01*
X97675284Y214101350D01*
X97671324Y214128045D01*
X97670000Y214155000D01*
X97670000Y214705000D01*
X97671324Y214731955D01*
X97675284Y214758650D01*
X97681841Y214784828D01*
X97690933Y214810238D01*
X97702472Y214834634D01*
X97716346Y214857782D01*
X97732422Y214879458D01*
X97750546Y214899454D01*
X97770542Y214917578D01*
X97792218Y214933654D01*
X97815366Y214947528D01*
X97839762Y214959067D01*
X97865172Y214968159D01*
X97891350Y214974716D01*
X97918045Y214978676D01*
X97945000Y214980000D01*
X99195000Y214980000D01*
X99221955Y214978676D01*
G37*
D13*
X137600000Y206600000D03*
D14*
G36*
X138251955Y204608676D02*
G01*
X138278650Y204604716D01*
X138304828Y204598159D01*
X138330238Y204589067D01*
X138354634Y204577528D01*
X138377782Y204563654D01*
X138399458Y204547578D01*
X138419454Y204529454D01*
X138437578Y204509458D01*
X138453654Y204487782D01*
X138467528Y204464634D01*
X138479067Y204440238D01*
X138488159Y204414828D01*
X138494716Y204388650D01*
X138498676Y204361955D01*
X138500000Y204335000D01*
X138500000Y203785000D01*
X138498676Y203758045D01*
X138494716Y203731350D01*
X138488159Y203705172D01*
X138479067Y203679762D01*
X138467528Y203655366D01*
X138453654Y203632218D01*
X138437578Y203610542D01*
X138419454Y203590546D01*
X138399458Y203572422D01*
X138377782Y203556346D01*
X138354634Y203542472D01*
X138330238Y203530933D01*
X138304828Y203521841D01*
X138278650Y203515284D01*
X138251955Y203511324D01*
X138225000Y203510000D01*
X136975000Y203510000D01*
X136948045Y203511324D01*
X136921350Y203515284D01*
X136895172Y203521841D01*
X136869762Y203530933D01*
X136845366Y203542472D01*
X136822218Y203556346D01*
X136800542Y203572422D01*
X136780546Y203590546D01*
X136762422Y203610542D01*
X136746346Y203632218D01*
X136732472Y203655366D01*
X136720933Y203679762D01*
X136711841Y203705172D01*
X136705284Y203731350D01*
X136701324Y203758045D01*
X136700000Y203785000D01*
X136700000Y204335000D01*
X136701324Y204361955D01*
X136705284Y204388650D01*
X136711841Y204414828D01*
X136720933Y204440238D01*
X136732472Y204464634D01*
X136746346Y204487782D01*
X136762422Y204509458D01*
X136780546Y204529454D01*
X136800542Y204547578D01*
X136822218Y204563654D01*
X136845366Y204577528D01*
X136869762Y204589067D01*
X136895172Y204598159D01*
X136921350Y204604716D01*
X136948045Y204608676D01*
X136975000Y204610000D01*
X138225000Y204610000D01*
X138251955Y204608676D01*
G37*
G36*
X140321955Y205878676D02*
G01*
X140348650Y205874716D01*
X140374828Y205868159D01*
X140400238Y205859067D01*
X140424634Y205847528D01*
X140447782Y205833654D01*
X140469458Y205817578D01*
X140489454Y205799454D01*
X140507578Y205779458D01*
X140523654Y205757782D01*
X140537528Y205734634D01*
X140549067Y205710238D01*
X140558159Y205684828D01*
X140564716Y205658650D01*
X140568676Y205631955D01*
X140570000Y205605000D01*
X140570000Y205055000D01*
X140568676Y205028045D01*
X140564716Y205001350D01*
X140558159Y204975172D01*
X140549067Y204949762D01*
X140537528Y204925366D01*
X140523654Y204902218D01*
X140507578Y204880542D01*
X140489454Y204860546D01*
X140469458Y204842422D01*
X140447782Y204826346D01*
X140424634Y204812472D01*
X140400238Y204800933D01*
X140374828Y204791841D01*
X140348650Y204785284D01*
X140321955Y204781324D01*
X140295000Y204780000D01*
X139045000Y204780000D01*
X139018045Y204781324D01*
X138991350Y204785284D01*
X138965172Y204791841D01*
X138939762Y204800933D01*
X138915366Y204812472D01*
X138892218Y204826346D01*
X138870542Y204842422D01*
X138850546Y204860546D01*
X138832422Y204880542D01*
X138816346Y204902218D01*
X138802472Y204925366D01*
X138790933Y204949762D01*
X138781841Y204975172D01*
X138775284Y205001350D01*
X138771324Y205028045D01*
X138770000Y205055000D01*
X138770000Y205605000D01*
X138771324Y205631955D01*
X138775284Y205658650D01*
X138781841Y205684828D01*
X138790933Y205710238D01*
X138802472Y205734634D01*
X138816346Y205757782D01*
X138832422Y205779458D01*
X138850546Y205799454D01*
X138870542Y205817578D01*
X138892218Y205833654D01*
X138915366Y205847528D01*
X138939762Y205859067D01*
X138965172Y205868159D01*
X138991350Y205874716D01*
X139018045Y205878676D01*
X139045000Y205880000D01*
X140295000Y205880000D01*
X140321955Y205878676D01*
G37*
D11*
X109220000Y196850000D03*
X109220000Y191770000D03*
D30*
X160020000Y260350000D03*
D31*
X157480000Y260350000D03*
D30*
X165100000Y252730000D03*
D31*
X165100000Y255270000D03*
D32*
X185420000Y247650000D03*
X185420000Y245110000D03*
D33*
X166395400Y192024000D03*
D34*
X169037000Y191846200D03*
X163880800Y191846200D03*
D35*
X184150000Y241300000D03*
D36*
X186690000Y241300000D03*
D37*
X96640000Y262970000D03*
X99140000Y262970000D03*
X96640000Y272970000D03*
X99140000Y272970000D03*
X104140000Y267970000D03*
D38*
X99140000Y267970000D03*
D39*
X104140000Y262970000D03*
X104140000Y272970000D03*
D37*
X185300000Y275510000D03*
X182800000Y275510000D03*
X185300000Y265510000D03*
X182800000Y265510000D03*
X177800000Y270510000D03*
D38*
X182800000Y270510000D03*
D39*
X177800000Y275510000D03*
X177800000Y265510000D03*
D31*
X129300000Y212600000D03*
X131800000Y212600000D03*
X113030000Y240070000D03*
X113030000Y242570000D03*
X126960000Y204470000D03*
X124460000Y204470000D03*
X133310000Y204470000D03*
X130810000Y204470000D03*
X106400000Y203100000D03*
X103900000Y203100000D03*
X146010000Y204470000D03*
X143510000Y204470000D03*
X97100000Y222600000D03*
X97100000Y220100000D03*
X146050000Y219750000D03*
X146050000Y222250000D03*
X146050000Y214670000D03*
X146050000Y217170000D03*
X144820000Y228600000D03*
X147320000Y228600000D03*
X158300000Y222600000D03*
X155800000Y222600000D03*
X142280000Y210820000D03*
X144780000Y210820000D03*
X120650000Y219750000D03*
X120650000Y222250000D03*
X120800000Y213600000D03*
X120800000Y211100000D03*
X137120000Y210820000D03*
X134620000Y210820000D03*
X134660000Y228600000D03*
X137160000Y228600000D03*
X123700000Y228600000D03*
X126200000Y228600000D03*
X115570000Y218480000D03*
X115570000Y220980000D03*
X115570000Y209590000D03*
X115570000Y212090000D03*
X112990000Y264160000D03*
X110490000Y264160000D03*
X112990000Y257810000D03*
X110490000Y257810000D03*
D37*
X187420000Y260350000D03*
D40*
X185420000Y260350000D03*
D31*
X118600000Y279100000D03*
X116100000Y279100000D03*
X166370000Y260350000D03*
X163870000Y260350000D03*
X158750000Y255270000D03*
X158750000Y252770000D03*
D37*
X167500000Y247400000D03*
D40*
X165500000Y247400000D03*
D37*
X175800000Y237300000D03*
D40*
X177800000Y237300000D03*
D31*
X176200000Y232700000D03*
X176200000Y230200000D03*
X181800000Y237600000D03*
X181800000Y235100000D03*
X177760000Y246380000D03*
D41*
X175260000Y246380000D03*
M02*
