M48
INCH,TZ
T1C0.0157
T2C0.0197
T3C0.0236
T4C0.0276
T5C0.0295
T6C0.0315
T7C0.0354
T8C0.0394
T9C0.0400
T10C0.0402
T11C0.0433
T12C0.0472
T13C0.0512
T14C0.0591
T15C0.0984
T16C0.1181
%
G90
G05
T1
X45591Y75118
T2
X37087Y90984
X37154Y88311
X37205Y86063
X37402Y83307
X37402Y77717
X38031Y108819
X38504Y101772
X39409Y85827
X39453Y96028
X39606Y91063
X39646Y80984
X39685Y83858
X39764Y77402
X39803Y108898
X40039Y75512
X40118Y78898
X40748Y82717
X41142Y88031
X41299Y86614
X41929Y102047
X41929Y83110
X42205Y90787
X42874Y80354
X43150Y97677
X43622Y93622
X43740Y78976
X44083Y86909
X44094Y88071
X44252Y99606
X44370Y84724
X44488Y82677
X44488Y82677
X44803Y80118
X46102Y104409
X46142Y77520
X46209Y89496
X46299Y84488
X46457Y81890
X46457Y79134
X46614Y76024
X47008Y81378
X47165Y92520
X47551Y97173
X47646Y88453
X48031Y109646
X48465Y101378
X48504Y84370
X48567Y91232
X48740Y108661
X49252Y81457
X49646Y82402
X49921Y83543
X50000Y87283
X50748Y79449
X50787Y77992
X50787Y75551
X51260Y102047
X51260Y101063
X51457Y92894
X51472Y91150
X51535Y96890
X51654Y109724
X52126Y100000
X52795Y84803
X53031Y86575
X53150Y76772
X54567Y101339
X54882Y89370
X55079Y83110
X55433Y78228
X55551Y89882
X55551Y75512
X55669Y81654
X56142Y106063
X56181Y102598
X56295Y88280
X56378Y84528
X56496Y86654
X56929Y100039
X56929Y77008
X57165Y101772
X57362Y88268
X57913Y82126
X58386Y88071
X58583Y76693
X58661Y109606
X58661Y85748
X60079Y112047
X60118Y78819
X60315Y83898
X60315Y75394
X60591Y88228
X60748Y89213
X60866Y100512
X60984Y85276
X61339Y83228
X61339Y82283
X61654Y80472
X62283Y92638
X62795Y97638
X62913Y88701
X63110Y85748
X63346Y76063
X63819Y109724
X65512Y89685
X65984Y91811
X66181Y89055
X66339Y86693
X66417Y94094
X66496Y84567
X66535Y82126
X66535Y78701
X67165Y106181
X67165Y92126
X67205Y111654
X67835Y100394
X67913Y98031
X68425Y87126
X68583Y110039
X69331Y79449
X69409Y84213
X69449Y85906
X69449Y75394
X69488Y88780
X70591Y102323
X72047Y110157
T3
X65157Y97402
X65945Y97402
X73000Y102500
X73787Y102500
X69213Y93425
X70000Y93425
T4
X43337Y86219
X43337Y85470
X59500Y93748
X59500Y93000
X42252Y88000
X43000Y88000
X46969Y103346
X47717Y103346
X43465Y106575
X44213Y106575
X61535Y90039
X62283Y90039
X46969Y100748
X47717Y100748
X59291Y87520
X60039Y87520
X59252Y90000
X60000Y90000
X37559Y100276
X38307Y100276
X49291Y87756
X49291Y87008
X59685Y96969
X60433Y96969
X48701Y85827
X49449Y85827
X59000Y80500
X59748Y80500
X63961Y111969
X64961Y111969
X50752Y90000
X51500Y90000
X50500Y82500
X51248Y82500
X73252Y99500
X74000Y99500
X41220Y84528
X41220Y83780
X55500Y87500
X55500Y86752
X55500Y85500
X55500Y84752
X43500Y84000
X43500Y83252
X49000Y97500
X49748Y97500
X41142Y81614
X41890Y81614
X43500Y82000
X43500Y81252
T5
X38189Y82598
X38189Y81598
X38689Y82098
X38150Y84921
X38150Y83921
X38650Y84421
X38189Y80236
X38189Y79236
X38689Y79736
X54331Y81339
X54331Y80339
X54831Y80839
T6
X45500Y87000
X45500Y86016
X53000Y83000
X53984Y83000
X43500Y104000
X44484Y104000
X57500Y85500
X57500Y84516
X71575Y93543
X71575Y92559
X43500Y101500
X44484Y101500
X51000Y88000
X51000Y87000
X51000Y86000
X51000Y85000
X54000Y88000
X54000Y87000
X54000Y86000
X54000Y85000
X38228Y87638
X38228Y86654
X53945Y109449
X55866Y109449
X56016Y83000
X57000Y83000
X45709Y109882
X46693Y109882
X40906Y79961
X41890Y79961
X64516Y102500
X65500Y102500
X45500Y83500
X45500Y82516
X57016Y90000
X58000Y90000
X51500Y80500
X52484Y80500
X69370Y91614
X69370Y90630
X61339Y87638
X62323Y87638
X69000Y97000
X69984Y97000
X39000Y92500
X39000Y89500
X40000Y92500
X40000Y89500
X41000Y92500
X41000Y89500
X42000Y92500
X42000Y89500
X43000Y92500
X43000Y89500
X44000Y92500
X44000Y89500
X45000Y92500
X45000Y89500
X65000Y100500
X65000Y99500
X48701Y90000
X49685Y90000
X57500Y87500
X57500Y86516
X47559Y84094
X47559Y83110
X62500Y100500
X62500Y99516
X62000Y102500
X63000Y102500
X49000Y80500
X49984Y80500
X47500Y87500
X47500Y86516
X44500Y95500
X44500Y94516
X53016Y90000
X54000Y90000
X50500Y107500
X50500Y104500
X51500Y107500
X51500Y104500
X52500Y107500
X52500Y104500
X53500Y107500
X53500Y104500
X54500Y107500
X54500Y104500
X55500Y107500
X55500Y104500
X56500Y107500
X56500Y104500
X57500Y107500
X57500Y104500
X58500Y107500
X58500Y104500
X59500Y107500
X59500Y104500
X60500Y107500
X60500Y104500
X61500Y107500
X61500Y104500
X62500Y107500
X62500Y104500
X63500Y107500
X63500Y104500
X56500Y80500
X57484Y80500
X50906Y83701
X51890Y83701
T7
X72500Y95000
X73500Y95000
T8
X64075Y79862
X64075Y78862
X63992Y88398
X63992Y87398
X43000Y77500
X43000Y75500
X73500Y93000
X73500Y92000
X73500Y91000
X64024Y84409
X64024Y83409
X54346Y97665
X54346Y91957
X55331Y97665
X56315Y97665
X56315Y91957
T9
X72960Y86340
X72960Y85340
X72960Y84340
X72960Y83340
X72960Y82340
X72960Y81340
X72960Y80340
X48550Y78480
X48550Y77480
X48550Y76480
X48550Y75480
X61600Y78460
X61600Y77460
X61600Y76460
X61600Y75460
T10
X73000Y97500
X73000Y96500
T11
X46945Y95551
X46945Y93780
X49504Y95551
X49504Y93780
X61500Y95500
X61500Y93728
X64059Y95500
X64059Y93728
T12
X43000Y112000
X44000Y112000
X45000Y112000
X46000Y112000
X47000Y112000
X48000Y112000
X49000Y112000
X50000Y112000
X51000Y112000
X52000Y112000
X53000Y112000
X54000Y112000
X55000Y112000
X56000Y112000
X57000Y112000
X58000Y112000
T13
X37500Y96969
X37500Y95000
X41437Y95984
T15
X40835Y112000
X40835Y99795
X70362Y99795
X70362Y112000
T16
X73500Y76000
X38000Y76000
X38000Y111500
X73500Y111500
T6
G00X70138Y108469
M15
G01X69862Y108469
M16
G05
G00X70138Y104531
M15
G01X69862Y104531
M16
G05
G00X71969Y106362
M15
G01X71969Y106638
M16
G05
G00X39031Y105638
M15
G01X39031Y105362
M16
G05
G00X40862Y107469
M15
G01X41138Y107469
M16
G05
G00X40862Y103531
M15
G01X41138Y103531
M16
G05
T14
G00X53126Y94969
M15
G01X53126Y94457
M16
G05
G00X57535Y94969
M15
G01X57535Y94457
M16
G05
T0
M30
