%TF.GenerationSoftware,KiCad,Pcbnew,(6.0.0)*%
%TF.CreationDate,2022-01-14T09:31:31+02:00*%
%TF.ProjectId,uSDX_SMD,75534458-5f53-44d4-942e-6b696361645f,rev?*%
%TF.SameCoordinates,Original*%
%TF.FileFunction,Legend,Bot*%
%TF.FilePolarity,Positive*%
%FSLAX46Y46*%
G04 Gerber Fmt 4.6, Leading zero omitted, Abs format (unit mm)*
G04 Created by KiCad (PCBNEW (6.0.0)) date 2022-01-14 09:31:31*
%MOMM*%
%LPD*%
G01*
G04 APERTURE LIST*
%ADD10C,0.100000*%
%ADD11C,0.150000*%
%ADD12C,0.120000*%
%ADD13C,0.200000*%
G04 APERTURE END LIST*
D10*
%TO.C,R18*%
X71126285Y-86595904D02*
X71392952Y-86214952D01*
X71583428Y-86595904D02*
X71583428Y-85795904D01*
X71278666Y-85795904D01*
X71202476Y-85834000D01*
X71164380Y-85872095D01*
X71126285Y-85948285D01*
X71126285Y-86062571D01*
X71164380Y-86138761D01*
X71202476Y-86176857D01*
X71278666Y-86214952D01*
X71583428Y-86214952D01*
X70364380Y-86595904D02*
X70821523Y-86595904D01*
X70592952Y-86595904D02*
X70592952Y-85795904D01*
X70669142Y-85910190D01*
X70745333Y-85986380D01*
X70821523Y-86024476D01*
X69907238Y-86138761D02*
X69983428Y-86100666D01*
X70021523Y-86062571D01*
X70059619Y-85986380D01*
X70059619Y-85948285D01*
X70021523Y-85872095D01*
X69983428Y-85834000D01*
X69907238Y-85795904D01*
X69754857Y-85795904D01*
X69678666Y-85834000D01*
X69640571Y-85872095D01*
X69602476Y-85948285D01*
X69602476Y-85986380D01*
X69640571Y-86062571D01*
X69678666Y-86100666D01*
X69754857Y-86138761D01*
X69907238Y-86138761D01*
X69983428Y-86176857D01*
X70021523Y-86214952D01*
X70059619Y-86291142D01*
X70059619Y-86443523D01*
X70021523Y-86519714D01*
X69983428Y-86557809D01*
X69907238Y-86595904D01*
X69754857Y-86595904D01*
X69678666Y-86557809D01*
X69640571Y-86519714D01*
X69602476Y-86443523D01*
X69602476Y-86291142D01*
X69640571Y-86214952D01*
X69678666Y-86176857D01*
X69754857Y-86138761D01*
%TO.C,R19*%
X71229785Y-79229904D02*
X71496452Y-78848952D01*
X71686928Y-79229904D02*
X71686928Y-78429904D01*
X71382166Y-78429904D01*
X71305976Y-78468000D01*
X71267880Y-78506095D01*
X71229785Y-78582285D01*
X71229785Y-78696571D01*
X71267880Y-78772761D01*
X71305976Y-78810857D01*
X71382166Y-78848952D01*
X71686928Y-78848952D01*
X70467880Y-79229904D02*
X70925023Y-79229904D01*
X70696452Y-79229904D02*
X70696452Y-78429904D01*
X70772642Y-78544190D01*
X70848833Y-78620380D01*
X70925023Y-78658476D01*
X70086928Y-79229904D02*
X69934547Y-79229904D01*
X69858357Y-79191809D01*
X69820261Y-79153714D01*
X69744071Y-79039428D01*
X69705976Y-78887047D01*
X69705976Y-78582285D01*
X69744071Y-78506095D01*
X69782166Y-78468000D01*
X69858357Y-78429904D01*
X70010738Y-78429904D01*
X70086928Y-78468000D01*
X70125023Y-78506095D01*
X70163119Y-78582285D01*
X70163119Y-78772761D01*
X70125023Y-78848952D01*
X70086928Y-78887047D01*
X70010738Y-78925142D01*
X69858357Y-78925142D01*
X69782166Y-78887047D01*
X69744071Y-78848952D01*
X69705976Y-78772761D01*
%TO.C,C23*%
X71192285Y-84515714D02*
X71230380Y-84553809D01*
X71344666Y-84591904D01*
X71420857Y-84591904D01*
X71535142Y-84553809D01*
X71611333Y-84477619D01*
X71649428Y-84401428D01*
X71687523Y-84249047D01*
X71687523Y-84134761D01*
X71649428Y-83982380D01*
X71611333Y-83906190D01*
X71535142Y-83830000D01*
X71420857Y-83791904D01*
X71344666Y-83791904D01*
X71230380Y-83830000D01*
X71192285Y-83868095D01*
X70887523Y-83868095D02*
X70849428Y-83830000D01*
X70773238Y-83791904D01*
X70582761Y-83791904D01*
X70506571Y-83830000D01*
X70468476Y-83868095D01*
X70430380Y-83944285D01*
X70430380Y-84020476D01*
X70468476Y-84134761D01*
X70925619Y-84591904D01*
X70430380Y-84591904D01*
X70163714Y-83791904D02*
X69668476Y-83791904D01*
X69935142Y-84096666D01*
X69820857Y-84096666D01*
X69744666Y-84134761D01*
X69706571Y-84172857D01*
X69668476Y-84249047D01*
X69668476Y-84439523D01*
X69706571Y-84515714D01*
X69744666Y-84553809D01*
X69820857Y-84591904D01*
X70049428Y-84591904D01*
X70125619Y-84553809D01*
X70163714Y-84515714D01*
%TO.C,C22*%
X71126285Y-87563714D02*
X71164380Y-87601809D01*
X71278666Y-87639904D01*
X71354857Y-87639904D01*
X71469142Y-87601809D01*
X71545333Y-87525619D01*
X71583428Y-87449428D01*
X71621523Y-87297047D01*
X71621523Y-87182761D01*
X71583428Y-87030380D01*
X71545333Y-86954190D01*
X71469142Y-86878000D01*
X71354857Y-86839904D01*
X71278666Y-86839904D01*
X71164380Y-86878000D01*
X71126285Y-86916095D01*
X70821523Y-86916095D02*
X70783428Y-86878000D01*
X70707238Y-86839904D01*
X70516761Y-86839904D01*
X70440571Y-86878000D01*
X70402476Y-86916095D01*
X70364380Y-86992285D01*
X70364380Y-87068476D01*
X70402476Y-87182761D01*
X70859619Y-87639904D01*
X70364380Y-87639904D01*
X70059619Y-86916095D02*
X70021523Y-86878000D01*
X69945333Y-86839904D01*
X69754857Y-86839904D01*
X69678666Y-86878000D01*
X69640571Y-86916095D01*
X69602476Y-86992285D01*
X69602476Y-87068476D01*
X69640571Y-87182761D01*
X70097714Y-87639904D01*
X69602476Y-87639904D01*
D11*
%TO.C,S3*%
X97155095Y-36552238D02*
X97297952Y-36504619D01*
X97536047Y-36504619D01*
X97631285Y-36552238D01*
X97678904Y-36599857D01*
X97726523Y-36695095D01*
X97726523Y-36790333D01*
X97678904Y-36885571D01*
X97631285Y-36933190D01*
X97536047Y-36980809D01*
X97345571Y-37028428D01*
X97250333Y-37076047D01*
X97202714Y-37123666D01*
X97155095Y-37218904D01*
X97155095Y-37314142D01*
X97202714Y-37409380D01*
X97250333Y-37457000D01*
X97345571Y-37504619D01*
X97583666Y-37504619D01*
X97726523Y-37457000D01*
X98059857Y-37504619D02*
X98678904Y-37504619D01*
X98345571Y-37123666D01*
X98488428Y-37123666D01*
X98583666Y-37076047D01*
X98631285Y-37028428D01*
X98678904Y-36933190D01*
X98678904Y-36695095D01*
X98631285Y-36599857D01*
X98583666Y-36552238D01*
X98488428Y-36504619D01*
X98202714Y-36504619D01*
X98107476Y-36552238D01*
X98059857Y-36599857D01*
D10*
%TO.C,RV1*%
X40720190Y-23735904D02*
X40986857Y-23354952D01*
X41177333Y-23735904D02*
X41177333Y-22935904D01*
X40872571Y-22935904D01*
X40796380Y-22974000D01*
X40758285Y-23012095D01*
X40720190Y-23088285D01*
X40720190Y-23202571D01*
X40758285Y-23278761D01*
X40796380Y-23316857D01*
X40872571Y-23354952D01*
X41177333Y-23354952D01*
X40491619Y-22935904D02*
X40224952Y-23735904D01*
X39958285Y-22935904D01*
X39272571Y-23735904D02*
X39729714Y-23735904D01*
X39501142Y-23735904D02*
X39501142Y-22935904D01*
X39577333Y-23050190D01*
X39653523Y-23126380D01*
X39729714Y-23164476D01*
X41624190Y-31863904D02*
X42081333Y-31863904D01*
X41852761Y-31863904D02*
X41852761Y-31063904D01*
X41928952Y-31178190D01*
X42005142Y-31254380D01*
X42081333Y-31292476D01*
X41128952Y-31063904D02*
X41052761Y-31063904D01*
X40976571Y-31102000D01*
X40938476Y-31140095D01*
X40900380Y-31216285D01*
X40862285Y-31368666D01*
X40862285Y-31559142D01*
X40900380Y-31711523D01*
X40938476Y-31787714D01*
X40976571Y-31825809D01*
X41052761Y-31863904D01*
X41128952Y-31863904D01*
X41205142Y-31825809D01*
X41243238Y-31787714D01*
X41281333Y-31711523D01*
X41319428Y-31559142D01*
X41319428Y-31368666D01*
X41281333Y-31216285D01*
X41243238Y-31140095D01*
X41205142Y-31102000D01*
X41128952Y-31063904D01*
X40519428Y-31863904D02*
X40519428Y-31063904D01*
X40443238Y-31559142D02*
X40214666Y-31863904D01*
X40214666Y-31330571D02*
X40519428Y-31635333D01*
%TO.C,R20*%
X48113904Y-28545214D02*
X47732952Y-28278547D01*
X48113904Y-28088071D02*
X47313904Y-28088071D01*
X47313904Y-28392833D01*
X47352000Y-28469023D01*
X47390095Y-28507119D01*
X47466285Y-28545214D01*
X47580571Y-28545214D01*
X47656761Y-28507119D01*
X47694857Y-28469023D01*
X47732952Y-28392833D01*
X47732952Y-28088071D01*
X47390095Y-28849976D02*
X47352000Y-28888071D01*
X47313904Y-28964261D01*
X47313904Y-29154738D01*
X47352000Y-29230928D01*
X47390095Y-29269023D01*
X47466285Y-29307119D01*
X47542476Y-29307119D01*
X47656761Y-29269023D01*
X48113904Y-28811880D01*
X48113904Y-29307119D01*
X47313904Y-29802357D02*
X47313904Y-29878547D01*
X47352000Y-29954738D01*
X47390095Y-29992833D01*
X47466285Y-30030928D01*
X47618666Y-30069023D01*
X47809142Y-30069023D01*
X47961523Y-30030928D01*
X48037714Y-29992833D01*
X48075809Y-29954738D01*
X48113904Y-29878547D01*
X48113904Y-29802357D01*
X48075809Y-29726166D01*
X48037714Y-29688071D01*
X47961523Y-29649976D01*
X47809142Y-29611880D01*
X47618666Y-29611880D01*
X47466285Y-29649976D01*
X47390095Y-29688071D01*
X47352000Y-29726166D01*
X47313904Y-29802357D01*
X46069238Y-26881404D02*
X46526380Y-26881404D01*
X46297809Y-26881404D02*
X46297809Y-26081404D01*
X46374000Y-26195690D01*
X46450190Y-26271880D01*
X46526380Y-26309976D01*
X45726380Y-26881404D02*
X45726380Y-26081404D01*
X45650190Y-26576642D02*
X45421619Y-26881404D01*
X45421619Y-26348071D02*
X45726380Y-26652833D01*
%TO.C,R29*%
X86620285Y-24111904D02*
X86886952Y-23730952D01*
X87077428Y-24111904D02*
X87077428Y-23311904D01*
X86772666Y-23311904D01*
X86696476Y-23350000D01*
X86658380Y-23388095D01*
X86620285Y-23464285D01*
X86620285Y-23578571D01*
X86658380Y-23654761D01*
X86696476Y-23692857D01*
X86772666Y-23730952D01*
X87077428Y-23730952D01*
X86315523Y-23388095D02*
X86277428Y-23350000D01*
X86201238Y-23311904D01*
X86010761Y-23311904D01*
X85934571Y-23350000D01*
X85896476Y-23388095D01*
X85858380Y-23464285D01*
X85858380Y-23540476D01*
X85896476Y-23654761D01*
X86353619Y-24111904D01*
X85858380Y-24111904D01*
X85477428Y-24111904D02*
X85325047Y-24111904D01*
X85248857Y-24073809D01*
X85210761Y-24035714D01*
X85134571Y-23921428D01*
X85096476Y-23769047D01*
X85096476Y-23464285D01*
X85134571Y-23388095D01*
X85172666Y-23350000D01*
X85248857Y-23311904D01*
X85401238Y-23311904D01*
X85477428Y-23350000D01*
X85515523Y-23388095D01*
X85553619Y-23464285D01*
X85553619Y-23654761D01*
X85515523Y-23730952D01*
X85477428Y-23769047D01*
X85401238Y-23807142D01*
X85248857Y-23807142D01*
X85172666Y-23769047D01*
X85134571Y-23730952D01*
X85096476Y-23654761D01*
X86582190Y-27411904D02*
X87039333Y-27411904D01*
X86810761Y-27411904D02*
X86810761Y-26611904D01*
X86886952Y-26726190D01*
X86963142Y-26802380D01*
X87039333Y-26840476D01*
X86086952Y-26611904D02*
X86010761Y-26611904D01*
X85934571Y-26650000D01*
X85896476Y-26688095D01*
X85858380Y-26764285D01*
X85820285Y-26916666D01*
X85820285Y-27107142D01*
X85858380Y-27259523D01*
X85896476Y-27335714D01*
X85934571Y-27373809D01*
X86010761Y-27411904D01*
X86086952Y-27411904D01*
X86163142Y-27373809D01*
X86201238Y-27335714D01*
X86239333Y-27259523D01*
X86277428Y-27107142D01*
X86277428Y-26916666D01*
X86239333Y-26764285D01*
X86201238Y-26688095D01*
X86163142Y-26650000D01*
X86086952Y-26611904D01*
X85477428Y-27411904D02*
X85477428Y-26611904D01*
X85401238Y-27107142D02*
X85172666Y-27411904D01*
X85172666Y-26878571D02*
X85477428Y-27183333D01*
%TO.C,C26*%
X35312285Y-23399714D02*
X35350380Y-23437809D01*
X35464666Y-23475904D01*
X35540857Y-23475904D01*
X35655142Y-23437809D01*
X35731333Y-23361619D01*
X35769428Y-23285428D01*
X35807523Y-23133047D01*
X35807523Y-23018761D01*
X35769428Y-22866380D01*
X35731333Y-22790190D01*
X35655142Y-22714000D01*
X35540857Y-22675904D01*
X35464666Y-22675904D01*
X35350380Y-22714000D01*
X35312285Y-22752095D01*
X35007523Y-22752095D02*
X34969428Y-22714000D01*
X34893238Y-22675904D01*
X34702761Y-22675904D01*
X34626571Y-22714000D01*
X34588476Y-22752095D01*
X34550380Y-22828285D01*
X34550380Y-22904476D01*
X34588476Y-23018761D01*
X35045619Y-23475904D01*
X34550380Y-23475904D01*
X33864666Y-22675904D02*
X34017047Y-22675904D01*
X34093238Y-22714000D01*
X34131333Y-22752095D01*
X34207523Y-22866380D01*
X34245619Y-23018761D01*
X34245619Y-23323523D01*
X34207523Y-23399714D01*
X34169428Y-23437809D01*
X34093238Y-23475904D01*
X33940857Y-23475904D01*
X33864666Y-23437809D01*
X33826571Y-23399714D01*
X33788476Y-23323523D01*
X33788476Y-23133047D01*
X33826571Y-23056857D01*
X33864666Y-23018761D01*
X33940857Y-22980666D01*
X34093238Y-22980666D01*
X34169428Y-23018761D01*
X34207523Y-23056857D01*
X34245619Y-23133047D01*
X33381904Y-24415904D02*
X33381904Y-23958761D01*
X33381904Y-24187333D02*
X32581904Y-24187333D01*
X32696190Y-24111142D01*
X32772380Y-24034952D01*
X32810476Y-23958761D01*
X32581904Y-24911142D02*
X32581904Y-24987333D01*
X32620000Y-25063523D01*
X32658095Y-25101619D01*
X32734285Y-25139714D01*
X32886666Y-25177809D01*
X33077142Y-25177809D01*
X33229523Y-25139714D01*
X33305714Y-25101619D01*
X33343809Y-25063523D01*
X33381904Y-24987333D01*
X33381904Y-24911142D01*
X33343809Y-24834952D01*
X33305714Y-24796857D01*
X33229523Y-24758761D01*
X33077142Y-24720666D01*
X32886666Y-24720666D01*
X32734285Y-24758761D01*
X32658095Y-24796857D01*
X32620000Y-24834952D01*
X32581904Y-24911142D01*
X32581904Y-25673047D02*
X32581904Y-25749238D01*
X32620000Y-25825428D01*
X32658095Y-25863523D01*
X32734285Y-25901619D01*
X32886666Y-25939714D01*
X33077142Y-25939714D01*
X33229523Y-25901619D01*
X33305714Y-25863523D01*
X33343809Y-25825428D01*
X33381904Y-25749238D01*
X33381904Y-25673047D01*
X33343809Y-25596857D01*
X33305714Y-25558761D01*
X33229523Y-25520666D01*
X33077142Y-25482571D01*
X32886666Y-25482571D01*
X32734285Y-25520666D01*
X32658095Y-25558761D01*
X32620000Y-25596857D01*
X32581904Y-25673047D01*
X32848571Y-26282571D02*
X33381904Y-26282571D01*
X32924761Y-26282571D02*
X32886666Y-26320666D01*
X32848571Y-26396857D01*
X32848571Y-26511142D01*
X32886666Y-26587333D01*
X32962857Y-26625428D01*
X33381904Y-26625428D01*
X32962857Y-27273047D02*
X32962857Y-27006380D01*
X33381904Y-27006380D02*
X32581904Y-27006380D01*
X32581904Y-27387333D01*
%TO.C,C11*%
X105924285Y-59213714D02*
X105962380Y-59251809D01*
X106076666Y-59289904D01*
X106152857Y-59289904D01*
X106267142Y-59251809D01*
X106343333Y-59175619D01*
X106381428Y-59099428D01*
X106419523Y-58947047D01*
X106419523Y-58832761D01*
X106381428Y-58680380D01*
X106343333Y-58604190D01*
X106267142Y-58528000D01*
X106152857Y-58489904D01*
X106076666Y-58489904D01*
X105962380Y-58528000D01*
X105924285Y-58566095D01*
X105162380Y-59289904D02*
X105619523Y-59289904D01*
X105390952Y-59289904D02*
X105390952Y-58489904D01*
X105467142Y-58604190D01*
X105543333Y-58680380D01*
X105619523Y-58718476D01*
X104400476Y-59289904D02*
X104857619Y-59289904D01*
X104629047Y-59289904D02*
X104629047Y-58489904D01*
X104705238Y-58604190D01*
X104781428Y-58680380D01*
X104857619Y-58718476D01*
%TO.C,C14*%
X33280285Y-59213714D02*
X33318380Y-59251809D01*
X33432666Y-59289904D01*
X33508857Y-59289904D01*
X33623142Y-59251809D01*
X33699333Y-59175619D01*
X33737428Y-59099428D01*
X33775523Y-58947047D01*
X33775523Y-58832761D01*
X33737428Y-58680380D01*
X33699333Y-58604190D01*
X33623142Y-58528000D01*
X33508857Y-58489904D01*
X33432666Y-58489904D01*
X33318380Y-58528000D01*
X33280285Y-58566095D01*
X32518380Y-59289904D02*
X32975523Y-59289904D01*
X32746952Y-59289904D02*
X32746952Y-58489904D01*
X32823142Y-58604190D01*
X32899333Y-58680380D01*
X32975523Y-58718476D01*
X31832666Y-58756571D02*
X31832666Y-59289904D01*
X32023142Y-58451809D02*
X32213619Y-59023238D01*
X31718380Y-59023238D01*
%TO.C,C15*%
X25939714Y-58159714D02*
X25977809Y-58121619D01*
X26015904Y-58007333D01*
X26015904Y-57931142D01*
X25977809Y-57816857D01*
X25901619Y-57740666D01*
X25825428Y-57702571D01*
X25673047Y-57664476D01*
X25558761Y-57664476D01*
X25406380Y-57702571D01*
X25330190Y-57740666D01*
X25254000Y-57816857D01*
X25215904Y-57931142D01*
X25215904Y-58007333D01*
X25254000Y-58121619D01*
X25292095Y-58159714D01*
X26015904Y-58921619D02*
X26015904Y-58464476D01*
X26015904Y-58693047D02*
X25215904Y-58693047D01*
X25330190Y-58616857D01*
X25406380Y-58540666D01*
X25444476Y-58464476D01*
X25215904Y-59645428D02*
X25215904Y-59264476D01*
X25596857Y-59226380D01*
X25558761Y-59264476D01*
X25520666Y-59340666D01*
X25520666Y-59531142D01*
X25558761Y-59607333D01*
X25596857Y-59645428D01*
X25673047Y-59683523D01*
X25863523Y-59683523D01*
X25939714Y-59645428D01*
X25977809Y-59607333D01*
X26015904Y-59531142D01*
X26015904Y-59340666D01*
X25977809Y-59264476D01*
X25939714Y-59226380D01*
X26015904Y-64166857D02*
X26015904Y-63709714D01*
X26015904Y-63938285D02*
X25215904Y-63938285D01*
X25330190Y-63862095D01*
X25406380Y-63785904D01*
X25444476Y-63709714D01*
X25215904Y-64662095D02*
X25215904Y-64738285D01*
X25254000Y-64814476D01*
X25292095Y-64852571D01*
X25368285Y-64890666D01*
X25520666Y-64928761D01*
X25711142Y-64928761D01*
X25863523Y-64890666D01*
X25939714Y-64852571D01*
X25977809Y-64814476D01*
X26015904Y-64738285D01*
X26015904Y-64662095D01*
X25977809Y-64585904D01*
X25939714Y-64547809D01*
X25863523Y-64509714D01*
X25711142Y-64471619D01*
X25520666Y-64471619D01*
X25368285Y-64509714D01*
X25292095Y-64547809D01*
X25254000Y-64585904D01*
X25215904Y-64662095D01*
X25482571Y-65271619D02*
X26015904Y-65271619D01*
X25558761Y-65271619D02*
X25520666Y-65309714D01*
X25482571Y-65385904D01*
X25482571Y-65500190D01*
X25520666Y-65576380D01*
X25596857Y-65614476D01*
X26015904Y-65614476D01*
X25596857Y-66262095D02*
X25596857Y-65995428D01*
X26015904Y-65995428D02*
X25215904Y-65995428D01*
X25215904Y-66376380D01*
%TO.C,C16*%
X23653714Y-58159714D02*
X23691809Y-58121619D01*
X23729904Y-58007333D01*
X23729904Y-57931142D01*
X23691809Y-57816857D01*
X23615619Y-57740666D01*
X23539428Y-57702571D01*
X23387047Y-57664476D01*
X23272761Y-57664476D01*
X23120380Y-57702571D01*
X23044190Y-57740666D01*
X22968000Y-57816857D01*
X22929904Y-57931142D01*
X22929904Y-58007333D01*
X22968000Y-58121619D01*
X23006095Y-58159714D01*
X23729904Y-58921619D02*
X23729904Y-58464476D01*
X23729904Y-58693047D02*
X22929904Y-58693047D01*
X23044190Y-58616857D01*
X23120380Y-58540666D01*
X23158476Y-58464476D01*
X22929904Y-59607333D02*
X22929904Y-59454952D01*
X22968000Y-59378761D01*
X23006095Y-59340666D01*
X23120380Y-59264476D01*
X23272761Y-59226380D01*
X23577523Y-59226380D01*
X23653714Y-59264476D01*
X23691809Y-59302571D01*
X23729904Y-59378761D01*
X23729904Y-59531142D01*
X23691809Y-59607333D01*
X23653714Y-59645428D01*
X23577523Y-59683523D01*
X23387047Y-59683523D01*
X23310857Y-59645428D01*
X23272761Y-59607333D01*
X23234666Y-59531142D01*
X23234666Y-59378761D01*
X23272761Y-59302571D01*
X23310857Y-59264476D01*
X23387047Y-59226380D01*
X24237904Y-64039904D02*
X24237904Y-63582761D01*
X24237904Y-63811333D02*
X23437904Y-63811333D01*
X23552190Y-63735142D01*
X23628380Y-63658952D01*
X23666476Y-63582761D01*
X23437904Y-64535142D02*
X23437904Y-64611333D01*
X23476000Y-64687523D01*
X23514095Y-64725619D01*
X23590285Y-64763714D01*
X23742666Y-64801809D01*
X23933142Y-64801809D01*
X24085523Y-64763714D01*
X24161714Y-64725619D01*
X24199809Y-64687523D01*
X24237904Y-64611333D01*
X24237904Y-64535142D01*
X24199809Y-64458952D01*
X24161714Y-64420857D01*
X24085523Y-64382761D01*
X23933142Y-64344666D01*
X23742666Y-64344666D01*
X23590285Y-64382761D01*
X23514095Y-64420857D01*
X23476000Y-64458952D01*
X23437904Y-64535142D01*
X23437904Y-65297047D02*
X23437904Y-65373238D01*
X23476000Y-65449428D01*
X23514095Y-65487523D01*
X23590285Y-65525619D01*
X23742666Y-65563714D01*
X23933142Y-65563714D01*
X24085523Y-65525619D01*
X24161714Y-65487523D01*
X24199809Y-65449428D01*
X24237904Y-65373238D01*
X24237904Y-65297047D01*
X24199809Y-65220857D01*
X24161714Y-65182761D01*
X24085523Y-65144666D01*
X23933142Y-65106571D01*
X23742666Y-65106571D01*
X23590285Y-65144666D01*
X23514095Y-65182761D01*
X23476000Y-65220857D01*
X23437904Y-65297047D01*
X23704571Y-65906571D02*
X24237904Y-65906571D01*
X23780761Y-65906571D02*
X23742666Y-65944666D01*
X23704571Y-66020857D01*
X23704571Y-66135142D01*
X23742666Y-66211333D01*
X23818857Y-66249428D01*
X24237904Y-66249428D01*
X23818857Y-66897047D02*
X23818857Y-66630380D01*
X24237904Y-66630380D02*
X23437904Y-66630380D01*
X23437904Y-67011333D01*
%TO.C,R11*%
X28164365Y-58138489D02*
X27783413Y-57871822D01*
X28164365Y-57681346D02*
X27364365Y-57681346D01*
X27364365Y-57986108D01*
X27402461Y-58062298D01*
X27440556Y-58100394D01*
X27516746Y-58138489D01*
X27631032Y-58138489D01*
X27707222Y-58100394D01*
X27745318Y-58062298D01*
X27783413Y-57986108D01*
X27783413Y-57681346D01*
X28164365Y-58900394D02*
X28164365Y-58443251D01*
X28164365Y-58671822D02*
X27364365Y-58671822D01*
X27478651Y-58595632D01*
X27554841Y-58519441D01*
X27592937Y-58443251D01*
X28164365Y-59662298D02*
X28164365Y-59205155D01*
X28164365Y-59433727D02*
X27364365Y-59433727D01*
X27478651Y-59357536D01*
X27554841Y-59281346D01*
X27592937Y-59205155D01*
X28162190Y-64369904D02*
X28619333Y-64369904D01*
X28390761Y-64369904D02*
X28390761Y-63569904D01*
X28466952Y-63684190D01*
X28543142Y-63760380D01*
X28619333Y-63798476D01*
X27666952Y-63569904D02*
X27590761Y-63569904D01*
X27514571Y-63608000D01*
X27476476Y-63646095D01*
X27438380Y-63722285D01*
X27400285Y-63874666D01*
X27400285Y-64065142D01*
X27438380Y-64217523D01*
X27476476Y-64293714D01*
X27514571Y-64331809D01*
X27590761Y-64369904D01*
X27666952Y-64369904D01*
X27743142Y-64331809D01*
X27781238Y-64293714D01*
X27819333Y-64217523D01*
X27857428Y-64065142D01*
X27857428Y-63874666D01*
X27819333Y-63722285D01*
X27781238Y-63646095D01*
X27743142Y-63608000D01*
X27666952Y-63569904D01*
X27057428Y-64369904D02*
X27057428Y-63569904D01*
X26981238Y-64065142D02*
X26752666Y-64369904D01*
X26752666Y-63836571D02*
X27057428Y-64141333D01*
%TO.C,R7*%
X100463333Y-59797904D02*
X100730000Y-59416952D01*
X100920476Y-59797904D02*
X100920476Y-58997904D01*
X100615714Y-58997904D01*
X100539523Y-59036000D01*
X100501428Y-59074095D01*
X100463333Y-59150285D01*
X100463333Y-59264571D01*
X100501428Y-59340761D01*
X100539523Y-59378857D01*
X100615714Y-59416952D01*
X100920476Y-59416952D01*
X100196666Y-58997904D02*
X99663333Y-58997904D01*
X100006190Y-59797904D01*
X98380571Y-61112476D02*
X98913904Y-61112476D01*
X98075809Y-60922000D02*
X98647238Y-60731523D01*
X98647238Y-61226761D01*
X98113904Y-61455333D02*
X98113904Y-61988666D01*
X98913904Y-61645809D01*
X98113904Y-62445809D02*
X98113904Y-62522000D01*
X98152000Y-62598190D01*
X98190095Y-62636285D01*
X98266285Y-62674380D01*
X98418666Y-62712476D01*
X98609142Y-62712476D01*
X98761523Y-62674380D01*
X98837714Y-62636285D01*
X98875809Y-62598190D01*
X98913904Y-62522000D01*
X98913904Y-62445809D01*
X98875809Y-62369619D01*
X98837714Y-62331523D01*
X98761523Y-62293428D01*
X98609142Y-62255333D01*
X98418666Y-62255333D01*
X98266285Y-62293428D01*
X98190095Y-62331523D01*
X98152000Y-62369619D01*
X98113904Y-62445809D01*
%TO.C,R12*%
X18903904Y-58159714D02*
X18522952Y-57893047D01*
X18903904Y-57702571D02*
X18103904Y-57702571D01*
X18103904Y-58007333D01*
X18142000Y-58083523D01*
X18180095Y-58121619D01*
X18256285Y-58159714D01*
X18370571Y-58159714D01*
X18446761Y-58121619D01*
X18484857Y-58083523D01*
X18522952Y-58007333D01*
X18522952Y-57702571D01*
X18903904Y-58921619D02*
X18903904Y-58464476D01*
X18903904Y-58693047D02*
X18103904Y-58693047D01*
X18218190Y-58616857D01*
X18294380Y-58540666D01*
X18332476Y-58464476D01*
X18180095Y-59226380D02*
X18142000Y-59264476D01*
X18103904Y-59340666D01*
X18103904Y-59531142D01*
X18142000Y-59607333D01*
X18180095Y-59645428D01*
X18256285Y-59683523D01*
X18332476Y-59683523D01*
X18446761Y-59645428D01*
X18903904Y-59188285D01*
X18903904Y-59683523D01*
X17633904Y-61245809D02*
X17633904Y-60788666D01*
X17633904Y-61017238D02*
X16833904Y-61017238D01*
X16948190Y-60941047D01*
X17024380Y-60864857D01*
X17062476Y-60788666D01*
X16833904Y-61741047D02*
X16833904Y-61817238D01*
X16872000Y-61893428D01*
X16910095Y-61931523D01*
X16986285Y-61969619D01*
X17138666Y-62007714D01*
X17329142Y-62007714D01*
X17481523Y-61969619D01*
X17557714Y-61931523D01*
X17595809Y-61893428D01*
X17633904Y-61817238D01*
X17633904Y-61741047D01*
X17595809Y-61664857D01*
X17557714Y-61626761D01*
X17481523Y-61588666D01*
X17329142Y-61550571D01*
X17138666Y-61550571D01*
X16986285Y-61588666D01*
X16910095Y-61626761D01*
X16872000Y-61664857D01*
X16833904Y-61741047D01*
X17633904Y-62350571D02*
X16833904Y-62350571D01*
X17329142Y-62426761D02*
X17633904Y-62655333D01*
X17100571Y-62655333D02*
X17405333Y-62350571D01*
%TO.C,R13*%
X21443904Y-58159714D02*
X21062952Y-57893047D01*
X21443904Y-57702571D02*
X20643904Y-57702571D01*
X20643904Y-58007333D01*
X20682000Y-58083523D01*
X20720095Y-58121619D01*
X20796285Y-58159714D01*
X20910571Y-58159714D01*
X20986761Y-58121619D01*
X21024857Y-58083523D01*
X21062952Y-58007333D01*
X21062952Y-57702571D01*
X21443904Y-58921619D02*
X21443904Y-58464476D01*
X21443904Y-58693047D02*
X20643904Y-58693047D01*
X20758190Y-58616857D01*
X20834380Y-58540666D01*
X20872476Y-58464476D01*
X20643904Y-59188285D02*
X20643904Y-59683523D01*
X20948666Y-59416857D01*
X20948666Y-59531142D01*
X20986761Y-59607333D01*
X21024857Y-59645428D01*
X21101047Y-59683523D01*
X21291523Y-59683523D01*
X21367714Y-59645428D01*
X21405809Y-59607333D01*
X21443904Y-59531142D01*
X21443904Y-59302571D01*
X21405809Y-59226380D01*
X21367714Y-59188285D01*
X20542190Y-64369904D02*
X20999333Y-64369904D01*
X20770761Y-64369904D02*
X20770761Y-63569904D01*
X20846952Y-63684190D01*
X20923142Y-63760380D01*
X20999333Y-63798476D01*
X20046952Y-63569904D02*
X19970761Y-63569904D01*
X19894571Y-63608000D01*
X19856476Y-63646095D01*
X19818380Y-63722285D01*
X19780285Y-63874666D01*
X19780285Y-64065142D01*
X19818380Y-64217523D01*
X19856476Y-64293714D01*
X19894571Y-64331809D01*
X19970761Y-64369904D01*
X20046952Y-64369904D01*
X20123142Y-64331809D01*
X20161238Y-64293714D01*
X20199333Y-64217523D01*
X20237428Y-64065142D01*
X20237428Y-63874666D01*
X20199333Y-63722285D01*
X20161238Y-63646095D01*
X20123142Y-63608000D01*
X20046952Y-63569904D01*
X19437428Y-64369904D02*
X19437428Y-63569904D01*
X19361238Y-64065142D02*
X19132666Y-64369904D01*
X19132666Y-63836571D02*
X19437428Y-64141333D01*
%TO.C,R25*%
X45953904Y-62985714D02*
X45572952Y-62719047D01*
X45953904Y-62528571D02*
X45153904Y-62528571D01*
X45153904Y-62833333D01*
X45192000Y-62909523D01*
X45230095Y-62947619D01*
X45306285Y-62985714D01*
X45420571Y-62985714D01*
X45496761Y-62947619D01*
X45534857Y-62909523D01*
X45572952Y-62833333D01*
X45572952Y-62528571D01*
X45230095Y-63290476D02*
X45192000Y-63328571D01*
X45153904Y-63404761D01*
X45153904Y-63595238D01*
X45192000Y-63671428D01*
X45230095Y-63709523D01*
X45306285Y-63747619D01*
X45382476Y-63747619D01*
X45496761Y-63709523D01*
X45953904Y-63252380D01*
X45953904Y-63747619D01*
X45153904Y-64471428D02*
X45153904Y-64090476D01*
X45534857Y-64052380D01*
X45496761Y-64090476D01*
X45458666Y-64166666D01*
X45458666Y-64357142D01*
X45496761Y-64433333D01*
X45534857Y-64471428D01*
X45611047Y-64509523D01*
X45801523Y-64509523D01*
X45877714Y-64471428D01*
X45915809Y-64433333D01*
X45953904Y-64357142D01*
X45953904Y-64166666D01*
X45915809Y-64090476D01*
X45877714Y-64052380D01*
X42048175Y-62331545D02*
X42048175Y-62826783D01*
X42352937Y-62560116D01*
X42352937Y-62674402D01*
X42391032Y-62750592D01*
X42429128Y-62788688D01*
X42505318Y-62826783D01*
X42695794Y-62826783D01*
X42771985Y-62788688D01*
X42810080Y-62750592D01*
X42848175Y-62674402D01*
X42848175Y-62445830D01*
X42810080Y-62369640D01*
X42771985Y-62331545D01*
X42771985Y-63169640D02*
X42810080Y-63207735D01*
X42848175Y-63169640D01*
X42810080Y-63131545D01*
X42771985Y-63169640D01*
X42848175Y-63169640D01*
X42048175Y-63474402D02*
X42048175Y-63969640D01*
X42352937Y-63702973D01*
X42352937Y-63817259D01*
X42391032Y-63893450D01*
X42429128Y-63931545D01*
X42505318Y-63969640D01*
X42695794Y-63969640D01*
X42771985Y-63931545D01*
X42810080Y-63893450D01*
X42848175Y-63817259D01*
X42848175Y-63588688D01*
X42810080Y-63512497D01*
X42771985Y-63474402D01*
X42848175Y-64312497D02*
X42048175Y-64312497D01*
X42543413Y-64388688D02*
X42848175Y-64617259D01*
X42314842Y-64617259D02*
X42619604Y-64312497D01*
%TO.C,R26*%
X85069904Y-64001714D02*
X84688952Y-63735047D01*
X85069904Y-63544571D02*
X84269904Y-63544571D01*
X84269904Y-63849333D01*
X84308000Y-63925523D01*
X84346095Y-63963619D01*
X84422285Y-64001714D01*
X84536571Y-64001714D01*
X84612761Y-63963619D01*
X84650857Y-63925523D01*
X84688952Y-63849333D01*
X84688952Y-63544571D01*
X84346095Y-64306476D02*
X84308000Y-64344571D01*
X84269904Y-64420761D01*
X84269904Y-64611238D01*
X84308000Y-64687428D01*
X84346095Y-64725523D01*
X84422285Y-64763619D01*
X84498476Y-64763619D01*
X84612761Y-64725523D01*
X85069904Y-64268380D01*
X85069904Y-64763619D01*
X84269904Y-65449333D02*
X84269904Y-65296952D01*
X84308000Y-65220761D01*
X84346095Y-65182666D01*
X84460380Y-65106476D01*
X84612761Y-65068380D01*
X84917523Y-65068380D01*
X84993714Y-65106476D01*
X85031809Y-65144571D01*
X85069904Y-65220761D01*
X85069904Y-65373142D01*
X85031809Y-65449333D01*
X84993714Y-65487428D01*
X84917523Y-65525523D01*
X84727047Y-65525523D01*
X84650857Y-65487428D01*
X84612761Y-65449333D01*
X84574666Y-65373142D01*
X84574666Y-65220761D01*
X84612761Y-65144571D01*
X84650857Y-65106476D01*
X84727047Y-65068380D01*
X83153238Y-62591904D02*
X83610380Y-62591904D01*
X83381809Y-62591904D02*
X83381809Y-61791904D01*
X83458000Y-61906190D01*
X83534190Y-61982380D01*
X83610380Y-62020476D01*
X82810380Y-62591904D02*
X82810380Y-61791904D01*
X82734190Y-62287142D02*
X82505619Y-62591904D01*
X82505619Y-62058571D02*
X82810380Y-62363333D01*
%TO.C,R28*%
X66300285Y-70337904D02*
X66566952Y-69956952D01*
X66757428Y-70337904D02*
X66757428Y-69537904D01*
X66452666Y-69537904D01*
X66376476Y-69576000D01*
X66338380Y-69614095D01*
X66300285Y-69690285D01*
X66300285Y-69804571D01*
X66338380Y-69880761D01*
X66376476Y-69918857D01*
X66452666Y-69956952D01*
X66757428Y-69956952D01*
X65995523Y-69614095D02*
X65957428Y-69576000D01*
X65881238Y-69537904D01*
X65690761Y-69537904D01*
X65614571Y-69576000D01*
X65576476Y-69614095D01*
X65538380Y-69690285D01*
X65538380Y-69766476D01*
X65576476Y-69880761D01*
X66033619Y-70337904D01*
X65538380Y-70337904D01*
X65081238Y-69880761D02*
X65157428Y-69842666D01*
X65195523Y-69804571D01*
X65233619Y-69728380D01*
X65233619Y-69690285D01*
X65195523Y-69614095D01*
X65157428Y-69576000D01*
X65081238Y-69537904D01*
X64928857Y-69537904D01*
X64852666Y-69576000D01*
X64814571Y-69614095D01*
X64776476Y-69690285D01*
X64776476Y-69728380D01*
X64814571Y-69804571D01*
X64852666Y-69842666D01*
X64928857Y-69880761D01*
X65081238Y-69880761D01*
X65157428Y-69918857D01*
X65195523Y-69956952D01*
X65233619Y-70033142D01*
X65233619Y-70185523D01*
X65195523Y-70261714D01*
X65157428Y-70299809D01*
X65081238Y-70337904D01*
X64928857Y-70337904D01*
X64852666Y-70299809D01*
X64814571Y-70261714D01*
X64776476Y-70185523D01*
X64776476Y-70033142D01*
X64814571Y-69956952D01*
X64852666Y-69918857D01*
X64928857Y-69880761D01*
X66262190Y-67037904D02*
X66719333Y-67037904D01*
X66490761Y-67037904D02*
X66490761Y-66237904D01*
X66566952Y-66352190D01*
X66643142Y-66428380D01*
X66719333Y-66466476D01*
X65766952Y-66237904D02*
X65690761Y-66237904D01*
X65614571Y-66276000D01*
X65576476Y-66314095D01*
X65538380Y-66390285D01*
X65500285Y-66542666D01*
X65500285Y-66733142D01*
X65538380Y-66885523D01*
X65576476Y-66961714D01*
X65614571Y-66999809D01*
X65690761Y-67037904D01*
X65766952Y-67037904D01*
X65843142Y-66999809D01*
X65881238Y-66961714D01*
X65919333Y-66885523D01*
X65957428Y-66733142D01*
X65957428Y-66542666D01*
X65919333Y-66390285D01*
X65881238Y-66314095D01*
X65843142Y-66276000D01*
X65766952Y-66237904D01*
X65157428Y-67037904D02*
X65157428Y-66237904D01*
X65081238Y-66733142D02*
X64852666Y-67037904D01*
X64852666Y-66504571D02*
X65157428Y-66809333D01*
%TO.C,J1*%
X17792666Y-23183904D02*
X17792666Y-23755333D01*
X17830761Y-23869619D01*
X17906952Y-23945809D01*
X18021238Y-23983904D01*
X18097428Y-23983904D01*
X16992666Y-23983904D02*
X17449809Y-23983904D01*
X17221238Y-23983904D02*
X17221238Y-23183904D01*
X17297428Y-23298190D01*
X17373619Y-23374380D01*
X17449809Y-23412476D01*
D12*
%TO.C,R18*%
X70839064Y-87149000D02*
X70384936Y-87149000D01*
X70839064Y-88619000D02*
X70384936Y-88619000D01*
%TO.C,R19*%
X70942564Y-81253000D02*
X70488436Y-81253000D01*
X70942564Y-79783000D02*
X70488436Y-79783000D01*
%TO.C,C23*%
X70416748Y-83285000D02*
X70939252Y-83285000D01*
X70416748Y-81815000D02*
X70939252Y-81815000D01*
%TO.C,C22*%
X70350748Y-86333000D02*
X70873252Y-86333000D01*
X70350748Y-84863000D02*
X70873252Y-84863000D01*
%TO.C,S3*%
X100482000Y-31802000D02*
X100482000Y-25602000D01*
X94082000Y-25602000D02*
X100482000Y-25602000D01*
X94082000Y-31802000D02*
X100482000Y-31802000D01*
X94082000Y-31802000D02*
X94082000Y-25602000D01*
X94742000Y-31369000D02*
G75*
G03*
X94742000Y-31369000I-254000J0D01*
G01*
X100330000Y-31369000D02*
G75*
G03*
X100330000Y-31369000I-254000J0D01*
G01*
X100330000Y-26035000D02*
G75*
G03*
X100330000Y-26035000I-254000J0D01*
G01*
X98552000Y-28702000D02*
G75*
G03*
X98552000Y-28702000I-1270000J0D01*
G01*
X94742000Y-26035000D02*
G75*
G03*
X94742000Y-26035000I-254000J0D01*
G01*
%TO.C,R20*%
X46709000Y-28832436D02*
X46709000Y-29286564D01*
X45239000Y-28832436D02*
X45239000Y-29286564D01*
%TO.C,R29*%
X86333064Y-24665000D02*
X85878936Y-24665000D01*
X86333064Y-26135000D02*
X85878936Y-26135000D01*
%TO.C,C26*%
X34063000Y-25392748D02*
X34063000Y-25915252D01*
X35533000Y-25392748D02*
X35533000Y-25915252D01*
D13*
%TO.C,C11*%
X104335000Y-60334000D02*
X107560000Y-60334000D01*
X102210000Y-64634000D02*
X107560000Y-64634000D01*
%TO.C,C14*%
X33741995Y-64888000D02*
X30516995Y-64888000D01*
X35866995Y-60588000D02*
X30516995Y-60588000D01*
D12*
%TO.C,C15*%
X24879000Y-61460748D02*
X24879000Y-61983252D01*
X26349000Y-61460748D02*
X26349000Y-61983252D01*
%TO.C,C16*%
X22626500Y-61460748D02*
X22626500Y-61983252D01*
X24096500Y-61460748D02*
X24096500Y-61983252D01*
%TO.C,R11*%
X27101500Y-61494936D02*
X27101500Y-61949064D01*
X28571500Y-61494936D02*
X28571500Y-61949064D01*
%TO.C,R7*%
X99595000Y-61494936D02*
X99595000Y-61949064D01*
X101065000Y-61494936D02*
X101065000Y-61949064D01*
%TO.C,R12*%
X19681500Y-61494936D02*
X19681500Y-61949064D01*
X18211500Y-61494936D02*
X18211500Y-61949064D01*
%TO.C,R13*%
X21874000Y-61494936D02*
X21874000Y-61949064D01*
X20404000Y-61494936D02*
X20404000Y-61949064D01*
%TO.C,R25*%
X43207000Y-63727064D02*
X43207000Y-63272936D01*
X44677000Y-63727064D02*
X44677000Y-63272936D01*
%TO.C,R26*%
X82323000Y-64743064D02*
X82323000Y-64288936D01*
X83793000Y-64743064D02*
X83793000Y-64288936D01*
%TO.C,R28*%
X65558936Y-67591000D02*
X66013064Y-67591000D01*
X65558936Y-69061000D02*
X66013064Y-69061000D01*
D10*
%TO.C,J1*%
X27429800Y-37850300D02*
X27429800Y-35350300D01*
X15429800Y-28850300D02*
X12929800Y-28850300D01*
X12929800Y-28850300D02*
X12929800Y-37850300D01*
X27429800Y-30350300D02*
X27429800Y-28850300D01*
D13*
X19694800Y-42923300D02*
X19694800Y-42923300D01*
D10*
X12929800Y-37850300D02*
X27429800Y-37850300D01*
X27429800Y-28850300D02*
X23429800Y-28850300D01*
D13*
X19694800Y-43123300D02*
X19694800Y-43123300D01*
X19694800Y-42923300D02*
G75*
G03*
X19694800Y-43123300I0J-100000D01*
G01*
X19694800Y-43123300D02*
G75*
G03*
X19694800Y-42923300I0J100000D01*
G01*
%TD*%
M02*
