%TF.GenerationSoftware,KiCad,Pcbnew,(6.0.0)*%
%TF.CreationDate,2022-01-14T09:31:31+02:00*%
%TF.ProjectId,uSDX_SMD,75534458-5f53-44d4-942e-6b696361645f,rev?*%
%TF.SameCoordinates,Original*%
%TF.FileFunction,Legend,Top*%
%TF.FilePolarity,Positive*%
%FSLAX46Y46*%
G04 Gerber Fmt 4.6, Leading zero omitted, Abs format (unit mm)*
G04 Created by KiCad (PCBNEW (6.0.0)) date 2022-01-14 09:31:31*
%MOMM*%
%LPD*%
G01*
G04 APERTURE LIST*
%ADD10C,0.100000*%
%ADD11C,0.254000*%
%ADD12C,0.120000*%
%ADD13C,0.200000*%
%ADD14C,0.050000*%
%ADD15C,0.850000*%
%ADD16C,2.900000*%
%ADD17C,3.000000*%
%ADD18R,1.950000X1.950000*%
%ADD19C,1.950000*%
%ADD20R,1.500000X1.500000*%
%ADD21C,1.500000*%
%ADD22C,5.000000*%
G04 APERTURE END LIST*
D10*
%TO.C,C2*%
X84194666Y-88833714D02*
X84156571Y-88871809D01*
X84042285Y-88909904D01*
X83966095Y-88909904D01*
X83851809Y-88871809D01*
X83775619Y-88795619D01*
X83737523Y-88719428D01*
X83699428Y-88567047D01*
X83699428Y-88452761D01*
X83737523Y-88300380D01*
X83775619Y-88224190D01*
X83851809Y-88148000D01*
X83966095Y-88109904D01*
X84042285Y-88109904D01*
X84156571Y-88148000D01*
X84194666Y-88186095D01*
X84499428Y-88186095D02*
X84537523Y-88148000D01*
X84613714Y-88109904D01*
X84804190Y-88109904D01*
X84880380Y-88148000D01*
X84918476Y-88186095D01*
X84956571Y-88262285D01*
X84956571Y-88338476D01*
X84918476Y-88452761D01*
X84461333Y-88909904D01*
X84956571Y-88909904D01*
X82419904Y-90232261D02*
X82419904Y-90689404D01*
X82419904Y-90460833D02*
X81619904Y-90460833D01*
X81734190Y-90537023D01*
X81810380Y-90613214D01*
X81848476Y-90689404D01*
X81619904Y-89737023D02*
X81619904Y-89660833D01*
X81658000Y-89584642D01*
X81696095Y-89546547D01*
X81772285Y-89508452D01*
X81924666Y-89470357D01*
X82115142Y-89470357D01*
X82267523Y-89508452D01*
X82343714Y-89546547D01*
X82381809Y-89584642D01*
X82419904Y-89660833D01*
X82419904Y-89737023D01*
X82381809Y-89813214D01*
X82343714Y-89851309D01*
X82267523Y-89889404D01*
X82115142Y-89927499D01*
X81924666Y-89927499D01*
X81772285Y-89889404D01*
X81696095Y-89851309D01*
X81658000Y-89813214D01*
X81619904Y-89737023D01*
X81886571Y-89127499D02*
X82419904Y-89127499D01*
X81962761Y-89127499D02*
X81924666Y-89089404D01*
X81886571Y-89013214D01*
X81886571Y-88898928D01*
X81924666Y-88822738D01*
X82000857Y-88784642D01*
X82419904Y-88784642D01*
X82000857Y-88137023D02*
X82000857Y-88403690D01*
X82419904Y-88403690D02*
X81619904Y-88403690D01*
X81619904Y-88022738D01*
%TO.C,C5*%
X86899714Y-91065333D02*
X86937809Y-91103428D01*
X86975904Y-91217714D01*
X86975904Y-91293904D01*
X86937809Y-91408190D01*
X86861619Y-91484380D01*
X86785428Y-91522476D01*
X86633047Y-91560571D01*
X86518761Y-91560571D01*
X86366380Y-91522476D01*
X86290190Y-91484380D01*
X86214000Y-91408190D01*
X86175904Y-91293904D01*
X86175904Y-91217714D01*
X86214000Y-91103428D01*
X86252095Y-91065333D01*
X86175904Y-90341523D02*
X86175904Y-90722476D01*
X86556857Y-90760571D01*
X86518761Y-90722476D01*
X86480666Y-90646285D01*
X86480666Y-90455809D01*
X86518761Y-90379619D01*
X86556857Y-90341523D01*
X86633047Y-90303428D01*
X86823523Y-90303428D01*
X86899714Y-90341523D01*
X86937809Y-90379619D01*
X86975904Y-90455809D01*
X86975904Y-90646285D01*
X86937809Y-90722476D01*
X86899714Y-90760571D01*
%TO.C,C7*%
X94929714Y-83953333D02*
X94967809Y-83991428D01*
X95005904Y-84105714D01*
X95005904Y-84181904D01*
X94967809Y-84296190D01*
X94891619Y-84372380D01*
X94815428Y-84410476D01*
X94663047Y-84448571D01*
X94548761Y-84448571D01*
X94396380Y-84410476D01*
X94320190Y-84372380D01*
X94244000Y-84296190D01*
X94205904Y-84181904D01*
X94205904Y-84105714D01*
X94244000Y-83991428D01*
X94282095Y-83953333D01*
X94205904Y-83686666D02*
X94205904Y-83153333D01*
X95005904Y-83496190D01*
X91645904Y-84931142D02*
X91645904Y-85388285D01*
X91645904Y-85159714D02*
X90845904Y-85159714D01*
X90960190Y-85235904D01*
X91036380Y-85312095D01*
X91074476Y-85388285D01*
X90845904Y-84435904D02*
X90845904Y-84359714D01*
X90884000Y-84283523D01*
X90922095Y-84245428D01*
X90998285Y-84207333D01*
X91150666Y-84169238D01*
X91341142Y-84169238D01*
X91493523Y-84207333D01*
X91569714Y-84245428D01*
X91607809Y-84283523D01*
X91645904Y-84359714D01*
X91645904Y-84435904D01*
X91607809Y-84512095D01*
X91569714Y-84550190D01*
X91493523Y-84588285D01*
X91341142Y-84626380D01*
X91150666Y-84626380D01*
X90998285Y-84588285D01*
X90922095Y-84550190D01*
X90884000Y-84512095D01*
X90845904Y-84435904D01*
X91112571Y-83826380D02*
X91645904Y-83826380D01*
X91188761Y-83826380D02*
X91150666Y-83788285D01*
X91112571Y-83712095D01*
X91112571Y-83597809D01*
X91150666Y-83521619D01*
X91226857Y-83483523D01*
X91645904Y-83483523D01*
X91226857Y-82835904D02*
X91226857Y-83102571D01*
X91645904Y-83102571D02*
X90845904Y-83102571D01*
X90845904Y-82721619D01*
%TO.C,C8*%
X49053714Y-89033333D02*
X49091809Y-89071428D01*
X49129904Y-89185714D01*
X49129904Y-89261904D01*
X49091809Y-89376190D01*
X49015619Y-89452380D01*
X48939428Y-89490476D01*
X48787047Y-89528571D01*
X48672761Y-89528571D01*
X48520380Y-89490476D01*
X48444190Y-89452380D01*
X48368000Y-89376190D01*
X48329904Y-89261904D01*
X48329904Y-89185714D01*
X48368000Y-89071428D01*
X48406095Y-89033333D01*
X48672761Y-88576190D02*
X48634666Y-88652380D01*
X48596571Y-88690476D01*
X48520380Y-88728571D01*
X48482285Y-88728571D01*
X48406095Y-88690476D01*
X48368000Y-88652380D01*
X48329904Y-88576190D01*
X48329904Y-88423809D01*
X48368000Y-88347619D01*
X48406095Y-88309523D01*
X48482285Y-88271428D01*
X48520380Y-88271428D01*
X48596571Y-88309523D01*
X48634666Y-88347619D01*
X48672761Y-88423809D01*
X48672761Y-88576190D01*
X48710857Y-88652380D01*
X48748952Y-88690476D01*
X48825142Y-88728571D01*
X48977523Y-88728571D01*
X49053714Y-88690476D01*
X49091809Y-88652380D01*
X49129904Y-88576190D01*
X49129904Y-88423809D01*
X49091809Y-88347619D01*
X49053714Y-88309523D01*
X48977523Y-88271428D01*
X48825142Y-88271428D01*
X48748952Y-88309523D01*
X48710857Y-88347619D01*
X48672761Y-88423809D01*
X50145904Y-89884095D02*
X50145904Y-90341238D01*
X50145904Y-90112666D02*
X49345904Y-90112666D01*
X49460190Y-90188857D01*
X49536380Y-90265047D01*
X49574476Y-90341238D01*
X49345904Y-89388857D02*
X49345904Y-89312666D01*
X49384000Y-89236476D01*
X49422095Y-89198380D01*
X49498285Y-89160285D01*
X49650666Y-89122190D01*
X49841142Y-89122190D01*
X49993523Y-89160285D01*
X50069714Y-89198380D01*
X50107809Y-89236476D01*
X50145904Y-89312666D01*
X50145904Y-89388857D01*
X50107809Y-89465047D01*
X50069714Y-89503142D01*
X49993523Y-89541238D01*
X49841142Y-89579333D01*
X49650666Y-89579333D01*
X49498285Y-89541238D01*
X49422095Y-89503142D01*
X49384000Y-89465047D01*
X49345904Y-89388857D01*
X49345904Y-88626952D02*
X49345904Y-88550761D01*
X49384000Y-88474571D01*
X49422095Y-88436476D01*
X49498285Y-88398380D01*
X49650666Y-88360285D01*
X49841142Y-88360285D01*
X49993523Y-88398380D01*
X50069714Y-88436476D01*
X50107809Y-88474571D01*
X50145904Y-88550761D01*
X50145904Y-88626952D01*
X50107809Y-88703142D01*
X50069714Y-88741238D01*
X49993523Y-88779333D01*
X49841142Y-88817428D01*
X49650666Y-88817428D01*
X49498285Y-88779333D01*
X49422095Y-88741238D01*
X49384000Y-88703142D01*
X49345904Y-88626952D01*
X49612571Y-88017428D02*
X50145904Y-88017428D01*
X49688761Y-88017428D02*
X49650666Y-87979333D01*
X49612571Y-87903142D01*
X49612571Y-87788857D01*
X49650666Y-87712666D01*
X49726857Y-87674571D01*
X50145904Y-87674571D01*
X49726857Y-87026952D02*
X49726857Y-87293619D01*
X50145904Y-87293619D02*
X49345904Y-87293619D01*
X49345904Y-86912666D01*
%TO.C,C10*%
X60991714Y-88652285D02*
X61029809Y-88690380D01*
X61067904Y-88804666D01*
X61067904Y-88880857D01*
X61029809Y-88995142D01*
X60953619Y-89071333D01*
X60877428Y-89109428D01*
X60725047Y-89147523D01*
X60610761Y-89147523D01*
X60458380Y-89109428D01*
X60382190Y-89071333D01*
X60306000Y-88995142D01*
X60267904Y-88880857D01*
X60267904Y-88804666D01*
X60306000Y-88690380D01*
X60344095Y-88652285D01*
X61067904Y-87890380D02*
X61067904Y-88347523D01*
X61067904Y-88118952D02*
X60267904Y-88118952D01*
X60382190Y-88195142D01*
X60458380Y-88271333D01*
X60496476Y-88347523D01*
X60267904Y-87395142D02*
X60267904Y-87318952D01*
X60306000Y-87242761D01*
X60344095Y-87204666D01*
X60420285Y-87166571D01*
X60572666Y-87128476D01*
X60763142Y-87128476D01*
X60915523Y-87166571D01*
X60991714Y-87204666D01*
X61029809Y-87242761D01*
X61067904Y-87318952D01*
X61067904Y-87395142D01*
X61029809Y-87471333D01*
X60991714Y-87509428D01*
X60915523Y-87547523D01*
X60763142Y-87585619D01*
X60572666Y-87585619D01*
X60420285Y-87547523D01*
X60344095Y-87509428D01*
X60306000Y-87471333D01*
X60267904Y-87395142D01*
X59543904Y-89757142D02*
X59543904Y-90214285D01*
X59543904Y-89985714D02*
X58743904Y-89985714D01*
X58858190Y-90061904D01*
X58934380Y-90138095D01*
X58972476Y-90214285D01*
X58743904Y-89261904D02*
X58743904Y-89185714D01*
X58782000Y-89109523D01*
X58820095Y-89071428D01*
X58896285Y-89033333D01*
X59048666Y-88995238D01*
X59239142Y-88995238D01*
X59391523Y-89033333D01*
X59467714Y-89071428D01*
X59505809Y-89109523D01*
X59543904Y-89185714D01*
X59543904Y-89261904D01*
X59505809Y-89338095D01*
X59467714Y-89376190D01*
X59391523Y-89414285D01*
X59239142Y-89452380D01*
X59048666Y-89452380D01*
X58896285Y-89414285D01*
X58820095Y-89376190D01*
X58782000Y-89338095D01*
X58743904Y-89261904D01*
X59010571Y-88652380D02*
X59543904Y-88652380D01*
X59086761Y-88652380D02*
X59048666Y-88614285D01*
X59010571Y-88538095D01*
X59010571Y-88423809D01*
X59048666Y-88347619D01*
X59124857Y-88309523D01*
X59543904Y-88309523D01*
X59124857Y-87661904D02*
X59124857Y-87928571D01*
X59543904Y-87928571D02*
X58743904Y-87928571D01*
X58743904Y-87547619D01*
%TO.C,C12*%
X60385714Y-79574285D02*
X60423809Y-79612380D01*
X60461904Y-79726666D01*
X60461904Y-79802857D01*
X60423809Y-79917142D01*
X60347619Y-79993333D01*
X60271428Y-80031428D01*
X60119047Y-80069523D01*
X60004761Y-80069523D01*
X59852380Y-80031428D01*
X59776190Y-79993333D01*
X59700000Y-79917142D01*
X59661904Y-79802857D01*
X59661904Y-79726666D01*
X59700000Y-79612380D01*
X59738095Y-79574285D01*
X60461904Y-78812380D02*
X60461904Y-79269523D01*
X60461904Y-79040952D02*
X59661904Y-79040952D01*
X59776190Y-79117142D01*
X59852380Y-79193333D01*
X59890476Y-79269523D01*
X59738095Y-78507619D02*
X59700000Y-78469523D01*
X59661904Y-78393333D01*
X59661904Y-78202857D01*
X59700000Y-78126666D01*
X59738095Y-78088571D01*
X59814285Y-78050476D01*
X59890476Y-78050476D01*
X60004761Y-78088571D01*
X60461904Y-78545714D01*
X60461904Y-78050476D01*
X57101904Y-80298095D02*
X57101904Y-80755238D01*
X57101904Y-80526666D02*
X56301904Y-80526666D01*
X56416190Y-80602857D01*
X56492380Y-80679047D01*
X56530476Y-80755238D01*
X56301904Y-79802857D02*
X56301904Y-79726666D01*
X56340000Y-79650476D01*
X56378095Y-79612380D01*
X56454285Y-79574285D01*
X56606666Y-79536190D01*
X56797142Y-79536190D01*
X56949523Y-79574285D01*
X57025714Y-79612380D01*
X57063809Y-79650476D01*
X57101904Y-79726666D01*
X57101904Y-79802857D01*
X57063809Y-79879047D01*
X57025714Y-79917142D01*
X56949523Y-79955238D01*
X56797142Y-79993333D01*
X56606666Y-79993333D01*
X56454285Y-79955238D01*
X56378095Y-79917142D01*
X56340000Y-79879047D01*
X56301904Y-79802857D01*
X56301904Y-79040952D02*
X56301904Y-78964761D01*
X56340000Y-78888571D01*
X56378095Y-78850476D01*
X56454285Y-78812380D01*
X56606666Y-78774285D01*
X56797142Y-78774285D01*
X56949523Y-78812380D01*
X57025714Y-78850476D01*
X57063809Y-78888571D01*
X57101904Y-78964761D01*
X57101904Y-79040952D01*
X57063809Y-79117142D01*
X57025714Y-79155238D01*
X56949523Y-79193333D01*
X56797142Y-79231428D01*
X56606666Y-79231428D01*
X56454285Y-79193333D01*
X56378095Y-79155238D01*
X56340000Y-79117142D01*
X56301904Y-79040952D01*
X56568571Y-78431428D02*
X57101904Y-78431428D01*
X56644761Y-78431428D02*
X56606666Y-78393333D01*
X56568571Y-78317142D01*
X56568571Y-78202857D01*
X56606666Y-78126666D01*
X56682857Y-78088571D01*
X57101904Y-78088571D01*
X56682857Y-77440952D02*
X56682857Y-77707619D01*
X57101904Y-77707619D02*
X56301904Y-77707619D01*
X56301904Y-77326666D01*
%TO.C,C13*%
X106419714Y-100361714D02*
X106381619Y-100399809D01*
X106267333Y-100437904D01*
X106191142Y-100437904D01*
X106076857Y-100399809D01*
X106000666Y-100323619D01*
X105962571Y-100247428D01*
X105924476Y-100095047D01*
X105924476Y-99980761D01*
X105962571Y-99828380D01*
X106000666Y-99752190D01*
X106076857Y-99676000D01*
X106191142Y-99637904D01*
X106267333Y-99637904D01*
X106381619Y-99676000D01*
X106419714Y-99714095D01*
X107181619Y-100437904D02*
X106724476Y-100437904D01*
X106953047Y-100437904D02*
X106953047Y-99637904D01*
X106876857Y-99752190D01*
X106800666Y-99828380D01*
X106724476Y-99866476D01*
X107448285Y-99637904D02*
X107943523Y-99637904D01*
X107676857Y-99942666D01*
X107791142Y-99942666D01*
X107867333Y-99980761D01*
X107905428Y-100018857D01*
X107943523Y-100095047D01*
X107943523Y-100285523D01*
X107905428Y-100361714D01*
X107867333Y-100399809D01*
X107791142Y-100437904D01*
X107562571Y-100437904D01*
X107486380Y-100399809D01*
X107448285Y-100361714D01*
X109073904Y-103219142D02*
X109073904Y-103676285D01*
X109073904Y-103447714D02*
X108273904Y-103447714D01*
X108388190Y-103523904D01*
X108464380Y-103600095D01*
X108502476Y-103676285D01*
X108273904Y-102723904D02*
X108273904Y-102647714D01*
X108312000Y-102571523D01*
X108350095Y-102533428D01*
X108426285Y-102495333D01*
X108578666Y-102457238D01*
X108769142Y-102457238D01*
X108921523Y-102495333D01*
X108997714Y-102533428D01*
X109035809Y-102571523D01*
X109073904Y-102647714D01*
X109073904Y-102723904D01*
X109035809Y-102800095D01*
X108997714Y-102838190D01*
X108921523Y-102876285D01*
X108769142Y-102914380D01*
X108578666Y-102914380D01*
X108426285Y-102876285D01*
X108350095Y-102838190D01*
X108312000Y-102800095D01*
X108273904Y-102723904D01*
X108540571Y-102114380D02*
X109073904Y-102114380D01*
X108616761Y-102114380D02*
X108578666Y-102076285D01*
X108540571Y-102000095D01*
X108540571Y-101885809D01*
X108578666Y-101809619D01*
X108654857Y-101771523D01*
X109073904Y-101771523D01*
X108654857Y-101123904D02*
X108654857Y-101390571D01*
X109073904Y-101390571D02*
X108273904Y-101390571D01*
X108273904Y-101009619D01*
%TO.C,C30*%
X21875714Y-81540285D02*
X21913809Y-81578380D01*
X21951904Y-81692666D01*
X21951904Y-81768857D01*
X21913809Y-81883142D01*
X21837619Y-81959333D01*
X21761428Y-81997428D01*
X21609047Y-82035523D01*
X21494761Y-82035523D01*
X21342380Y-81997428D01*
X21266190Y-81959333D01*
X21190000Y-81883142D01*
X21151904Y-81768857D01*
X21151904Y-81692666D01*
X21190000Y-81578380D01*
X21228095Y-81540285D01*
X21151904Y-81273619D02*
X21151904Y-80778380D01*
X21456666Y-81045047D01*
X21456666Y-80930761D01*
X21494761Y-80854571D01*
X21532857Y-80816476D01*
X21609047Y-80778380D01*
X21799523Y-80778380D01*
X21875714Y-80816476D01*
X21913809Y-80854571D01*
X21951904Y-80930761D01*
X21951904Y-81159333D01*
X21913809Y-81235523D01*
X21875714Y-81273619D01*
X21151904Y-80283142D02*
X21151904Y-80206952D01*
X21190000Y-80130761D01*
X21228095Y-80092666D01*
X21304285Y-80054571D01*
X21456666Y-80016476D01*
X21647142Y-80016476D01*
X21799523Y-80054571D01*
X21875714Y-80092666D01*
X21913809Y-80130761D01*
X21951904Y-80206952D01*
X21951904Y-80283142D01*
X21913809Y-80359333D01*
X21875714Y-80397428D01*
X21799523Y-80435523D01*
X21647142Y-80473619D01*
X21456666Y-80473619D01*
X21304285Y-80435523D01*
X21228095Y-80397428D01*
X21190000Y-80359333D01*
X21151904Y-80283142D01*
X20271904Y-85312095D02*
X20271904Y-85769238D01*
X20271904Y-85540666D02*
X19471904Y-85540666D01*
X19586190Y-85616857D01*
X19662380Y-85693047D01*
X19700476Y-85769238D01*
X19471904Y-84816857D02*
X19471904Y-84740666D01*
X19510000Y-84664476D01*
X19548095Y-84626380D01*
X19624285Y-84588285D01*
X19776666Y-84550190D01*
X19967142Y-84550190D01*
X20119523Y-84588285D01*
X20195714Y-84626380D01*
X20233809Y-84664476D01*
X20271904Y-84740666D01*
X20271904Y-84816857D01*
X20233809Y-84893047D01*
X20195714Y-84931142D01*
X20119523Y-84969238D01*
X19967142Y-85007333D01*
X19776666Y-85007333D01*
X19624285Y-84969238D01*
X19548095Y-84931142D01*
X19510000Y-84893047D01*
X19471904Y-84816857D01*
X19471904Y-84054952D02*
X19471904Y-83978761D01*
X19510000Y-83902571D01*
X19548095Y-83864476D01*
X19624285Y-83826380D01*
X19776666Y-83788285D01*
X19967142Y-83788285D01*
X20119523Y-83826380D01*
X20195714Y-83864476D01*
X20233809Y-83902571D01*
X20271904Y-83978761D01*
X20271904Y-84054952D01*
X20233809Y-84131142D01*
X20195714Y-84169238D01*
X20119523Y-84207333D01*
X19967142Y-84245428D01*
X19776666Y-84245428D01*
X19624285Y-84207333D01*
X19548095Y-84169238D01*
X19510000Y-84131142D01*
X19471904Y-84054952D01*
X19738571Y-83445428D02*
X20271904Y-83445428D01*
X19814761Y-83445428D02*
X19776666Y-83407333D01*
X19738571Y-83331142D01*
X19738571Y-83216857D01*
X19776666Y-83140666D01*
X19852857Y-83102571D01*
X20271904Y-83102571D01*
X19852857Y-82454952D02*
X19852857Y-82721619D01*
X20271904Y-82721619D02*
X19471904Y-82721619D01*
X19471904Y-82340666D01*
%TO.C,IC3*%
X52305047Y-80879904D02*
X52305047Y-80079904D01*
X53143142Y-80803714D02*
X53105047Y-80841809D01*
X52990761Y-80879904D01*
X52914571Y-80879904D01*
X52800285Y-80841809D01*
X52724095Y-80765619D01*
X52686000Y-80689428D01*
X52647904Y-80537047D01*
X52647904Y-80422761D01*
X52686000Y-80270380D01*
X52724095Y-80194190D01*
X52800285Y-80118000D01*
X52914571Y-80079904D01*
X52990761Y-80079904D01*
X53105047Y-80118000D01*
X53143142Y-80156095D01*
X53409809Y-80079904D02*
X53905047Y-80079904D01*
X53638380Y-80384666D01*
X53752666Y-80384666D01*
X53828857Y-80422761D01*
X53866952Y-80460857D01*
X53905047Y-80537047D01*
X53905047Y-80727523D01*
X53866952Y-80803714D01*
X53828857Y-80841809D01*
X53752666Y-80879904D01*
X53524095Y-80879904D01*
X53447904Y-80841809D01*
X53409809Y-80803714D01*
%TO.C,IC4*%
X29953047Y-79609904D02*
X29953047Y-78809904D01*
X30791142Y-79533714D02*
X30753047Y-79571809D01*
X30638761Y-79609904D01*
X30562571Y-79609904D01*
X30448285Y-79571809D01*
X30372095Y-79495619D01*
X30334000Y-79419428D01*
X30295904Y-79267047D01*
X30295904Y-79152761D01*
X30334000Y-79000380D01*
X30372095Y-78924190D01*
X30448285Y-78848000D01*
X30562571Y-78809904D01*
X30638761Y-78809904D01*
X30753047Y-78848000D01*
X30791142Y-78886095D01*
X31476857Y-79076571D02*
X31476857Y-79609904D01*
X31286380Y-78771809D02*
X31095904Y-79343238D01*
X31591142Y-79343238D01*
%TO.C,J2*%
X19799333Y-90239904D02*
X19799333Y-90811333D01*
X19761238Y-90925619D01*
X19685047Y-91001809D01*
X19570761Y-91039904D01*
X19494571Y-91039904D01*
X20142190Y-90316095D02*
X20180285Y-90278000D01*
X20256476Y-90239904D01*
X20446952Y-90239904D01*
X20523142Y-90278000D01*
X20561238Y-90316095D01*
X20599333Y-90392285D01*
X20599333Y-90468476D01*
X20561238Y-90582761D01*
X20104095Y-91039904D01*
X20599333Y-91039904D01*
%TO.C,P1*%
X80689523Y-16617904D02*
X80689523Y-15817904D01*
X80994285Y-15817904D01*
X81070476Y-15856000D01*
X81108571Y-15894095D01*
X81146666Y-15970285D01*
X81146666Y-16084571D01*
X81108571Y-16160761D01*
X81070476Y-16198857D01*
X80994285Y-16236952D01*
X80689523Y-16236952D01*
X81908571Y-16617904D02*
X81451428Y-16617904D01*
X81680000Y-16617904D02*
X81680000Y-15817904D01*
X81603809Y-15932190D01*
X81527619Y-16008380D01*
X81451428Y-16046476D01*
X80365714Y-20418653D02*
X80365714Y-19618653D01*
X80556190Y-19618653D01*
X80670476Y-19656749D01*
X80746666Y-19732939D01*
X80784761Y-19809129D01*
X80822857Y-19961510D01*
X80822857Y-20075796D01*
X80784761Y-20228177D01*
X80746666Y-20304368D01*
X80670476Y-20380558D01*
X80556190Y-20418653D01*
X80365714Y-20418653D01*
X81051428Y-19618653D02*
X81508571Y-19618653D01*
X81280000Y-20418653D02*
X81280000Y-19618653D01*
X82232380Y-20418653D02*
X81965714Y-20037701D01*
X81775238Y-20418653D02*
X81775238Y-19618653D01*
X82080000Y-19618653D01*
X82156190Y-19656749D01*
X82194285Y-19694844D01*
X82232380Y-19771034D01*
X82232380Y-19885320D01*
X82194285Y-19961510D01*
X82156190Y-19999606D01*
X82080000Y-20037701D01*
X81775238Y-20037701D01*
%TO.C,P4*%
X88309523Y-16617904D02*
X88309523Y-15817904D01*
X88614285Y-15817904D01*
X88690476Y-15856000D01*
X88728571Y-15894095D01*
X88766666Y-15970285D01*
X88766666Y-16084571D01*
X88728571Y-16160761D01*
X88690476Y-16198857D01*
X88614285Y-16236952D01*
X88309523Y-16236952D01*
X89452380Y-16084571D02*
X89452380Y-16617904D01*
X89261904Y-15779809D02*
X89071428Y-16351238D01*
X89566666Y-16351238D01*
X88023809Y-19618653D02*
X88290476Y-20418653D01*
X88557142Y-19618653D01*
X88823809Y-20418653D02*
X88823809Y-19618653D01*
X89357142Y-19618653D02*
X89509523Y-19618653D01*
X89585714Y-19656749D01*
X89661904Y-19732939D01*
X89700000Y-19885320D01*
X89700000Y-20151987D01*
X89661904Y-20304368D01*
X89585714Y-20380558D01*
X89509523Y-20418653D01*
X89357142Y-20418653D01*
X89280952Y-20380558D01*
X89204761Y-20304368D01*
X89166666Y-20151987D01*
X89166666Y-19885320D01*
X89204761Y-19732939D01*
X89280952Y-19656749D01*
X89357142Y-19618653D01*
%TO.C,P5*%
X90849523Y-16617904D02*
X90849523Y-15817904D01*
X91154285Y-15817904D01*
X91230476Y-15856000D01*
X91268571Y-15894095D01*
X91306666Y-15970285D01*
X91306666Y-16084571D01*
X91268571Y-16160761D01*
X91230476Y-16198857D01*
X91154285Y-16236952D01*
X90849523Y-16236952D01*
X92030476Y-15817904D02*
X91649523Y-15817904D01*
X91611428Y-16198857D01*
X91649523Y-16160761D01*
X91725714Y-16122666D01*
X91916190Y-16122666D01*
X91992380Y-16160761D01*
X92030476Y-16198857D01*
X92068571Y-16275047D01*
X92068571Y-16465523D01*
X92030476Y-16541714D01*
X91992380Y-16579809D01*
X91916190Y-16617904D01*
X91725714Y-16617904D01*
X91649523Y-16579809D01*
X91611428Y-16541714D01*
X91001904Y-20342463D02*
X90963809Y-20380558D01*
X90849523Y-20418653D01*
X90773333Y-20418653D01*
X90659047Y-20380558D01*
X90582857Y-20304368D01*
X90544761Y-20228177D01*
X90506666Y-20075796D01*
X90506666Y-19961510D01*
X90544761Y-19809129D01*
X90582857Y-19732939D01*
X90659047Y-19656749D01*
X90773333Y-19618653D01*
X90849523Y-19618653D01*
X90963809Y-19656749D01*
X91001904Y-19694844D01*
X91230476Y-19618653D02*
X91687619Y-19618653D01*
X91459047Y-20418653D02*
X91459047Y-19618653D01*
X91916190Y-20380558D02*
X92030476Y-20418653D01*
X92220952Y-20418653D01*
X92297142Y-20380558D01*
X92335238Y-20342463D01*
X92373333Y-20266272D01*
X92373333Y-20190082D01*
X92335238Y-20113891D01*
X92297142Y-20075796D01*
X92220952Y-20037701D01*
X92068571Y-19999606D01*
X91992380Y-19961510D01*
X91954285Y-19923415D01*
X91916190Y-19847225D01*
X91916190Y-19771034D01*
X91954285Y-19694844D01*
X91992380Y-19656749D01*
X92068571Y-19618653D01*
X92259047Y-19618653D01*
X92373333Y-19656749D01*
%TO.C,P6*%
X93389523Y-16617904D02*
X93389523Y-15817904D01*
X93694285Y-15817904D01*
X93770476Y-15856000D01*
X93808571Y-15894095D01*
X93846666Y-15970285D01*
X93846666Y-16084571D01*
X93808571Y-16160761D01*
X93770476Y-16198857D01*
X93694285Y-16236952D01*
X93389523Y-16236952D01*
X94532380Y-15817904D02*
X94380000Y-15817904D01*
X94303809Y-15856000D01*
X94265714Y-15894095D01*
X94189523Y-16008380D01*
X94151428Y-16160761D01*
X94151428Y-16465523D01*
X94189523Y-16541714D01*
X94227619Y-16579809D01*
X94303809Y-16617904D01*
X94456190Y-16617904D01*
X94532380Y-16579809D01*
X94570476Y-16541714D01*
X94608571Y-16465523D01*
X94608571Y-16275047D01*
X94570476Y-16198857D01*
X94532380Y-16160761D01*
X94456190Y-16122666D01*
X94303809Y-16122666D01*
X94227619Y-16160761D01*
X94189523Y-16198857D01*
X94151428Y-16275047D01*
X93370476Y-19656749D02*
X93294285Y-19618653D01*
X93180000Y-19618653D01*
X93065714Y-19656749D01*
X92989523Y-19732939D01*
X92951428Y-19809129D01*
X92913333Y-19961510D01*
X92913333Y-20075796D01*
X92951428Y-20228177D01*
X92989523Y-20304368D01*
X93065714Y-20380558D01*
X93180000Y-20418653D01*
X93256190Y-20418653D01*
X93370476Y-20380558D01*
X93408571Y-20342463D01*
X93408571Y-20075796D01*
X93256190Y-20075796D01*
X93751428Y-20418653D02*
X93751428Y-19618653D01*
X94208571Y-20418653D01*
X94208571Y-19618653D01*
X94589523Y-20418653D02*
X94589523Y-19618653D01*
X94780000Y-19618653D01*
X94894285Y-19656749D01*
X94970476Y-19732939D01*
X95008571Y-19809129D01*
X95046666Y-19961510D01*
X95046666Y-20075796D01*
X95008571Y-20228177D01*
X94970476Y-20304368D01*
X94894285Y-20380558D01*
X94780000Y-20418653D01*
X94589523Y-20418653D01*
%TO.C,Q1*%
X87553809Y-81460095D02*
X87477619Y-81422000D01*
X87401428Y-81345809D01*
X87287142Y-81231523D01*
X87210952Y-81193428D01*
X87134761Y-81193428D01*
X87172857Y-81383904D02*
X87096666Y-81345809D01*
X87020476Y-81269619D01*
X86982380Y-81117238D01*
X86982380Y-80850571D01*
X87020476Y-80698190D01*
X87096666Y-80622000D01*
X87172857Y-80583904D01*
X87325238Y-80583904D01*
X87401428Y-80622000D01*
X87477619Y-80698190D01*
X87515714Y-80850571D01*
X87515714Y-81117238D01*
X87477619Y-81269619D01*
X87401428Y-81345809D01*
X87325238Y-81383904D01*
X87172857Y-81383904D01*
X88277619Y-81383904D02*
X87820476Y-81383904D01*
X88049047Y-81383904D02*
X88049047Y-80583904D01*
X87972857Y-80698190D01*
X87896666Y-80774380D01*
X87820476Y-80812476D01*
%TO.C,Q2*%
X104328095Y-88214190D02*
X104290000Y-88290380D01*
X104213809Y-88366571D01*
X104099523Y-88480857D01*
X104061428Y-88557047D01*
X104061428Y-88633238D01*
X104251904Y-88595142D02*
X104213809Y-88671333D01*
X104137619Y-88747523D01*
X103985238Y-88785619D01*
X103718571Y-88785619D01*
X103566190Y-88747523D01*
X103490000Y-88671333D01*
X103451904Y-88595142D01*
X103451904Y-88442761D01*
X103490000Y-88366571D01*
X103566190Y-88290380D01*
X103718571Y-88252285D01*
X103985238Y-88252285D01*
X104137619Y-88290380D01*
X104213809Y-88366571D01*
X104251904Y-88442761D01*
X104251904Y-88595142D01*
X103528095Y-87947523D02*
X103490000Y-87909428D01*
X103451904Y-87833238D01*
X103451904Y-87642761D01*
X103490000Y-87566571D01*
X103528095Y-87528476D01*
X103604285Y-87490380D01*
X103680476Y-87490380D01*
X103794761Y-87528476D01*
X104251904Y-87985619D01*
X104251904Y-87490380D01*
%TO.C,Q3*%
X104328095Y-94056190D02*
X104290000Y-94132380D01*
X104213809Y-94208571D01*
X104099523Y-94322857D01*
X104061428Y-94399047D01*
X104061428Y-94475238D01*
X104251904Y-94437142D02*
X104213809Y-94513333D01*
X104137619Y-94589523D01*
X103985238Y-94627619D01*
X103718571Y-94627619D01*
X103566190Y-94589523D01*
X103490000Y-94513333D01*
X103451904Y-94437142D01*
X103451904Y-94284761D01*
X103490000Y-94208571D01*
X103566190Y-94132380D01*
X103718571Y-94094285D01*
X103985238Y-94094285D01*
X104137619Y-94132380D01*
X104213809Y-94208571D01*
X104251904Y-94284761D01*
X104251904Y-94437142D01*
X103451904Y-93827619D02*
X103451904Y-93332380D01*
X103756666Y-93599047D01*
X103756666Y-93484761D01*
X103794761Y-93408571D01*
X103832857Y-93370476D01*
X103909047Y-93332380D01*
X104099523Y-93332380D01*
X104175714Y-93370476D01*
X104213809Y-93408571D01*
X104251904Y-93484761D01*
X104251904Y-93713333D01*
X104213809Y-93789523D01*
X104175714Y-93827619D01*
%TO.C,Q4*%
X104070095Y-97612190D02*
X104032000Y-97688380D01*
X103955809Y-97764571D01*
X103841523Y-97878857D01*
X103803428Y-97955047D01*
X103803428Y-98031238D01*
X103993904Y-97993142D02*
X103955809Y-98069333D01*
X103879619Y-98145523D01*
X103727238Y-98183619D01*
X103460571Y-98183619D01*
X103308190Y-98145523D01*
X103232000Y-98069333D01*
X103193904Y-97993142D01*
X103193904Y-97840761D01*
X103232000Y-97764571D01*
X103308190Y-97688380D01*
X103460571Y-97650285D01*
X103727238Y-97650285D01*
X103879619Y-97688380D01*
X103955809Y-97764571D01*
X103993904Y-97840761D01*
X103993904Y-97993142D01*
X103460571Y-96964571D02*
X103993904Y-96964571D01*
X103155809Y-97155047D02*
X103727238Y-97345523D01*
X103727238Y-96850285D01*
%TO.C,Q5*%
X97928095Y-105740190D02*
X97890000Y-105816380D01*
X97813809Y-105892571D01*
X97699523Y-106006857D01*
X97661428Y-106083047D01*
X97661428Y-106159238D01*
X97851904Y-106121142D02*
X97813809Y-106197333D01*
X97737619Y-106273523D01*
X97585238Y-106311619D01*
X97318571Y-106311619D01*
X97166190Y-106273523D01*
X97090000Y-106197333D01*
X97051904Y-106121142D01*
X97051904Y-105968761D01*
X97090000Y-105892571D01*
X97166190Y-105816380D01*
X97318571Y-105778285D01*
X97585238Y-105778285D01*
X97737619Y-105816380D01*
X97813809Y-105892571D01*
X97851904Y-105968761D01*
X97851904Y-106121142D01*
X97051904Y-105054476D02*
X97051904Y-105435428D01*
X97432857Y-105473523D01*
X97394761Y-105435428D01*
X97356666Y-105359238D01*
X97356666Y-105168761D01*
X97394761Y-105092571D01*
X97432857Y-105054476D01*
X97509047Y-105016380D01*
X97699523Y-105016380D01*
X97775714Y-105054476D01*
X97813809Y-105092571D01*
X97851904Y-105168761D01*
X97851904Y-105359238D01*
X97813809Y-105435428D01*
X97775714Y-105473523D01*
%TO.C,R3*%
X81400666Y-83419904D02*
X81134000Y-83038952D01*
X80943523Y-83419904D02*
X80943523Y-82619904D01*
X81248285Y-82619904D01*
X81324476Y-82658000D01*
X81362571Y-82696095D01*
X81400666Y-82772285D01*
X81400666Y-82886571D01*
X81362571Y-82962761D01*
X81324476Y-83000857D01*
X81248285Y-83038952D01*
X80943523Y-83038952D01*
X81667333Y-82619904D02*
X82162571Y-82619904D01*
X81895904Y-82924666D01*
X82010190Y-82924666D01*
X82086380Y-82962761D01*
X82124476Y-83000857D01*
X82162571Y-83077047D01*
X82162571Y-83267523D01*
X82124476Y-83343714D01*
X82086380Y-83381809D01*
X82010190Y-83419904D01*
X81781619Y-83419904D01*
X81705428Y-83381809D01*
X81667333Y-83343714D01*
X83724761Y-83293904D02*
X83267619Y-83293904D01*
X83496190Y-83293904D02*
X83496190Y-82493904D01*
X83420000Y-82608190D01*
X83343809Y-82684380D01*
X83267619Y-82722476D01*
X84067619Y-83293904D02*
X84067619Y-82493904D01*
X84143809Y-82989142D02*
X84372380Y-83293904D01*
X84372380Y-82760571D02*
X84067619Y-83065333D01*
%TO.C,R4*%
X52190666Y-93833904D02*
X51924000Y-93452952D01*
X51733523Y-93833904D02*
X51733523Y-93033904D01*
X52038285Y-93033904D01*
X52114476Y-93072000D01*
X52152571Y-93110095D01*
X52190666Y-93186285D01*
X52190666Y-93300571D01*
X52152571Y-93376761D01*
X52114476Y-93414857D01*
X52038285Y-93452952D01*
X51733523Y-93452952D01*
X52876380Y-93300571D02*
X52876380Y-93833904D01*
X52685904Y-92995809D02*
X52495428Y-93567238D01*
X52990666Y-93567238D01*
X54133809Y-93705904D02*
X53676666Y-93705904D01*
X53905238Y-93705904D02*
X53905238Y-92905904D01*
X53829047Y-93020190D01*
X53752857Y-93096380D01*
X53676666Y-93134476D01*
X54629047Y-92905904D02*
X54705238Y-92905904D01*
X54781428Y-92944000D01*
X54819523Y-92982095D01*
X54857619Y-93058285D01*
X54895714Y-93210666D01*
X54895714Y-93401142D01*
X54857619Y-93553523D01*
X54819523Y-93629714D01*
X54781428Y-93667809D01*
X54705238Y-93705904D01*
X54629047Y-93705904D01*
X54552857Y-93667809D01*
X54514761Y-93629714D01*
X54476666Y-93553523D01*
X54438571Y-93401142D01*
X54438571Y-93210666D01*
X54476666Y-93058285D01*
X54514761Y-92982095D01*
X54552857Y-92944000D01*
X54629047Y-92905904D01*
X55238571Y-93705904D02*
X55238571Y-92905904D01*
X55314761Y-93401142D02*
X55543333Y-93705904D01*
X55543333Y-93172571D02*
X55238571Y-93477333D01*
%TO.C,R5*%
X51415904Y-91573333D02*
X51034952Y-91840000D01*
X51415904Y-92030476D02*
X50615904Y-92030476D01*
X50615904Y-91725714D01*
X50654000Y-91649523D01*
X50692095Y-91611428D01*
X50768285Y-91573333D01*
X50882571Y-91573333D01*
X50958761Y-91611428D01*
X50996857Y-91649523D01*
X51034952Y-91725714D01*
X51034952Y-92030476D01*
X50615904Y-90849523D02*
X50615904Y-91230476D01*
X50996857Y-91268571D01*
X50958761Y-91230476D01*
X50920666Y-91154285D01*
X50920666Y-90963809D01*
X50958761Y-90887619D01*
X50996857Y-90849523D01*
X51073047Y-90811428D01*
X51263523Y-90811428D01*
X51339714Y-90849523D01*
X51377809Y-90887619D01*
X51415904Y-90963809D01*
X51415904Y-91154285D01*
X51377809Y-91230476D01*
X51339714Y-91268571D01*
%TO.C,R6*%
X55987904Y-91319333D02*
X55606952Y-91586000D01*
X55987904Y-91776476D02*
X55187904Y-91776476D01*
X55187904Y-91471714D01*
X55226000Y-91395523D01*
X55264095Y-91357428D01*
X55340285Y-91319333D01*
X55454571Y-91319333D01*
X55530761Y-91357428D01*
X55568857Y-91395523D01*
X55606952Y-91471714D01*
X55606952Y-91776476D01*
X55187904Y-90633619D02*
X55187904Y-90786000D01*
X55226000Y-90862190D01*
X55264095Y-90900285D01*
X55378380Y-90976476D01*
X55530761Y-91014571D01*
X55835523Y-91014571D01*
X55911714Y-90976476D01*
X55949809Y-90938380D01*
X55987904Y-90862190D01*
X55987904Y-90709809D01*
X55949809Y-90633619D01*
X55911714Y-90595523D01*
X55835523Y-90557428D01*
X55645047Y-90557428D01*
X55568857Y-90595523D01*
X55530761Y-90633619D01*
X55492666Y-90709809D01*
X55492666Y-90862190D01*
X55530761Y-90938380D01*
X55568857Y-90976476D01*
X55645047Y-91014571D01*
%TO.C,R8*%
X106189166Y-95991904D02*
X105922500Y-95610952D01*
X105732023Y-95991904D02*
X105732023Y-95191904D01*
X106036785Y-95191904D01*
X106112976Y-95230000D01*
X106151071Y-95268095D01*
X106189166Y-95344285D01*
X106189166Y-95458571D01*
X106151071Y-95534761D01*
X106112976Y-95572857D01*
X106036785Y-95610952D01*
X105732023Y-95610952D01*
X106646309Y-95534761D02*
X106570119Y-95496666D01*
X106532023Y-95458571D01*
X106493928Y-95382380D01*
X106493928Y-95344285D01*
X106532023Y-95268095D01*
X106570119Y-95230000D01*
X106646309Y-95191904D01*
X106798690Y-95191904D01*
X106874880Y-95230000D01*
X106912976Y-95268095D01*
X106951071Y-95344285D01*
X106951071Y-95382380D01*
X106912976Y-95458571D01*
X106874880Y-95496666D01*
X106798690Y-95534761D01*
X106646309Y-95534761D01*
X106570119Y-95572857D01*
X106532023Y-95610952D01*
X106493928Y-95687142D01*
X106493928Y-95839523D01*
X106532023Y-95915714D01*
X106570119Y-95953809D01*
X106646309Y-95991904D01*
X106798690Y-95991904D01*
X106874880Y-95953809D01*
X106912976Y-95915714D01*
X106951071Y-95839523D01*
X106951071Y-95687142D01*
X106912976Y-95610952D01*
X106874880Y-95572857D01*
X106798690Y-95534761D01*
X105465357Y-92691904D02*
X105008214Y-92691904D01*
X105236785Y-92691904D02*
X105236785Y-91891904D01*
X105160595Y-92006190D01*
X105084404Y-92082380D01*
X105008214Y-92120476D01*
X105960595Y-91891904D02*
X106036785Y-91891904D01*
X106112976Y-91930000D01*
X106151071Y-91968095D01*
X106189166Y-92044285D01*
X106227261Y-92196666D01*
X106227261Y-92387142D01*
X106189166Y-92539523D01*
X106151071Y-92615714D01*
X106112976Y-92653809D01*
X106036785Y-92691904D01*
X105960595Y-92691904D01*
X105884404Y-92653809D01*
X105846309Y-92615714D01*
X105808214Y-92539523D01*
X105770119Y-92387142D01*
X105770119Y-92196666D01*
X105808214Y-92044285D01*
X105846309Y-91968095D01*
X105884404Y-91930000D01*
X105960595Y-91891904D01*
X106722500Y-91891904D02*
X106798690Y-91891904D01*
X106874880Y-91930000D01*
X106912976Y-91968095D01*
X106951071Y-92044285D01*
X106989166Y-92196666D01*
X106989166Y-92387142D01*
X106951071Y-92539523D01*
X106912976Y-92615714D01*
X106874880Y-92653809D01*
X106798690Y-92691904D01*
X106722500Y-92691904D01*
X106646309Y-92653809D01*
X106608214Y-92615714D01*
X106570119Y-92539523D01*
X106532023Y-92387142D01*
X106532023Y-92196666D01*
X106570119Y-92044285D01*
X106608214Y-91968095D01*
X106646309Y-91930000D01*
X106722500Y-91891904D01*
X107332023Y-92691904D02*
X107332023Y-91891904D01*
X107408214Y-92387142D02*
X107636785Y-92691904D01*
X107636785Y-92158571D02*
X107332023Y-92463333D01*
%TO.C,R9*%
X106164666Y-105771904D02*
X105898000Y-105390952D01*
X105707523Y-105771904D02*
X105707523Y-104971904D01*
X106012285Y-104971904D01*
X106088476Y-105010000D01*
X106126571Y-105048095D01*
X106164666Y-105124285D01*
X106164666Y-105238571D01*
X106126571Y-105314761D01*
X106088476Y-105352857D01*
X106012285Y-105390952D01*
X105707523Y-105390952D01*
X106545619Y-105771904D02*
X106698000Y-105771904D01*
X106774190Y-105733809D01*
X106812285Y-105695714D01*
X106888476Y-105581428D01*
X106926571Y-105429047D01*
X106926571Y-105124285D01*
X106888476Y-105048095D01*
X106850380Y-105010000D01*
X106774190Y-104971904D01*
X106621809Y-104971904D01*
X106545619Y-105010000D01*
X106507523Y-105048095D01*
X106469428Y-105124285D01*
X106469428Y-105314761D01*
X106507523Y-105390952D01*
X106545619Y-105429047D01*
X106621809Y-105467142D01*
X106774190Y-105467142D01*
X106850380Y-105429047D01*
X106888476Y-105390952D01*
X106926571Y-105314761D01*
X105949809Y-106787904D02*
X105492666Y-106787904D01*
X105721238Y-106787904D02*
X105721238Y-105987904D01*
X105645047Y-106102190D01*
X105568857Y-106178380D01*
X105492666Y-106216476D01*
X106445047Y-105987904D02*
X106521238Y-105987904D01*
X106597428Y-106026000D01*
X106635523Y-106064095D01*
X106673619Y-106140285D01*
X106711714Y-106292666D01*
X106711714Y-106483142D01*
X106673619Y-106635523D01*
X106635523Y-106711714D01*
X106597428Y-106749809D01*
X106521238Y-106787904D01*
X106445047Y-106787904D01*
X106368857Y-106749809D01*
X106330761Y-106711714D01*
X106292666Y-106635523D01*
X106254571Y-106483142D01*
X106254571Y-106292666D01*
X106292666Y-106140285D01*
X106330761Y-106064095D01*
X106368857Y-106026000D01*
X106445047Y-105987904D01*
X107054571Y-106787904D02*
X107054571Y-105987904D01*
X107130761Y-106483142D02*
X107359333Y-106787904D01*
X107359333Y-106254571D02*
X107054571Y-106559333D01*
%TO.C,R10*%
X105517904Y-98050285D02*
X105136952Y-98316952D01*
X105517904Y-98507428D02*
X104717904Y-98507428D01*
X104717904Y-98202666D01*
X104756000Y-98126476D01*
X104794095Y-98088380D01*
X104870285Y-98050285D01*
X104984571Y-98050285D01*
X105060761Y-98088380D01*
X105098857Y-98126476D01*
X105136952Y-98202666D01*
X105136952Y-98507428D01*
X105517904Y-97288380D02*
X105517904Y-97745523D01*
X105517904Y-97516952D02*
X104717904Y-97516952D01*
X104832190Y-97593142D01*
X104908380Y-97669333D01*
X104946476Y-97745523D01*
X104717904Y-96793142D02*
X104717904Y-96716952D01*
X104756000Y-96640761D01*
X104794095Y-96602666D01*
X104870285Y-96564571D01*
X105022666Y-96526476D01*
X105213142Y-96526476D01*
X105365523Y-96564571D01*
X105441714Y-96602666D01*
X105479809Y-96640761D01*
X105517904Y-96716952D01*
X105517904Y-96793142D01*
X105479809Y-96869333D01*
X105441714Y-96907428D01*
X105365523Y-96945523D01*
X105213142Y-96983619D01*
X105022666Y-96983619D01*
X104870285Y-96945523D01*
X104794095Y-96907428D01*
X104756000Y-96869333D01*
X104717904Y-96793142D01*
X106787904Y-98012190D02*
X106787904Y-98469333D01*
X106787904Y-98240761D02*
X105987904Y-98240761D01*
X106102190Y-98316952D01*
X106178380Y-98393142D01*
X106216476Y-98469333D01*
X105987904Y-97516952D02*
X105987904Y-97440761D01*
X106026000Y-97364571D01*
X106064095Y-97326476D01*
X106140285Y-97288380D01*
X106292666Y-97250285D01*
X106483142Y-97250285D01*
X106635523Y-97288380D01*
X106711714Y-97326476D01*
X106749809Y-97364571D01*
X106787904Y-97440761D01*
X106787904Y-97516952D01*
X106749809Y-97593142D01*
X106711714Y-97631238D01*
X106635523Y-97669333D01*
X106483142Y-97707428D01*
X106292666Y-97707428D01*
X106140285Y-97669333D01*
X106064095Y-97631238D01*
X106026000Y-97593142D01*
X105987904Y-97516952D01*
X106787904Y-96907428D02*
X105987904Y-96907428D01*
X106483142Y-96831238D02*
X106787904Y-96602666D01*
X106254571Y-96602666D02*
X106559333Y-96907428D01*
%TO.C,TP1*%
X42170476Y-98875904D02*
X42627619Y-98875904D01*
X42399047Y-99675904D02*
X42399047Y-98875904D01*
X42894285Y-99675904D02*
X42894285Y-98875904D01*
X43199047Y-98875904D01*
X43275238Y-98914000D01*
X43313333Y-98952095D01*
X43351428Y-99028285D01*
X43351428Y-99142571D01*
X43313333Y-99218761D01*
X43275238Y-99256857D01*
X43199047Y-99294952D01*
X42894285Y-99294952D01*
X44113333Y-99675904D02*
X43656190Y-99675904D01*
X43884761Y-99675904D02*
X43884761Y-98875904D01*
X43808571Y-98990190D01*
X43732380Y-99066380D01*
X43656190Y-99104476D01*
%TO.C,TP2*%
X57416257Y-93287904D02*
X57873400Y-93287904D01*
X57644828Y-94087904D02*
X57644828Y-93287904D01*
X58140066Y-94087904D02*
X58140066Y-93287904D01*
X58444828Y-93287904D01*
X58521019Y-93326000D01*
X58559114Y-93364095D01*
X58597209Y-93440285D01*
X58597209Y-93554571D01*
X58559114Y-93630761D01*
X58521019Y-93668857D01*
X58444828Y-93706952D01*
X58140066Y-93706952D01*
X58901971Y-93364095D02*
X58940066Y-93326000D01*
X59016257Y-93287904D01*
X59206733Y-93287904D01*
X59282923Y-93326000D01*
X59321019Y-93364095D01*
X59359114Y-93440285D01*
X59359114Y-93516476D01*
X59321019Y-93630761D01*
X58863876Y-94087904D01*
X59359114Y-94087904D01*
%TO.C,TP4*%
X99320476Y-81349904D02*
X99777619Y-81349904D01*
X99549047Y-82149904D02*
X99549047Y-81349904D01*
X100044285Y-82149904D02*
X100044285Y-81349904D01*
X100349047Y-81349904D01*
X100425238Y-81388000D01*
X100463333Y-81426095D01*
X100501428Y-81502285D01*
X100501428Y-81616571D01*
X100463333Y-81692761D01*
X100425238Y-81730857D01*
X100349047Y-81768952D01*
X100044285Y-81768952D01*
X101187142Y-81616571D02*
X101187142Y-82149904D01*
X100996666Y-81311809D02*
X100806190Y-81883238D01*
X101301428Y-81883238D01*
%TO.C,TP5*%
X105416476Y-87699904D02*
X105873619Y-87699904D01*
X105645047Y-88499904D02*
X105645047Y-87699904D01*
X106140285Y-88499904D02*
X106140285Y-87699904D01*
X106445047Y-87699904D01*
X106521238Y-87738000D01*
X106559333Y-87776095D01*
X106597428Y-87852285D01*
X106597428Y-87966571D01*
X106559333Y-88042761D01*
X106521238Y-88080857D01*
X106445047Y-88118952D01*
X106140285Y-88118952D01*
X107321238Y-87699904D02*
X106940285Y-87699904D01*
X106902190Y-88080857D01*
X106940285Y-88042761D01*
X107016476Y-88004666D01*
X107206952Y-88004666D01*
X107283142Y-88042761D01*
X107321238Y-88080857D01*
X107359333Y-88157047D01*
X107359333Y-88347523D01*
X107321238Y-88423714D01*
X107283142Y-88461809D01*
X107206952Y-88499904D01*
X107016476Y-88499904D01*
X106940285Y-88461809D01*
X106902190Y-88423714D01*
%TO.C,TP6*%
X33026476Y-92779904D02*
X33483619Y-92779904D01*
X33255047Y-93579904D02*
X33255047Y-92779904D01*
X33750285Y-93579904D02*
X33750285Y-92779904D01*
X34055047Y-92779904D01*
X34131238Y-92818000D01*
X34169333Y-92856095D01*
X34207428Y-92932285D01*
X34207428Y-93046571D01*
X34169333Y-93122761D01*
X34131238Y-93160857D01*
X34055047Y-93198952D01*
X33750285Y-93198952D01*
X34893142Y-92779904D02*
X34740761Y-92779904D01*
X34664571Y-92818000D01*
X34626476Y-92856095D01*
X34550285Y-92970380D01*
X34512190Y-93122761D01*
X34512190Y-93427523D01*
X34550285Y-93503714D01*
X34588380Y-93541809D01*
X34664571Y-93579904D01*
X34816952Y-93579904D01*
X34893142Y-93541809D01*
X34931238Y-93503714D01*
X34969333Y-93427523D01*
X34969333Y-93237047D01*
X34931238Y-93160857D01*
X34893142Y-93122761D01*
X34816952Y-93084666D01*
X34664571Y-93084666D01*
X34588380Y-93122761D01*
X34550285Y-93160857D01*
X34512190Y-93237047D01*
%TO.C,U1*%
X64414476Y-93795904D02*
X64414476Y-94443523D01*
X64452571Y-94519714D01*
X64490666Y-94557809D01*
X64566857Y-94595904D01*
X64719238Y-94595904D01*
X64795428Y-94557809D01*
X64833523Y-94519714D01*
X64871619Y-94443523D01*
X64871619Y-93795904D01*
X65671619Y-94595904D02*
X65214476Y-94595904D01*
X65443047Y-94595904D02*
X65443047Y-93795904D01*
X65366857Y-93910190D01*
X65290666Y-93986380D01*
X65214476Y-94024476D01*
X53860761Y-96119904D02*
X53479809Y-96119904D01*
X53479809Y-95319904D01*
X54127428Y-96119904D02*
X54127428Y-95319904D01*
X54432190Y-95319904D01*
X54508380Y-95358000D01*
X54546476Y-95396095D01*
X54584571Y-95472285D01*
X54584571Y-95586571D01*
X54546476Y-95662761D01*
X54508380Y-95700857D01*
X54432190Y-95738952D01*
X54127428Y-95738952D01*
X55194095Y-95700857D02*
X54927428Y-95700857D01*
X54927428Y-96119904D02*
X54927428Y-95319904D01*
X55308380Y-95319904D01*
%TO.C,TP3*%
X90938476Y-91509904D02*
X91395619Y-91509904D01*
X91167047Y-92309904D02*
X91167047Y-91509904D01*
X91662285Y-92309904D02*
X91662285Y-91509904D01*
X91967047Y-91509904D01*
X92043238Y-91548000D01*
X92081333Y-91586095D01*
X92119428Y-91662285D01*
X92119428Y-91776571D01*
X92081333Y-91852761D01*
X92043238Y-91890857D01*
X91967047Y-91928952D01*
X91662285Y-91928952D01*
X92386095Y-91509904D02*
X92881333Y-91509904D01*
X92614666Y-91814666D01*
X92728952Y-91814666D01*
X92805142Y-91852761D01*
X92843238Y-91890857D01*
X92881333Y-91967047D01*
X92881333Y-92157523D01*
X92843238Y-92233714D01*
X92805142Y-92271809D01*
X92728952Y-92309904D01*
X92500380Y-92309904D01*
X92424190Y-92271809D01*
X92386095Y-92233714D01*
%TO.C,P2*%
X83229523Y-16617904D02*
X83229523Y-15817904D01*
X83534285Y-15817904D01*
X83610476Y-15856000D01*
X83648571Y-15894095D01*
X83686666Y-15970285D01*
X83686666Y-16084571D01*
X83648571Y-16160761D01*
X83610476Y-16198857D01*
X83534285Y-16236952D01*
X83229523Y-16236952D01*
X83991428Y-15894095D02*
X84029523Y-15856000D01*
X84105714Y-15817904D01*
X84296190Y-15817904D01*
X84372380Y-15856000D01*
X84410476Y-15894095D01*
X84448571Y-15970285D01*
X84448571Y-16046476D01*
X84410476Y-16160761D01*
X83953333Y-16617904D01*
X84448571Y-16617904D01*
X83686666Y-20418653D02*
X83420000Y-20037701D01*
X83229523Y-20418653D02*
X83229523Y-19618653D01*
X83534285Y-19618653D01*
X83610476Y-19656749D01*
X83648571Y-19694844D01*
X83686666Y-19771034D01*
X83686666Y-19885320D01*
X83648571Y-19961510D01*
X83610476Y-19999606D01*
X83534285Y-20037701D01*
X83229523Y-20037701D01*
X83953333Y-19618653D02*
X84486666Y-20418653D01*
X84486666Y-19618653D02*
X83953333Y-20418653D01*
%TO.C,P3*%
X85769523Y-16617904D02*
X85769523Y-15817904D01*
X86074285Y-15817904D01*
X86150476Y-15856000D01*
X86188571Y-15894095D01*
X86226666Y-15970285D01*
X86226666Y-16084571D01*
X86188571Y-16160761D01*
X86150476Y-16198857D01*
X86074285Y-16236952D01*
X85769523Y-16236952D01*
X86493333Y-15817904D02*
X86988571Y-15817904D01*
X86721904Y-16122666D01*
X86836190Y-16122666D01*
X86912380Y-16160761D01*
X86950476Y-16198857D01*
X86988571Y-16275047D01*
X86988571Y-16465523D01*
X86950476Y-16541714D01*
X86912380Y-16579809D01*
X86836190Y-16617904D01*
X86607619Y-16617904D01*
X86531428Y-16579809D01*
X86493333Y-16541714D01*
X85750476Y-19618653D02*
X86207619Y-19618653D01*
X85979047Y-20418653D02*
X85979047Y-19618653D01*
X86398095Y-19618653D02*
X86931428Y-20418653D01*
X86931428Y-19618653D02*
X86398095Y-20418653D01*
%TO.C,C29*%
X83245714Y-22612285D02*
X83283809Y-22650380D01*
X83321904Y-22764666D01*
X83321904Y-22840857D01*
X83283809Y-22955142D01*
X83207619Y-23031333D01*
X83131428Y-23069428D01*
X82979047Y-23107523D01*
X82864761Y-23107523D01*
X82712380Y-23069428D01*
X82636190Y-23031333D01*
X82560000Y-22955142D01*
X82521904Y-22840857D01*
X82521904Y-22764666D01*
X82560000Y-22650380D01*
X82598095Y-22612285D01*
X82598095Y-22307523D02*
X82560000Y-22269428D01*
X82521904Y-22193238D01*
X82521904Y-22002761D01*
X82560000Y-21926571D01*
X82598095Y-21888476D01*
X82674285Y-21850380D01*
X82750476Y-21850380D01*
X82864761Y-21888476D01*
X83321904Y-22345619D01*
X83321904Y-21850380D01*
X83321904Y-21469428D02*
X83321904Y-21317047D01*
X83283809Y-21240857D01*
X83245714Y-21202761D01*
X83131428Y-21126571D01*
X82979047Y-21088476D01*
X82674285Y-21088476D01*
X82598095Y-21126571D01*
X82560000Y-21164666D01*
X82521904Y-21240857D01*
X82521904Y-21393238D01*
X82560000Y-21469428D01*
X82598095Y-21507523D01*
X82674285Y-21545619D01*
X82864761Y-21545619D01*
X82940952Y-21507523D01*
X82979047Y-21469428D01*
X83017142Y-21393238D01*
X83017142Y-21240857D01*
X82979047Y-21164666D01*
X82940952Y-21126571D01*
X82864761Y-21088476D01*
X80117904Y-23082095D02*
X80117904Y-23539238D01*
X80117904Y-23310666D02*
X79317904Y-23310666D01*
X79432190Y-23386857D01*
X79508380Y-23463047D01*
X79546476Y-23539238D01*
X79317904Y-22586857D02*
X79317904Y-22510666D01*
X79356000Y-22434476D01*
X79394095Y-22396380D01*
X79470285Y-22358285D01*
X79622666Y-22320190D01*
X79813142Y-22320190D01*
X79965523Y-22358285D01*
X80041714Y-22396380D01*
X80079809Y-22434476D01*
X80117904Y-22510666D01*
X80117904Y-22586857D01*
X80079809Y-22663047D01*
X80041714Y-22701142D01*
X79965523Y-22739238D01*
X79813142Y-22777333D01*
X79622666Y-22777333D01*
X79470285Y-22739238D01*
X79394095Y-22701142D01*
X79356000Y-22663047D01*
X79317904Y-22586857D01*
X79317904Y-21824952D02*
X79317904Y-21748761D01*
X79356000Y-21672571D01*
X79394095Y-21634476D01*
X79470285Y-21596380D01*
X79622666Y-21558285D01*
X79813142Y-21558285D01*
X79965523Y-21596380D01*
X80041714Y-21634476D01*
X80079809Y-21672571D01*
X80117904Y-21748761D01*
X80117904Y-21824952D01*
X80079809Y-21901142D01*
X80041714Y-21939238D01*
X79965523Y-21977333D01*
X79813142Y-22015428D01*
X79622666Y-22015428D01*
X79470285Y-21977333D01*
X79394095Y-21939238D01*
X79356000Y-21901142D01*
X79317904Y-21824952D01*
X79584571Y-21215428D02*
X80117904Y-21215428D01*
X79660761Y-21215428D02*
X79622666Y-21177333D01*
X79584571Y-21101142D01*
X79584571Y-20986857D01*
X79622666Y-20910666D01*
X79698857Y-20872571D01*
X80117904Y-20872571D01*
X79698857Y-20224952D02*
X79698857Y-20491619D01*
X80117904Y-20491619D02*
X79317904Y-20491619D01*
X79317904Y-20110666D01*
%TO.C,C34*%
X78440217Y-86669195D02*
X78402122Y-86707290D01*
X78287836Y-86745385D01*
X78211645Y-86745385D01*
X78097360Y-86707290D01*
X78021169Y-86631100D01*
X77983074Y-86554909D01*
X77944979Y-86402528D01*
X77944979Y-86288242D01*
X77983074Y-86135861D01*
X78021169Y-86059671D01*
X78097360Y-85983481D01*
X78211645Y-85945385D01*
X78287836Y-85945385D01*
X78402122Y-85983481D01*
X78440217Y-86021576D01*
X78706883Y-85945385D02*
X79202122Y-85945385D01*
X78935455Y-86250147D01*
X79049741Y-86250147D01*
X79125931Y-86288242D01*
X79164026Y-86326338D01*
X79202122Y-86402528D01*
X79202122Y-86593004D01*
X79164026Y-86669195D01*
X79125931Y-86707290D01*
X79049741Y-86745385D01*
X78821169Y-86745385D01*
X78744979Y-86707290D01*
X78706883Y-86669195D01*
X79887836Y-86212052D02*
X79887836Y-86745385D01*
X79697360Y-85907290D02*
X79506883Y-86478719D01*
X80002122Y-86478719D01*
%TO.C,U3*%
X73350575Y-83489666D02*
X73998194Y-83489666D01*
X74074385Y-83451571D01*
X74112480Y-83413476D01*
X74150575Y-83337285D01*
X74150575Y-83184904D01*
X74112480Y-83108714D01*
X74074385Y-83070619D01*
X73998194Y-83032523D01*
X73350575Y-83032523D01*
X73350575Y-82727762D02*
X73350575Y-82232523D01*
X73655337Y-82499190D01*
X73655337Y-82384904D01*
X73693432Y-82308714D01*
X73731528Y-82270619D01*
X73807718Y-82232523D01*
X73998194Y-82232523D01*
X74074385Y-82270619D01*
X74112480Y-82308714D01*
X74150575Y-82384904D01*
X74150575Y-82613476D01*
X74112480Y-82689666D01*
X74074385Y-82727762D01*
%TO.C,R24*%
X75451714Y-75389904D02*
X75185047Y-75008952D01*
X74994571Y-75389904D02*
X74994571Y-74589904D01*
X75299333Y-74589904D01*
X75375523Y-74628000D01*
X75413619Y-74666095D01*
X75451714Y-74742285D01*
X75451714Y-74856571D01*
X75413619Y-74932761D01*
X75375523Y-74970857D01*
X75299333Y-75008952D01*
X74994571Y-75008952D01*
X75756476Y-74666095D02*
X75794571Y-74628000D01*
X75870761Y-74589904D01*
X76061238Y-74589904D01*
X76137428Y-74628000D01*
X76175523Y-74666095D01*
X76213619Y-74742285D01*
X76213619Y-74818476D01*
X76175523Y-74932761D01*
X75718380Y-75389904D01*
X76213619Y-75389904D01*
X76899333Y-74856571D02*
X76899333Y-75389904D01*
X76708857Y-74551809D02*
X76518380Y-75123238D01*
X77013619Y-75123238D01*
%TO.C,R23*%
X78390337Y-79475311D02*
X78123670Y-79094359D01*
X77933194Y-79475311D02*
X77933194Y-78675311D01*
X78237956Y-78675311D01*
X78314146Y-78713407D01*
X78352242Y-78751502D01*
X78390337Y-78827692D01*
X78390337Y-78941978D01*
X78352242Y-79018168D01*
X78314146Y-79056264D01*
X78237956Y-79094359D01*
X77933194Y-79094359D01*
X78695099Y-78751502D02*
X78733194Y-78713407D01*
X78809384Y-78675311D01*
X78999861Y-78675311D01*
X79076051Y-78713407D01*
X79114146Y-78751502D01*
X79152242Y-78827692D01*
X79152242Y-78903883D01*
X79114146Y-79018168D01*
X78657003Y-79475311D01*
X79152242Y-79475311D01*
X79418908Y-78675311D02*
X79914146Y-78675311D01*
X79647480Y-78980073D01*
X79761765Y-78980073D01*
X79837956Y-79018168D01*
X79876051Y-79056264D01*
X79914146Y-79132454D01*
X79914146Y-79322930D01*
X79876051Y-79399121D01*
X79837956Y-79437216D01*
X79761765Y-79475311D01*
X79533194Y-79475311D01*
X79457003Y-79437216D01*
X79418908Y-79399121D01*
%TO.C,R21*%
X78479714Y-89261904D02*
X78213047Y-88880952D01*
X78022571Y-89261904D02*
X78022571Y-88461904D01*
X78327333Y-88461904D01*
X78403523Y-88500000D01*
X78441619Y-88538095D01*
X78479714Y-88614285D01*
X78479714Y-88728571D01*
X78441619Y-88804761D01*
X78403523Y-88842857D01*
X78327333Y-88880952D01*
X78022571Y-88880952D01*
X78784476Y-88538095D02*
X78822571Y-88500000D01*
X78898761Y-88461904D01*
X79089238Y-88461904D01*
X79165428Y-88500000D01*
X79203523Y-88538095D01*
X79241619Y-88614285D01*
X79241619Y-88690476D01*
X79203523Y-88804761D01*
X78746380Y-89261904D01*
X79241619Y-89261904D01*
X80003523Y-89261904D02*
X79546380Y-89261904D01*
X79774952Y-89261904D02*
X79774952Y-88461904D01*
X79698761Y-88576190D01*
X79622571Y-88652380D01*
X79546380Y-88690476D01*
%TO.C,R22*%
X80371904Y-91954285D02*
X79990952Y-92220952D01*
X80371904Y-92411428D02*
X79571904Y-92411428D01*
X79571904Y-92106666D01*
X79610000Y-92030476D01*
X79648095Y-91992380D01*
X79724285Y-91954285D01*
X79838571Y-91954285D01*
X79914761Y-91992380D01*
X79952857Y-92030476D01*
X79990952Y-92106666D01*
X79990952Y-92411428D01*
X79648095Y-91649523D02*
X79610000Y-91611428D01*
X79571904Y-91535238D01*
X79571904Y-91344761D01*
X79610000Y-91268571D01*
X79648095Y-91230476D01*
X79724285Y-91192380D01*
X79800476Y-91192380D01*
X79914761Y-91230476D01*
X80371904Y-91687619D01*
X80371904Y-91192380D01*
X79648095Y-90887619D02*
X79610000Y-90849523D01*
X79571904Y-90773333D01*
X79571904Y-90582857D01*
X79610000Y-90506666D01*
X79648095Y-90468571D01*
X79724285Y-90430476D01*
X79800476Y-90430476D01*
X79914761Y-90468571D01*
X80371904Y-90925714D01*
X80371904Y-90430476D01*
X76225143Y-93923877D02*
X76225143Y-94381020D01*
X76225143Y-94152448D02*
X75425143Y-94152448D01*
X75539429Y-94228639D01*
X75615619Y-94304829D01*
X75653715Y-94381020D01*
X75425143Y-93428639D02*
X75425143Y-93352448D01*
X75463239Y-93276258D01*
X75501334Y-93238163D01*
X75577524Y-93200067D01*
X75729905Y-93161972D01*
X75920381Y-93161972D01*
X76072762Y-93200067D01*
X76148953Y-93238163D01*
X76187048Y-93276258D01*
X76225143Y-93352448D01*
X76225143Y-93428639D01*
X76187048Y-93504829D01*
X76148953Y-93542925D01*
X76072762Y-93581020D01*
X75920381Y-93619115D01*
X75729905Y-93619115D01*
X75577524Y-93581020D01*
X75501334Y-93542925D01*
X75463239Y-93504829D01*
X75425143Y-93428639D01*
X76225143Y-92819115D02*
X75425143Y-92819115D01*
X75920381Y-92742925D02*
X76225143Y-92514353D01*
X75691810Y-92514353D02*
X75996572Y-92819115D01*
%TO.C,C21*%
X78377866Y-84349755D02*
X78339771Y-84387850D01*
X78225485Y-84425945D01*
X78149294Y-84425945D01*
X78035009Y-84387850D01*
X77958818Y-84311660D01*
X77920723Y-84235469D01*
X77882628Y-84083088D01*
X77882628Y-83968802D01*
X77920723Y-83816421D01*
X77958818Y-83740231D01*
X78035009Y-83664041D01*
X78149294Y-83625945D01*
X78225485Y-83625945D01*
X78339771Y-83664041D01*
X78377866Y-83702136D01*
X78682628Y-83702136D02*
X78720723Y-83664041D01*
X78796913Y-83625945D01*
X78987390Y-83625945D01*
X79063580Y-83664041D01*
X79101675Y-83702136D01*
X79139771Y-83778326D01*
X79139771Y-83854517D01*
X79101675Y-83968802D01*
X78644532Y-84425945D01*
X79139771Y-84425945D01*
X79901675Y-84425945D02*
X79444532Y-84425945D01*
X79673104Y-84425945D02*
X79673104Y-83625945D01*
X79596913Y-83740231D01*
X79520723Y-83816421D01*
X79444532Y-83854517D01*
%TO.C,C20*%
X65779714Y-76739714D02*
X65741619Y-76777809D01*
X65627333Y-76815904D01*
X65551142Y-76815904D01*
X65436857Y-76777809D01*
X65360666Y-76701619D01*
X65322571Y-76625428D01*
X65284476Y-76473047D01*
X65284476Y-76358761D01*
X65322571Y-76206380D01*
X65360666Y-76130190D01*
X65436857Y-76054000D01*
X65551142Y-76015904D01*
X65627333Y-76015904D01*
X65741619Y-76054000D01*
X65779714Y-76092095D01*
X66084476Y-76092095D02*
X66122571Y-76054000D01*
X66198761Y-76015904D01*
X66389238Y-76015904D01*
X66465428Y-76054000D01*
X66503523Y-76092095D01*
X66541619Y-76168285D01*
X66541619Y-76244476D01*
X66503523Y-76358761D01*
X66046380Y-76815904D01*
X66541619Y-76815904D01*
X67036857Y-76015904D02*
X67113047Y-76015904D01*
X67189238Y-76054000D01*
X67227333Y-76092095D01*
X67265428Y-76168285D01*
X67303523Y-76320666D01*
X67303523Y-76511142D01*
X67265428Y-76663523D01*
X67227333Y-76739714D01*
X67189238Y-76777809D01*
X67113047Y-76815904D01*
X67036857Y-76815904D01*
X66960666Y-76777809D01*
X66922571Y-76739714D01*
X66884476Y-76663523D01*
X66846380Y-76511142D01*
X66846380Y-76320666D01*
X66884476Y-76168285D01*
X66922571Y-76092095D01*
X66960666Y-76054000D01*
X67036857Y-76015904D01*
X68093714Y-74856571D02*
X68093714Y-75389904D01*
X67903238Y-74551809D02*
X67712761Y-75123238D01*
X68208000Y-75123238D01*
X68436571Y-74589904D02*
X68969904Y-74589904D01*
X68627047Y-75389904D01*
X69427047Y-74589904D02*
X69503238Y-74589904D01*
X69579428Y-74628000D01*
X69617523Y-74666095D01*
X69655619Y-74742285D01*
X69693714Y-74894666D01*
X69693714Y-75085142D01*
X69655619Y-75237523D01*
X69617523Y-75313714D01*
X69579428Y-75351809D01*
X69503238Y-75389904D01*
X69427047Y-75389904D01*
X69350857Y-75351809D01*
X69312761Y-75313714D01*
X69274666Y-75237523D01*
X69236571Y-75085142D01*
X69236571Y-74894666D01*
X69274666Y-74742285D01*
X69312761Y-74666095D01*
X69350857Y-74628000D01*
X69427047Y-74589904D01*
X70036571Y-74856571D02*
X70036571Y-75389904D01*
X70036571Y-74932761D02*
X70074666Y-74894666D01*
X70150857Y-74856571D01*
X70265142Y-74856571D01*
X70341333Y-74894666D01*
X70379428Y-74970857D01*
X70379428Y-75389904D01*
X71027047Y-74970857D02*
X70760380Y-74970857D01*
X70760380Y-75389904D02*
X70760380Y-74589904D01*
X71141333Y-74589904D01*
%TO.C,C17*%
X61715714Y-81311714D02*
X61677619Y-81349809D01*
X61563333Y-81387904D01*
X61487142Y-81387904D01*
X61372857Y-81349809D01*
X61296666Y-81273619D01*
X61258571Y-81197428D01*
X61220476Y-81045047D01*
X61220476Y-80930761D01*
X61258571Y-80778380D01*
X61296666Y-80702190D01*
X61372857Y-80626000D01*
X61487142Y-80587904D01*
X61563333Y-80587904D01*
X61677619Y-80626000D01*
X61715714Y-80664095D01*
X62477619Y-81387904D02*
X62020476Y-81387904D01*
X62249047Y-81387904D02*
X62249047Y-80587904D01*
X62172857Y-80702190D01*
X62096666Y-80778380D01*
X62020476Y-80816476D01*
X62744285Y-80587904D02*
X63277619Y-80587904D01*
X62934761Y-81387904D01*
%TO.C,C18*%
X69147714Y-93363714D02*
X69109619Y-93401809D01*
X68995333Y-93439904D01*
X68919142Y-93439904D01*
X68804857Y-93401809D01*
X68728666Y-93325619D01*
X68690571Y-93249428D01*
X68652476Y-93097047D01*
X68652476Y-92982761D01*
X68690571Y-92830380D01*
X68728666Y-92754190D01*
X68804857Y-92678000D01*
X68919142Y-92639904D01*
X68995333Y-92639904D01*
X69109619Y-92678000D01*
X69147714Y-92716095D01*
X69909619Y-93439904D02*
X69452476Y-93439904D01*
X69681047Y-93439904D02*
X69681047Y-92639904D01*
X69604857Y-92754190D01*
X69528666Y-92830380D01*
X69452476Y-92868476D01*
X70366761Y-92982761D02*
X70290571Y-92944666D01*
X70252476Y-92906571D01*
X70214380Y-92830380D01*
X70214380Y-92792285D01*
X70252476Y-92716095D01*
X70290571Y-92678000D01*
X70366761Y-92639904D01*
X70519142Y-92639904D01*
X70595333Y-92678000D01*
X70633428Y-92716095D01*
X70671523Y-92792285D01*
X70671523Y-92830380D01*
X70633428Y-92906571D01*
X70595333Y-92944666D01*
X70519142Y-92982761D01*
X70366761Y-92982761D01*
X70290571Y-93020857D01*
X70252476Y-93058952D01*
X70214380Y-93135142D01*
X70214380Y-93287523D01*
X70252476Y-93363714D01*
X70290571Y-93401809D01*
X70366761Y-93439904D01*
X70519142Y-93439904D01*
X70595333Y-93401809D01*
X70633428Y-93363714D01*
X70671523Y-93287523D01*
X70671523Y-93135142D01*
X70633428Y-93058952D01*
X70595333Y-93020857D01*
X70519142Y-92982761D01*
%TO.C,C19*%
X61969714Y-87407714D02*
X61931619Y-87445809D01*
X61817333Y-87483904D01*
X61741142Y-87483904D01*
X61626857Y-87445809D01*
X61550666Y-87369619D01*
X61512571Y-87293428D01*
X61474476Y-87141047D01*
X61474476Y-87026761D01*
X61512571Y-86874380D01*
X61550666Y-86798190D01*
X61626857Y-86722000D01*
X61741142Y-86683904D01*
X61817333Y-86683904D01*
X61931619Y-86722000D01*
X61969714Y-86760095D01*
X62731619Y-87483904D02*
X62274476Y-87483904D01*
X62503047Y-87483904D02*
X62503047Y-86683904D01*
X62426857Y-86798190D01*
X62350666Y-86874380D01*
X62274476Y-86912476D01*
X63112571Y-87483904D02*
X63264952Y-87483904D01*
X63341142Y-87445809D01*
X63379238Y-87407714D01*
X63455428Y-87293428D01*
X63493523Y-87141047D01*
X63493523Y-86836285D01*
X63455428Y-86760095D01*
X63417333Y-86722000D01*
X63341142Y-86683904D01*
X63188761Y-86683904D01*
X63112571Y-86722000D01*
X63074476Y-86760095D01*
X63036380Y-86836285D01*
X63036380Y-87026761D01*
X63074476Y-87102952D01*
X63112571Y-87141047D01*
X63188761Y-87179142D01*
X63341142Y-87179142D01*
X63417333Y-87141047D01*
X63455428Y-87102952D01*
X63493523Y-87026761D01*
%TO.C,R14*%
X61612237Y-83576094D02*
X61345570Y-83195142D01*
X61155094Y-83576094D02*
X61155094Y-82776094D01*
X61459856Y-82776094D01*
X61536046Y-82814190D01*
X61574142Y-82852285D01*
X61612237Y-82928475D01*
X61612237Y-83042761D01*
X61574142Y-83118951D01*
X61536046Y-83157047D01*
X61459856Y-83195142D01*
X61155094Y-83195142D01*
X62374142Y-83576094D02*
X61916999Y-83576094D01*
X62145570Y-83576094D02*
X62145570Y-82776094D01*
X62069380Y-82890380D01*
X61993189Y-82966570D01*
X61916999Y-83004666D01*
X63059856Y-83042761D02*
X63059856Y-83576094D01*
X62869380Y-82737999D02*
X62678903Y-83309428D01*
X63174142Y-83309428D01*
%TO.C,R17*%
X65920227Y-78976507D02*
X65653560Y-78595555D01*
X65463084Y-78976507D02*
X65463084Y-78176507D01*
X65767846Y-78176507D01*
X65844036Y-78214603D01*
X65882132Y-78252698D01*
X65920227Y-78328888D01*
X65920227Y-78443174D01*
X65882132Y-78519364D01*
X65844036Y-78557460D01*
X65767846Y-78595555D01*
X65463084Y-78595555D01*
X66682132Y-78976507D02*
X66224989Y-78976507D01*
X66453560Y-78976507D02*
X66453560Y-78176507D01*
X66377370Y-78290793D01*
X66301179Y-78366983D01*
X66224989Y-78405079D01*
X66948798Y-78176507D02*
X67482132Y-78176507D01*
X67139274Y-78976507D01*
%TO.C,R16*%
X66287714Y-89261904D02*
X66021047Y-88880952D01*
X65830571Y-89261904D02*
X65830571Y-88461904D01*
X66135333Y-88461904D01*
X66211523Y-88500000D01*
X66249619Y-88538095D01*
X66287714Y-88614285D01*
X66287714Y-88728571D01*
X66249619Y-88804761D01*
X66211523Y-88842857D01*
X66135333Y-88880952D01*
X65830571Y-88880952D01*
X67049619Y-89261904D02*
X66592476Y-89261904D01*
X66821047Y-89261904D02*
X66821047Y-88461904D01*
X66744857Y-88576190D01*
X66668666Y-88652380D01*
X66592476Y-88690476D01*
X67735333Y-88461904D02*
X67582952Y-88461904D01*
X67506761Y-88500000D01*
X67468666Y-88538095D01*
X67392476Y-88652380D01*
X67354380Y-88804761D01*
X67354380Y-89109523D01*
X67392476Y-89185714D01*
X67430571Y-89223809D01*
X67506761Y-89261904D01*
X67659142Y-89261904D01*
X67735333Y-89223809D01*
X67773428Y-89185714D01*
X67811523Y-89109523D01*
X67811523Y-88919047D01*
X67773428Y-88842857D01*
X67735333Y-88804761D01*
X67659142Y-88766666D01*
X67506761Y-88766666D01*
X67430571Y-88804761D01*
X67392476Y-88842857D01*
X67354380Y-88919047D01*
%TO.C,R15*%
X61715714Y-85705904D02*
X61449047Y-85324952D01*
X61258571Y-85705904D02*
X61258571Y-84905904D01*
X61563333Y-84905904D01*
X61639523Y-84944000D01*
X61677619Y-84982095D01*
X61715714Y-85058285D01*
X61715714Y-85172571D01*
X61677619Y-85248761D01*
X61639523Y-85286857D01*
X61563333Y-85324952D01*
X61258571Y-85324952D01*
X62477619Y-85705904D02*
X62020476Y-85705904D01*
X62249047Y-85705904D02*
X62249047Y-84905904D01*
X62172857Y-85020190D01*
X62096666Y-85096380D01*
X62020476Y-85134476D01*
X63201428Y-84905904D02*
X62820476Y-84905904D01*
X62782380Y-85286857D01*
X62820476Y-85248761D01*
X62896666Y-85210666D01*
X63087142Y-85210666D01*
X63163333Y-85248761D01*
X63201428Y-85286857D01*
X63239523Y-85363047D01*
X63239523Y-85553523D01*
X63201428Y-85629714D01*
X63163333Y-85667809D01*
X63087142Y-85705904D01*
X62896666Y-85705904D01*
X62820476Y-85667809D01*
X62782380Y-85629714D01*
%TO.C,C27*%
X78427747Y-81818323D02*
X78389652Y-81856418D01*
X78275366Y-81894513D01*
X78199175Y-81894513D01*
X78084890Y-81856418D01*
X78008699Y-81780228D01*
X77970604Y-81704037D01*
X77932509Y-81551656D01*
X77932509Y-81437370D01*
X77970604Y-81284989D01*
X78008699Y-81208799D01*
X78084890Y-81132609D01*
X78199175Y-81094513D01*
X78275366Y-81094513D01*
X78389652Y-81132609D01*
X78427747Y-81170704D01*
X78732509Y-81170704D02*
X78770604Y-81132609D01*
X78846794Y-81094513D01*
X79037271Y-81094513D01*
X79113461Y-81132609D01*
X79151556Y-81170704D01*
X79189652Y-81246894D01*
X79189652Y-81323085D01*
X79151556Y-81437370D01*
X78694413Y-81894513D01*
X79189652Y-81894513D01*
X79456318Y-81094513D02*
X79989652Y-81094513D01*
X79646794Y-81894513D01*
%TO.C,C25*%
X72281896Y-75188333D02*
X72319991Y-75226428D01*
X72358086Y-75340714D01*
X72358086Y-75416905D01*
X72319991Y-75531190D01*
X72243801Y-75607381D01*
X72167610Y-75645476D01*
X72015229Y-75683571D01*
X71900943Y-75683571D01*
X71748562Y-75645476D01*
X71672372Y-75607381D01*
X71596182Y-75531190D01*
X71558086Y-75416905D01*
X71558086Y-75340714D01*
X71596182Y-75226428D01*
X71634277Y-75188333D01*
X71634277Y-74883571D02*
X71596182Y-74845476D01*
X71558086Y-74769286D01*
X71558086Y-74578809D01*
X71596182Y-74502619D01*
X71634277Y-74464524D01*
X71710467Y-74426428D01*
X71786658Y-74426428D01*
X71900943Y-74464524D01*
X72358086Y-74921667D01*
X72358086Y-74426428D01*
X71558086Y-73702619D02*
X71558086Y-74083571D01*
X71939039Y-74121667D01*
X71900943Y-74083571D01*
X71862848Y-74007381D01*
X71862848Y-73816905D01*
X71900943Y-73740714D01*
X71939039Y-73702619D01*
X72015229Y-73664524D01*
X72205705Y-73664524D01*
X72281896Y-73702619D01*
X72319991Y-73740714D01*
X72358086Y-73816905D01*
X72358086Y-74007381D01*
X72319991Y-74083571D01*
X72281896Y-74121667D01*
%TO.C,C24*%
X72421714Y-93986285D02*
X72459809Y-94024380D01*
X72497904Y-94138666D01*
X72497904Y-94214857D01*
X72459809Y-94329142D01*
X72383619Y-94405333D01*
X72307428Y-94443428D01*
X72155047Y-94481523D01*
X72040761Y-94481523D01*
X71888380Y-94443428D01*
X71812190Y-94405333D01*
X71736000Y-94329142D01*
X71697904Y-94214857D01*
X71697904Y-94138666D01*
X71736000Y-94024380D01*
X71774095Y-93986285D01*
X71774095Y-93681523D02*
X71736000Y-93643428D01*
X71697904Y-93567238D01*
X71697904Y-93376761D01*
X71736000Y-93300571D01*
X71774095Y-93262476D01*
X71850285Y-93224380D01*
X71926476Y-93224380D01*
X72040761Y-93262476D01*
X72497904Y-93719619D01*
X72497904Y-93224380D01*
X71964571Y-92538666D02*
X72497904Y-92538666D01*
X71659809Y-92729142D02*
X72231238Y-92919619D01*
X72231238Y-92424380D01*
D11*
%TO.C,Y2*%
X55176987Y-39776249D02*
X55604618Y-40203880D01*
X54407250Y-39605197D02*
X55176987Y-39776249D01*
X55005934Y-39006513D01*
X55348039Y-38835460D02*
X55348039Y-38749934D01*
X55390802Y-38621645D01*
X55604618Y-38407829D01*
X55732907Y-38365066D01*
X55818434Y-38365066D01*
X55946723Y-38407829D01*
X56032249Y-38493355D01*
X56117775Y-38664408D01*
X56117775Y-39690723D01*
X56673696Y-39134802D01*
D10*
%TO.C,C1*%
X29838666Y-34067714D02*
X29800571Y-34105809D01*
X29686285Y-34143904D01*
X29610095Y-34143904D01*
X29495809Y-34105809D01*
X29419619Y-34029619D01*
X29381523Y-33953428D01*
X29343428Y-33801047D01*
X29343428Y-33686761D01*
X29381523Y-33534380D01*
X29419619Y-33458190D01*
X29495809Y-33382000D01*
X29610095Y-33343904D01*
X29686285Y-33343904D01*
X29800571Y-33382000D01*
X29838666Y-33420095D01*
X30600571Y-34143904D02*
X30143428Y-34143904D01*
X30372000Y-34143904D02*
X30372000Y-33343904D01*
X30295809Y-33458190D01*
X30219619Y-33534380D01*
X30143428Y-33572476D01*
%TO.C,L2*%
X41268666Y-34397904D02*
X40887714Y-34397904D01*
X40887714Y-33597904D01*
X41497238Y-33674095D02*
X41535333Y-33636000D01*
X41611523Y-33597904D01*
X41802000Y-33597904D01*
X41878190Y-33636000D01*
X41916285Y-33674095D01*
X41954380Y-33750285D01*
X41954380Y-33826476D01*
X41916285Y-33940761D01*
X41459142Y-34397904D01*
X41954380Y-34397904D01*
X36937904Y-39668285D02*
X36937904Y-40125428D01*
X36937904Y-39896857D02*
X36137904Y-39896857D01*
X36252190Y-39973047D01*
X36328380Y-40049238D01*
X36366476Y-40125428D01*
X36137904Y-39173047D02*
X36137904Y-39096857D01*
X36176000Y-39020666D01*
X36214095Y-38982571D01*
X36290285Y-38944476D01*
X36442666Y-38906380D01*
X36633142Y-38906380D01*
X36785523Y-38944476D01*
X36861714Y-38982571D01*
X36899809Y-39020666D01*
X36937904Y-39096857D01*
X36937904Y-39173047D01*
X36899809Y-39249238D01*
X36861714Y-39287333D01*
X36785523Y-39325428D01*
X36633142Y-39363523D01*
X36442666Y-39363523D01*
X36290285Y-39325428D01*
X36214095Y-39287333D01*
X36176000Y-39249238D01*
X36137904Y-39173047D01*
X36137904Y-38411142D02*
X36137904Y-38334952D01*
X36176000Y-38258761D01*
X36214095Y-38220666D01*
X36290285Y-38182571D01*
X36442666Y-38144476D01*
X36633142Y-38144476D01*
X36785523Y-38182571D01*
X36861714Y-38220666D01*
X36899809Y-38258761D01*
X36937904Y-38334952D01*
X36937904Y-38411142D01*
X36899809Y-38487333D01*
X36861714Y-38525428D01*
X36785523Y-38563523D01*
X36633142Y-38601619D01*
X36442666Y-38601619D01*
X36290285Y-38563523D01*
X36214095Y-38525428D01*
X36176000Y-38487333D01*
X36137904Y-38411142D01*
X36404571Y-37458761D02*
X36937904Y-37458761D01*
X36404571Y-37801619D02*
X36823619Y-37801619D01*
X36899809Y-37763523D01*
X36937904Y-37687333D01*
X36937904Y-37573047D01*
X36899809Y-37496857D01*
X36861714Y-37458761D01*
X36937904Y-37077809D02*
X36137904Y-37077809D01*
X36518857Y-37077809D02*
X36518857Y-36620666D01*
X36937904Y-36620666D02*
X36137904Y-36620666D01*
%TO.C,L1*%
X75558666Y-42779904D02*
X75177714Y-42779904D01*
X75177714Y-41979904D01*
X76244380Y-42779904D02*
X75787238Y-42779904D01*
X76015809Y-42779904D02*
X76015809Y-41979904D01*
X75939619Y-42094190D01*
X75863428Y-42170380D01*
X75787238Y-42208476D01*
X77577904Y-40938285D02*
X77577904Y-41395428D01*
X77577904Y-41166857D02*
X76777904Y-41166857D01*
X76892190Y-41243047D01*
X76968380Y-41319238D01*
X77006476Y-41395428D01*
X76777904Y-40443047D02*
X76777904Y-40366857D01*
X76816000Y-40290666D01*
X76854095Y-40252571D01*
X76930285Y-40214476D01*
X77082666Y-40176380D01*
X77273142Y-40176380D01*
X77425523Y-40214476D01*
X77501714Y-40252571D01*
X77539809Y-40290666D01*
X77577904Y-40366857D01*
X77577904Y-40443047D01*
X77539809Y-40519238D01*
X77501714Y-40557333D01*
X77425523Y-40595428D01*
X77273142Y-40633523D01*
X77082666Y-40633523D01*
X76930285Y-40595428D01*
X76854095Y-40557333D01*
X76816000Y-40519238D01*
X76777904Y-40443047D01*
X76777904Y-39681142D02*
X76777904Y-39604952D01*
X76816000Y-39528761D01*
X76854095Y-39490666D01*
X76930285Y-39452571D01*
X77082666Y-39414476D01*
X77273142Y-39414476D01*
X77425523Y-39452571D01*
X77501714Y-39490666D01*
X77539809Y-39528761D01*
X77577904Y-39604952D01*
X77577904Y-39681142D01*
X77539809Y-39757333D01*
X77501714Y-39795428D01*
X77425523Y-39833523D01*
X77273142Y-39871619D01*
X77082666Y-39871619D01*
X76930285Y-39833523D01*
X76854095Y-39795428D01*
X76816000Y-39757333D01*
X76777904Y-39681142D01*
X77044571Y-38728761D02*
X77577904Y-38728761D01*
X77044571Y-39071619D02*
X77463619Y-39071619D01*
X77539809Y-39033523D01*
X77577904Y-38957333D01*
X77577904Y-38843047D01*
X77539809Y-38766857D01*
X77501714Y-38728761D01*
X77577904Y-38347809D02*
X76777904Y-38347809D01*
X77158857Y-38347809D02*
X77158857Y-37890666D01*
X77577904Y-37890666D02*
X76777904Y-37890666D01*
%TO.C,C9*%
X21202666Y-47783714D02*
X21164571Y-47821809D01*
X21050285Y-47859904D01*
X20974095Y-47859904D01*
X20859809Y-47821809D01*
X20783619Y-47745619D01*
X20745523Y-47669428D01*
X20707428Y-47517047D01*
X20707428Y-47402761D01*
X20745523Y-47250380D01*
X20783619Y-47174190D01*
X20859809Y-47098000D01*
X20974095Y-47059904D01*
X21050285Y-47059904D01*
X21164571Y-47098000D01*
X21202666Y-47136095D01*
X21583619Y-47859904D02*
X21736000Y-47859904D01*
X21812190Y-47821809D01*
X21850285Y-47783714D01*
X21926476Y-47669428D01*
X21964571Y-47517047D01*
X21964571Y-47212285D01*
X21926476Y-47136095D01*
X21888380Y-47098000D01*
X21812190Y-47059904D01*
X21659809Y-47059904D01*
X21583619Y-47098000D01*
X21545523Y-47136095D01*
X21507428Y-47212285D01*
X21507428Y-47402761D01*
X21545523Y-47478952D01*
X21583619Y-47517047D01*
X21659809Y-47555142D01*
X21812190Y-47555142D01*
X21888380Y-47517047D01*
X21926476Y-47478952D01*
X21964571Y-47402761D01*
%TO.C,C6*%
X26282666Y-43211714D02*
X26244571Y-43249809D01*
X26130285Y-43287904D01*
X26054095Y-43287904D01*
X25939809Y-43249809D01*
X25863619Y-43173619D01*
X25825523Y-43097428D01*
X25787428Y-42945047D01*
X25787428Y-42830761D01*
X25825523Y-42678380D01*
X25863619Y-42602190D01*
X25939809Y-42526000D01*
X26054095Y-42487904D01*
X26130285Y-42487904D01*
X26244571Y-42526000D01*
X26282666Y-42564095D01*
X26968380Y-42487904D02*
X26816000Y-42487904D01*
X26739809Y-42526000D01*
X26701714Y-42564095D01*
X26625523Y-42678380D01*
X26587428Y-42830761D01*
X26587428Y-43135523D01*
X26625523Y-43211714D01*
X26663619Y-43249809D01*
X26739809Y-43287904D01*
X26892190Y-43287904D01*
X26968380Y-43249809D01*
X27006476Y-43211714D01*
X27044571Y-43135523D01*
X27044571Y-42945047D01*
X27006476Y-42868857D01*
X26968380Y-42830761D01*
X26892190Y-42792666D01*
X26739809Y-42792666D01*
X26663619Y-42830761D01*
X26625523Y-42868857D01*
X26587428Y-42945047D01*
X28457904Y-41690095D02*
X28457904Y-42147238D01*
X28457904Y-41918666D02*
X27657904Y-41918666D01*
X27772190Y-41994857D01*
X27848380Y-42071047D01*
X27886476Y-42147238D01*
X27657904Y-41194857D02*
X27657904Y-41118666D01*
X27696000Y-41042476D01*
X27734095Y-41004380D01*
X27810285Y-40966285D01*
X27962666Y-40928190D01*
X28153142Y-40928190D01*
X28305523Y-40966285D01*
X28381714Y-41004380D01*
X28419809Y-41042476D01*
X28457904Y-41118666D01*
X28457904Y-41194857D01*
X28419809Y-41271047D01*
X28381714Y-41309142D01*
X28305523Y-41347238D01*
X28153142Y-41385333D01*
X27962666Y-41385333D01*
X27810285Y-41347238D01*
X27734095Y-41309142D01*
X27696000Y-41271047D01*
X27657904Y-41194857D01*
X27657904Y-40432952D02*
X27657904Y-40356761D01*
X27696000Y-40280571D01*
X27734095Y-40242476D01*
X27810285Y-40204380D01*
X27962666Y-40166285D01*
X28153142Y-40166285D01*
X28305523Y-40204380D01*
X28381714Y-40242476D01*
X28419809Y-40280571D01*
X28457904Y-40356761D01*
X28457904Y-40432952D01*
X28419809Y-40509142D01*
X28381714Y-40547238D01*
X28305523Y-40585333D01*
X28153142Y-40623428D01*
X27962666Y-40623428D01*
X27810285Y-40585333D01*
X27734095Y-40547238D01*
X27696000Y-40509142D01*
X27657904Y-40432952D01*
X27924571Y-39823428D02*
X28457904Y-39823428D01*
X28000761Y-39823428D02*
X27962666Y-39785333D01*
X27924571Y-39709142D01*
X27924571Y-39594857D01*
X27962666Y-39518666D01*
X28038857Y-39480571D01*
X28457904Y-39480571D01*
X28038857Y-38832952D02*
X28038857Y-39099619D01*
X28457904Y-39099619D02*
X27657904Y-39099619D01*
X27657904Y-38718666D01*
%TO.C,C33*%
X46513714Y-35312285D02*
X46551809Y-35350380D01*
X46589904Y-35464666D01*
X46589904Y-35540857D01*
X46551809Y-35655142D01*
X46475619Y-35731333D01*
X46399428Y-35769428D01*
X46247047Y-35807523D01*
X46132761Y-35807523D01*
X45980380Y-35769428D01*
X45904190Y-35731333D01*
X45828000Y-35655142D01*
X45789904Y-35540857D01*
X45789904Y-35464666D01*
X45828000Y-35350380D01*
X45866095Y-35312285D01*
X45789904Y-35045619D02*
X45789904Y-34550380D01*
X46094666Y-34817047D01*
X46094666Y-34702761D01*
X46132761Y-34626571D01*
X46170857Y-34588476D01*
X46247047Y-34550380D01*
X46437523Y-34550380D01*
X46513714Y-34588476D01*
X46551809Y-34626571D01*
X46589904Y-34702761D01*
X46589904Y-34931333D01*
X46551809Y-35007523D01*
X46513714Y-35045619D01*
X45789904Y-34283714D02*
X45789904Y-33788476D01*
X46094666Y-34055142D01*
X46094666Y-33940857D01*
X46132761Y-33864666D01*
X46170857Y-33826571D01*
X46247047Y-33788476D01*
X46437523Y-33788476D01*
X46513714Y-33826571D01*
X46551809Y-33864666D01*
X46589904Y-33940857D01*
X46589904Y-34169428D01*
X46551809Y-34245619D01*
X46513714Y-34283714D01*
%TO.C,C31*%
X76993714Y-36582285D02*
X77031809Y-36620380D01*
X77069904Y-36734666D01*
X77069904Y-36810857D01*
X77031809Y-36925142D01*
X76955619Y-37001333D01*
X76879428Y-37039428D01*
X76727047Y-37077523D01*
X76612761Y-37077523D01*
X76460380Y-37039428D01*
X76384190Y-37001333D01*
X76308000Y-36925142D01*
X76269904Y-36810857D01*
X76269904Y-36734666D01*
X76308000Y-36620380D01*
X76346095Y-36582285D01*
X76269904Y-36315619D02*
X76269904Y-35820380D01*
X76574666Y-36087047D01*
X76574666Y-35972761D01*
X76612761Y-35896571D01*
X76650857Y-35858476D01*
X76727047Y-35820380D01*
X76917523Y-35820380D01*
X76993714Y-35858476D01*
X77031809Y-35896571D01*
X77069904Y-35972761D01*
X77069904Y-36201333D01*
X77031809Y-36277523D01*
X76993714Y-36315619D01*
X77069904Y-35058476D02*
X77069904Y-35515619D01*
X77069904Y-35287047D02*
X76269904Y-35287047D01*
X76384190Y-35363238D01*
X76460380Y-35439428D01*
X76498476Y-35515619D01*
X72929904Y-34651904D02*
X72472761Y-34651904D01*
X72701333Y-34651904D02*
X72701333Y-33851904D01*
X72625142Y-33966190D01*
X72548952Y-34042380D01*
X72472761Y-34080476D01*
X73425142Y-33851904D02*
X73501333Y-33851904D01*
X73577523Y-33890000D01*
X73615619Y-33928095D01*
X73653714Y-34004285D01*
X73691809Y-34156666D01*
X73691809Y-34347142D01*
X73653714Y-34499523D01*
X73615619Y-34575714D01*
X73577523Y-34613809D01*
X73501333Y-34651904D01*
X73425142Y-34651904D01*
X73348952Y-34613809D01*
X73310857Y-34575714D01*
X73272761Y-34499523D01*
X73234666Y-34347142D01*
X73234666Y-34156666D01*
X73272761Y-34004285D01*
X73310857Y-33928095D01*
X73348952Y-33890000D01*
X73425142Y-33851904D01*
X74187047Y-33851904D02*
X74263238Y-33851904D01*
X74339428Y-33890000D01*
X74377523Y-33928095D01*
X74415619Y-34004285D01*
X74453714Y-34156666D01*
X74453714Y-34347142D01*
X74415619Y-34499523D01*
X74377523Y-34575714D01*
X74339428Y-34613809D01*
X74263238Y-34651904D01*
X74187047Y-34651904D01*
X74110857Y-34613809D01*
X74072761Y-34575714D01*
X74034666Y-34499523D01*
X73996571Y-34347142D01*
X73996571Y-34156666D01*
X74034666Y-34004285D01*
X74072761Y-33928095D01*
X74110857Y-33890000D01*
X74187047Y-33851904D01*
X74796571Y-34118571D02*
X74796571Y-34651904D01*
X74796571Y-34194761D02*
X74834666Y-34156666D01*
X74910857Y-34118571D01*
X75025142Y-34118571D01*
X75101333Y-34156666D01*
X75139428Y-34232857D01*
X75139428Y-34651904D01*
X75787047Y-34232857D02*
X75520380Y-34232857D01*
X75520380Y-34651904D02*
X75520380Y-33851904D01*
X75901333Y-33851904D01*
%TO.C,C3*%
X33394666Y-32543714D02*
X33356571Y-32581809D01*
X33242285Y-32619904D01*
X33166095Y-32619904D01*
X33051809Y-32581809D01*
X32975619Y-32505619D01*
X32937523Y-32429428D01*
X32899428Y-32277047D01*
X32899428Y-32162761D01*
X32937523Y-32010380D01*
X32975619Y-31934190D01*
X33051809Y-31858000D01*
X33166095Y-31819904D01*
X33242285Y-31819904D01*
X33356571Y-31858000D01*
X33394666Y-31896095D01*
X33661333Y-31819904D02*
X34156571Y-31819904D01*
X33889904Y-32124666D01*
X34004190Y-32124666D01*
X34080380Y-32162761D01*
X34118476Y-32200857D01*
X34156571Y-32277047D01*
X34156571Y-32467523D01*
X34118476Y-32543714D01*
X34080380Y-32581809D01*
X34004190Y-32619904D01*
X33775619Y-32619904D01*
X33699428Y-32581809D01*
X33661333Y-32543714D01*
X35667904Y-30956095D02*
X35667904Y-31413238D01*
X35667904Y-31184666D02*
X34867904Y-31184666D01*
X34982190Y-31260857D01*
X35058380Y-31337047D01*
X35096476Y-31413238D01*
X34867904Y-30460857D02*
X34867904Y-30384666D01*
X34906000Y-30308476D01*
X34944095Y-30270380D01*
X35020285Y-30232285D01*
X35172666Y-30194190D01*
X35363142Y-30194190D01*
X35515523Y-30232285D01*
X35591714Y-30270380D01*
X35629809Y-30308476D01*
X35667904Y-30384666D01*
X35667904Y-30460857D01*
X35629809Y-30537047D01*
X35591714Y-30575142D01*
X35515523Y-30613238D01*
X35363142Y-30651333D01*
X35172666Y-30651333D01*
X35020285Y-30613238D01*
X34944095Y-30575142D01*
X34906000Y-30537047D01*
X34867904Y-30460857D01*
X34867904Y-29698952D02*
X34867904Y-29622761D01*
X34906000Y-29546571D01*
X34944095Y-29508476D01*
X35020285Y-29470380D01*
X35172666Y-29432285D01*
X35363142Y-29432285D01*
X35515523Y-29470380D01*
X35591714Y-29508476D01*
X35629809Y-29546571D01*
X35667904Y-29622761D01*
X35667904Y-29698952D01*
X35629809Y-29775142D01*
X35591714Y-29813238D01*
X35515523Y-29851333D01*
X35363142Y-29889428D01*
X35172666Y-29889428D01*
X35020285Y-29851333D01*
X34944095Y-29813238D01*
X34906000Y-29775142D01*
X34867904Y-29698952D01*
X35134571Y-29089428D02*
X35667904Y-29089428D01*
X35210761Y-29089428D02*
X35172666Y-29051333D01*
X35134571Y-28975142D01*
X35134571Y-28860857D01*
X35172666Y-28784666D01*
X35248857Y-28746571D01*
X35667904Y-28746571D01*
X35248857Y-28098952D02*
X35248857Y-28365619D01*
X35667904Y-28365619D02*
X34867904Y-28365619D01*
X34867904Y-27984666D01*
%TO.C,J4*%
X17259333Y-58489904D02*
X17259333Y-59061333D01*
X17221238Y-59175619D01*
X17145047Y-59251809D01*
X17030761Y-59289904D01*
X16954571Y-59289904D01*
X17983142Y-58756571D02*
X17983142Y-59289904D01*
X17792666Y-58451809D02*
X17602190Y-59023238D01*
X18097428Y-59023238D01*
%TO.C,J3*%
X106667333Y-59251904D02*
X106667333Y-59823333D01*
X106629238Y-59937619D01*
X106553047Y-60013809D01*
X106438761Y-60051904D01*
X106362571Y-60051904D01*
X106972095Y-59251904D02*
X107467333Y-59251904D01*
X107200666Y-59556666D01*
X107314952Y-59556666D01*
X107391142Y-59594761D01*
X107429238Y-59632857D01*
X107467333Y-59709047D01*
X107467333Y-59899523D01*
X107429238Y-59975714D01*
X107391142Y-60013809D01*
X107314952Y-60051904D01*
X107086380Y-60051904D01*
X107010190Y-60013809D01*
X106972095Y-59975714D01*
%TO.C,S2*%
X85905474Y-58489809D02*
X86019759Y-58527904D01*
X86210236Y-58527904D01*
X86286426Y-58489809D01*
X86324521Y-58451714D01*
X86362617Y-58375523D01*
X86362617Y-58299333D01*
X86324521Y-58223142D01*
X86286426Y-58185047D01*
X86210236Y-58146952D01*
X86057855Y-58108857D01*
X85981664Y-58070761D01*
X85943569Y-58032666D01*
X85905474Y-57956476D01*
X85905474Y-57880285D01*
X85943569Y-57804095D01*
X85981664Y-57766000D01*
X86057855Y-57727904D01*
X86248331Y-57727904D01*
X86362617Y-57766000D01*
X86667378Y-57804095D02*
X86705474Y-57766000D01*
X86781664Y-57727904D01*
X86972140Y-57727904D01*
X87048331Y-57766000D01*
X87086426Y-57804095D01*
X87124521Y-57880285D01*
X87124521Y-57956476D01*
X87086426Y-58070761D01*
X86629283Y-58527904D01*
X87124521Y-58527904D01*
%TO.C,S1*%
X46634476Y-58743809D02*
X46748761Y-58781904D01*
X46939238Y-58781904D01*
X47015428Y-58743809D01*
X47053523Y-58705714D01*
X47091619Y-58629523D01*
X47091619Y-58553333D01*
X47053523Y-58477142D01*
X47015428Y-58439047D01*
X46939238Y-58400952D01*
X46786857Y-58362857D01*
X46710666Y-58324761D01*
X46672571Y-58286666D01*
X46634476Y-58210476D01*
X46634476Y-58134285D01*
X46672571Y-58058095D01*
X46710666Y-58020000D01*
X46786857Y-57981904D01*
X46977333Y-57981904D01*
X47091619Y-58020000D01*
X47853523Y-58781904D02*
X47396380Y-58781904D01*
X47624952Y-58781904D02*
X47624952Y-57981904D01*
X47548761Y-58096190D01*
X47472571Y-58172380D01*
X47396380Y-58210476D01*
%TO.C, *%
%TO.C,IC5*%
X59671047Y-29063904D02*
X59671047Y-28263904D01*
X60509142Y-28987714D02*
X60471047Y-29025809D01*
X60356761Y-29063904D01*
X60280571Y-29063904D01*
X60166285Y-29025809D01*
X60090095Y-28949619D01*
X60052000Y-28873428D01*
X60013904Y-28721047D01*
X60013904Y-28606761D01*
X60052000Y-28454380D01*
X60090095Y-28378190D01*
X60166285Y-28302000D01*
X60280571Y-28263904D01*
X60356761Y-28263904D01*
X60471047Y-28302000D01*
X60509142Y-28340095D01*
X61232952Y-28263904D02*
X60852000Y-28263904D01*
X60813904Y-28644857D01*
X60852000Y-28606761D01*
X60928190Y-28568666D01*
X61118666Y-28568666D01*
X61194857Y-28606761D01*
X61232952Y-28644857D01*
X61271047Y-28721047D01*
X61271047Y-28911523D01*
X61232952Y-28987714D01*
X61194857Y-29025809D01*
X61118666Y-29063904D01*
X60928190Y-29063904D01*
X60852000Y-29025809D01*
X60813904Y-28987714D01*
D11*
%TO.C,IC2*%
X20132523Y-37815761D02*
X18862523Y-37815761D01*
X20011571Y-36485285D02*
X20072047Y-36545761D01*
X20132523Y-36727190D01*
X20132523Y-36848142D01*
X20072047Y-37029571D01*
X19951095Y-37150523D01*
X19830142Y-37211000D01*
X19588238Y-37271476D01*
X19406809Y-37271476D01*
X19164904Y-37211000D01*
X19043952Y-37150523D01*
X18923000Y-37029571D01*
X18862523Y-36848142D01*
X18862523Y-36727190D01*
X18923000Y-36545761D01*
X18983476Y-36485285D01*
X18983476Y-36001476D02*
X18923000Y-35941000D01*
X18862523Y-35820047D01*
X18862523Y-35517666D01*
X18923000Y-35396714D01*
X18983476Y-35336238D01*
X19104428Y-35275761D01*
X19225380Y-35275761D01*
X19406809Y-35336238D01*
X20132523Y-36061952D01*
X20132523Y-35275761D01*
D10*
%TO.C,U2*%
X64160476Y-12007904D02*
X64160476Y-12655523D01*
X64198571Y-12731714D01*
X64236666Y-12769809D01*
X64312857Y-12807904D01*
X64465238Y-12807904D01*
X64541428Y-12769809D01*
X64579523Y-12731714D01*
X64617619Y-12655523D01*
X64617619Y-12007904D01*
X64960476Y-12084095D02*
X64998571Y-12046000D01*
X65074761Y-12007904D01*
X65265238Y-12007904D01*
X65341428Y-12046000D01*
X65379523Y-12084095D01*
X65417619Y-12160285D01*
X65417619Y-12236476D01*
X65379523Y-12350761D01*
X64922380Y-12807904D01*
X65417619Y-12807904D01*
%TO.C,SW1*%
X60401333Y-60013809D02*
X60515619Y-60051904D01*
X60706095Y-60051904D01*
X60782285Y-60013809D01*
X60820380Y-59975714D01*
X60858476Y-59899523D01*
X60858476Y-59823333D01*
X60820380Y-59747142D01*
X60782285Y-59709047D01*
X60706095Y-59670952D01*
X60553714Y-59632857D01*
X60477523Y-59594761D01*
X60439428Y-59556666D01*
X60401333Y-59480476D01*
X60401333Y-59404285D01*
X60439428Y-59328095D01*
X60477523Y-59290000D01*
X60553714Y-59251904D01*
X60744190Y-59251904D01*
X60858476Y-59290000D01*
X61125142Y-59251904D02*
X61315619Y-60051904D01*
X61468000Y-59480476D01*
X61620380Y-60051904D01*
X61810857Y-59251904D01*
X62534666Y-60051904D02*
X62077523Y-60051904D01*
X62306095Y-60051904D02*
X62306095Y-59251904D01*
X62229904Y-59366190D01*
X62153714Y-59442380D01*
X62077523Y-59480476D01*
%TO.C,R2*%
X40760666Y-90277904D02*
X40494000Y-89896952D01*
X40303523Y-90277904D02*
X40303523Y-89477904D01*
X40608285Y-89477904D01*
X40684476Y-89516000D01*
X40722571Y-89554095D01*
X40760666Y-89630285D01*
X40760666Y-89744571D01*
X40722571Y-89820761D01*
X40684476Y-89858857D01*
X40608285Y-89896952D01*
X40303523Y-89896952D01*
X41065428Y-89554095D02*
X41103523Y-89516000D01*
X41179714Y-89477904D01*
X41370190Y-89477904D01*
X41446380Y-89516000D01*
X41484476Y-89554095D01*
X41522571Y-89630285D01*
X41522571Y-89706476D01*
X41484476Y-89820761D01*
X41027333Y-90277904D01*
X41522571Y-90277904D01*
X45878761Y-91293904D02*
X45421619Y-91293904D01*
X45650190Y-91293904D02*
X45650190Y-90493904D01*
X45574000Y-90608190D01*
X45497809Y-90684380D01*
X45421619Y-90722476D01*
X46221619Y-91293904D02*
X46221619Y-90493904D01*
X46297809Y-90989142D02*
X46526380Y-91293904D01*
X46526380Y-90760571D02*
X46221619Y-91065333D01*
%TO.C,R1*%
X40760666Y-87991904D02*
X40494000Y-87610952D01*
X40303523Y-87991904D02*
X40303523Y-87191904D01*
X40608285Y-87191904D01*
X40684476Y-87230000D01*
X40722571Y-87268095D01*
X40760666Y-87344285D01*
X40760666Y-87458571D01*
X40722571Y-87534761D01*
X40684476Y-87572857D01*
X40608285Y-87610952D01*
X40303523Y-87610952D01*
X41522571Y-87991904D02*
X41065428Y-87991904D01*
X41294000Y-87991904D02*
X41294000Y-87191904D01*
X41217809Y-87306190D01*
X41141619Y-87382380D01*
X41065428Y-87420476D01*
X45878761Y-88499904D02*
X45421619Y-88499904D01*
X45650190Y-88499904D02*
X45650190Y-87699904D01*
X45574000Y-87814190D01*
X45497809Y-87890380D01*
X45421619Y-87928476D01*
X46221619Y-88499904D02*
X46221619Y-87699904D01*
X46297809Y-88195142D02*
X46526380Y-88499904D01*
X46526380Y-87966571D02*
X46221619Y-88271333D01*
%TO.C,Y1*%
X36048952Y-84200952D02*
X36429904Y-84200952D01*
X35629904Y-84467619D02*
X36048952Y-84200952D01*
X35629904Y-83934285D01*
X36429904Y-83248571D02*
X36429904Y-83705714D01*
X36429904Y-83477142D02*
X35629904Y-83477142D01*
X35744190Y-83553333D01*
X35820380Y-83629523D01*
X35858476Y-83705714D01*
X36976095Y-89693523D02*
X36938000Y-89655428D01*
X36899904Y-89579238D01*
X36899904Y-89388761D01*
X36938000Y-89312571D01*
X36976095Y-89274476D01*
X37052285Y-89236380D01*
X37128476Y-89236380D01*
X37242761Y-89274476D01*
X37699904Y-89731619D01*
X37699904Y-89236380D01*
X36899904Y-88969714D02*
X36899904Y-88436380D01*
X37699904Y-88779238D01*
X37699904Y-88131619D02*
X36899904Y-88131619D01*
X37471333Y-87864952D01*
X36899904Y-87598285D01*
X37699904Y-87598285D01*
X37699904Y-87217333D02*
X36899904Y-87217333D01*
X37280857Y-87217333D02*
X37280857Y-86760190D01*
X37699904Y-86760190D02*
X36899904Y-86760190D01*
X37166571Y-86455428D02*
X37166571Y-86036380D01*
X37699904Y-86455428D01*
X37699904Y-86036380D01*
%TO.C,C4*%
X45078666Y-78771714D02*
X45040571Y-78809809D01*
X44926285Y-78847904D01*
X44850095Y-78847904D01*
X44735809Y-78809809D01*
X44659619Y-78733619D01*
X44621523Y-78657428D01*
X44583428Y-78505047D01*
X44583428Y-78390761D01*
X44621523Y-78238380D01*
X44659619Y-78162190D01*
X44735809Y-78086000D01*
X44850095Y-78047904D01*
X44926285Y-78047904D01*
X45040571Y-78086000D01*
X45078666Y-78124095D01*
X45764380Y-78314571D02*
X45764380Y-78847904D01*
X45573904Y-78009809D02*
X45383428Y-78581238D01*
X45878666Y-78581238D01*
X47097904Y-80232095D02*
X47097904Y-80689238D01*
X47097904Y-80460666D02*
X46297904Y-80460666D01*
X46412190Y-80536857D01*
X46488380Y-80613047D01*
X46526476Y-80689238D01*
X46297904Y-79736857D02*
X46297904Y-79660666D01*
X46336000Y-79584476D01*
X46374095Y-79546380D01*
X46450285Y-79508285D01*
X46602666Y-79470190D01*
X46793142Y-79470190D01*
X46945523Y-79508285D01*
X47021714Y-79546380D01*
X47059809Y-79584476D01*
X47097904Y-79660666D01*
X47097904Y-79736857D01*
X47059809Y-79813047D01*
X47021714Y-79851142D01*
X46945523Y-79889238D01*
X46793142Y-79927333D01*
X46602666Y-79927333D01*
X46450285Y-79889238D01*
X46374095Y-79851142D01*
X46336000Y-79813047D01*
X46297904Y-79736857D01*
X46297904Y-78974952D02*
X46297904Y-78898761D01*
X46336000Y-78822571D01*
X46374095Y-78784476D01*
X46450285Y-78746380D01*
X46602666Y-78708285D01*
X46793142Y-78708285D01*
X46945523Y-78746380D01*
X47021714Y-78784476D01*
X47059809Y-78822571D01*
X47097904Y-78898761D01*
X47097904Y-78974952D01*
X47059809Y-79051142D01*
X47021714Y-79089238D01*
X46945523Y-79127333D01*
X46793142Y-79165428D01*
X46602666Y-79165428D01*
X46450285Y-79127333D01*
X46374095Y-79089238D01*
X46336000Y-79051142D01*
X46297904Y-78974952D01*
X46564571Y-78365428D02*
X47097904Y-78365428D01*
X46640761Y-78365428D02*
X46602666Y-78327333D01*
X46564571Y-78251142D01*
X46564571Y-78136857D01*
X46602666Y-78060666D01*
X46678857Y-78022571D01*
X47097904Y-78022571D01*
X46678857Y-77374952D02*
X46678857Y-77641619D01*
X47097904Y-77641619D02*
X46297904Y-77641619D01*
X46297904Y-77260666D01*
%TO.C,D2*%
X37255523Y-77069904D02*
X37255523Y-76269904D01*
X37446000Y-76269904D01*
X37560285Y-76308000D01*
X37636476Y-76384190D01*
X37674571Y-76460380D01*
X37712666Y-76612761D01*
X37712666Y-76727047D01*
X37674571Y-76879428D01*
X37636476Y-76955619D01*
X37560285Y-77031809D01*
X37446000Y-77069904D01*
X37255523Y-77069904D01*
X38017428Y-76346095D02*
X38055523Y-76308000D01*
X38131714Y-76269904D01*
X38322190Y-76269904D01*
X38398380Y-76308000D01*
X38436476Y-76346095D01*
X38474571Y-76422285D01*
X38474571Y-76498476D01*
X38436476Y-76612761D01*
X37979333Y-77069904D01*
X38474571Y-77069904D01*
%TO.C,IC1*%
X47351904Y-84346952D02*
X46551904Y-84346952D01*
X47275714Y-83508857D02*
X47313809Y-83546952D01*
X47351904Y-83661238D01*
X47351904Y-83737428D01*
X47313809Y-83851714D01*
X47237619Y-83927904D01*
X47161428Y-83966000D01*
X47009047Y-84004095D01*
X46894761Y-84004095D01*
X46742380Y-83966000D01*
X46666190Y-83927904D01*
X46590000Y-83851714D01*
X46551904Y-83737428D01*
X46551904Y-83661238D01*
X46590000Y-83546952D01*
X46628095Y-83508857D01*
X47351904Y-82746952D02*
X47351904Y-83204095D01*
X47351904Y-82975523D02*
X46551904Y-82975523D01*
X46666190Y-83051714D01*
X46742380Y-83127904D01*
X46780476Y-83204095D01*
%TO.C,D3*%
X40811523Y-77069904D02*
X40811523Y-76269904D01*
X41002000Y-76269904D01*
X41116285Y-76308000D01*
X41192476Y-76384190D01*
X41230571Y-76460380D01*
X41268666Y-76612761D01*
X41268666Y-76727047D01*
X41230571Y-76879428D01*
X41192476Y-76955619D01*
X41116285Y-77031809D01*
X41002000Y-77069904D01*
X40811523Y-77069904D01*
X41535333Y-76269904D02*
X42030571Y-76269904D01*
X41763904Y-76574666D01*
X41878190Y-76574666D01*
X41954380Y-76612761D01*
X41992476Y-76650857D01*
X42030571Y-76727047D01*
X42030571Y-76917523D01*
X41992476Y-76993714D01*
X41954380Y-77031809D01*
X41878190Y-77069904D01*
X41649619Y-77069904D01*
X41573428Y-77031809D01*
X41535333Y-76993714D01*
%TO.C,D1*%
X23514095Y-29127523D02*
X24314095Y-29127523D01*
X24314095Y-29318000D01*
X24276000Y-29432285D01*
X24199809Y-29508476D01*
X24123619Y-29546571D01*
X23971238Y-29584666D01*
X23856952Y-29584666D01*
X23704571Y-29546571D01*
X23628380Y-29508476D01*
X23552190Y-29432285D01*
X23514095Y-29318000D01*
X23514095Y-29127523D01*
X23514095Y-30346571D02*
X23514095Y-29889428D01*
X23514095Y-30118000D02*
X24314095Y-30118000D01*
X24199809Y-30041809D01*
X24123619Y-29965619D01*
X24085523Y-29889428D01*
%TO.C,C28*%
X34575714Y-85350285D02*
X34613809Y-85388380D01*
X34651904Y-85502666D01*
X34651904Y-85578857D01*
X34613809Y-85693142D01*
X34537619Y-85769333D01*
X34461428Y-85807428D01*
X34309047Y-85845523D01*
X34194761Y-85845523D01*
X34042380Y-85807428D01*
X33966190Y-85769333D01*
X33890000Y-85693142D01*
X33851904Y-85578857D01*
X33851904Y-85502666D01*
X33890000Y-85388380D01*
X33928095Y-85350285D01*
X33928095Y-85045523D02*
X33890000Y-85007428D01*
X33851904Y-84931238D01*
X33851904Y-84740761D01*
X33890000Y-84664571D01*
X33928095Y-84626476D01*
X34004285Y-84588380D01*
X34080476Y-84588380D01*
X34194761Y-84626476D01*
X34651904Y-85083619D01*
X34651904Y-84588380D01*
X34194761Y-84131238D02*
X34156666Y-84207428D01*
X34118571Y-84245523D01*
X34042380Y-84283619D01*
X34004285Y-84283619D01*
X33928095Y-84245523D01*
X33890000Y-84207428D01*
X33851904Y-84131238D01*
X33851904Y-83978857D01*
X33890000Y-83902666D01*
X33928095Y-83864571D01*
X34004285Y-83826476D01*
X34042380Y-83826476D01*
X34118571Y-83864571D01*
X34156666Y-83902666D01*
X34194761Y-83978857D01*
X34194761Y-84131238D01*
X34232857Y-84207428D01*
X34270952Y-84245523D01*
X34347142Y-84283619D01*
X34499523Y-84283619D01*
X34575714Y-84245523D01*
X34613809Y-84207428D01*
X34651904Y-84131238D01*
X34651904Y-83978857D01*
X34613809Y-83902666D01*
X34575714Y-83864571D01*
X34499523Y-83826476D01*
X34347142Y-83826476D01*
X34270952Y-83864571D01*
X34232857Y-83902666D01*
X34194761Y-83978857D01*
X36190548Y-88305943D02*
X36190548Y-88763086D01*
X36190548Y-88534515D02*
X35390548Y-88534515D01*
X35504834Y-88610705D01*
X35581024Y-88686896D01*
X35619120Y-88763086D01*
X35390548Y-87810705D02*
X35390548Y-87734515D01*
X35428644Y-87658324D01*
X35466739Y-87620229D01*
X35542929Y-87582134D01*
X35695310Y-87544039D01*
X35885786Y-87544039D01*
X36038167Y-87582134D01*
X36114358Y-87620229D01*
X36152453Y-87658324D01*
X36190548Y-87734515D01*
X36190548Y-87810705D01*
X36152453Y-87886896D01*
X36114358Y-87924991D01*
X36038167Y-87963086D01*
X35885786Y-88001181D01*
X35695310Y-88001181D01*
X35542929Y-87963086D01*
X35466739Y-87924991D01*
X35428644Y-87886896D01*
X35390548Y-87810705D01*
X35657215Y-87201181D02*
X36190548Y-87201181D01*
X35733405Y-87201181D02*
X35695310Y-87163086D01*
X35657215Y-87086896D01*
X35657215Y-86972610D01*
X35695310Y-86896420D01*
X35771501Y-86858324D01*
X36190548Y-86858324D01*
X35771501Y-86210705D02*
X35771501Y-86477372D01*
X36190548Y-86477372D02*
X35390548Y-86477372D01*
X35390548Y-86096420D01*
%TO.C,C32*%
X48799714Y-31248285D02*
X48837809Y-31286380D01*
X48875904Y-31400666D01*
X48875904Y-31476857D01*
X48837809Y-31591142D01*
X48761619Y-31667333D01*
X48685428Y-31705428D01*
X48533047Y-31743523D01*
X48418761Y-31743523D01*
X48266380Y-31705428D01*
X48190190Y-31667333D01*
X48114000Y-31591142D01*
X48075904Y-31476857D01*
X48075904Y-31400666D01*
X48114000Y-31286380D01*
X48152095Y-31248285D01*
X48075904Y-30981619D02*
X48075904Y-30486380D01*
X48380666Y-30753047D01*
X48380666Y-30638761D01*
X48418761Y-30562571D01*
X48456857Y-30524476D01*
X48533047Y-30486380D01*
X48723523Y-30486380D01*
X48799714Y-30524476D01*
X48837809Y-30562571D01*
X48875904Y-30638761D01*
X48875904Y-30867333D01*
X48837809Y-30943523D01*
X48799714Y-30981619D01*
X48152095Y-30181619D02*
X48114000Y-30143523D01*
X48075904Y-30067333D01*
X48075904Y-29876857D01*
X48114000Y-29800666D01*
X48152095Y-29762571D01*
X48228285Y-29724476D01*
X48304476Y-29724476D01*
X48418761Y-29762571D01*
X48875904Y-30219714D01*
X48875904Y-29724476D01*
X49815904Y-29415904D02*
X49358761Y-29415904D01*
X49587333Y-29415904D02*
X49587333Y-28615904D01*
X49511142Y-28730190D01*
X49434952Y-28806380D01*
X49358761Y-28844476D01*
X50311142Y-28615904D02*
X50387333Y-28615904D01*
X50463523Y-28654000D01*
X50501619Y-28692095D01*
X50539714Y-28768285D01*
X50577809Y-28920666D01*
X50577809Y-29111142D01*
X50539714Y-29263523D01*
X50501619Y-29339714D01*
X50463523Y-29377809D01*
X50387333Y-29415904D01*
X50311142Y-29415904D01*
X50234952Y-29377809D01*
X50196857Y-29339714D01*
X50158761Y-29263523D01*
X50120666Y-29111142D01*
X50120666Y-28920666D01*
X50158761Y-28768285D01*
X50196857Y-28692095D01*
X50234952Y-28654000D01*
X50311142Y-28615904D01*
X51073047Y-28615904D02*
X51149238Y-28615904D01*
X51225428Y-28654000D01*
X51263523Y-28692095D01*
X51301619Y-28768285D01*
X51339714Y-28920666D01*
X51339714Y-29111142D01*
X51301619Y-29263523D01*
X51263523Y-29339714D01*
X51225428Y-29377809D01*
X51149238Y-29415904D01*
X51073047Y-29415904D01*
X50996857Y-29377809D01*
X50958761Y-29339714D01*
X50920666Y-29263523D01*
X50882571Y-29111142D01*
X50882571Y-28920666D01*
X50920666Y-28768285D01*
X50958761Y-28692095D01*
X50996857Y-28654000D01*
X51073047Y-28615904D01*
X51682571Y-28882571D02*
X51682571Y-29415904D01*
X51682571Y-28958761D02*
X51720666Y-28920666D01*
X51796857Y-28882571D01*
X51911142Y-28882571D01*
X51987333Y-28920666D01*
X52025428Y-28996857D01*
X52025428Y-29415904D01*
X52673047Y-28996857D02*
X52406380Y-28996857D01*
X52406380Y-29415904D02*
X52406380Y-28615904D01*
X52787333Y-28615904D01*
%TO.C, *%
%TO.C,J5*%
X31311904Y-103390666D02*
X31883333Y-103390666D01*
X31997619Y-103428761D01*
X32073809Y-103504952D01*
X32111904Y-103619238D01*
X32111904Y-103695428D01*
X31311904Y-102628761D02*
X31311904Y-103009714D01*
X31692857Y-103047809D01*
X31654761Y-103009714D01*
X31616666Y-102933523D01*
X31616666Y-102743047D01*
X31654761Y-102666857D01*
X31692857Y-102628761D01*
X31769047Y-102590666D01*
X31959523Y-102590666D01*
X32035714Y-102628761D01*
X32073809Y-102666857D01*
X32111904Y-102743047D01*
X32111904Y-102933523D01*
X32073809Y-103009714D01*
X32035714Y-103047809D01*
D12*
%TO.C,C2*%
X83319252Y-86133000D02*
X82796748Y-86133000D01*
X83319252Y-87603000D02*
X82796748Y-87603000D01*
%TO.C,C5*%
X87891252Y-89889000D02*
X87368748Y-89889000D01*
X87891252Y-88419000D02*
X87368748Y-88419000D01*
%TO.C,C7*%
X93699000Y-83812748D02*
X93699000Y-84335252D01*
X92229000Y-83812748D02*
X92229000Y-84335252D01*
%TO.C,C8*%
X50573000Y-89161252D02*
X50573000Y-88638748D01*
X52043000Y-89161252D02*
X52043000Y-88638748D01*
%TO.C,C10*%
X58393000Y-88638748D02*
X58393000Y-89161252D01*
X56923000Y-88638748D02*
X56923000Y-89161252D01*
%TO.C,C12*%
X59155000Y-78798748D02*
X59155000Y-79321252D01*
X57685000Y-78798748D02*
X57685000Y-79321252D01*
%TO.C,C13*%
X107669000Y-102100748D02*
X107669000Y-102623252D01*
X106199000Y-102100748D02*
X106199000Y-102623252D01*
%TO.C,C30*%
X22325000Y-83812748D02*
X22325000Y-84335252D01*
X20855000Y-83812748D02*
X20855000Y-84335252D01*
D13*
%TO.C,IC3*%
X56714000Y-81574000D02*
X56714000Y-86574000D01*
X56714000Y-86574000D02*
X53014000Y-86574000D01*
X51214000Y-81224000D02*
X52664000Y-81224000D01*
X53014000Y-86574000D02*
X53014000Y-81574000D01*
X53014000Y-81574000D02*
X56714000Y-81574000D01*
%TO.C,IC4*%
X23869000Y-82220000D02*
X32519000Y-82220000D01*
X23709000Y-87320000D02*
X23709000Y-85770000D01*
X32519000Y-85420000D02*
X23869000Y-85420000D01*
X32519000Y-82220000D02*
X32519000Y-85420000D01*
X23869000Y-85420000D02*
X23869000Y-82220000D01*
D10*
%TO.C,J2*%
X20912000Y-93230000D02*
X20912000Y-93230000D01*
X20912000Y-93230000D02*
X18912000Y-93230000D01*
X8212000Y-100230000D02*
X8212000Y-100230000D01*
X8212000Y-100230000D02*
X15662000Y-100230000D01*
X18912000Y-100230000D02*
X20912000Y-100230000D01*
X8212000Y-100230000D02*
X8212000Y-100230000D01*
D13*
X20012000Y-92480000D02*
X20012000Y-92480000D01*
D10*
X15412000Y-93230000D02*
X8212000Y-93230000D01*
X18912000Y-93230000D02*
X20912000Y-93230000D01*
X20912000Y-100230000D02*
X20912000Y-100230000D01*
D13*
X19912000Y-92480000D02*
X19912000Y-92480000D01*
D10*
X8212000Y-93230000D02*
X15412000Y-93230000D01*
D13*
X19912000Y-92480000D02*
X19912000Y-92480000D01*
D10*
X15412000Y-93230000D02*
X15412000Y-93230000D01*
X20912000Y-100230000D02*
X18912000Y-100230000D01*
X15662000Y-100230000D02*
X8212000Y-100230000D01*
X8212000Y-93230000D02*
X8212000Y-93230000D01*
X15662000Y-100230000D02*
X15662000Y-100230000D01*
X18912000Y-93230000D02*
X18912000Y-93230000D01*
X8212000Y-93230000D02*
X8212000Y-93230000D01*
X8212000Y-93230000D02*
X8212000Y-100230000D01*
X8212000Y-100230000D02*
X8212000Y-93230000D01*
X18912000Y-100230000D02*
X18912000Y-100230000D01*
D13*
X19912000Y-92480000D02*
G75*
G03*
X20012000Y-92480000I50000J0D01*
G01*
X20012000Y-92480000D02*
G75*
G03*
X19912000Y-92480000I-50000J0D01*
G01*
X19912000Y-92480000D02*
G75*
G03*
X20012000Y-92480000I50000J0D01*
G01*
D12*
%TO.C,Q1*%
X85830000Y-86432000D02*
X89430000Y-86432000D01*
X87630000Y-81981999D02*
G75*
G03*
X85791522Y-86420478I0J-2600001D01*
G01*
X89468478Y-86420478D02*
G75*
G03*
X87630000Y-81982000I-1838478J1838478D01*
G01*
%TO.C,Q2*%
X98480000Y-86338000D02*
X98480000Y-89938000D01*
X98491522Y-89976478D02*
G75*
G03*
X102930000Y-88138000I1838478J1838478D01*
G01*
X102930001Y-88138000D02*
G75*
G03*
X98491522Y-86299522I-2600001J0D01*
G01*
%TO.C,Q3*%
X98480000Y-92180000D02*
X98480000Y-95780000D01*
X98491522Y-95818478D02*
G75*
G03*
X102930000Y-93980000I1838478J1838478D01*
G01*
X102930001Y-93980000D02*
G75*
G03*
X98491522Y-92141522I-2600001J0D01*
G01*
%TO.C,Q4*%
X98480000Y-98022000D02*
X98480000Y-101622000D01*
X102930001Y-99822000D02*
G75*
G03*
X98491522Y-97983522I-2600001J0D01*
G01*
X98491522Y-101660478D02*
G75*
G03*
X102930000Y-99822000I1838478J1838478D01*
G01*
%TO.C,Q5*%
X102900000Y-107464000D02*
X102900000Y-103864000D01*
X98449999Y-105664000D02*
G75*
G03*
X102888478Y-107502478I2600001J0D01*
G01*
X102888478Y-103825522D02*
G75*
G03*
X98450000Y-105664000I-1838478J-1838478D01*
G01*
%TO.C,R3*%
X83285064Y-85317000D02*
X82830936Y-85317000D01*
X83285064Y-83847000D02*
X82830936Y-83847000D01*
%TO.C,R4*%
X53112936Y-90959000D02*
X53567064Y-90959000D01*
X53112936Y-92429000D02*
X53567064Y-92429000D01*
%TO.C,R5*%
X54075000Y-89127064D02*
X54075000Y-88672936D01*
X52605000Y-89127064D02*
X52605000Y-88672936D01*
%TO.C,R6*%
X54637000Y-89127064D02*
X54637000Y-88672936D01*
X56107000Y-89127064D02*
X56107000Y-88672936D01*
%TO.C,R8*%
X106549564Y-94715000D02*
X106095436Y-94715000D01*
X106549564Y-93245000D02*
X106095436Y-93245000D01*
%TO.C,R9*%
X103913000Y-103912936D02*
X103913000Y-104367064D01*
X105383000Y-103912936D02*
X105383000Y-104367064D01*
%TO.C,R10*%
X103913000Y-100102936D02*
X103913000Y-100557064D01*
X105383000Y-100102936D02*
X105383000Y-100557064D01*
%TO.C,U1*%
X91440000Y-94996000D02*
X91440000Y-108966000D01*
X46990000Y-108966000D02*
X46990000Y-94996000D01*
X46990000Y-94996000D02*
X91440000Y-94996000D01*
X46990000Y-108966000D02*
X91440000Y-108966000D01*
%TO.C,C29*%
X80545000Y-22344748D02*
X80545000Y-22867252D01*
X82015000Y-22344748D02*
X82015000Y-22867252D01*
%TO.C,C34*%
X75684748Y-87276332D02*
X76207252Y-87276332D01*
X75684748Y-85806332D02*
X76207252Y-85806332D01*
D13*
%TO.C,U3*%
X73192000Y-80599000D02*
X73192000Y-82124000D01*
X73062000Y-82474000D02*
X73062000Y-85674000D01*
X73062000Y-85674000D02*
X68162000Y-85674000D01*
X68162000Y-85674000D02*
X68162000Y-82474000D01*
X68162000Y-82474000D02*
X73062000Y-82474000D01*
D12*
%TO.C,R24*%
X75738936Y-77413000D02*
X76193064Y-77413000D01*
X75738936Y-75943000D02*
X76193064Y-75943000D01*
%TO.C,R23*%
X75738936Y-78371333D02*
X76193064Y-78371333D01*
X75738936Y-79841333D02*
X76193064Y-79841333D01*
%TO.C,R21*%
X75738936Y-88264665D02*
X76193064Y-88264665D01*
X75738936Y-89734665D02*
X76193064Y-89734665D01*
%TO.C,R22*%
X75738936Y-92163000D02*
X76193064Y-92163000D01*
X75738936Y-90693000D02*
X76193064Y-90693000D01*
%TO.C,C21*%
X75684748Y-84787999D02*
X76207252Y-84787999D01*
X75684748Y-83317999D02*
X76207252Y-83317999D01*
%TO.C,C20*%
X69669252Y-75973000D02*
X69146748Y-75973000D01*
X69669252Y-77443000D02*
X69146748Y-77443000D01*
%TO.C,C17*%
X65605252Y-81761000D02*
X65082748Y-81761000D01*
X65605252Y-80291000D02*
X65082748Y-80291000D01*
%TO.C,C18*%
X69923252Y-90663000D02*
X69400748Y-90663000D01*
X69923252Y-92133000D02*
X69400748Y-92133000D01*
%TO.C,C19*%
X65605252Y-86559855D02*
X65082748Y-86559855D01*
X65605252Y-88029855D02*
X65082748Y-88029855D01*
%TO.C,R14*%
X65551064Y-82390618D02*
X65096936Y-82390618D01*
X65551064Y-83860618D02*
X65096936Y-83860618D01*
%TO.C,R17*%
X69615064Y-79475000D02*
X69160936Y-79475000D01*
X69615064Y-78005000D02*
X69160936Y-78005000D01*
%TO.C,R16*%
X69869064Y-89848426D02*
X69414936Y-89848426D01*
X69869064Y-88378426D02*
X69414936Y-88378426D01*
%TO.C,R15*%
X65551064Y-84460236D02*
X65096936Y-84460236D01*
X65551064Y-85930236D02*
X65096936Y-85930236D01*
%TO.C,C27*%
X75684748Y-80829666D02*
X76207252Y-80829666D01*
X75684748Y-82299666D02*
X76207252Y-82299666D01*
%TO.C,C25*%
X73379000Y-77689252D02*
X73379000Y-77166748D01*
X71909000Y-77689252D02*
X71909000Y-77166748D01*
%TO.C,C24*%
X73633000Y-90416748D02*
X73633000Y-90939252D01*
X72163000Y-90416748D02*
X72163000Y-90939252D01*
D10*
%TO.C,Y2*%
X56120975Y-41562031D02*
X56120975Y-41562031D01*
X56191685Y-41632742D02*
X56191685Y-41632742D01*
X56120975Y-41562031D02*
G75*
G03*
X56191685Y-41632742I35355J-35355D01*
G01*
X56191685Y-41632742D02*
G75*
G03*
X56120975Y-41562031I-35355J35356D01*
G01*
D13*
%TO.C,C1*%
X30590000Y-32876000D02*
X29440000Y-32876000D01*
X30590000Y-28726000D02*
X30590000Y-32876000D01*
D14*
X27940000Y-26201000D02*
X27940000Y-26201000D01*
D13*
X29440000Y-27576000D02*
X30590000Y-28726000D01*
X25290000Y-28726000D02*
X25290000Y-32876000D01*
X26440000Y-27576000D02*
X25290000Y-28726000D01*
X25290000Y-32876000D02*
X26440000Y-32876000D01*
D14*
X27940000Y-26251000D02*
X27940000Y-26251000D01*
X27940000Y-26251000D02*
G75*
G03*
X27940000Y-26201000I0J25000D01*
G01*
X27940000Y-26201000D02*
G75*
G03*
X27940000Y-26251000I0J-25000D01*
G01*
D12*
%TO.C,L2*%
X37846000Y-34798000D02*
X37846000Y-41910000D01*
X37846000Y-41910000D02*
X44958000Y-41910000D01*
X44958000Y-34798000D02*
X37846000Y-34798000D01*
X44958000Y-41910000D02*
X44958000Y-34798000D01*
%TO.C,L1*%
X76200000Y-41622000D02*
X76200000Y-37558000D01*
X72186800Y-41622000D02*
X76200000Y-41622000D01*
X76200000Y-37558000D02*
X72186800Y-37558000D01*
X72186800Y-37558000D02*
X72186800Y-41622000D01*
D13*
%TO.C,C9*%
X22411000Y-41792000D02*
X19186000Y-41792000D01*
X24536000Y-46092000D02*
X19186000Y-46092000D01*
D12*
%TO.C,C6*%
X25681000Y-40713252D02*
X25681000Y-40190748D01*
X27151000Y-40713252D02*
X27151000Y-40190748D01*
D13*
%TO.C,C33*%
X51875000Y-32648000D02*
X48650000Y-32648000D01*
X54000000Y-36948000D02*
X48650000Y-36948000D01*
D12*
%TO.C,C31*%
X73652748Y-35299000D02*
X74175252Y-35299000D01*
X73652748Y-36769000D02*
X74175252Y-36769000D01*
%TO.C,C3*%
X32793000Y-29390748D02*
X32793000Y-29913252D01*
X34263000Y-29390748D02*
X34263000Y-29913252D01*
D13*
%TO.C,J4*%
X16880000Y-71790000D02*
X16880000Y-71790000D01*
D10*
X14880000Y-63290000D02*
X14880000Y-63290000D01*
X23380000Y-62790000D02*
X23380000Y-62790000D01*
X23380000Y-62790000D02*
X31880000Y-62790000D01*
X14880000Y-63290000D02*
X14880000Y-68290000D01*
X31880000Y-67040000D02*
X31880000Y-67040000D01*
X27130000Y-68790000D02*
X27130000Y-68790000D01*
X31880000Y-62790000D02*
X31880000Y-62790000D01*
X17130000Y-62790000D02*
X16380000Y-62790000D01*
X16380000Y-63290000D02*
X14880000Y-63290000D01*
X14880000Y-68290000D02*
X14880000Y-63290000D01*
X31880000Y-68790000D02*
X31130000Y-68790000D01*
X16380000Y-62790000D02*
X16380000Y-62790000D01*
X27130000Y-68790000D02*
X21380000Y-68790000D01*
X14880000Y-68290000D02*
X14880000Y-68290000D01*
X31130000Y-68790000D02*
X31130000Y-68790000D01*
X17130000Y-62790000D02*
X17130000Y-62790000D01*
X16380000Y-67540000D02*
X16380000Y-62790000D01*
X14880000Y-63290000D02*
X14880000Y-63290000D01*
X16380000Y-67540000D02*
X16380000Y-67540000D01*
X31880000Y-68790000D02*
X31880000Y-67040000D01*
X31880000Y-62790000D02*
X31880000Y-63040000D01*
X16380000Y-62790000D02*
X16380000Y-62790000D01*
X31880000Y-68790000D02*
X31880000Y-68790000D01*
X15380000Y-68290000D02*
X15380000Y-68290000D01*
X21380000Y-68790000D02*
X27130000Y-68790000D01*
X16380000Y-62790000D02*
X17130000Y-62790000D01*
X16380000Y-63290000D02*
X16380000Y-63290000D01*
X14880000Y-68290000D02*
X14880000Y-68290000D01*
X31880000Y-62790000D02*
X31880000Y-62790000D01*
X31130000Y-68790000D02*
X31880000Y-68790000D01*
X31880000Y-62790000D02*
X23380000Y-62790000D01*
X14880000Y-68290000D02*
X15380000Y-68290000D01*
D13*
X16880000Y-71890000D02*
X16880000Y-71890000D01*
D10*
X21380000Y-68790000D02*
X21380000Y-68790000D01*
D13*
X16880000Y-71790000D02*
X16880000Y-71790000D01*
D10*
X31880000Y-67040000D02*
X31880000Y-68790000D01*
X16380000Y-62790000D02*
X16380000Y-67540000D01*
X31880000Y-63040000D02*
X31880000Y-62790000D01*
X14880000Y-63290000D02*
X16380000Y-63290000D01*
X15380000Y-68290000D02*
X14880000Y-68290000D01*
X31880000Y-68790000D02*
X31880000Y-68790000D01*
X31880000Y-63040000D02*
X31880000Y-63040000D01*
D13*
X16880000Y-71790000D02*
G75*
G03*
X16880000Y-71890000I0J-50000D01*
G01*
X16880000Y-71790000D02*
G75*
G03*
X16880000Y-71890000I0J-50000D01*
G01*
X16880000Y-71890000D02*
G75*
G03*
X16880000Y-71790000I0J50000D01*
G01*
D10*
%TO.C,J3*%
X112960000Y-69832000D02*
X112960000Y-67282000D01*
X98960000Y-61732000D02*
X98960000Y-69832000D01*
X111760000Y-70382000D02*
X111760000Y-70382000D01*
X112960000Y-61732000D02*
X98960000Y-61732000D01*
X112960000Y-63632000D02*
X116960000Y-63632000D01*
X98960000Y-69832000D02*
X112960000Y-69832000D01*
X116960000Y-69632000D02*
X112960000Y-69632000D01*
X116960000Y-63632000D02*
X116960000Y-69632000D01*
X112960000Y-64282000D02*
X112960000Y-61732000D01*
X111860000Y-70382000D02*
X111860000Y-70382000D01*
X111860000Y-70382000D02*
G75*
G03*
X111760000Y-70382000I-50000J0D01*
G01*
X111760000Y-70382000D02*
G75*
G03*
X111860000Y-70382000I50000J0D01*
G01*
D13*
%TO.C,S2*%
X80514998Y-60036000D02*
X92514998Y-60036000D01*
X80514998Y-70536000D02*
X80514998Y-72036000D01*
D10*
X78814998Y-63636000D02*
X78814998Y-63636000D01*
X78714998Y-63636000D02*
X78714998Y-63636000D01*
D13*
X92514998Y-60036000D02*
X92514998Y-62036000D01*
X80514998Y-62036000D02*
X80514998Y-60036000D01*
X92514998Y-72036000D02*
X92514998Y-70536000D01*
X92514998Y-70036000D02*
X92514998Y-70536000D01*
X80514998Y-72036000D02*
X92514998Y-72036000D01*
X80514998Y-70036000D02*
X80514998Y-70536000D01*
D10*
X78814998Y-63636000D02*
G75*
G03*
X78714998Y-63636000I-50000J0D01*
G01*
X78714998Y-63636000D02*
G75*
G03*
X78814998Y-63636000I50000J0D01*
G01*
D13*
%TO.C,S1*%
X40925000Y-70290000D02*
X40925000Y-70790000D01*
X40925000Y-70790000D02*
X40925000Y-72290000D01*
X40925000Y-60290000D02*
X52925000Y-60290000D01*
D10*
X39125000Y-63890000D02*
X39125000Y-63890000D01*
D13*
X52925000Y-70290000D02*
X52925000Y-70790000D01*
D10*
X39225000Y-63890000D02*
X39225000Y-63890000D01*
D13*
X40925000Y-62290000D02*
X40925000Y-60290000D01*
X52925000Y-72290000D02*
X52925000Y-70790000D01*
X52925000Y-60290000D02*
X52925000Y-62290000D01*
X40925000Y-72290000D02*
X52925000Y-72290000D01*
D10*
X39225000Y-63890000D02*
G75*
G03*
X39125000Y-63890000I-50000J0D01*
G01*
X39125000Y-63890000D02*
G75*
G03*
X39225000Y-63890000I50000J0D01*
G01*
D13*
%TO.C,IC5*%
X61870000Y-37948000D02*
X61870000Y-31648000D01*
X61870000Y-31648000D02*
X68170000Y-31648000D01*
X68170000Y-31648000D02*
X68170000Y-37948000D01*
X68170000Y-37948000D02*
X61870000Y-37948000D01*
D11*
X60620000Y-30798000D02*
G75*
G03*
X60620000Y-30798000I-200000J0D01*
G01*
D13*
%TO.C,IC2*%
X22808000Y-38326000D02*
X16308000Y-38326000D01*
X16308000Y-38326000D02*
X16308000Y-34826000D01*
X22808000Y-34826000D02*
X22808000Y-38326000D01*
X16458000Y-40601000D02*
X16458000Y-38751000D01*
X16308000Y-34826000D02*
X22808000Y-34826000D01*
D10*
%TO.C,U2*%
X25020000Y-23320000D02*
X25020000Y-49320000D01*
X105020000Y-49320000D02*
X105020000Y-23320000D01*
X100020000Y-18320000D02*
X30020000Y-18320000D01*
X30020000Y-54320000D02*
X100020000Y-54320000D01*
D12*
%TO.C,SW1*%
X60819999Y-72413000D02*
X60819999Y-68445000D01*
X72619999Y-60413000D02*
X72619999Y-64381000D01*
X72619999Y-72413000D02*
X72619999Y-68445000D01*
X72619999Y-60413000D02*
X60819999Y-60413000D01*
X72619999Y-72413000D02*
X60819999Y-72413000D01*
X60819999Y-60413000D02*
X60819999Y-64381000D01*
%TO.C,R2*%
X43764564Y-90651000D02*
X43310436Y-90651000D01*
X43764564Y-89181000D02*
X43310436Y-89181000D01*
%TO.C,R1*%
X43764564Y-86895000D02*
X43310436Y-86895000D01*
X43764564Y-88365000D02*
X43310436Y-88365000D01*
%TO.C,Y1*%
X36830000Y-83413600D02*
X36830000Y-85750400D01*
X38862000Y-85750400D02*
X38862000Y-83413600D01*
X36830000Y-85750400D02*
X38862000Y-85750400D01*
X38862000Y-83413600D02*
X36830000Y-83413600D01*
%TO.C,C4*%
X44477000Y-81099252D02*
X44477000Y-80576748D01*
X45947000Y-81099252D02*
X45947000Y-80576748D01*
D13*
%TO.C,D2*%
X38062000Y-82282000D02*
X38062000Y-78607000D01*
X39662000Y-81257000D02*
X39662000Y-78607000D01*
%TO.C,IC1*%
X40280000Y-83082000D02*
X41680000Y-83082000D01*
X44330000Y-86082000D02*
X42030000Y-86082000D01*
X42030000Y-83082000D02*
X44330000Y-83082000D01*
X44330000Y-83082000D02*
X44330000Y-86082000D01*
X42030000Y-86082000D02*
X42030000Y-83082000D01*
%TO.C,D3*%
X43218000Y-81257000D02*
X43218000Y-78607000D01*
X41618000Y-82282000D02*
X41618000Y-78607000D01*
%TO.C,D1*%
X18570000Y-31247000D02*
X22070000Y-31247000D01*
X17655000Y-28697000D02*
X22070000Y-28697000D01*
D12*
%TO.C,C28*%
X34771000Y-88079252D02*
X34771000Y-87556748D01*
X33301000Y-88079252D02*
X33301000Y-87556748D01*
%TO.C,C32*%
X51315252Y-31469000D02*
X50792748Y-31469000D01*
X51315252Y-29999000D02*
X50792748Y-29999000D01*
%TO.C,J5*%
X7192000Y-101479000D02*
X-4808000Y-101479000D01*
X-4808000Y-101479000D02*
X-4808000Y-91879000D01*
X-4808000Y-91879000D02*
X7192000Y-91879000D01*
X7192000Y-91879000D02*
X7192000Y-101479000D01*
X30792000Y-104029000D02*
X16692000Y-104029000D01*
X16692000Y-104029000D02*
X16692000Y-89329000D01*
X16692000Y-89329000D02*
X30792000Y-89329000D01*
X30792000Y-89329000D02*
X30792000Y-104029000D01*
X16692000Y-102829000D02*
X7192000Y-102829000D01*
X7192000Y-102829000D02*
X7192000Y-90529000D01*
X7192000Y-90529000D02*
X16692000Y-90529000D01*
X16692000Y-90529000D02*
X16692000Y-102829000D01*
%TD*%
D15*
%TO.C,J4*%
X20880000Y-65790000D03*
X27880000Y-65790000D03*
%TD*%
D16*
%TO.C,J3*%
X111760000Y-65782000D03*
X109310000Y-67782000D03*
D17*
X103710000Y-67782000D03*
%TD*%
D18*
%TO.C,S2*%
X80264998Y-63536000D03*
D19*
X92764998Y-63536000D03*
X80264998Y-68536000D03*
X92764998Y-68536000D03*
%TD*%
D18*
%TO.C,S1*%
X40675000Y-63790000D03*
D19*
X53175000Y-63790000D03*
X40675000Y-68790000D03*
X53175000Y-68790000D03*
%TD*%
D20*
%TO.C,U2*%
X33020000Y-20320000D03*
D21*
X35560000Y-20320000D03*
X38100000Y-20320000D03*
X40640000Y-20320000D03*
X43180000Y-20320000D03*
X45720000Y-20320000D03*
X48260000Y-20320000D03*
X50800000Y-20320000D03*
X53340000Y-20320000D03*
X55880000Y-20320000D03*
X58420000Y-20320000D03*
X60960000Y-20320000D03*
X63500000Y-20320000D03*
X66040000Y-20320000D03*
X68580000Y-20320000D03*
X71120000Y-20320000D03*
D22*
X27520000Y-20820000D03*
X102520000Y-20820000D03*
X102520000Y-51820000D03*
X27520000Y-51820000D03*
%TD*%
M02*
