M48
; DRILL file {KiCad (6.0.0)} date Fri Jan 14 09:34:11 2022
; FORMAT={-:-/ absolute / metric / decimal}
; #@! TF.CreationDate,2022-01-14T09:34:11+02:00
; #@! TF.GenerationSoftware,Kicad,Pcbnew,(6.0.0)
; #@! TF.FileFunction,Plated,1,2,PTH
FMAT,2
METRIC
; #@! TA.AperFunction,Plated,PTH,ViaDrill
T1C0.400
; #@! TA.AperFunction,Plated,PTH,ComponentDrill
T2C0.750
; #@! TA.AperFunction,Plated,PTH,ComponentDrill
T3C1.000
; #@! TA.AperFunction,Plated,PTH,ComponentDrill
T4C1.300
; #@! TA.AperFunction,Plated,PTH,ComponentDrill
T5C1.700
; #@! TA.AperFunction,Plated,PTH,ComponentDrill
T6C2.000
; #@! TA.AperFunction,Plated,PTH,ComponentDrill
T7C2.500
; #@! TA.AperFunction,Plated,PTH,ComponentDrill
T8C2.700
; #@! TA.AperFunction,Plated,PTH,ComponentDrill
T9C3.000
%
G90
G05
T1
X16.51Y-44.196
X17.018Y-83.566
X17.272Y-88.646
X17.78Y-36.83
X17.78Y-67.056
X17.78Y-74.168
X18.034Y-31.75
X18.034Y-35.052
X18.034Y-78.232
X18.288Y-37.846
X18.288Y-48.26
X18.415Y-88.011
X18.796Y-101.854
X19.05Y-35.814
X19.304Y-65.278
X19.443Y-94.984
X19.558Y-57.658
X19.558Y-102.616
X20.32Y-29.718
X20.32Y-30.734
X20.32Y-35.052
X20.32Y-81.788
X20.32Y-103.378
X20.355Y-94.558
X21.082Y-104.14
X21.336Y-87.376
X21.59Y-50.292
X21.844Y-37.592
X21.844Y-68.58
X22.098Y-75.946
X22.098Y-105.156
X22.317Y-64.184
X22.352Y-33.274
X22.352Y-101.854
X22.606Y-36.83
X22.606Y-79.502
X22.86Y-65.786
X22.86Y-86.614
X23.114Y-102.616
X23.114Y-106.172
X23.622Y-32.258
X23.876Y-103.378
X23.876Y-107.188
X24.13Y-56.388
X24.13Y-88.392
X24.384Y-71.12
X24.384Y-73.152
X24.638Y-83.312
X24.638Y-104.14
X25.146Y-107.188
X25.654Y-70.866
X25.654Y-78.994
X25.654Y-104.648
X26.162Y-88.646
X26.416Y-94.742
X26.416Y-107.188
X26.67Y-73.152
X26.924Y-104.648
X27.178Y-84.582
X27.686Y-76.2
X27.686Y-107.188
X27.94Y-79.248
X28.194Y-104.648
X28.448Y-88.646
X28.956Y-96.266
X28.956Y-97.282
X28.956Y-107.188
X29.21Y-45.466
X29.21Y-56.642
X29.464Y-104.648
X29.718Y-74.422
X29.718Y-95.25
X29.746Y-65.25
X29.972Y-84.328
X30.226Y-107.188
X30.48Y-88.646
X30.734Y-104.648
X30.988Y-76.962
X30.988Y-94.996
X31.496Y-107.188
X31.75Y-50.8
X32.004Y-95.504
X32.004Y-104.648
X32.258Y-88.646
X32.512Y-69.596
X32.512Y-83.566
X32.512Y-98.044
X32.766Y-107.188
X33.02Y-95.504
X33.274Y-73.152
X33.274Y-85.598
X33.274Y-104.648
X33.528Y-74.93
X33.782Y-48.768
X33.782Y-55.372
X33.782Y-79.502
X33.782Y-81.534
X33.782Y-98.044
X34.036Y-107.188
X34.29Y-95.504
X34.544Y-104.648
X34.798Y-43.18
X35.052Y-50.8
X35.052Y-98.044
X35.306Y-73.406
X35.306Y-107.188
X35.56Y-57.15
X35.56Y-79.248
X35.56Y-82.296
X35.56Y-85.09
X35.56Y-95.504
X35.814Y-89.408
X35.814Y-104.648
X36.068Y-91.44
X36.322Y-69.342
X36.322Y-98.044
X36.576Y-107.188
X36.646Y-74.984
X36.83Y-48.768
X36.83Y-72.136
X36.83Y-90.678
X36.83Y-95.504
X37.084Y-98.806
X37.084Y-104.648
X37.338Y-82.042
X37.846Y-76.2
X37.846Y-78.74
X37.846Y-91.694
X37.846Y-96.012
X37.846Y-107.188
X38.1Y-51.054
X38.1Y-99.822
X38.122Y-73.511
X38.354Y-104.648
X38.608Y-96.774
X38.862Y-86.868
X39.116Y-100.838
X39.116Y-107.188
X39.297Y-84.528
X39.37Y-33.02
X39.37Y-74.676
X39.624Y-97.79
X39.624Y-104.648
X39.878Y-48.768
X39.878Y-76.708
X39.996Y-90.844
X40.132Y-101.854
X40.386Y-82.042
X40.386Y-107.188
X40.64Y-86.614
X40.64Y-98.806
X40.64Y-103.124
X40.762Y-88.826
X40.894Y-75.692
X40.894Y-104.648
X41.402Y-35.814
X41.402Y-37.084
X41.402Y-38.354
X41.402Y-39.624
X41.402Y-40.894
X41.656Y-99.822
X41.656Y-103.632
X41.656Y-107.188
X41.698Y-91.207
X42.164Y-71.882
X42.164Y-104.648
X42.926Y-33.274
X42.926Y-100.33
X42.926Y-107.188
X43.18Y-84.836
X43.434Y-57.404
X43.434Y-96.266
X43.434Y-104.648
X43.688Y-83.058
X43.942Y-101.092
X43.942Y-102.108
X44.196Y-107.188
X44.45Y-59.69
X44.45Y-104.648
X44.958Y-51.054
X44.958Y-53.34
X45.212Y-102.108
X45.466Y-68.58
X45.466Y-72.136
X45.466Y-107.188
X45.72Y-87.122
X45.72Y-89.916
X45.72Y-104.648
X46.228Y-24.13
X46.482Y-102.108
X46.736Y-81.534
X46.736Y-104.648
X46.736Y-107.188
X46.99Y-45.974
X47.244Y-42.164
X47.498Y-60.96
X47.498Y-63.5
X47.498Y-85.09
X47.517Y-91.864
X47.752Y-80.518
X47.752Y-86.36
X47.752Y-88.138
X47.752Y-89.916
X48.006Y-107.696
X48.26Y-74.422
X48.514Y-83.058
X48.768Y-64.008
X48.768Y-79.756
X49.022Y-85.09
X49.022Y-91.694
X49.022Y-94.234
X49.276Y-40.386
X49.276Y-42.926
X49.276Y-57.404
X49.276Y-107.442
X49.53Y-59.436
X49.53Y-69.85
X49.53Y-104.394
X49.779Y-81.788
X49.784Y-46.736
X49.784Y-60.96
X49.784Y-62.992
X49.784Y-102.616
X50.038Y-55.118
X50.038Y-79.502
X50.038Y-103.632
X50.038Y-105.41
X50.038Y-106.426
X50.292Y-66.802
X50.292Y-84.328
X50.421Y-85.964
X51.054Y-63.5
X51.308Y-79.502
X51.816Y-60.706
X52.07Y-41.148
X52.324Y-100.584
X52.578Y-43.434
X52.578Y-79.502
X52.832Y-105.664
X53.34Y-97.536
X53.594Y-53.086
X53.594Y-82.804
X53.848Y-57.404
X53.848Y-79.502
X54.102Y-49.784
X54.102Y-59.944
X54.356Y-30.988
X54.356Y-33.02
X54.356Y-61.214
X54.356Y-85.09
X54.61Y-27.686
X54.61Y-46.228
X54.61Y-99.568
X54.864Y-62.992
X54.864Y-80.518
X54.864Y-83.312
X54.864Y-109.22
X55.626Y-45.212
X55.626Y-46.99
X55.626Y-48.768
X55.626Y-50.8
X55.626Y-55.372
X55.626Y-85.852
X55.88Y-81.534
X56.134Y-84.328
X56.388Y-32.258
X56.388Y-35.56
X56.388Y-97.282
X56.642Y-23.876
X56.642Y-29.464
X56.642Y-91.186
X56.642Y-92.456
X56.896Y-43.18
X57.15Y-53.34
X57.15Y-93.726
X57.658Y-94.996
X57.912Y-46.99
X57.912Y-48.768
X57.912Y-50.8
X58.166Y-37.846
X58.166Y-45.212
X58.42Y-99.314
X58.674Y-17.526
X58.674Y-96.012
X58.928Y-42.926
X59.436Y-57.404
X59.436Y-88.138
X59.436Y-90.678
X59.436Y-93.98
X59.689Y-97.101
X59.944Y-89.408
X59.944Y-92.71
X59.993Y-91.607
X60.198Y-45.212
X60.198Y-46.99
X60.198Y-48.768
X60.198Y-50.8
X60.198Y-53.34
X60.198Y-78.232
X60.452Y-23.368
X60.452Y-25.654
X60.452Y-41.656
X60.452Y-94.996
X60.706Y-107.442
X60.96Y-39.878
X61.214Y-84.074
X61.214Y-86.614
X61.214Y-89.916
X61.214Y-97.282
X61.468Y-42.672
X61.468Y-77.724
X61.468Y-80.01
X61.468Y-82.296
X61.722Y-95.25
X61.976Y-21.59
X61.976Y-87.884
X62.484Y-32.004
X62.484Y-45.212
X62.484Y-46.99
X62.484Y-48.768
X62.484Y-50.8
X62.484Y-53.086
X62.484Y-97.282
X62.738Y-23.622
X62.738Y-33.528
X62.738Y-77.724
X62.738Y-84.074
X62.738Y-89.916
X62.992Y-80.01
X62.992Y-82.296
X62.992Y-95.25
X63.754Y-64.008
X63.754Y-97.282
X64.008Y-55.372
X64.008Y-57.15
X64.008Y-77.724
X64.262Y-33.782
X64.262Y-40.894
X64.262Y-45.212
X64.262Y-46.99
X64.262Y-48.768
X64.262Y-89.916
X64.262Y-95.25
X64.516Y-35.052
X64.612Y-51.219
X64.77Y-23.114
X64.77Y-28.194
X65.024Y-97.282
X65.024Y-101.092
X65.136Y-36.792
X65.278Y-77.724
X65.31Y-52.916
X65.532Y-95.25
X65.682Y-25.526
X65.786Y-46.99
X65.786Y-48.768
X65.786Y-89.916
X66.04Y-22.352
X66.04Y-43.18
X66.294Y-97.282
X66.408Y-36.987
X66.548Y-46.228
X66.548Y-49.784
X66.548Y-77.724
X66.802Y-47.752
X66.802Y-95.25
X66.833Y-53.537
X66.891Y-50.773
X67.056Y-28.956
X67.056Y-41.91
X67.056Y-89.916
X67.31Y-22.606
X67.31Y-23.876
X67.31Y-45.212
X67.564Y-36.83
X67.564Y-46.99
X67.564Y-48.768
X67.564Y-84.836
X67.564Y-97.282
X67.818Y-26.924
X67.818Y-87.884
X67.977Y-55.264
X68.072Y-95.25
X68.326Y-43.688
X68.579Y-52.131
X68.58Y-28.956
X68.646Y-84.582
X68.834Y-39.878
X68.834Y-66.802
X68.834Y-97.282
X68.959Y-22.171
X69.088Y-45.466
X69.088Y-46.99
X69.088Y-48.768
X69.088Y-105.918
X69.342Y-41.148
X69.342Y-95.25
X69.596Y-17.018
X69.596Y-71.374
X69.596Y-90.17
X69.85Y-83.82
X70.104Y-97.282
X70.14Y-57.262
X70.325Y-54.158
X70.358Y-18.034
X70.612Y-45.466
X70.612Y-46.99
X70.612Y-95.25
X70.768Y-48.702
X70.866Y-25.146
X71.12Y-30.734
X71.12Y-42.926
X71.374Y-69.088
X71.374Y-73.406
X71.374Y-97.282
X71.628Y-38.608
X71.628Y-40.132
X71.882Y-83.82
X71.882Y-95.25
X72.071Y-56.02
X72.39Y-43.18
X72.39Y-44.704
X72.39Y-88.392
X72.64Y-48.751
X72.644Y-71.628
X72.644Y-97.282
X72.688Y-46.937
X72.817Y-74.58
X73.152Y-93.472
X73.152Y-95.25
X73.406Y-84.328
X73.509Y-80.81
X73.66Y-86.106
X73.831Y-75.739
X73.914Y-97.282
X74.168Y-19.558
X74.168Y-42.164
X74.422Y-44.196
X74.422Y-45.974
X74.422Y-69.088
X74.422Y-95.25
X74.676Y-26.924
X74.676Y-29.21
X74.93Y-93.472
X75.053Y-91.428
X75.184Y-73.914
X75.184Y-97.282
X75.438Y-102.87
X75.511Y-48.149
X75.692Y-69.342
X75.692Y-95.25
X75.946Y-65.278
X76.032Y-87.842
X76.2Y-22.606
X76.454Y-71.882
X76.454Y-97.282
X76.708Y-93.472
X76.962Y-95.25
X77.724Y-29.21
X77.724Y-64.262
X77.724Y-92.71
X77.724Y-97.282
X77.978Y-69.088
X77.978Y-80.264
X77.978Y-87.884
X78.232Y-91.694
X78.232Y-95.25
X78.74Y-74.93
X78.994Y-21.336
X78.994Y-33.274
X78.994Y-90.678
X79.248Y-23.876
X79.248Y-57.912
X79.248Y-97.282
X79.502Y-26.67
X79.502Y-43.942
X79.502Y-94.488
X80.01Y-78.232
X80.264Y-96.52
X80.518Y-93.472
X80.89Y-86.655
X81.026Y-87.884
X81.026Y-89.408
X81.026Y-90.932
X81.026Y-92.202
X81.28Y-27.432
X81.28Y-29.21
X81.28Y-95.504
X81.788Y-36.322
X82.296Y-72.898
X82.296Y-94.488
X82.55Y-20.32
X82.55Y-105.156
X82.804Y-26.67
X82.804Y-80.264
X83.058Y-49.784
X83.058Y-88.392
X83.058Y-89.662
X83.058Y-90.932
X83.058Y-92.202
X83.058Y-93.472
X83.312Y-23.622
X83.566Y-98.298
X84.074Y-77.724
X84.836Y-34.036
X85.09Y-20.32
X85.09Y-39.37
X85.469Y-89.083
X85.573Y-109.633
X85.598Y-80.01
X85.598Y-90.17
X85.598Y-91.44
X85.598Y-92.71
X85.598Y-93.98
X85.598Y-95.504
X85.598Y-97.028
X85.598Y-98.552
X85.598Y-100.076
X85.598Y-101.6
X85.708Y-107.732
X85.852Y-102.87
X86.868Y-75.946
X86.868Y-103.886
X87.122Y-42.164
X87.122Y-45.466
X87.122Y-49.53
X87.122Y-53.086
X87.122Y-57.15
X87.122Y-60.96
X87.122Y-65.532
X87.122Y-72.136
X87.376Y-36.83
X87.542Y-107.683
X87.629Y-109.662
X87.63Y-86.868
X87.63Y-87.884
X87.63Y-90.678
X87.63Y-92.202
X87.63Y-93.472
X87.63Y-94.742
X87.63Y-96.266
X87.63Y-97.79
X87.63Y-99.06
X87.63Y-100.33
X87.63Y-101.6
X88.138Y-104.394
X88.646Y-102.362
X88.722Y-90.816
X88.9Y-29.21
X89.408Y-80.01
X89.576Y-90.205
X89.662Y-86.106
X89.662Y-87.122
X90.17Y-88.138
X90.424Y-39.624
X90.622Y-90.251
X91.186Y-87.63
X91.439Y-90.852
X91.694Y-44.958
X91.694Y-57.15
X91.694Y-99.568
X91.694Y-102.108
X91.948Y-104.394
X92.202Y-52.07
X92.202Y-80.264
X92.202Y-87.376
X92.632Y-33.02
X92.632Y-90.788
X92.71Y-99.568
X92.71Y-102.108
X93.218Y-87.884
X93.218Y-103.886
X93.472Y-89.916
X93.472Y-106.426
X93.726Y-88.9
X93.726Y-102.108
X93.98Y-99.568
X94.488Y-81.28
X94.488Y-85.09
X94.742Y-79.502
X94.742Y-98.806
X94.742Y-102.108
X95.25Y-35.052
X95.25Y-103.886
X95.504Y-87.376
X95.504Y-88.392
X95.504Y-89.408
X95.504Y-90.424
X95.504Y-91.44
X95.504Y-92.456
X95.504Y-93.472
X95.504Y-94.488
X95.504Y-95.504
X95.504Y-96.52
X95.504Y-97.79
X95.758Y-101.346
X96.012Y-86.614
X96.266Y-77.978
X96.52Y-100.584
X96.774Y-85.852
X97.028Y-83.058
X97.282Y-99.822
X97.79Y-22.606
X97.79Y-85.598
X98.044Y-76.2
X98.044Y-88.138
X98.044Y-89.154
X98.044Y-90.17
X98.044Y-95.25
X98.044Y-96.266
X98.044Y-97.282
X98.298Y-72.898
X98.298Y-91.186
X98.298Y-94.234
X98.552Y-99.822
X98.806Y-85.598
X99.06Y-88.138
X99.314Y-91.44
X99.314Y-93.98
X99.314Y-97.282
X100.33Y-65.532
X100.584Y-68.58
X101.092Y-16.51
X101.346Y-39.37
X101.346Y-45.974
X101.6Y-33.274
X101.6Y-78.994
X102.108Y-109.22
X104.14Y-83.312
X104.902Y-57.658
X104.902Y-85.598
X104.902Y-106.68
X105.918Y-72.898
X106.68Y-109.728
X108.966Y-42.926
X108.966Y-87.376
X109.22Y-97.536
X109.474Y-32.512
X109.474Y-52.07
X109.474Y-91.44
X109.728Y-24.892
X109.728Y-76.454
X109.728Y-83.566
X110.744Y-99.314
X110.998Y-62.738
X111.252Y-58.166
X112.014Y-89.662
X112.014Y-103.632
X112.522Y-86.106
T2
X86.36Y-84.582
X87.63Y-83.312
X88.9Y-84.582
X99.78Y-105.664
X100.33Y-86.868
X100.33Y-89.408
X100.33Y-92.71
X100.33Y-95.25
X100.33Y-98.552
X100.33Y-101.092
X101.05Y-104.394
X101.05Y-106.934
X101.6Y-88.138
X101.6Y-93.98
X101.6Y-99.822
T3
X30.792Y-96.679
X30.792Y-99.219
X33.02Y-20.32
X35.56Y-20.32
X38.1Y-20.32
X40.64Y-20.32
X43.18Y-20.32
X45.72Y-20.32
X48.26Y-20.32
X48.26Y-98.298
X48.26Y-100.838
X48.26Y-103.378
X48.26Y-105.918
X50.8Y-20.32
X53.34Y-20.32
X55.88Y-20.32
X58.42Y-20.32
X60.96Y-20.32
X63.5Y-20.32
X64.22Y-58.913
X64.22Y-73.413
X66.04Y-20.32
X66.72Y-58.913
X68.58Y-20.32
X69.22Y-58.913
X69.22Y-73.413
X71.12Y-20.32
X81.28Y-18.085
X83.82Y-18.085
X86.36Y-18.085
X88.9Y-18.085
X90.17Y-98.298
X90.17Y-100.838
X90.17Y-103.378
X90.17Y-105.918
X91.44Y-18.085
X93.98Y-18.085
T4
X40.675Y-63.79
X40.675Y-68.79
X53.175Y-63.79
X53.175Y-68.79
X80.265Y-63.536
X80.265Y-68.536
X92.765Y-63.536
X92.765Y-68.536
T5
X20.88Y-65.79
X27.88Y-65.79
T6
X25.712Y-91.599
X25.712Y-101.759
X103.71Y-67.782
X109.31Y-67.782
X111.76Y-65.782
T7
X27.52Y-20.82
X27.52Y-51.82
X102.52Y-20.82
X102.52Y-51.82
T8
X60.32Y-66.413
X73.12Y-66.413
T9
X18.796Y-18.796
X18.796Y-108.204
X110.998Y-18.796
X110.998Y-108.204
T0
M30
